<?xml version="1.0" encoding="utf-8"?>
<svg width="64px" height="64px" viewBox="0 0 64 64" version="1.1" xmlns="http://www.w3.org/2000/svg" xmlns:xlink="http://www.w3.org/1999/xlink">
  <g fill-rule="evenodd">
    <g fill-rule="nonzero">
      <path d="M54.2026,9.758 C48.1186,3.9506 40.2964,0.59256319 32,0.59256319 C23.7037,0.59256319 15.6445,3.9506 9.7975,9.7975 C-2.52844044,22.1235 -2.52844044,41.8765 9.7975,54.2025 C15.6049,60.0099 23.7037,63.3679 32,63.3679 C40.2964,63.3679 48.3556,60.0099 54.2026,54.163 C66.5285,41.837 66.5285,22.1235 54.2026,9.758 Z M51.0421,51.042 C45.8668,56.2173 39.1507,58.9038 31.9605,58.9038 C24.7704,58.9038 18.0543,56.2173 12.879,51.042 C2.3704,40.4939 2.3704,23.4667 12.9185,12.9185 C18.0938,7.7432 24.8099,5.0568 32,5.0568 C39.1902,5.0568 45.9063,7.7432 51.0816,12.9185 C61.5902,23.4667 61.5902,40.4939 51.0421,51.042 Z M34.2124,18.2913 C34.2124,16.9481 33.3038,16.0395 31.9606,16.0395 C30.6174,16.0395 29.7087,16.9481 29.7087,18.2913 L29.7087,29.7482 L18.2519,29.7482 C16.9087,29.7482 16,30.6568 16,32 C16,32.6716 16.2371,33.1062 16.6716,33.5803 C17.1062,34.0148 17.5803,34.2519 18.2519,34.2519 L29.7087,34.2519 L29.7087,45.7087 C29.7087,46.3803 29.9458,46.8149 30.3803,47.2889 C30.8149,47.7235 31.289,47.9606 31.9606,47.9606 C33.3038,47.9606 34.2124,47.0519 34.2124,45.7087 L34.2124,34.2519 L45.6693,34.2519 C47.0125,34.2519 47.9211,33.3432 47.9211,32 C47.9211,30.6568 47.0125,29.7482 45.6693,29.7482 L34.2124,29.7482 L34.2124,18.2913 Z"></path>
    </g>
  </g>
</svg>