<?xml version="1.0" encoding="utf-8"?>
<svg width="64px" height="64px" viewBox="0 0 64 64" version="1.1" xmlns="http://www.w3.org/2000/svg" xmlns:xlink="http://www.w3.org/1999/xlink">
  <g fill-rule="evenodd">
    <g fill-rule="nonzero">
      <path d="M54.9519,1.42108547e-14 C59.9598,1.59872136e-14 64.0001,4.0384 64.0001,9.0501 L64.0001,54.9499 C64.0001,59.9598 59.9598,64.0001 54.9519,64.0001 L9.0522,64.0001 C4.0403,64.0001 1.42108547e-14,59.9597 1.42108547e-14,54.9499 L1.42108547e-14,9.0501 C1.42108547e-14,4.0384 4.0403547,1.42108547e-14 9.0522,1.42108547e-14 L54.9519,1.42108547e-14 Z M35.7823,35.7804 L51.2006,35.7804 L51.2006,28.1864 L35.7821,28.1864 L35.7821,12.8012 L28.1844,12.8012 L28.1844,28.1864 L12.7992,28.1864 L12.7992,35.7804 L28.1846,35.7804 L28.1846,51.2009 L35.7823,51.2009 L35.7823,35.7804 Z"></path>
    </g>
  </g>
</svg>