<?xml version="1.0" encoding="utf-8"?>
<svg width="64px" height="64px" viewBox="0 0 64 64" version="1.1" xmlns="http://www.w3.org/2000/svg" xmlns:xlink="http://www.w3.org/1999/xlink">
  <g fill-rule="evenodd">
    <path d="M32,64.0001 C14.4,64.0001 0,49.6001 0,32 C0,14.4 14.4,1.42108547e-14 32,1.42108547e-14 C49.6001,1.42108547e-14 64.0001,14.4 64.0001,32 C64.0001,49.6001 49.6001,64.0001 32,64.0001 Z M29.8667,34.1333 L29.8667,47.5152 C29.8667,48.4461 31.0691,49.0667 32,49.0667 C32.9309,49.0667 34.1333,48.4461 34.1333,47.5152 L34.1333,34.1333 L47.5152,34.1333 C48.4461,34.1333 49.0667,32.9309 49.0667,32 C49.0667,31.0691 48.4461,29.8667 47.5152,29.8667 L34.1333,29.8667 L34.1333,16.4848 C34.1333,15.5539 32.9309,14.9333 32,14.9333 C31.0691,14.9333 29.8667,15.5539 29.8667,16.4848 L29.8667,29.8667 L16.4848,29.8667 C15.5539,29.8667 14.9333,31.0691 14.9333,32 C14.9333,32.9309 15.5539,34.1333 16.4848,34.1333 L29.8667,34.1333 Z"></path>
  </g>
</svg>