<?xml version="1.0" encoding="utf-8"?>
<svg width="64px" height="64px" viewBox="0 0 64 64" version="1.1" xmlns="http://www.w3.org/2000/svg" xmlns:xlink="http://www.w3.org/1999/xlink">
  <g fill-rule="evenodd">
    <path d="M51.4449,9.5937 L51.4449,9.4454 L51.2744,9.4454 L42.0732,1.4444544 L6.878,1.4444544 L6.878,62.5556 L28.6917,62.5556 L28.6917,59.6455 L9.788,59.6455 L9.788,4.3545 L40.074,4.3545 L40.074,12.3555 L49.9899,12.3555 L49.9899,33.8542 L52.9,33.8542 L52.9,10.8589 L51.4449,9.5937 Z M42.9841,6.093 L46.8396,9.4454 L42.9841,9.4454 L42.9841,6.093 Z M13.3986,14.6357 L39.2657,14.6357 L39.2657,17.5457 L13.3986,17.5457 L13.3986,14.6357 Z M13.3986,25.2419 L46.3793,25.2419 L46.3793,28.152 L13.3986,28.152 L13.3986,25.2419 Z M13.3986,35.8481 L22.2364,35.8481 L22.2364,38.7582 L13.3986,38.7582 L13.3986,35.8481 Z M13.3986,46.4544 L20.512,46.4544 L20.512,49.3644 L13.3986,49.3644 L13.3986,46.4544 Z M42.3369,33.3048 C34.1596,33.3048 27.5069,39.9574 27.5069,48.1347 C27.5069,56.3119 34.1596,62.9646 42.3369,62.9646 C50.514,62.9646 57.1666,56.3119 57.1666,48.1347 C57.1666,39.9574 50.514,33.3048 42.3369,33.3048 Z M42.3369,60.0545 C35.7642,60.0545 30.417,54.7072 30.417,48.1347 C30.417,41.5621 35.7642,36.2149 42.3369,36.2149 C48.9094,36.2149 54.2565,41.5621 54.2565,48.1347 C54.2565,54.7072 48.9094,60.0545 42.3369,60.0545 Z M43.7918,41.0211 L40.8818,41.0211 L40.8818,46.6813 L35.2232,46.6813 L35.2232,49.5913 L40.8818,49.5913 L40.8818,55.2499 L43.7918,55.2499 L43.7918,49.5913 L49.4503,49.5913 L49.4503,46.6813 L43.7918,46.6813 L43.7918,41.0211 Z" fill-rule="nonzero"></path>
  </g>
</svg>