<?xml version="1.0" encoding="utf-8"?>
<svg width="64px" height="64px" viewBox="0 0 64 64" version="1.1" xmlns="http://www.w3.org/2000/svg" xmlns:xlink="http://www.w3.org/1999/xlink">
  <g fill-rule="evenodd">
    <g transform="translate(0, 3)" fill-rule="nonzero">
      <path d="M5.4323,52.2283 C2.333,51.6001 1.45881617e-14,48.8604 1.42108547e-14,45.5758 L1.42108547e-14,6.7879 C1.37802228e-14,3.03903685 3.03903685,4.32785121e-14 6.7879,4.26325641e-14 L19.2932,4.26325641e-14 C22.3207,4.1987e-14 24.8423,2.3218 25.0916,5.339 L25.1353,5.8674 L47.5152,5.8674 C50.2035,5.8674 52.5268,7.4303 53.6262,9.697 L64,9.697 L64,35.9457 C63.5156,34.5573 62.8608,33.2487 62.0606,32.0452 L62.0606,11.6364 L54.303,11.6364 L54.303,12.6553 C54.303,12.309 54.2771,11.9687 54.2271,11.6364 L52.3636,11.6364 L52.3636,24.9246 L52.3636,12.6553 C52.3636,12.3058 52.3267,11.9649 52.2564,11.6364 L13.0909,11.6364 L13.0909,45.1164 C13.0909,47.1386 12.2973,49.0262 10.9567,50.4242 L32.3957,50.4242 C32.787,51.1007 33.2225,51.7485 33.698,52.3636 L5.2753,52.3636 L5.4323,52.2283 Z M51.3568,9.697 C50.4702,8.5474 49.0792,7.8068 47.5152,7.8068 L23.3496,7.8068 L23.1588,5.4988 C22.9926,3.48725862 21.3116,1.9394 19.2932,1.9394 L6.7879,1.9394 C4.1101,1.9394 1.9394,4.1101 1.9394,6.7879 L1.9394,45.5758 C1.9394,48.2535 4.1101,50.4242 6.7879,50.4242 L7.5251,50.4242 C9.7686,49.5902 11.1515,47.5099 11.1515,45.1164 L11.1515,9.697 L51.3568,9.697 Z M47.5152,57.2121 C38.9464,57.2121 32,50.2658 32,41.697 C32,33.1282 38.9464,26.1818 47.5152,26.1818 C56.0839,26.1818 63.0303,33.1282 63.0303,41.697 C63.0303,50.2658 56.0839,57.2121 47.5152,57.2121 Z M49.4545,39.7576 L49.4545,30.0606 L45.5758,30.0606 L45.5758,39.7576 L35.8788,39.7576 L35.8788,43.6364 L45.5758,43.6364 L45.5758,53.3333 L49.4545,53.3333 L49.4545,43.6364 L59.1515,43.6364 L59.1515,39.7576 L49.4545,39.7576 Z"></path>
    </g>
  </g>
</svg>