<?xml version="1.0" encoding="utf-8"?>
<svg width="64px" height="64px" viewBox="0 0 64 64" version="1.1" xmlns="http://www.w3.org/2000/svg" xmlns:xlink="http://www.w3.org/1999/xlink">
  <g fill-rule="evenodd">
    <path d="M44.5702,41.9612 C44.3716,42.0681 44.1424,42.0528 43.9514,41.9383 C40.3688,39.6924 36.2132,38.4931 31.882,38.4931 C25.7709,38.4931 20.0264,40.8764 15.7104,45.2077 C11.532,49.3938 9.1715,54.9167 9.0188,60.814 C9.0111,61.1424 8.7361,61.4098 8.4077,61.4098 L3.83195733,61.4098 C3.4882,61.4098 3.2132,61.1272 3.22084551,60.7834 C3.29723449,57.132 4.0535,53.5799 5.4667,50.2341 C6.9104,46.8119 8.9729,43.741 11.6084,41.1056 C14.2438,38.4626 17.307,36.3924 20.7216,34.9487 C20.7521,34.9334 20.7827,34.9257 20.8132,34.9105 C16.0618,31.4653 12.9757,25.866 12.9757,19.5486 C12.9757,9.0834 21.432,0.604175644 31.8744,0.604175644 C42.3167,0.604175644 50.7806,9.0834 50.7806,19.5486 C50.7806,25.866 47.6945,31.4653 42.9508,34.9105 C42.9813,34.9257 43.0119,34.9334 43.0424,34.9487 C45.9528,36.1785 48.6112,37.8667 50.964,39.9751 C51.132,40.1278 51.0251,40.4028 50.7959,40.4028 L50.7883,40.4028 C48.5348,40.4028 46.4188,40.9681 44.5702,41.9612 Z M31.882,32.6875 C35.3806,32.6875 38.673,31.3202 41.1556,28.8375 C43.6306,26.3549 44.998,23.0549 44.998,19.5486 C44.998,16.0424 43.6306,12.7424 41.1556,10.2597 C38.673,7.7771 35.3882,6.4097 31.882,6.4097 C28.3757,6.4097 25.0834,7.7771 22.6084,10.2597 C20.1334,12.7424 18.766,16.0424 18.766,19.5486 C18.766,23.0549 20.1334,26.3549 22.6084,28.8375 C25.091,31.3202 28.3834,32.6875 31.882,32.6875 Z M59.9779,50.8681 C60.314,50.8681 60.589,51.1431 60.589,51.4792 L60.589,55.757 C60.589,56.0931 60.314,56.3681 59.9779,56.3681 L53.5612,56.3681 L53.5612,62.7848 C53.5612,63.1209 53.2862,63.3959 52.9501,63.3959 L48.6723,63.3959 C48.3362,63.3959 48.0612,63.1209 48.0612,62.7848 L48.0612,56.3681 L41.6445,56.3681 C41.3084,56.3681 41.0334,56.0931 41.0334,55.757 L41.0334,51.4792 C41.0334,51.1431 41.3084,50.8681 41.6445,50.8681 L48.0612,50.8681 L48.0612,44.4514 C48.0612,44.1153 48.3362,43.8403 48.6723,43.8403 L52.9501,43.8403 C53.2862,43.8403 53.5612,44.1153 53.5612,44.4514 L53.5612,50.8681 L59.9779,50.8681 Z" fill-rule="nonzero"></path>
  </g>
</svg>