<?xml version="1.0" encoding="utf-8"?>
<svg width="64px" height="64px" viewBox="0 0 64 64" version="1.1" xmlns="http://www.w3.org/2000/svg" xmlns:xlink="http://www.w3.org/1999/xlink">
  <g fill-rule="evenodd">
    <path d="M49.2481,61.2865 C47.2769,61.2865 45.4113,60.911 43.6513,60.1601 C41.8913,59.4091 40.3542,58.3766 39.04,57.0625 C37.7259,55.7483 36.6934,54.2113 35.9424,52.4513 C35.1915,50.6913 34.816,48.8257 34.816,46.8545 C34.816,44.8833 35.1915,43.0177 35.9424,41.2577 C36.6934,39.4976 37.7259,37.9723 39.04,36.6816 C40.3542,35.391 41.8913,34.3702 43.6513,33.6192 C45.4113,32.8683 47.2769,32.4928 49.2481,32.4928 C51.2193,32.4928 53.0849,32.8683 54.8449,33.6192 C56.6049,34.3702 58.1302,35.391 59.4209,36.6816 C60.7115,37.9723 61.7323,39.4976 62.4833,41.2577 C63.2342,43.0177 63.6097,44.8833 63.6097,46.8545 C63.6097,48.8257 63.2342,50.6913 62.4833,52.4513 C61.7323,54.2113 60.7115,55.7483 59.4209,57.0625 C58.1302,58.3766 56.6049,59.4091 54.8449,60.1601 C53.0849,60.911 51.2193,61.2865 49.2481,61.2865 Z M56.3585,44.5313 L51.1489,44.5313 L51.1489,39.6736 C51.1489,39.0166 50.9377,38.4534 50.5153,37.984 C50.0929,37.5147 49.5531,37.28 48.8961,37.28 C48.239,37.28 47.7227,37.5147 47.3473,37.984 C46.9718,38.4534 46.7841,39.0166 46.7841,39.6736 L46.7841,44.5313 L42.2081,44.5313 C41.551,44.5313 40.9878,44.7659 40.5185,45.2353 C40.0491,45.7046 39.8145,46.2678 39.8145,46.9249 C39.8145,47.5819 40.0491,48.0747 40.5185,48.4033 C40.9878,48.7318 41.551,48.8961 42.2081,48.8961 L46.7841,48.8961 L46.7841,53.8945 C46.7841,54.5515 46.9718,55.1147 47.3473,55.5841 C47.7227,56.0534 48.239,56.2881 48.8961,56.2881 C49.5531,56.2881 50.0929,56.0534 50.5153,55.5841 C50.9377,55.1147 51.1489,54.5515 51.1489,53.8945 L51.1489,48.8961 L56.3585,48.8961 L56.3585,49.0369 C57.0155,49.0369 57.5787,48.8491 58.0481,48.4737 C58.5174,48.0982 58.7521,47.5819 58.7521,46.9249 C58.7521,46.2678 58.5174,45.7046 58.0481,45.2353 C57.5787,44.7659 57.0155,44.5313 56.3585,44.5313 Z M38.9696,27.0016 C38.7819,27.7526 38.5942,28.4331 38.4064,29.0432 C38.2187,29.5595 37.984,30.0875 37.7024,30.6272 C37.4208,31.167 37.1158,31.5776 36.7872,31.8592 C36.3648,32.1878 36.0715,32.5398 35.9072,32.9152 C35.743,33.2907 35.6022,33.6779 35.4848,34.0768 C35.3675,34.4758 35.2384,34.8864 35.0976,35.3088 C34.9568,35.7312 34.7222,36.1536 34.3936,36.576 C33.3142,37.984 32.5046,39.3451 31.9648,40.6593 C31.4251,41.9734 31.0496,43.2406 30.8384,44.4609 C30.6272,45.6811 30.5686,46.8897 30.6624,48.0865 C30.7563,49.2833 30.944,50.4449 31.2256,51.5713 C31.4134,52.4161 31.695,53.2961 32.0704,54.2113 C32.4459,55.1265 32.9974,56.0651 33.7248,57.0273 C34.4523,57.9894 35.3792,58.9281 36.5056,59.8433 C37.632,60.7585 39.04,61.6385 40.7297,62.4833 C39.6032,62.7179 38.2891,62.9291 36.7872,63.1169 C35.52,63.2577 33.9595,63.3867 32.1056,63.5041 C30.2518,63.6214 28.128,63.6801 25.7344,63.6801 C24.5142,63.6801 23.0944,63.6331 21.4752,63.5393 C19.856,63.4454 18.1899,63.3281 16.4768,63.1873 C14.7638,63.0465 13.0742,62.8822 11.408,62.6945 C9.7419,62.5067 8.2165,62.3073 6.832,62.0961 C5.4475,61.8849 4.27414432,61.6619 3.312,61.4273 C2.34987083,61.1926 1.75147014,60.9814 1.5168,60.7937 C1.0944,60.4182 0.76586899,59.3739 0.5312,57.6609 C0.296537631,55.9478 0.366937713,53.7067 0.7424,50.9377 C0.977071298,49.3889 1.59894121,48.2038 2.608,47.3825 C3.6171,46.5611 4.8021,45.9158 6.1632,45.4465 C7.5243,44.9771 8.944,44.543 10.4224,44.1441 C11.9008,43.7451 13.2032,43.1937 14.3296,42.4897 C15.2214,41.9265 15.9019,41.3985 16.3712,40.9057 C16.8406,40.4129 17.1691,39.9083 17.3568,39.392 C17.5446,38.8758 17.6384,38.336 17.6384,37.7728 C17.6384,37.2096 17.615,36.5995 17.568,35.9424 C17.4742,34.9568 17.1339,34.1824 16.5472,33.6192 C15.9606,33.056 15.3387,32.4928 14.6816,31.9296 C14.3062,31.648 13.9776,31.2256 13.696,30.6624 C13.4144,30.0992 13.1798,29.5595 12.992,29.0432 C12.7574,28.4331 12.5696,27.7526 12.4288,27.0016 C12.1003,26.9078 11.7952,26.767 11.5136,26.5792 C11.279,26.3915 11.0208,26.1099 10.7392,25.7344 C10.4576,25.359 10.1995,24.7958 9.9648,24.0448 C9.7301,23.3408 9.648,22.6838 9.7184,22.0736 C9.7888,21.4635 9.9179,20.9472 10.1056,20.5248 C10.2933,20.0086 10.5515,19.5627 10.88,19.1872 C10.88,17.5915 10.9739,15.9958 11.1616,14.4 C11.3494,13.039 11.6427,11.584 12.0416,10.0352 C12.4406,8.4864 13.0859,7.1019 13.9776,5.8816 C14.8224,4.7083 15.7259,3.74614371 16.688,2.9952 C17.6502,2.24427071 18.6475,1.6576 19.68,1.2352 C20.7126,0.8128 21.7451,0.519468703 22.7776,0.355204137 C23.8102,0.190937508 24.7958,0.10880385 25.7344,0.10880385 C26.9547,0.10880385 28.128,0.249604014 29.2544,0.5312 C30.3808,0.8128 31.4251,1.18827154 32.3872,1.6576 C33.3494,2.12693976 34.2059,2.65494244 34.9568,3.2416 C35.7078,3.8283 36.3179,4.4267 36.7872,5.0368 C37.8667,6.3979 38.6528,7.8997 39.1456,9.5424 C39.6384,11.1851 40.0022,12.7339 40.2369,14.1888 C40.4715,15.8784 40.5654,17.568 40.5185,19.2576 C40.8001,19.4923 41.0347,19.7739 41.2225,20.1024 C41.4102,20.384 41.551,20.7595 41.6449,21.2288 C41.7387,21.6982 41.7387,22.2848 41.6449,22.9888 C41.551,23.8806 41.3633,24.5846 41.0817,25.1008 C40.8001,25.6171 40.495,26.016 40.1665,26.2976 C39.791,26.6262 39.392,26.8608 38.9696,27.0016 Z" fill-rule="nonzero"></path>
  </g>
</svg>