<?xml version="1.0" encoding="utf-8"?>
<svg width="64px" height="64px" viewBox="0 0 64 64" version="1.1" xmlns="http://www.w3.org/2000/svg" xmlns:xlink="http://www.w3.org/1999/xlink">
  <g fill-rule="evenodd">
    <g transform="translate(1, 2)" fill-rule="nonzero">
      <path d="M0.105841778,48.8053 L0.105850698,48.8053 L16.2246,32.6866 L37.7162,54.1782 L6.822,54.1782 C3.3296,54.1782 0.643132372,52.029 0.105841778,48.8053 Z M37.7162,48.8053 L28.3136,39.4027 L43.0891,24.6272 L53.8349,35.373 L53.8349,35.9103 C53.029,35.6417 52.223,35.373 51.1485,35.373 C47.1188,35.373 45.7755,38.0595 45.7755,40.7459 L45.7755,43.4324 L43.0891,43.4324 C40.4026,43.4324 37.7162,44.7756 37.7162,48.8053 L37.7162,48.8053 Z M53.8349,51.4917 L53.8349,56.8646 C53.8349,58.2078 52.4917,59.5511 51.1485,59.5511 C49.8052,59.5511 48.462,58.2078 48.462,56.8646 L48.462,51.4917 L43.0891,51.4917 C41.7459,51.4917 40.4026,50.1485 40.4026,48.8053 C40.4026,47.462 41.7459,46.1188 43.0891,46.1188 L48.462,46.1188 L48.462,40.7459 C48.462,39.4027 49.8052,38.0595 51.1485,38.0595 C52.4917,38.0595 53.8349,39.4027 53.8349,40.7459 L53.8349,46.1188 L59.2078,46.1188 C60.551,46.1188 61.8943,47.462 61.8943,48.8053 C61.8943,50.1485 60.551,51.4917 59.2078,51.4917 L53.8349,51.4917 Z M0.105841778,48.8053 L0.105850698,48.8053 L16.2246,32.6866 L37.7162,54.1782 L6.822,54.1782 C3.3296,54.1782 0.643132372,52.029 0.105841778,48.8053 Z M37.7162,48.8053 L28.3136,39.4027 L43.0891,24.6272 L53.8349,35.373 L53.8349,35.9103 C53.029,35.6417 52.223,35.373 51.1485,35.373 C47.1188,35.373 45.7755,38.0595 45.7755,40.7459 L45.7755,43.4324 L43.0891,43.4324 C40.4026,43.4324 37.7162,44.7756 37.7162,48.8053 L37.7162,48.8053 Z M6.822,0.449137391 L47.1188,0.449137391 C50.8799,0.449137391 53.835,3.40423432 53.835,7.1653 L53.835,30.0001 L43.0891,19.2543 L25.6272,36.7162 L16.2246,27.3136 L0.105823939,43.4324 L0.105823939,7.1653 C0.105823939,3.40423432 3.0609,0.449137391 6.822,0.449137391 Z M16.2246,19.2543 C19.1797,19.2543 21.5975,16.8365 21.5975,13.8814 C21.5975,10.9263 19.1797,8.5085 16.2246,8.5085 C13.2695,8.5085 10.8517,10.9263 10.8517,13.8814 C10.8517,16.8365 13.2695,19.2543 16.2246,19.2543 Z"></path>
    </g>
  </g>
</svg>