<?xml version="1.0" encoding="utf-8"?>
<svg width="64px" height="64px" viewBox="0 0 64 64" version="1.1" xmlns="http://www.w3.org/2000/svg" xmlns:xlink="http://www.w3.org/1999/xlink">
  <g fill-rule="evenodd">
    <path d="M1.9394,43.4459 L14.0795,29.3876 L25.0908,35.1382 L43.2364,16.2145 L54.4996,27.0093 C53.2803,26.5416 51.9966,26.2019 50.6653,26.0069 L43.2946,18.9426 L25.4856,37.5152 L14.5461,31.802 L2.4438,45.8165 L2.3169,45.7091 C2.941231,47.0017 4.2744,47.8945 5.8182,47.8945 L30.5909,47.8945 C30.7555,48.5497 30.9569,49.1904 31.1927,49.8145 L5.8182,49.8145 C2.6049,49.8145 0,47.2357 0,44.0545 L0,7.5745 C0,4.3934 2.6049,1.81454545 5.8182,1.81454545 L58.1818,1.81454545 C61.3951,1.81454545 64,4.3934 64,7.5745 L64,35.4883 C63.4528,34.4321 62.8019,33.4372 62.0606,32.5167 L62.0606,7.5745 C62.0606,5.4538 60.324,3.73454545 58.1818,3.73454545 L5.8182,3.73454545 C3.676,3.73454545 1.9394,5.4538 1.9394,7.5745 L1.9394,43.4459 Z M22.303,21.9745 C19.0897,21.9745 16.4848,19.3957 16.4848,16.2145 C16.4848,13.0334 19.0897,10.4545 22.303,10.4545 C25.5163,10.4545 28.1212,13.0334 28.1212,16.2145 C28.1212,19.3957 25.5163,21.9745 22.303,21.9745 Z M22.303,20.0545 C24.4452,20.0545 26.1818,18.3353 26.1818,16.2145 C26.1818,14.0938 24.4452,12.3745 22.303,12.3745 C20.1608,12.3745 18.4242,14.0938 18.4242,16.2145 C18.4242,18.3353 20.1608,20.0545 22.303,20.0545 Z M48.0147,58.4836 C39.7056,58.4836 32.9697,51.8151 32.9697,43.5891 C32.9697,35.3631 39.7056,28.6945 48.0147,28.6945 C56.3238,28.6945 63.0597,35.3631 63.0597,43.5891 C63.0597,51.8151 56.3238,58.4836 48.0147,58.4836 Z M50.3067,42.1345 L50.3067,32.5345 L46.5455,32.5345 L46.5455,42.1345 L36.8485,42.1345 L36.8485,45.8582 L46.5455,45.8582 L46.5455,54.8764 L50.3067,54.8764 L50.3067,45.8582 L59.416,45.8582 L59.416,42.1345 L50.3067,42.1345 Z" fill-rule="nonzero"></path>
  </g>
</svg>