<?xml version="1.0" encoding="utf-8"?>
<svg width="64px" height="64px" viewBox="0 0 64 64" version="1.1" xmlns="http://www.w3.org/2000/svg" xmlns:xlink="http://www.w3.org/1999/xlink">
  <g fill-rule="evenodd">
    <path d="M32,63 C14.8814,63 1,49.1209 1,32 C1,14.8791 14.8814,1 32,1 C49.1231,1 63,14.8791 63,32 C63,49.1209 49.1231,63 32,63 Z M32,58.5714 C46.6763,58.5714 58.5714,46.6741 58.5714,32 C58.5714,17.3237 46.6763,5.4286 32,5.4286 C17.3282,5.4286 5.4286,17.3237 5.4286,32 C5.4286,46.6741 17.3282,58.5714 32,58.5714 Z M47.3295,22.3015 L43.3482,26.2805 L37.7217,20.654 L41.703,16.6728 C42.9209,15.4549 44.9204,15.4726 46.1626,16.7148 L47.2875,17.8419 C48.5275,19.0819 48.5496,21.0814 47.3295,22.3015 L47.3295,22.3015 Z M25.3417,44.2893 L19.7152,38.6606 L36.5969,21.7811 L42.2211,27.4054 L25.3416,44.2893 L25.3417,44.2893 Z M15.7737,48.2286 L18.5859,39.7877 L24.2146,45.412 L15.7737,48.2286 Z" fill-rule="nonzero"></path>
  </g>
</svg>