<?xml version="1.0" encoding="utf-8"?>
<svg width="64px" height="64px" viewBox="0 0 64 64" version="1.1" xmlns="http://www.w3.org/2000/svg" xmlns:xlink="http://www.w3.org/1999/xlink">
  <g fill-rule="evenodd">
    <path d="M52.8906,5.1369e-15 C59.0201,7.9212e-16 63.9951,4.975 64,11.1094 L64,52.8955 C64,59.025 59.025,64 52.8955,64 L11.1094,64 C4.9701,64 0,59.025 0,52.8955 L0,11.1094 C0,4.975 4.9701,5.1369e-15 11.1094,5.1369e-15 L52.8906,5.1369e-15 Z M17.784,50.1204 L26.461,45.3291 L20.2994,39.0142 L15.6423,47.9116 L15.6519,47.9308 C15.1392,48.5201 15.1584,49.4401 15.7141,50.0102 C16.2747,50.5804 17.1611,50.5996 17.7457,50.0725 L17.784,50.1204 Z M28.9717,43.7384 L46.5701,25.6944 L39.4215,18.3637 L21.8278,36.403 C21.7128,36.5275 21.6074,36.6569 21.5116,36.791 C21.4877,36.8198 21.4541,36.839 21.4302,36.8725 L21.272,37.1743 L28.2578,44.3325 L28.55,44.1792 C28.6363,44.093 28.7177,43.9972 28.7944,43.9109 C28.8567,43.8534 28.9142,43.8007 28.9717,43.7384 Z M49.1717,23.0352 C50.2977,21.8805 50.2977,20.0071 49.1765,18.862 L46.0862,15.7094 C44.9698,14.5499 43.1395,14.5499 42.0183,15.7094 L40.8014,16.9551 L47.9452,24.281 L49.1717,23.0352 Z" fill-rule="nonzero"></path>
  </g>
</svg>