<?xml version="1.0" encoding="utf-8"?>
<svg width="64px" height="64px" viewBox="0 0 64 64" version="1.1" xmlns="http://www.w3.org/2000/svg" xmlns:xlink="http://www.w3.org/1999/xlink">
  <g fill-rule="evenodd">
    <path d="M3.674e-13,31.6487 C3.674e-13,14.1696 14.1696,4.7788e-6 31.6487,4.7788e-6 C49.1279,4.7788e-6 63.2975,14.1696 63.2975,31.6487 C63.2975,49.1279 49.1279,63.2975 31.6487,63.2975 C14.1696,63.2975 2.6392709e-6,49.1279 3.5527e-15,31.6487 Z M48.8813,19.4871 L45.7022,16.308 C44.7492,15.355 43.5046,14.8785 42.26,14.8785 C41.0153,14.8785 39.7636,15.355 38.8177,16.308 L20.3477,34.7638 C20.3263,34.7496 20.3121,34.7354 20.3121,34.7354 L18.8683,36.2005 L18.8541,36.2574 L18.8399,36.2716 L18.847,36.2787 L17.4673,41.9541 C17.4673,41.9541 16.116,47.4447 15.9239,49.0947 C15.9097,49.1587 15.9666,49.2227 16.0306,49.2227 L16.052,49.2227 C18.3492,48.9098 23.164,47.6936 23.164,47.6936 L28.875,46.2996 C28.8821,46.3138 28.9035,46.3423 28.9035,46.3423 L48.8671,26.3787 C50.7802,24.4727 50.7802,21.386 48.8813,19.4871 Z M22.588,45.3893 C22.5595,45.3964 20.7673,45.8444 18.8968,46.2641 C19.1884,44.9554 19.5227,43.5401 19.7716,42.516 L20.8526,38.0567 C21.8199,38.7679 22.8084,39.5076 23.5196,40.0908 C23.7828,40.3326 24.0459,40.5673 24.3233,40.8304 C24.5509,41.0722 24.7571,41.2998 24.9705,41.5345 C25.575,42.2671 26.3574,43.2912 27.097,44.294 L22.588,45.3893 Z M47.2029,24.6931 L29.1524,42.7436 C28.5265,41.9684 27.7371,41.0367 26.8054,40.0125 L41.691,25.127 C42.1533,24.6647 42.1533,23.9108 41.691,23.4485 C41.2287,22.9862 40.4748,22.9862 40.0125,23.4485 L25.1341,38.3341 C25.1199,38.3199 25.1056,38.3128 25.0914,38.2985 C24.0957,37.3953 23.1925,36.6343 22.4457,36.0298 L40.4891,17.9864 C40.9585,17.517 41.5914,17.2539 42.2529,17.2539 C42.9214,17.2539 43.5472,17.517 44.0166,17.9864 L47.1957,21.1655 C48.1772,22.1399 48.1772,23.7188 47.2029,24.6931 Z"></path>
  </g>
</svg>