<?xml version="1.0" encoding="utf-8"?>
<svg width="64px" height="64px" viewBox="0 0 64 64" version="1.1" xmlns="http://www.w3.org/2000/svg" xmlns:xlink="http://www.w3.org/1999/xlink">
  <g fill-rule="evenodd">
    <path d="M60.8382,20.9528 L60.8385,20.9531 C60.8201,31.7507 60.9261,42.5583 60.7907,53.3552 C60.7323,58.1012 56.8157,62.0854 52.2529,62.8871 L9.9317,62.8871 C5.115,62.4223 0.958425175,58.1796 0.938389438,53.2875 C0.861561223,39.6968 0.8999385,26.1152 0.919974238,12.5237 C1.00608371,7.4776 5.512,3.0787 10.5411,2.9917579 C21.3118,2.9056 32.0733,2.9625 42.8456,2.9625 C40.8327,4.9539 38.8997,7.0329 36.8007,8.9273 C28.7185,8.995 20.6239,8.8789 12.5323,8.9858 C9.273,9.1012 6.6245,12.2044 6.8754,15.4337 C6.8662,27.0816 6.8662,38.7295 6.8754,50.3881 C6.6137,53.6259 9.2545,56.7868 12.5508,56.8746 C24.7635,56.9131 36.9853,56.9131 49.198,56.8652 C52.165,56.7591 54.7657,54.1291 54.8058,51.1605 C54.8535,43.1091 54.7857,35.0569 54.8334,27.0038 C56.7678,24.9162 58.8377,22.9633 60.8382,20.9528 Z M57.6096,15.6652 L57.6096,15.6653 C50.5983,22.635 43.5795,29.6146 36.5499,36.5744 C33.3397,33.4327 30.1587,30.2625 26.998,27.0816 C33.9783,20.0735 41.0172,13.1223 48.0377,6.1525 C51.2479,9.3041 54.4379,12.4751 57.6096,15.6652 Z M21.8056,41.7071 C23.0798,37.2797 24.3478,32.853 25.6236,28.4256 C28.6599,31.3449 32.1593,34.9191 35.2048,37.819 C34.6153,38.0538 33.8506,38.2753 32.7009,38.6416 C28.3983,39.8012 26.1069,40.5376 21.8056,41.7071 Z M62.4047,8.096 L62.4047,8.0961 C63.8944,10.7345 60.5088,12.4751 59.0793,14.1763 C55.9262,10.9569 52.5127,7.9507 49.5827,4.5475 C51.3155,3.2725 52.5328,0.545482731 55.0565,1.06795878 C57.8128,3.03006151 60.0257,5.7085 62.4047,8.096 Z" fill-rule="nonzero"></path>
  </g>
</svg>