<?xml version="1.0" encoding="utf-8"?>
<svg width="64px" height="64px" viewBox="0 0 64 64" version="1.1" xmlns="http://www.w3.org/2000/svg" xmlns:xlink="http://www.w3.org/1999/xlink">
  <g fill-rule="evenodd">
    <path d="M21.075,34.9806 C21.0372,35.026 20.9995,35.079 20.9844,35.1396 L18.0625,45.8045 C17.8888,46.4252 18.07,47.0913 18.5306,47.5681 C18.8779,47.9012 19.3309,48.0904 19.8141,48.0904 C19.9727,48.0904 20.1312,48.0677 20.2898,48.0298 L30.9128,45.1384 C30.9279,45.1384 30.9354,45.1536 30.9505,45.1536 C31.0713,45.1536 31.1921,45.1081 31.2827,45.0173 L59.6938,16.7011 C60.5394,15.8609 61,14.7104 61,13.4615 C61,12.046 60.396,10.6306 59.3465,9.586 L56.6662,6.9066 C55.6168,5.8544 54.1898,5.2565 52.7779,5.2565 C51.5246,5.2565 50.377,5.7182 49.5314,6.5584 L21.1203,34.8822 C21.0901,34.9049 21.0976,34.9428 21.075,34.9806 Z M56.9154,13.9307 L54.0916,16.7389 L49.5163,12.1066 L52.2947,9.3363 C52.7326,8.8973 53.5858,8.9578 54.0916,9.4649 L56.7795,12.1444 C57.0588,12.4245 57.2174,12.7954 57.2174,13.1587 C57.2249,13.4615 57.1192,13.7339 56.9154,13.9307 Z M26.126,35.4196 L46.6246,14.9829 L51.1999,19.6152 L30.7391,40.0065 L26.126,35.4196 Z M22.3963,43.7078 L23.8761,38.2883 L27.8248,42.2243 L22.3963,43.7078 Z M58.7199,25.1483 C57.6477,25.1483 56.7644,26.0187 56.7568,27.1087 L56.7568,53.5023 C56.7568,54.8875 55.6319,56.0077 54.2351,56.0077 L9.4327,56.0077 C8.0435,56.0077 6.911,54.8799 6.911,53.5023 L6.911,10.4187 C6.911,9.0335 8.0435,7.9057 9.4327,7.9057 L38.2892,7.9057 C39.3689,7.9057 40.2447,7.0277 40.2447,5.9528 C40.2447,4.878 39.3689,4 38.2892,4 L9.1382,4 C5.7558,4 3,6.7476 3,10.1235 L3,53.8051 C3,57.181 5.7558,59.9286 9.1382,59.9286 L54.5371,59.9286 C57.9271,59.9286 60.6829,57.1885 60.6829,53.8051 L60.6829,27.0935 C60.6753,26.0187 59.792,25.1483 58.7199,25.1483 Z" fill-rule="nonzero"></path>
  </g>
</svg>