<?xml version="1.0" encoding="utf-8"?>
<svg width="64px" height="64px" viewBox="0 0 64 64" version="1.1" xmlns="http://www.w3.org/2000/svg" xmlns:xlink="http://www.w3.org/1999/xlink">
  <g fill-rule="evenodd">
    <path d="M32.9637,60.5106 C34.2327,59.5922 47.6653,43.6657 47.6654,43.6654 L47.6654,56.2984 C47.6654,58.0743 47.5065,60.7722 43.4658,60.5106 L32.9637,60.5106 Z M45.0868,23.2428 L23.0901,46.9982 L17.0523,60.5282 L5.2204,60.5282 C0.205468606,60.2307 0.487488671,57.784 0.487488671,55.7833 L0.490166306,34.4115 L0.490166306,27.5773 L0.487488671,5.9598 C0.487488671,3.96024812 -0.386722872,1.06753423 5.2204,1.2160344 L43.088,1.2160344 C48.3832,1.06695528 47.8213,3.9584 47.8213,5.9598 L48.249,19.5618 C48.249,19.5618 49.2998,18.4146 45.0868,23.2428 Z M8.696,7.1053 C7.4582,7.1053 6.4563,8.0879 6.4562,9.2979 C6.4562,10.5081 7.4585,11.4877 8.696,11.4877 L40.0493,11.4877 C41.2853,11.4877 42.288,10.508 42.288,9.2979 C42.288,8.0879 41.2853,7.1053 40.0493,7.1053 L8.696,7.1053 Z M8.696,17.3338 C7.4582,17.3338 6.4563,18.315 6.4562,19.5256 C6.4562,20.7353 7.4585,21.7153 8.696,21.7153 L40.0493,21.7153 C41.2853,21.7153 42.288,20.7353 42.288,19.5256 C42.288,18.3149 41.2853,17.3338 40.0493,17.3338 L8.696,17.3338 Z M8.696,31.9428 L28.1056,31.9428 C29.3402,31.9428 30.3433,30.9624 30.3433,29.753 C30.3433,28.5421 29.3402,27.5575 28.1056,27.5575 L8.696,27.5575 C7.4585,27.5575 6.4562,28.5421 6.4562,29.753 C6.4562,30.9625 7.4585,31.9428 8.696,31.9428 Z M20.4299,59.6527 C21.2095,56.886 25.3126,49.512 25.3125,49.5124 L31.1913,54.6325 C31.1913,54.6325 24.889,59.6997 21.7522,60.7429 C20.395,61.1974 20.0116,61.1503 20.4299,59.6527 Z M61.4204,20.9971 C62.2081,21.6609 62.1973,22.4372 61.5206,23.209 L39.5004,46.9961 C39.4378,47.0625 39.377,47.1306 39.318,47.2002 L39.1711,47.3692 C38.6834,47.9275 37.6847,49.0608 36.5796,50.3211 L34.1535,53.1724 L27.4444,47.2621 L32.6283,41.2533 L55.0498,17.4652 C55.7286,16.691 56.6209,16.9933 57.4126,17.6584 L61.4204,20.9971 Z" fill-rule="nonzero"></path>
  </g>
</svg>