<?xml version="1.0" encoding="utf-8"?>
<svg width="64px" height="64px" viewBox="0 0 64 64" version="1.1" xmlns="http://www.w3.org/2000/svg" xmlns:xlink="http://www.w3.org/1999/xlink">
  <g fill-rule="evenodd">
    <path d="M14.1982,58.6668 L14.1983,58.6667 L24.8492,58.6667 C25.831,58.6667 26.6269,59.4627 26.6269,60.4445 C26.6269,61.4263 25.831,62.2223 24.8492,62.2223 L14.1983,62.2223 C9.283,62.2223 5.291,58.25 5.291,53.3545 L5.291,10.6456 C5.291,5.7429 9.2691,1.77783332 14.1896,1.77783332 L46.1701,1.77783332 C51.0872,1.77783332 55.0688,5.7286 55.0688,10.6327 L55.0688,14.2551 C55.0688,15.2369 54.2728,16.0328 53.291,16.0328 C52.3091,16.0328 51.5132,15.2369 51.5132,14.2551 L51.5132,10.6327 C51.5132,7.6985 49.1297,5.3334 46.17,5.3334 L14.1896,5.3334 C11.2301,5.3334 8.8465,7.7092 8.8465,10.6456 L8.8465,53.3545 C8.8465,56.2824 11.2427,58.6668 14.1982,58.6668 Z M44.4021,17.7778 L15.9576,17.7778 C14.9758,17.7778 14.1798,16.9819 14.1798,16.0001 C14.1798,15.0182 14.9758,14.2223 15.9576,14.2223 L44.4021,14.2223 C45.3839,14.2223 46.1798,15.0182 46.1798,16.0001 C46.1798,16.9819 45.3839,17.7778 44.4021,17.7778 Z M37.2909,28.4445 L15.9576,28.4445 C14.9758,28.4445 14.1798,27.6486 14.1798,26.6668 C14.1798,25.6849 14.9758,24.889 15.9576,24.889 L37.2909,24.889 C38.2728,24.889 39.0687,25.6849 39.0687,26.6668 C39.0687,27.6486 38.2728,28.4445 37.2909,28.4445 Z M30.1798,39.1112 L15.9575,39.1112 C14.9757,39.1112 14.1798,38.3153 14.1798,37.3335 C14.1798,36.3516 14.9757,35.5557 15.9575,35.5557 L30.1798,35.5557 C31.1616,35.5557 31.9576,36.3516 31.9576,37.3335 C31.9576,38.3153 31.1616,39.1112 30.1798,39.1112 Z M52.6317,32.7933 L54.2789,29.9402 C55.2711,28.2217 54.6916,26.0464 52.989,25.0633 L52.989,25.0634 C51.2791,24.0762 49.1136,24.6645 48.1205,26.3846 L46.4733,29.2377 L47.2431,29.6822 L52.6317,32.7933 Z M50.8539,35.8725 L45.4653,32.7614 L44.6955,32.3169 L33.9212,50.9786 C32.726,53.0487 32.548,56.6627 33.5283,58.7976 C33.5283,58.7976 33.6525,59.1665 33.6607,59.1844 C33.639,59.1367 33.5816,59.0623 33.4152,58.9661 C33.2535,58.8728 33.142,58.8571 33.0684,58.8645 C33.0644,58.8649 33.0586,58.8664 33.0086,58.8844 L33.4725,58.7841 C35.8005,58.5997 38.8774,56.6164 40.0796,54.5341 L50.8539,35.8725 Z M30.842,49.2008 L30.842,49.2008 L45.0414,24.6068 C47.0136,21.1908 51.3515,20.0123 54.7668,21.9841 C58.1721,23.9502 59.331,28.3009 57.3582,31.7179 L43.1588,56.3119 C41.3776,59.3971 37.2608,62.0507 33.7533,62.3286 L33.6129,60.5564 L34.2171,62.2283 C34.0135,62.3019 33.7478,62.3696 33.4249,62.4021 C32.8198,62.4631 32.2122,62.3772 31.6374,62.0454 C31.0577,61.7107 30.6817,61.2228 30.4241,60.6564 C30.2908,60.3631 30.213,60.102 30.1707,59.8945 L31.9127,59.5395 L30.2971,60.2814 C28.8343,57.0956 29.0722,52.2661 30.842,49.2008 Z" fill-rule="nonzero"></path>
  </g>
</svg>