<?xml version="1.0" encoding="utf-8"?>
<svg width="64px" height="64px" viewBox="0 0 64 64" version="1.1" xmlns="http://www.w3.org/2000/svg" xmlns:xlink="http://www.w3.org/1999/xlink">
  <g fill-rule="evenodd">
    <path d="M32,2 C15.43,2 2,15.43 2,32 C2,48.5701 15.43,62.0001 32,62.0001 C48.5701,62.0001 62.0001,48.5701 62.0001,32 C62.0001,15.43 48.5701,2 32,2 Z M50.7801,32 L50.7801,32 C50.7814,33.164 49.839,34.1086 48.6751,34.11 C48.6734,34.11 48.6717,34.11 48.6701,34.11 L15.33,34.11 C14.1647,34.11 13.22,33.1654 13.22,32 C13.22,30.8347 14.1647,29.89 15.33,29.89 L48.6701,29.89 C49.8351,29.89 50.7801,30.835 50.7801,32 L50.7801,32 Z" fill-rule="nonzero"></path>
  </g>
</svg>