<?xml version="1.0" encoding="utf-8"?>
<svg width="64px" height="64px" viewBox="0 0 64 64" version="1.1" xmlns="http://www.w3.org/2000/svg" xmlns:xlink="http://www.w3.org/1999/xlink">
  <g fill-rule="evenodd">
    <path d="M38.6,49.6001 C37.3834,49.6001 36.4,48.6167 36.4,47.4001 L36.4,23.2 C36.4,21.9834 37.3834,21 38.6,21 C39.8167,21 40.8001,21.9834 40.8001,23.2 L40.8001,47.4001 C40.8001,48.6167 39.8167,49.6001 38.6,49.6001 Z M25.4,49.6001 C24.1834,49.6001 23.2,48.6167 23.2,47.4001 L23.2,23.2 C23.2,21.9834 24.1834,21 25.4,21 C26.6166,21 27.6,21.9834 27.6,23.2 L27.6,47.4001 C27.6,48.6167 26.6166,49.6001 25.4,49.6001 Z M60.6001,12.2 L49.6001,12.2 L49.6001,7.8 C49.6001,4.1612 46.6631,1.2 43.0507,1.2 L21,1.2 C17.3612,1.2 14.4,4.1612 14.4,7.8 L14.4,12.2 L3.4,12.2 C2.1834,12.2 1.2,13.1834 1.2,14.4 C1.2,15.6166 2.1834,16.6 3.4,16.6 L60.6001,16.6 C61.8167,16.6 62.8001,15.6166 62.8001,14.4 C62.8001,13.1834 61.8167,12.2 60.6001,12.2 Z M18.8,7.8 C18.8,6.5878 19.7878,5.6 21,5.6 L43.0507,5.6 C44.2563,5.6 45.2001,6.5658 45.2001,7.8 L45.2001,12.2 L18.8,12.2 L18.8,7.8 Z M47.4089,62.8001 L16.6044,62.8001 C12.9656,62.8001 10.0044,59.8389 10.0044,56.2001 L10.0044,23.167 C10.0044,21.9526 10.99,20.967 12.2044,20.967 C13.4188,20.967 14.4044,21.9526 14.4044,23.167 L14.4044,56.2001 C14.4044,57.4145 15.3922,58.4001 16.6044,58.4001 L47.4089,58.4001 C48.6233,58.4001 49.6089,57.4145 49.6089,56.2001 L49.6089,23.2572 C49.6089,22.0428 50.5923,21.0572 51.8089,21.0572 C53.0255,21.0572 54.0089,22.0428 54.0089,23.2572 L54.0089,56.2001 C54.0089,59.8389 51.0477,62.8001 47.4089,62.8001 Z" fill-rule="nonzero"></path>
  </g>
</svg>