<?xml version="1.0" encoding="utf-8"?>
<svg width="64px" height="64px" viewBox="0 0 64 64" version="1.1" xmlns="http://www.w3.org/2000/svg" xmlns:xlink="http://www.w3.org/1999/xlink">
  <g fill-rule="evenodd">
    <path d="M3.2487,35.4138 L15.8079,35.4138 C16.9633,35.4138 17.9011,34.4761 17.9011,33.3206 C17.9011,32.1652 16.9633,31.2274 15.8079,31.2274 L3.2487,31.2274 C2.09326181,31.2274 1.15551156,32.1652 1.15551156,33.3206 C1.15551156,34.4761 2.09326181,35.4138 3.2487,35.4138 Z M63.3484,52.9045 L56.1395,45.6956 C58.3708,42.8488 59.7607,39.3113 59.7607,35.4096 C59.7607,26.1619 52.2629,18.6641 43.0152,18.6641 C33.7675,18.6641 26.2696,26.1619 26.2696,35.4096 C26.2696,44.6574 33.7675,52.1552 43.0152,52.1552 C46.9169,52.1552 50.4544,50.7653 53.3011,48.5339 L60.5101,55.7429 C61.2971,56.5258 62.5614,56.5258 63.3484,55.7429 C64.1313,54.9559 64.1313,53.6916 63.3484,52.9045 Z M51.9908,44.1801 C51.9531,44.2136 51.9029,44.2262 51.8694,44.2638 C51.8359,44.3015 51.8191,44.3518 51.7857,44.3852 C49.5208,46.5957 46.4355,47.9688 43.0152,47.9688 C36.0783,47.9688 30.456,42.3465 30.456,35.4096 C30.456,28.4728 36.0783,22.8505 43.0152,22.8505 C49.952,22.8505 55.5743,28.4728 55.5743,35.4096 C55.5785,38.8299 54.2054,41.9153 51.9908,44.1801 Z M3.2487,10.2955 L40.9262,10.2955 C42.0816,10.2955 43.0194,9.3578 43.0194,8.2023 C43.0194,7.0469 42.0816,6.1091 40.9262,6.1091 L3.2487,6.1091 C2.09326181,6.1091 1.15551156,7.0469 1.15551156,8.2023 C1.15551156,9.3578 2.09326181,10.2955 3.2487,10.2955 Z M19.9942,18.6683 L3.2487,18.6683 C2.09326181,18.6683 1.15551156,19.606 1.15551156,20.7615 C1.15551156,21.9169 2.09326181,22.8547 3.2487,22.8547 L19.9942,22.8547 C21.1497,22.8547 22.0874,21.9169 22.0874,20.7615 C22.0874,19.606 21.1497,18.6683 19.9942,18.6683 Z M19.9942,43.7866 L3.2487,43.7866 C2.09326181,43.7866 1.15551156,44.7243 1.15551156,45.8798 C1.15551156,47.0352 2.09326181,47.973 3.2487,47.973 L19.9942,47.973 C21.1497,47.973 22.0874,47.0352 22.0874,45.8798 C22.0874,44.7243 21.1497,43.7866 19.9942,43.7866 Z" fill-rule="nonzero"></path>
  </g>
</svg>