<?xml version="1.0" encoding="utf-8"?>
<svg width="64px" height="64px" viewBox="0 0 64 64" version="1.1" xmlns="http://www.w3.org/2000/svg" xmlns:xlink="http://www.w3.org/1999/xlink">
  <g fill-rule="evenodd">
    <path d="M16.2894,14.1681 L44.6206,14.1681 L44.6206,17.7095 L16.2894,17.7095 L16.2894,14.1679 L16.2894,14.1681 Z M16.1952,21.2856 L44.526,21.2856 L44.526,24.8274 L16.1952,24.8274 L16.1952,21.2856 Z M9.2066,7.0275 L9.2066,7.028 L9.2066,56.6067 L33.9965,56.6067 L33.9965,60.1484 L9.2069,60.1484 C7.2508,60.1484 5.6652,58.5628 5.6652,56.607 L5.6652,7.0279 C5.6652,5.0719 7.2508,3.4862 9.2066,3.4862 L51.704,3.4862 C53.6601,3.4862 55.2458,5.0718 55.2458,7.0279 L55.2458,35.3587 L51.704,35.3587 L51.704,7.0275 L9.2066,7.0275 Z M16.266,35.4511 L16.266,35.4508 L25.3936,35.4508 C25.0594,36.5733 24.8792,37.7616 24.8792,38.9925 L16.266,38.9925 L16.266,35.4511 Z M30.7452,28.3681 L33.0285,27.2865 C30.5685,28.1553 28.4627,29.775 26.9602,31.9095 L16.1952,31.9095 L16.1952,28.3681 L30.7452,28.3681 Z M57.5595,56.8707 L57.56,56.8705 C57.8929,57.1925 58.0998,57.6438 58.0998,58.1435 C58.0998,59.1215 57.3069,59.9143 56.3289,59.9143 C55.8292,59.9143 55.3779,59.7074 55.0555,59.3741 L46.8101,51.1515 C44.8705,52.4221 42.5511,53.1611 40.0592,53.1611 L40.0398,53.1611 C33.1942,53.1611 27.6449,47.6113 27.6449,40.7662 C27.6449,33.9211 33.1942,28.3717 40.0398,28.3717 C46.8853,28.3717 52.4346,33.9211 52.4346,40.7656 L52.4346,40.7844 C52.4346,43.8732 51.3004,46.6969 49.4389,48.8465 L57.5595,56.8707 Z M31.1864,40.7665 C31.1864,45.6562 35.1505,49.6199 40.0399,49.6199 C44.9297,49.6199 48.8933,45.6562 48.8933,40.7665 C48.8933,35.8768 44.9296,31.913 40.0399,31.913 C35.1506,31.913 31.1864,35.8767 31.1864,40.7665 Z" fill-rule="nonzero"></path>
  </g>
</svg>