<?xml version="1.0" encoding="utf-8"?>
<svg width="64px" height="64px" viewBox="0 0 64 64" version="1.1" xmlns="http://www.w3.org/2000/svg" xmlns:xlink="http://www.w3.org/1999/xlink">
  <g fill-rule="evenodd">
    <path d="M59.1226,56.5627 L42.4839,39.924 C45.8178,36.2201 47.8476,31.3188 47.8476,25.943 C47.8476,14.3965 38.4872,5.0363 26.9409,5.0363 C15.3944,5.0363 6.0342,14.3965 6.0342,25.943 C6.0342,37.4896 15.3944,46.8497 26.9409,46.8497 C32.2756,46.8497 37.1429,44.8503 40.8367,41.5617 L57.4807,58.2057 C57.6909,58.4162 57.9815,58.5465 58.3026,58.5465 C58.9442,58.5465 59.464,58.0264 59.464,57.385 C59.4638,57.0638 59.3333,56.7729 59.1226,56.5627 L59.1226,56.5627 Z M8.3569,25.943 C8.3569,15.6959 16.6936,7.3593 26.9406,7.3593 C37.1877,7.3593 45.5244,15.6959 45.5244,25.943 C45.5244,36.1901 37.1877,44.5267 26.9406,44.5267 C16.6936,44.5267 8.3569,36.1901 8.3569,25.943 Z M13.2189,25.943 C13.2189,25.0721 13.3011,24.2006 13.4628,23.3522 C13.5831,22.7222 13.1696,22.1138 12.5397,21.9937 C11.9097,21.8736 11.3013,22.2867 11.181,22.9169 C10.9919,23.9083 10.8957,24.9263 10.8957,25.943 C10.8957,30.5506 12.8804,34.9408 16.3407,37.9883 C16.5614,38.1827 16.8353,38.2782 17.108,38.2782 C17.4302,38.2782 17.7508,38.1451 17.98,37.8845 C18.404,37.4031 18.3575,36.6691 17.8762,36.2451 C14.9165,33.6385 13.2189,29.8835 13.2189,25.943 L13.2189,25.943 Z" fill-rule="nonzero"></path>
  </g>
</svg>