<?xml version="1.0" encoding="utf-8"?>
<svg width="64px" height="64px" viewBox="0 0 64 64" version="1.1" xmlns="http://www.w3.org/2000/svg" xmlns:xlink="http://www.w3.org/1999/xlink">
  <g fill-rule="evenodd">
    <path d="M31.0215,21.3255 C36.6267,21.3255 41.1773,25.8762 41.1773,31.4814 C41.1773,37.0866 36.6267,41.6372 31.0215,41.6372 C25.4163,41.6372 20.8656,37.0866 20.8656,31.4814 C20.8656,25.8761 25.4164,21.3255 31.0215,21.3255 Z M28.0677,4.51834797 C27.4901,4.51834797 26.9426,4.9724 26.8478,5.5149 L25.6901,12.1409 C24.0929,12.5812 22.5563,13.2177 21.1156,14.0357 L15.6117,10.169 C15.1545,9.8478 14.4798,9.8916 14.0445,10.327 L9.8671,14.5043 C9.4587,14.9127 9.3925,15.6209 9.7091,16.0715 L13.5758,21.5754 C12.7578,23.0162 12.1213,24.5527 11.6811,26.1499 L5.055,27.3076 C4.5047,27.4038 4.0585,27.9118 4.0585,28.5275 L4.0585,34.4351 C4.0585,35.0127 4.5125,35.5602 5.055,35.655 L11.6811,36.8127 C12.1214,38.4099 12.7579,39.9464 13.5758,41.3872 L9.7091,46.8911 C9.388,47.3483 9.4317,48.023 9.8671,48.4583 L14.0445,52.6357 C14.4528,53.0441 15.161,53.1103 15.6117,52.7937 L21.1156,48.927 C22.5563,49.745 24.0929,50.3815 25.6901,50.8218 L26.8478,57.4478 C26.9439,57.9982 27.4519,58.4444 28.0677,58.4444 L33.9753,58.4444 C34.5528,58.4444 35.1004,57.9903 35.1952,57.4478 L36.3529,50.8218 C37.9501,50.3815 39.4866,49.7451 40.9274,48.927 L46.4313,52.7937 C46.8884,53.1149 47.5632,53.0711 47.9985,52.6357 L52.1759,48.4583 C52.5843,48.05 52.6504,47.3418 52.3338,46.8911 L48.4671,41.3872 C49.2852,39.9464 49.9217,38.4099 50.3619,36.8127 L56.9879,35.655 C57.5383,35.5589 57.9844,35.0508 57.9844,34.4351 L57.9844,28.5275 C57.9844,27.9499 57.5304,27.4024 56.9879,27.3076 L50.3619,26.1499 C49.9216,24.5527 49.2852,23.0162 48.4671,21.5754 L52.3338,16.0715 C52.655,15.6143 52.6112,14.9396 52.1759,14.5043 L47.9985,10.327 C47.5901,9.9186 46.8819,9.8524 46.4313,10.169 L40.9274,14.0357 C39.4866,13.2177 37.9501,12.5812 36.3529,12.1409 L35.1952,5.5149 C35.099,4.9645 34.591,4.51834797 33.9753,4.51834797 L28.0677,4.51834797 Z" fill-rule="nonzero"></path>
  </g>
</svg>