<?xml version="1.0" encoding="utf-8"?>
<svg width="64px" height="64px" viewBox="0 0 64 64" version="1.1" xmlns="http://www.w3.org/2000/svg" xmlns:xlink="http://www.w3.org/1999/xlink">
  <g fill-rule="evenodd">
    <path d="M59,30.65 L40.1,22.55 L47.6546,17.1538 C43.7185,13.0047 38.1706,10.4 32,10.4 C21.5388,10.4 12.8178,17.8377 10.8287,27.7129 L5.7887,25.625 C8.6577,13.7958 19.2884,5 32,5 C39.9834,5 47.1332,8.4876 52.0761,13.9956 L59,9.05 L59,30.65 Z M16.3452,46.8465 C20.281,50.9956 25.8295,53.6 32.0001,53.6 C42.5017,53.6 51.2448,46.1029 53.1892,36.1707 L58.2244,38.3245 C55.3737,50.1794 44.7297,59 32.0001,59 C24.0167,59 16.8665,55.5127 11.9236,50.0047 L5,54.95 L5,33.35 L23.9,41.45 L16.3452,46.8465 Z" fill-rule="nonzero"></path>
  </g>
</svg>