<?xml version="1.0" encoding="utf-8"?>
<svg width="64px" height="64px" viewBox="0 0 64 64" version="1.1" xmlns="http://www.w3.org/2000/svg" xmlns:xlink="http://www.w3.org/1999/xlink">
  <g fill-rule="evenodd">
    <path d="M56.4687,24.4062 L45.5001,24.4062 C44.1007,24.4062 42.9689,23.2725 42.9689,21.8749 C42.9689,20.4775 44.1008,19.3437 45.5001,19.3437 L49.9033,19.3437 C45.9313,13.7313 39.3998,10.0625 32.0001,10.0625 C19.8843,10.0625 10.0626,19.8843 10.0626,31.9999 C10.0626,44.1157 19.8844,53.9374 32.0001,53.9374 C44.1158,53.9374 53.9375,44.1156 53.9375,31.9999 C53.9375,30.6025 55.0694,29.4688 56.4686,29.4688 C57.8661,29.4688 59,30.6025 59,31.9999 C59,46.9116 46.9105,59 32,59 C17.0893,59 5,46.9116 5,31.9999 C5,17.0884 17.0893,5 32,5 C41.0495,5 49.0425,9.4617 53.9374,16.2974 L53.9374,11.75 C53.9374,10.3525 55.0693,9.2187 56.4686,9.2187 C57.8661,9.2187 58.9999,10.3525 58.9999,11.75 L58.9999,21.875 C59.0001,23.2725 57.8661,24.4063 56.4687,24.4063 L56.4687,24.4062 Z"></path>
  </g>
</svg>