<?xml version="1.0" encoding="utf-8"?>
<svg width="64px" height="64px" viewBox="0 0 64 64" version="1.1" xmlns="http://www.w3.org/2000/svg" xmlns:xlink="http://www.w3.org/1999/xlink">
  <g fill-rule="evenodd">
    <path d="M36.7798,24.9801 L42.1292,24.9801 L42.1292,10.6541 L36.7798,10.6541 L36.7798,24.9801 Z M51.516,2 L12.484,2 C6.6993,2 2,6.7535 2,12.5924 L2,51.4135 C2,57.2525 6.6993,62 12.484,62 L51.516,62 C57.2947,62 62,57.2525 62,51.4135 L62,12.5924 C61.994,6.7535 57.2947,2 51.516,2 Z M17.8513,7.4095 L46.1308,7.4095 L46.1308,27.4791 L17.8513,27.4791 L17.8513,7.4095 Z M56.6447,51.4135 C56.6447,54.2704 54.3427,56.5964 51.51,56.5964 L12.484,56.5964 C9.6513,56.5964 7.3494,54.2704 7.3494,51.4135 L7.3494,12.5924 C7.3494,9.7356 9.6513,7.4095 12.484,7.4095 L12.5079,7.4095 L12.5079,32.8827 L51.4861,32.8827 L51.4861,7.4036 L51.516,7.4036 C54.3487,7.4036 56.6506,9.7296 56.6506,12.5865 L56.6506,51.4135 L56.6447,51.4135 Z" fill-rule="nonzero"></path>
  </g>
</svg>