<?xml version="1.0" encoding="utf-8"?>
<svg width="64px" height="64px" viewBox="0 0 64 64" version="1.1" xmlns="http://www.w3.org/2000/svg" xmlns:xlink="http://www.w3.org/1999/xlink">
  <g fill-rule="evenodd">
    <path d="M46.7647,58.4706 L53.8235,58.4706 C54.6032,58.4706 55.2353,57.8385 55.2353,57.0588 L55.2353,14.662 L47.5144,5.5294 L46.7647,5.5294 L46.7647,19.6118 C46.7647,21.1712 45.5006,22.4353 43.9412,22.4353 L17.8235,22.4353 C16.2641,22.4353 15,21.1712 15,19.6118 L15,5.5294 L7.9412,5.5294 C7.1615,5.5294 6.5294,6.1615 6.5294,6.9412 L6.5294,57.0588 C6.5294,57.8385 7.1615,58.4706 7.9412,58.4706 L15,58.4706 L15,36.5882 C15,35.0288 16.2641,33.7647 17.8235,33.7647 L43.9412,33.7647 C45.5006,33.7647 46.7647,35.0288 46.7647,36.5882 L46.7647,58.4706 Z M43.2353,58.4706 L43.2353,38.7059 C43.2353,37.9262 42.6032,37.2941 41.8235,37.2941 L19.9412,37.2941 C19.1615,37.2941 18.5294,37.9262 18.5294,38.7059 L18.5294,58.4706 L43.2353,58.4706 Z M18.5294,5.5294 L18.5294,17.4941 C18.5294,18.2738 19.1615,18.9059 19.9412,18.9059 L41.8235,18.9059 C42.6032,18.9059 43.2353,18.2738 43.2353,17.4941 L43.2353,5.5294 L18.5294,5.5294 Z M58.3513,13.079 L58.3513,13.0791 C58.616,13.3438 58.7647,13.7029 58.7647,14.0773 L58.7647,14.0773 L58.7647,59.1765 C58.7647,60.7359 57.5006,62 55.9412,62 L5.8235,62 C4.2641,62 3,60.7359 3,59.1765 L3,4.8235 C3,3.2641 4.2641,2 5.8235,2 L48.0992,2 C48.4736,2 48.8327,2.1487301 49.0975,2.4135 L58.3513,13.079 Z M38.3647,50 C39.3393,50 40.1294,50.7901 40.1294,51.7647 C40.1294,52.7393 39.3393,53.5294 38.3647,53.5294 L23.4,53.5294 C22.4254,53.5294 21.6353,52.7393 21.6353,51.7647 C21.6353,50.7901 22.4254,50 23.4,50 L38.3647,50 Z M33.4235,41.5294 C34.3981,41.5294 35.1882,42.3195 35.1882,43.2941 C35.1882,44.2687 34.3981,45.0588 33.4235,45.0588 L23.4,45.0588 C22.4254,45.0588 21.6353,44.2687 21.6353,43.2941 C21.6353,42.3195 22.4254,41.5294 23.4,41.5294 L33.4235,41.5294 Z M36.1765,10.7499 C36.1765,9.7965 36.9666,9.0235 37.9412,9.0235 C38.9158,9.0235 39.7059,9.7965 39.7059,10.7499 L39.7059,13.6502 C39.7059,14.6036 38.9158,15.3765 37.9412,15.3765 C36.9666,15.3765 36.1765,14.6035 36.1765,13.6502 L36.1765,10.7499 Z" fill-rule="nonzero"></path>
  </g>
</svg>