<?xml version="1.0" encoding="utf-8"?>
<svg width="64px" height="64px" viewBox="0 0 64 64" version="1.1" xmlns="http://www.w3.org/2000/svg" xmlns:xlink="http://www.w3.org/1999/xlink">
  <g fill-rule="evenodd">
    <path d="M14.7656,57.3145 L48.8056,57.3145 L48.8056,40.2952 L14.7656,40.2952 L14.7656,57.3145 Z M53.06,57.3145 L57.3144,57.3145 L57.3144,23.2749 C57.3144,19.3325 48.9967,8.0008 48.9967,8.0008 C48.2522,6.881 47.2422,6.2556 44.5489,6.2556 L44.5489,23.2749 C44.5489,24.4002 44.1756,25.15 43.4256,25.8998 C42.6744,26.6496 41.0444,27.5294 40.2956,27.5294 L14.26,27.5294 C13.1344,27.5294 12.3844,27.1539 11.6344,26.4041 C10.8844,25.6543 10.5089,24.529 10.5089,23.7792 L10.5089,6.2556 L6.2556,6.2556 L6.2556,57.3145 L10.51,57.3145 L10.51,39.7898 C10.51,38.6645 10.8844,37.9147 11.6344,37.166 C12.3844,36.415 13.1356,36.0396 14.26,36.0396 L49.3089,36.0396 C50.4333,36.0396 51.1844,36.415 51.9344,37.166 C52.6833,37.9147 53.06,38.6656 53.06,39.7898 L53.06,57.3145 Z M40.2956,21.5653 L40.2956,8.3751 C40.2956,7.6498 40.1667,6.8755 39.1689,6.8755 L29.3911,6.8755 C28.3922,6.8755 28.2667,7.2476 28.2667,8.3751 L28.2667,21.5653 C28.2667,22.3473 28.5589,22.6906 29.3911,22.6906 L39.1689,22.6906 C40.0667,22.6906 40.2956,22.4473 40.2956,21.5653 Z M62,21.8752 L62,58.2498 C62,59.3762 61.6256,60.1249 60.8733,60.8736 C60.1244,61.6256 59.3744,62 58.2522,62 L5.75,62 C4.6244,62 3.87555556,61.6256 3.12555556,60.8736 C2.37444444,60.1238 2,59.3751 2,58.2498 L2,5.7491 C2,4.6249 2.37444444,3.874 3.12444444,3.1242 C3.87555556,2.37435432 4.6244,2 5.75,2 L46.3689,2 C49.9756,2 51.3144,2.7187 52.7444,4.626 C52.7444,4.626 62,18.1072 62,21.8752 Z" fill-rule="nonzero"></path>
  </g>
</svg>