<?xml version="1.0" encoding="utf-8"?>
<svg width="64px" height="64px" viewBox="0 0 64 64" version="1.1" xmlns="http://www.w3.org/2000/svg" xmlns:xlink="http://www.w3.org/1999/xlink">
  <g fill-rule="evenodd">
    <path d="M41.7684,44.1053 L22.0632,44.1053 C21.7263,44.1053 21.5018,43.8807 21.5018,43.5439 C21.5018,43.207 21.7263,42.9825 22.0632,42.9825 L41.8246,42.9825 C42.1614,42.9825 42.386,43.207 42.386,43.5439 C42.386,43.8807 42.1053,44.1053 41.7684,44.1053 Z M41.7684,48.5965 L22.0632,48.5965 C21.7263,48.5965 21.5018,48.3719 21.5018,48.0351 C21.5018,47.6982 21.7263,47.4737 22.0632,47.4737 L41.8246,47.4737 C42.1614,47.4737 42.386,47.6982 42.386,48.0351 C42.386,48.3719 42.1053,48.5965 41.7684,48.5965 Z M41.7684,53.0877 L22.0632,53.0877 C21.7263,53.0877 21.5018,52.8632 21.5018,52.5263 C21.5018,52.1895 21.7263,51.9649 22.0632,51.9649 L41.8246,51.9649 C42.1614,51.9649 42.386,52.1895 42.386,52.5263 C42.386,52.8632 42.1053,53.0877 41.7684,53.0877 Z M47.1579,40.7368 L49.4035,40.7368 L49.4035,54.4912 C49.4035,57.5789 46.8772,60.386 43.7895,60.386 L20.2105,60.386 C17.1228,60.386 14.5965,57.5789 14.5965,54.4912 L14.5965,40.7368 L16.8421,40.7368 L16.8421,54.2105 C16.8421,56.2316 18.4702,58.1404 20.4912,58.1404 L43.5088,58.1404 C45.5298,58.1404 47.1579,56.2316 47.1579,54.2105 L47.1579,40.7368 Z M16.8421,12.6667 L14.5965,12.6667 L14.5965,7.3333 C14.5965,4.2456 17.1228,2 20.2105,2 L43.7895,2 C46.8772,2 49.4035,4.2456 49.4035,7.3333 L49.4035,12.6667 L47.1579,12.6667 L47.1579,7.614 C47.1579,5.593 45.5298,4.2456 43.5088,4.2456 L20.4912,4.2456 C18.4702,4.2456 16.8421,5.593 16.8421,7.614 L16.8421,12.6667 Z M51.0877,39.614 L12.2386,39.614 C11.9018,39.614 11.6772,39.3895 11.6772,39.0526 C11.6772,38.7158 11.9018,38.4912 12.2386,38.4912 L51.0877,38.4912 C51.4246,38.4912 51.6491,38.7158 51.6491,39.0526 C51.6491,39.3895 51.4246,39.614 51.0877,39.614 Z M36.0421,29.5088 C35.1119,29.5088 34.3579,28.7547 34.3579,27.8246 C34.3579,26.8944 35.1119,26.1404 36.0421,26.1404 C36.9723,26.1404 37.7263,26.8944 37.7263,27.8246 C37.7263,28.7547 36.9723,29.5088 36.0421,29.5088 Z M43.3404,29.5088 C42.4102,29.5088 41.6561,28.7547 41.6561,27.8246 C41.6561,26.8944 42.4102,26.1404 43.3404,26.1404 C44.2705,26.1404 45.0246,26.8944 45.0246,27.8246 C45.0246,28.7547 44.2705,29.5088 43.3404,29.5088 Z M50.0772,29.5088 C49.147,29.5088 48.393,28.7547 48.393,27.8246 C48.393,26.8944 49.147,26.1404 50.0772,26.1404 C51.0074,26.1404 51.7614,26.8944 51.7614,27.8246 C51.7614,28.7547 51.0074,29.5088 50.0772,29.5088 Z M58.386,13.7895 C61.4737,13.7895 64,16.0351 64,19.1228 L64,42.1404 C64,45.2281 61.4737,48.0351 58.386,48.0351 L50.5263,48.0351 L50.5263,45.7895 L58.386,45.7895 C60.2386,45.7895 61.7544,43.993 61.7544,42.1404 L61.7544,19.1228 C61.7544,17.2702 60.2386,16.0351 58.386,16.0351 L5.614,16.0351 C3.7614,16.0351 2.2456,17.2702 2.2456,19.1228 L2.2456,42.1404 C2.2456,43.993 3.7614,45.7895 5.614,45.7895 L13.4737,45.7895 L13.4737,48.0351 L5.614,48.0351 C2.5263,48.0351 0,45.2281 0,42.1404 L0,19.1228 C0,16.0351 2.5263,13.7895 5.614,13.7895 L58.386,13.7895 Z"></path>
  </g>
</svg>