<?xml version="1.0" encoding="utf-8"?>
<svg width="64px" height="64px" viewBox="0 0 64 64" version="1.1" xmlns="http://www.w3.org/2000/svg" xmlns:xlink="http://www.w3.org/1999/xlink">
  <g fill-rule="evenodd">
    <path d="M46.026,30.4226 L17.9741,30.4226 C16.2598,30.4226 14.8572,31.8437 14.8572,33.5803 L14.8572,58.8423 C14.8572,60.579 16.2598,62 17.9741,62 L46.026,62 C47.7403,62 49.1429,60.579 49.1429,58.8423 L49.1429,33.5803 C49.1429,31.8437 47.7403,30.4226 46.026,30.4226 Z M46.026,58.8423 L17.9741,58.8423 L17.9741,33.5803 L46.026,33.5803 L46.026,58.8423 Z M57.1507,13.0521 L51.5001,13.0521 L51.5001,8.3184 C51.5001,4.845 48.1017,2 44.8014,2 L17.8014,2 C14.5014,2 12.5,4.8449 12.5,8.3184 L12.5,13.0521 L6.1507,13.0521 C3.6656,13.0521 2,15.1737 2,17.7897 L2,41.4727 C2,43.2095 3.00074108,44.6295 4.6507,44.6295 L11,44.6295 L11,30.4206 C11,27.8155 12.6758,25.6831 15.1507,25.6831 L48.1507,25.6831 C50.6258,25.6831 53,27.8154 53,30.4206 L53,44.6295 L58.3013,44.6295 C60.1435,44.6295 62,43.0441 62,41.1051 L62,17.7897 C62.0001,15.1846 59.6259,13.0521 57.1508,13.0521 L57.1507,13.0521 Z M53.4197,20.9464 L48.1697,20.9464 C47.3448,20.9464 46.6697,20.2359 46.6697,19.3675 C46.6697,18.4992 47.3448,17.7886 48.1697,17.7886 L53.4197,17.7886 C54.2447,17.7886 54.9196,18.4991 54.9196,19.3675 C54.9196,20.2359 54.2447,20.9464 53.4197,20.9464 Z M47.0001,13.0521 L17,13.0521 L17,9.9003 C17,8.1636 17.6515,6.7367 19.3013,6.7367 L43.3014,6.7367 C44.9515,6.7367 47,8.1636 47,9.9003 L47.0001,13.0521 Z M40.6464,47.9406 L23.3536,47.9406 C22.3977,47.9406 21.6243,47.1672 21.6243,46.2113 C21.6243,45.2555 22.3977,44.4821 23.3536,44.4821 L40.6464,44.4821 C41.6023,44.4821 42.3757,45.2555 42.3757,46.2113 C42.3757,47.1672 41.6023,47.9406 40.6464,47.9406 Z M40.6464,40.5715 L23.3536,40.5715 C22.3977,40.5715 21.6243,39.798 21.6243,38.8422 C21.6243,37.8864 22.3977,37.1129 23.3536,37.1129 L40.6464,37.1129 C41.6023,37.1129 42.3757,37.8864 42.3757,38.8422 C42.3757,39.798 41.6023,40.5715 40.6464,40.5715 Z M40.6464,55.1428 L23.3536,55.1428 C22.3977,55.1428 21.6243,54.3694 21.6243,53.4136 C21.6243,52.4577 22.3977,51.6843 23.3536,51.6843 L40.6464,51.6843 C41.6023,51.6843 42.3757,52.4577 42.3757,53.4136 C42.3757,54.3693 41.6023,55.1428 40.6464,55.1428 Z" fill-rule="nonzero"></path>
  </g>
</svg>