<?xml version="1.0" encoding="utf-8"?>
<svg width="64px" height="64px" viewBox="0 0 64 64" version="1.1" xmlns="http://www.w3.org/2000/svg" xmlns:xlink="http://www.w3.org/1999/xlink">
  <g fill-rule="evenodd">
    <path d="M55.2477,0.0124853698 C60.0733,0.0124853698 63.9875,3.9267 63.9875,8.7523 L63.9875,55.1978 C63.9875,60.0235 60.0733,63.9376 55.2477,63.9376 L8.8022,63.9376 C3.97654166,63.9376 0.0623765854,60.0234 0.0623765854,55.1978 L0.0623765854,8.7523 C0.0623765854,3.92665044 3.9766,0.0124853698 8.8022,0.0124853698 L55.2477,0.0124853698 Z M52.0702,40.9333 L52.0703,40.9333 L52.0703,20.9567 C52.0703,19.9953 51.2899,19.2462 50.3286,19.2462 L41.62,19.2462 L41.62,14.021 C41.62,13.3031 41.2392,12.7163 40.515,12.7163 L23.5599,12.7163 C22.8358,12.7163 22.455,13.2969 22.455,14.021 L22.455,19.2462 L13.7464,19.2462 C12.785,19.2462 12.0047,19.9953 12.0047,20.9567 L12.0047,40.9333 C12.0047,41.8947 12.785,42.7624 13.7464,42.7624 L20.1327,42.7624 L19.0964,49.542 C19.0277,49.9789 19.1588,50.5158 19.446,50.8529 C19.7331,51.19 20.1576,51.4709 20.6009,51.4709 L43.4803,51.4709 C43.9235,51.4709 44.348,51.1713 44.6352,50.8342 C44.9223,50.4971 45.0534,50.0351 44.9848,49.5981 L43.9485,42.7624 L50.3285,42.7624 C51.2899,42.7624 52.0702,41.8946 52.0702,40.9333 Z M15.4881,39.279 L15.4881,22.7296 L48.5806,22.7296 L48.5806,39.279 L43.4117,39.279 L42.8623,35.7269 C42.7499,34.9777 42.1132,34.4846 41.3578,34.4846 L22.7109,34.4846 C21.9618,34.4846 21.3188,34.984 21.2064,35.7269 L20.6571,39.279 L15.4881,39.279 Z M21.2938,25.7823 C20.5697,25.7823 19.9891,26.3691 19.9891,27.087 C19.9891,27.8049 20.5697,28.3917 21.2938,28.3917 L25.3953,28.3917 C26.1132,28.3917 26.7,27.8049 26.7,27.087 C26.7,26.3691 26.1194,25.7823 25.3953,25.7823 L21.2938,25.7823 Z M24.0219,37.5373 L40.0531,37.5373 L41.7074,48.4245 L22.3738,48.4245 L24.0219,37.5373 Z M25.0706,15.3258 L39.0043,15.3258 L39.0043,19.2462 L25.0706,19.2462 L25.0706,15.3258 Z" fill-rule="nonzero"></path>
  </g>
</svg>