<?xml version="1.0" encoding="utf-8"?>
<svg width="64px" height="64px" viewBox="0 0 64 64" version="1.1" xmlns="http://www.w3.org/2000/svg" xmlns:xlink="http://www.w3.org/1999/xlink">
  <g fill-rule="evenodd">
    <path d="M11.4297,47.956 L10.4891,47.956 L10.4891,47.956 C6.9053,47.956 4,45.1545 4,41.6987 L4,22.3044 L4,22.3044 C4,18.8487 6.9053,16.0472 10.4891,16.0472 L11.4297,16.0472 L11.4297,19.1695 C11.4297,19.5519 11.7509,19.8647 12.1507,19.8647 L51.5636,19.8647 C51.9618,19.8647 52.2846,19.5535 52.2846,19.1695 C52.2846,19.1695 52.2846,19.1695 52.2846,19.1695 L52.2846,16.0472 L53.2252,16.0472 C56.809,16.0472 59.7143,18.8486 59.7143,22.3044 C59.7143,22.3044 59.7143,22.3044 59.7143,22.3044 L59.7143,41.6987 C59.7143,45.1545 56.809,47.956 53.2252,47.956 L52.2846,47.956 L52.2846,34.2975 C52.2846,33.9135 51.9618,33.6023 51.5636,33.6023 C51.5636,33.6023 51.5636,33.6023 51.5636,33.6023 L12.1507,33.6023 C11.7525,33.6023 11.4297,33.9135 11.4297,34.2975 C11.4297,34.2975 11.4297,34.2975 11.4297,34.2975 L11.4297,47.956 L11.4297,47.956 Z M41.1418,23.3758 L41.1418,26.8836 L52.2846,26.8836 L52.2846,23.3758 L41.1418,23.3758 Z M18.7479,62 L18.7479,62 C16.7569,62 15.1429,60.4436 15.1429,58.5238 C15.1429,58.5238 15.1429,58.5238 15.1429,58.5238 L15.1429,37.8117 C15.1429,37.4277 15.4657,37.1164 15.8639,37.1164 C15.8639,37.1164 15.8639,37.1164 15.8639,37.1164 L47.8504,37.1164 C48.2486,37.1164 48.5714,37.4277 48.5714,37.8117 C48.5714,37.8117 48.5714,37.8117 48.5714,37.8117 L48.5714,58.5238 C48.5714,60.4436 46.9574,62 44.9664,62 C44.9664,62 44.9664,62 44.9664,62 L18.7479,62 L18.7479,62 Z M22.897,44.3343 C21.9015,44.3343 21.0945,45.1125 21.0945,46.0725 C21.0945,46.0725 21.0945,46.0725 21.0945,46.0725 L21.0945,46.1104 C21.0945,47.0711 21.904,47.8485 22.897,47.8485 L41.5776,47.8485 C42.5732,47.8485 43.3802,47.0703 43.3802,46.1104 C43.3802,46.1104 43.3802,46.1104 43.3802,46.1104 L43.3802,46.0756 C43.3802,45.1157 42.5732,44.3375 41.5776,44.3375 C41.5776,44.3375 41.5776,44.3375 41.5776,44.3375 L22.897,44.3375 L22.897,44.3343 Z M22.8314,50.3609 C21.8359,50.3609 21.0289,51.139 21.0289,52.099 C21.0289,52.099 21.0289,52.099 21.0289,52.099 L21.0289,52.1306 C21.0289,53.0945 21.8384,53.8687 22.8314,53.8687 L41.5121,53.8687 C42.5076,53.8687 43.3146,53.0905 43.3146,52.1306 C43.3146,52.1306 43.3146,52.1306 43.3146,52.1306 L43.3146,52.099 C43.3146,51.139 42.5076,50.3609 41.5121,50.3609 C41.5121,50.3609 41.5121,50.3609 41.5121,50.3609 L22.8314,50.3609 Z M18.7479,2 L44.9664,2 L44.9664,2 C46.9574,2 48.5714,3.5564 48.5714,5.4762 C48.5714,5.4762 48.5714,5.4762 48.5714,5.4762 L48.5714,15.6585 C48.5714,16.0425 48.2486,16.3537 47.8504,16.3537 C47.8504,16.3537 47.8504,16.3537 47.8504,16.3537 L15.8639,16.3537 C15.4657,16.3537 15.1429,16.0425 15.1429,15.6585 C15.1429,15.6585 15.1429,15.6585 15.1429,15.6585 L15.1429,5.4762 L15.1429,5.4762 C15.1429,3.5564 16.7569,2 18.7479,2 L18.7479,2 Z" fill-rule="nonzero"></path>
  </g>
</svg>