<?xml version="1.0" encoding="utf-8"?>
<svg width="64px" height="64px" viewBox="0 0 64 64" version="1.1" xmlns="http://www.w3.org/2000/svg" xmlns:xlink="http://www.w3.org/1999/xlink">
  <g fill-rule="evenodd">
    <g fill-rule="nonzero">
      <path d="M32,3.5527e-15 C49.6,1.77635684e-15 64,14.4 64,32 C64,49.6 49.6,64 32,64 C14.4,64 0,49.6 0,32 C0,14.4 14.4,3.5527e-15 32,3.5527e-15 Z M50,48.6655 L50,30.2655 C50,28.2655 48,26.2655 46,26.2655 L44,26.2655 L44,21.0655 C44,21.0655 44.4,8.2655 32,8.2655 C19.6,8.2655 20,21.0655 20,21.0655 L20,26.2655 L18,26.2655 C16,26.2655 14,28.2655 14,30.2655 L14,48.6655 C14,50.6655 16,52.2655 18,52.2655 L46,52.2655 C48,52.2655 50,50.6655 50,48.6655 Z M31.6139,32.6619 C34.1684,32.6619 36.2323,34.7735 36.2282,37.3753 C36.2136,39.0642 35.3301,40.6146 33.9148,41.4347 L33.9148,46.8035 C33.9148,48.1317 32.8828,49.2084 31.6097,49.2084 C30.3367,49.2084 29.3046,48.1317 29.3046,46.8035 L29.3046,41.4347 C27.8902,40.6147 27.0088,39.0634 26.9982,37.3753 C26.9982,34.7735 29.0635,32.6619 31.6139,32.6619 Z M32,11.8655 C40.4,11.8655 40,19.4655 40,21.0655 L40,26.2655 L24,26.2655 L24,21.0655 C24,19.4655 23.6,11.8655 32,11.8655 Z"></path>
    </g>
  </g>
</svg>