<?xml version="1.0" encoding="utf-8"?>
<svg width="64px" height="64px" viewBox="0 0 64 64" version="1.1" xmlns="http://www.w3.org/2000/svg" xmlns:xlink="http://www.w3.org/1999/xlink">
  <g fill-rule="evenodd">
    <path d="M50.6398,51.4205 L50.6398,30.132 C50.6398,28.0922 48.9791,26.4299 46.9385,26.4299 L17.6364,26.4299 C15.5957,26.4299 13.9351,28.0922 13.9351,30.132 L13.9351,51.4205 C13.9351,53.4616 15.5957,55.1226 17.6364,55.1226 L46.9385,55.1226 C48.9791,55.1226 50.6398,53.4616 50.6398,51.4205 Z M32.2874,7.9365 C24.6714,7.9365 18.4519,13.9611 18.1015,21.4937 L46.4734,21.4937 C46.123,13.9611 39.9035,7.9365 32.2874,7.9365 Z M51.369,22.7315 C53.8834,24.2432 55.5749,26.9902 55.5749,30.132 L55.5749,51.4205 C55.5749,56.1827 51.6996,60.0588 46.9385,60.0588 L17.6364,60.0588 C12.8753,60.0588 9,56.1827 9,51.4205 L9,30.132 C9,26.9902 10.6915,24.2432 13.2059,22.7315 C13.1615,22.5464 13.1331,22.3576 13.1331,22.1601 C13.1331,11.5955 21.7251,3.0004 32.2874,3.0004 C42.8498,3.0004 51.4418,11.5955 51.4418,22.1601 C51.4418,22.3576 51.4134,22.5464 51.369,22.7315 Z M36.913,38.4643 C36.913,39.9365 36.2122,41.2347 35.1388,42.0813 L35.9667,49.9532 C35.9975,50.0248 36.0136,50.105 36.0136,50.1865 C36.0136,50.5258 35.7372,50.8035 35.3967,50.8035 C35.3917,50.8035 35.3819,50.8047 35.372,50.8035 L29.2031,50.8035 C29.0279,50.8035 28.8626,50.7282 28.7442,50.5986 C28.627,50.4691 28.5714,50.2951 28.59,50.1223 L29.4351,42.0813 C28.3629,41.2347 27.6622,39.9365 27.6622,38.4643 C27.6622,35.9098 29.7337,33.8366 32.2876,33.8366 C34.8415,33.8366 36.913,35.9098 36.913,38.4643 Z"></path>
  </g>
</svg>