<?xml version="1.0" encoding="utf-8"?>
<svg width="64px" height="64px" viewBox="0 0 64 64" version="1.1" xmlns="http://www.w3.org/2000/svg" xmlns:xlink="http://www.w3.org/1999/xlink">
  <g fill-rule="evenodd">
    <path d="M56.1967,55.8269 C56.1967,58.4719 53.5517,60.5878 50.9067,60.5878 L13.877,60.5878 C11.232,60.5878 8.587,58.4719 8.587,55.8269 L8.587,31.493 C8.587,28.848 11.232,26.203 13.877,26.203 L16.5219,26.203 L16.5219,19.3261 C16.5219,19.3261 15.9929,2.3982 32.3918,2.3982 C48.7908,2.3982 48.2618,19.3261 48.2618,19.3261 L48.2618,26.203 L50.9067,26.203 C53.5517,26.203 56.1967,28.848 56.1967,31.493 L56.1967,55.8269 Z M32.3918,7.1592 C21.2829,7.1592 21.8119,17.2101 21.8119,19.3261 L21.8119,26.203 L42.9718,26.203 L42.9718,19.3261 C42.9718,17.2101 43.5008,7.1592 32.3918,7.1592 Z M31.8812,34.6622 C28.5084,34.6622 25.777,37.4548 25.777,40.8956 C25.791,43.1282 26.9567,45.1797 28.8273,46.2641 L28.8273,53.3644 C28.8273,55.1209 30.1921,56.5448 31.8757,56.5448 C33.5594,56.5448 34.9242,55.1209 34.9242,53.3644 L34.9242,46.2641 C36.7958,45.1795 37.9643,43.1292 37.9836,40.8956 C37.9891,37.4548 35.2595,34.6622 31.8812,34.6622 Z" fill-rule="nonzero"></path>
  </g>
</svg>