<?xml version="1.0" encoding="utf-8"?>
<svg width="64px" height="64px" viewBox="0 0 64 64" version="1.1" xmlns="http://www.w3.org/2000/svg" xmlns:xlink="http://www.w3.org/1999/xlink">
  <g fill-rule="evenodd">
    <path d="M53.9024,56.0217 C53.9024,59.6601 50.8876,60.5878 47.1674,60.5878 L15.7349,60.5878 C12.0147,60.5878 9,59.6668 9,56.0217 L9,34.0412 C9,30.4042 12.0148,27.4471 15.735,27.4471 L15.2495,27.4471 C15.8181,24.4779 11.4435,3.6749 30.0846,2.75085063 C47.1635,2.8447 45.5179,22.0304 45.5179,22.0304 L39.8518,21.9915 C39.8518,21.9915 41.6529,7.6579 30.0846,8.0884 C17.9209,8.4572 21.2146,23.6947 20.76,27.4431 L47.1674,27.4431 C50.8876,27.4431 53.9023,30.4002 53.9023,34.0412 L53.9024,56.0217 Z M31.0599,34.6622 C27.6871,34.6622 24.9557,37.4548 24.9557,40.8956 C24.9697,43.1282 26.1353,45.1797 28.006,46.2641 L28.006,53.3644 C28.006,55.1209 29.3708,56.5448 31.0544,56.5448 C32.738,56.5448 34.1029,55.1209 34.1029,53.3644 L34.1029,46.2641 C35.9745,45.1795 37.143,43.1292 37.1623,40.8956 C37.1677,37.4548 34.4382,34.6622 31.0599,34.6622 Z" fill-rule="nonzero"></path>
  </g>
</svg>