<?xml version="1.0" encoding="utf-8"?>
<svg width="64px" height="64px" viewBox="0 0 64 64" version="1.1" xmlns="http://www.w3.org/2000/svg" xmlns:xlink="http://www.w3.org/1999/xlink">
  <g fill-rule="evenodd">
    <path d="M14.9698,49.62 C15.0111,49.6631 15.053,49.7059 15.0955,49.7483 C17.5719,52.2247 21.189,52.8626 24.2527,51.6628 C25.0188,51.3624 25.5833,50.6967 25.752,49.8909 C25.9208,49.0851 25.6719,48.2481 25.0897,47.6659 L17.1795,39.7558 C16.7789,39.3551 16.2583,39.1115 15.7097,39.0532 C15.6247,39.0442 15.539,39.0396 15.453,39.0396 C15.539,39.0396 15.6247,39.0442 15.7097,39.0532 Z M48.875,5 L59,5 L59,15.125 L52.25,15.125 L52.25,21.875 L45.5,21.875 L45.5,28.625 L38.75,28.625 L38.75,35.375 L37.7308,36.3942 C38.3787,38.1864 38.75,40.1101 38.75,42.125 C38.75,51.4451 31.1951,59 21.875,59 C12.5549,59 5,51.4451 5,42.125 C5,32.8049 12.5549,25.25 21.875,25.25 C23.8899,25.25 25.8136,25.6212 27.6058,26.2692 L48.875,5 Z" fill-rule="nonzero"></path>
  </g>
</svg>