<?xml version="1.0" encoding="utf-8"?>
<svg width="64px" height="64px" viewBox="0 0 64 64" version="1.1" xmlns="http://www.w3.org/2000/svg" xmlns:xlink="http://www.w3.org/1999/xlink">
  <g fill-rule="evenodd">
    <path d="M52.273,59 L48.8635,59 L48.8635,52.2845 L42.1365,52.2845 L42.1365,45.569 L35.4096,45.569 L35.4096,42.1652 L28.5904,42.1652 L28.5904,37.3816 C26.5631,38.3015 24.2594,38.7615 21.8635,38.7615 C12.5563,38.7615 5,31.2181 5,21.9267 C5,12.6354 12.4642,5 21.8635,5 C31.2628,5 38.727,12.5434 38.727,21.8348 C38.727,24.2266 38.1741,26.5264 37.3447,28.5503 L42.1365,28.5503 L42.1365,35.2658 L59,48.8807 L59,59 L52.273,59 Z M18.4539,11.7155 C14.6758,11.7155 11.727,14.7513 11.727,18.431 C11.727,22.1107 14.7679,25.1465 18.4539,25.1465 C22.1399,25.1465 25.1809,22.1107 25.1809,18.431 C25.1809,14.7513 22.2321,11.7155 18.4539,11.7155 Z" fill-rule="nonzero"></path>
  </g>
</svg>