<?xml version="1.0" encoding="utf-8"?>
<svg width="64px" height="64px" viewBox="0 0 64 64" version="1.1" xmlns="http://www.w3.org/2000/svg" xmlns:xlink="http://www.w3.org/1999/xlink">
  <g fill-rule="evenodd">
    <path d="M42.1373,5 C32.7986,5 25.2462,12.5531 25.2462,21.8657 C25.258,23.9641 25.6673,26.0392 26.4481,27.9867 L5.9582,48.5036 C5.3667,49.0978 5,49.6619 5,50.5671 L5,55.6273 C5,57.4309 6.5663,59 8.374,59 L13.4325,59 C14.3364,59 14.909,58.6402 15.5005,58.0483 L17.9209,55.6273 L21.8722,55.6273 C23.7366,55.6273 25.2438,54.1186 25.2438,52.2546 L25.2438,48.8796 L28.6178,48.8796 C30.4822,48.8796 31.9894,47.3709 31.9894,45.507 L31.9894,41.554 L35.9998,37.55 L35.9998,37.55 C37.9469,38.3353 40.0298,38.7458 42.1349,38.7593 C51.4453,38.7593 59,31.176 59,21.8657 C59,12.5554 51.4476,5 42.1372,5 L42.1373,5 Z M42.1373,35.3727 L42.1373,35.3727 C39.7252,35.3587 37.3633,34.6955 35.3089,33.4554 L34.7245,34.0357 L32.8175,35.9414 L29.6044,39.1678 L29.6044,39.1678 C28.9689,39.8045 28.6137,40.6606 28.6154,41.5517 L28.6154,45.5046 L25.2438,45.5046 C23.3817,45.5046 21.8698,47.0134 21.8698,48.8773 L21.8698,52.25 L17.9233,52.25 L17.9233,52.25 C17.025,52.2512 16.1652,52.6076 15.5383,53.2388 L13.1463,55.6296 L8.3811,55.625 L8.3763,50.8178 L28.0475,31.1528 L28.0475,31.1551 L30.5248,28.6784 L30.5248,28.6784 C29.2852,26.6123 28.6264,24.2607 28.6154,21.8634 C28.6154,14.4124 34.6653,8.3703 42.1349,8.3703 C49.5855,8.3703 55.626,14.4124 55.626,21.8634 C55.6284,29.3167 49.5903,35.3727 42.1372,35.3727 L42.1373,35.3727 Z M51.9445,18.8946 L51.9445,18.8946 C50.0595,16.2662 47.7499,13.9572 45.1067,12.0587 C44.6784,11.7476 44.1202,11.6667 43.6185,11.8428 C41.2761,12.6691 39.6719,14.2731 38.8556,16.6152 C38.675,17.1155 38.7545,17.6708 39.0686,18.103 L39.0686,18.103 C40.9541,20.7296 43.2628,23.0376 45.9041,24.9366 C46.3329,25.2464 46.8904,25.3273 47.3923,25.1524 C49.737,24.3331 51.3412,22.7291 52.167,20.3824 C52.3416,19.8803 52.2588,19.3263 51.9445,18.8945 L51.9445,18.8946 Z M46.8836,23.5694 L46.8836,23.5694 C44.4074,21.7824 42.2339,19.6235 40.4432,17.1722 C41.0962,15.3107 42.3171,14.0897 44.1224,13.4258 L44.1224,13.4259 C46.6081,15.2132 48.7822,17.3838 50.5604,19.8532 C49.9003,21.7009 48.6818,22.9148 46.8836,23.5694 L46.8836,23.5694 Z" fill-rule="nonzero"></path>
  </g>
</svg>