<?xml version="1.0" encoding="utf-8"?>
<svg width="64px" height="64px" viewBox="0 0 64 64" version="1.1" xmlns="http://www.w3.org/2000/svg" xmlns:xlink="http://www.w3.org/1999/xlink">
  <g fill-rule="evenodd">
    <path d="M25.6275,62.2068 C24.1762,62.2068 23.0425,61.4784 22.5195,60.2176 C22.1795,59.3977 22.1795,58.5385 22.1795,57.9688 C22.1795,56.0226 22.1328,39.6252 22.1235,36.1306 C3.4251,12.8038 3.4251,11.9128 3.4251,11.1265 L3.4251,5.5231 C3.4251,3.46294911 5.1005,1.78754022 7.1607,1.78754022 L55.7232,1.78754022 C57.7852,1.78754022 59.4588,3.46294911 59.4588,5.5231 L59.4588,11.1265 C59.4588,11.911 59.4588,12.8019 40.7977,36.1231 C40.794,38.6913 40.7809,48.0583 40.7809,50.4136 C40.7809,53.9904 39.9609,55.6863 37.6393,56.9079 L35.7024,57.9352 C33.3527,59.1828 30.9283,60.4698 28.5973,61.4746 C27.4411,61.9659 26.4699,62.2068 25.6275,62.2068 L25.6275,62.2068 Z M7.1607,10.71 C8.6381,13.1269 19.0043,26.2668 25.4482,34.2945 C25.7134,34.627 25.8572,35.0342 25.8591,35.4582 C25.8591,35.4582 25.917,55.7834 25.917,57.9632 C25.917,58.0865 25.917,58.2695 25.9245,58.4358 C26.3385,58.3458 26.7418,58.2118 27.1273,58.0361 C29.3164,57.0984 31.6717,55.8433 33.9504,54.6348 L35.9078,53.5982 C36.6661,53.1985 37.0472,53.0005 37.0472,50.4136 C37.0472,47.6754 37.0677,35.4619 37.0677,35.4619 L37.0677,35.4619 C37.0669,35.0386 37.2113,34.6279 37.4768,34.2983 C43.9057,26.2668 54.2533,13.1268 55.7269,10.7099 L55.7269,5.5231 L7.1607,5.5231 L7.1607,10.71 Z M27.7848,29.81 C27.2112,29.8105 26.6693,29.5475 26.3148,29.0966 L13.1619,12.3649 C12.5379,11.5435 12.6981,10.3717 13.5195,9.7478 C14.3216,9.1386 15.4623,9.2751 16.098,10.0563 L29.251,26.788 C29.8885,27.599 29.7478,28.7732 28.9369,29.4107 C28.6083,29.6689 28.2027,29.8096 27.7848,29.81 Z" fill-rule="nonzero"></path>
  </g>
</svg>