<?xml version="1.0" encoding="utf-8"?>
<svg width="64px" height="64px" viewBox="0 0 64 64" version="1.1" xmlns="http://www.w3.org/2000/svg" xmlns:xlink="http://www.w3.org/1999/xlink">
  <g fill-rule="evenodd">
    <path d="M61,39.5588 L61,58.2764 C61,59.7831 59.7826,61 58.2753,61 L5.7246,61 C4.2174,61 3,59.7831 3,58.2764 L3,39.5588 C3,38.0521 4.2174,36.8351 5.7246,36.8351 C7.2319,36.8351 8.4493,38.0521 8.4493,39.5588 L8.4493,55.5528 L55.5507,55.5528 L55.5507,39.5588 C55.5507,38.0521 56.7681,36.8351 58.2754,36.8351 C59.7826,36.8351 61,38.0521 61,39.5588 L61,39.5588 Z M16.9999,24.6368 L29.3477,12.2937 L29.3477,45.8753 C29.3477,47.3819 30.5651,48.5989 32.0724,48.5989 C33.5796,48.5989 34.797,47.3819 34.797,45.8753 L34.797,12.2937 L47.1159,24.6368 C48.1883,25.7089 49.8985,25.7089 50.9709,24.6368 C52.0434,23.5648 52.0434,21.8553 50.9709,20.7832 L33.9854,3.80404486 C32.913,2.732 31.2028,2.732 30.1593,3.80404486 L13.1738,20.7542 C12.1303,21.8263 12.1593,23.5647 13.2318,24.6078 C14.2753,25.6509 15.9564,25.6509 16.9999,24.6368 L16.9999,24.6368 Z" fill-rule="nonzero"></path>
  </g>
</svg>