<?xml version="1.0" encoding="utf-8"?>
<svg width="64px" height="64px" viewBox="0 0 64 64" version="1.1" xmlns="http://www.w3.org/2000/svg" xmlns:xlink="http://www.w3.org/1999/xlink">
  <g fill-rule="evenodd">
    <path d="M56.0001,64.0001 L8,64.0001 C3.5817,64.0001 -3.4969e-7,60.4183 -3.4969e-7,56.0001 L-3.4969e-7,8 C-1.01683564e-6,3.5817 3.5817,1.20797002e-6 8,1.20797002e-6 L56.0001,1.20797002e-6 C60.4183,1.01484043e-6 64.0001,3.5817 64.0001,8 L64.0001,56.0001 C64.0001,60.4183 60.4183,64.0001 56.0001,64.0001 Z M38.704,26.5147 L38.704,13.3334 L25.296,13.3334 L25.296,26.5147 L16.3547,26.5147 L32,41.8934 L47.6454,26.5147 L38.704,26.5147 Z M50.6667,45.3574 L13.3334,45.3574 L13.3334,50.6668 L50.6667,50.6668 L50.6667,45.3574 Z" fill-rule="nonzero"></path>
  </g>
</svg>