<?xml version="1.0" encoding="utf-8"?>
<svg width="64px" height="64px" viewBox="0 0 64 64" version="1.1" xmlns="http://www.w3.org/2000/svg" xmlns:xlink="http://www.w3.org/1999/xlink">
  <g fill-rule="evenodd">
    <path d="M52.0865,6.7377 C50.3995,6.1474 48.6811,5.9115 46.9335,6.0295 C45.1863,6.1474 43.4678,6.6121 41.7807,7.4187 C40.0914,8.2247 38.5349,9.3386 37.1039,10.7569 L20.483,27.1889 C20.4444,27.2281 20.217,27.4446 19.799,27.8378 C19.3808,28.231 18.9336,28.6858 18.4576,29.1973 C17.9016,29.7871 17.2659,30.4361 16.5505,31.1466 C15.1222,32.5259 14.1578,33.8853 13.6624,35.2251 C13.1644,36.5651 12.9567,37.8263 13.0364,39.0087 C13.1162,40.1911 13.4231,41.2726 13.9596,42.2587 C14.4963,43.2445 15.1029,44.0531 15.7772,44.6826 C16.6111,45.4716 17.5247,46.1428 18.518,46.6935 C19.5113,47.2442 20.5845,47.5488 21.7349,47.608 C22.8853,47.6696 24.1179,47.4211 25.4279,46.8705 C26.7404,46.3199 28.1083,45.3341 29.5391,43.9156 L48.2458,25.5344 C48.6037,25.1805 48.6838,24.6566 48.4853,23.9684 C48.2871,23.2798 48.0089,22.7563 47.6514,22.4025 C47.2936,22.0486 46.7693,21.7829 46.0732,21.606 C45.3794,21.429 44.8527,21.5174 44.4949,21.8715 L25.8484,40.2525 C25.1332,40.9607 24.2099,41.3956 23.0788,41.5531 C21.9454,41.7104 20.9423,41.3564 20.0696,40.4885 C19.3542,39.7806 18.9869,38.8735 18.9677,37.7695 C18.9482,36.6658 19.3956,35.6627 20.309,34.7555 L40.8624,14.4838 C43.0089,12.3574 45.1428,11.2438 47.2673,11.1455 C49.3918,11.0494 51.3084,11.8264 53.017,13.4808 C53.9306,14.3856 54.6435,15.3714 55.1607,16.4358 C55.6779,17.5004 55.9462,18.5919 55.9657,19.7154 C55.9849,20.8363 55.7676,21.9695 55.3108,23.1127 C54.8538,24.2535 54.0901,25.3573 53.017,26.4218 L30.2596,48.8199 C29.1886,49.8844 27.8982,50.7301 26.3877,51.3619 C24.877,51.9937 23.289,52.3574 21.6215,52.4556 C19.9538,52.5567 18.274,52.3207 16.5869,51.748 C14.9001,51.1775 13.3605,50.2013 11.9708,48.8223 C10.4213,47.286 9.3508,45.6902 8.7537,44.036 C8.1567,42.3791 7.92,40.7441 8.0383,39.129 C8.1593,37.514 8.5748,35.9972 9.2902,34.5787 C10.0032,33.1603 10.8976,31.9185 11.9756,30.8542 L32.1711,10.9955 C32.5288,10.6415 32.6087,10.1179 32.4105,9.4295 C32.2122,8.7388 31.9562,8.2175 31.637,7.8636 C31.2794,7.507 30.7548,7.2414 30.0588,7.0645 C29.3652,6.8875 28.8383,6.9761 28.4807,7.3301 L8.2244,27.2477 C6.7936,28.6662 5.6117,30.3994 4.6788,32.4496 C3.7459,34.5 3.19965597,36.6855 3.04,39.0112 C2.8806,41.3366 3.19733939,43.6696 3.9922,46.0149 C4.7876,48.3579 6.1966,50.536 8.222,52.5444 C10.286,54.5946 12.529,56.0131 14.9531,56.7997 C17.3747,57.5891 19.7482,57.9037 22.071,57.7464 C24.3936,57.589 26.5977,57.0383 28.6834,56.0918 C30.767,55.1454 32.5239,53.9628 33.9547,52.5444 L56.7706,30.0872 C58.2013,28.6686 59.2625,27.0831 59.9584,25.33 C60.6522,23.575 61,21.7728 61,19.9218 C61,18.068 60.6521,16.2662 59.9584,14.5134 C59.2625,12.7604 58.2013,11.1749 56.7706,9.7563 C55.3398,8.338 53.7807,7.3324 52.0865,6.7377 Z"></path>
  </g>
</svg>