<?xml version="1.0" encoding="utf-8"?>
<svg width="64px" height="64px" viewBox="0 0 64 64" version="1.1" xmlns="http://www.w3.org/2000/svg" xmlns:xlink="http://www.w3.org/1999/xlink">
  <g fill-rule="evenodd">
    <g fill-rule="nonzero">
      <path d="M32.0002,0 C49.6732,2.30527514e-15 64,14.3268 64,32.0002 C64,49.6732 49.6732,64 32.0002,64 C14.3268,64 0,49.6732 0,32.0002 C0,14.3268 14.3268,0 32.0002,0 Z M27.7765,47.9114 L35.4912,40.1968 C33.7429,41.0009 31.7055,40.9735 29.9727,40.1229 L24.9809,45.115 C23.2982,46.7974 20.5699,46.7974 18.8875,45.115 L18.8853,45.1125 C17.2025,43.4301 17.2025,40.7021 18.8853,39.0194 L27.1773,30.7269 C28.8601,29.0446 31.5745,29.0579 33.2573,30.7406 L33.2595,30.7428 C33.535,31.0187 34.0544,31.5356 34.1063,31.4804 C34.8569,31.8879 35.815,31.7746 36.4494,31.1399 C37.079,30.5102 37.1958,29.5615 36.7994,28.8135 C36.8013,28.812 36.8034,28.8099 36.8055,28.808 C36.7951,28.7943 36.7841,28.7809 36.7734,28.7674 C36.654,28.5556 36.4966,28.3676 36.309,28.2129 C36.2266,28.1229 36.1426,28.0337 36.0557,27.9468 C32.8318,24.7229 27.5895,24.7229 24.3676,27.9443 L16.0889,36.2234 C12.8667,39.4449 12.8667,44.6872 16.0889,47.9089 C19.3128,51.1328 24.5548,51.1328 27.7765,47.9114 Z M47.9114,27.7765 L47.9113,27.7765 C51.1332,24.555 51.1332,19.3127 47.9115,16.0914 C44.6872,12.8672 39.4452,12.8672 36.2235,16.0889 L28.5093,23.8033 C30.2573,22.9994 32.3001,23.0321 34.0275,23.8771 L39.0198,18.8852 C40.7026,17.2025 43.4306,17.2025 45.1133,18.8852 L45.1151,18.8874 C46.7979,20.5699 46.7979,23.2981 45.1151,24.9809 L36.8228,33.2732 C35.1401,34.9559 32.4259,34.9422 30.7432,33.2595 L30.7407,33.2573 C30.4651,32.9817 29.9463,32.4644 29.8939,32.5197 C29.1438,32.1126 28.1857,32.2258 27.5513,32.8602 C26.9211,33.4898 26.8045,34.4386 27.2009,35.1866 C27.1989,35.1884 27.1967,35.1905 27.1952,35.192 C27.2053,35.2057 27.2166,35.2192 27.2266,35.2329 C27.3149,35.3893 27.4241,35.5328 27.5513,35.6595 C27.5958,35.7042 27.6425,35.7468 27.6911,35.7871 C27.7737,35.8776 27.8582,35.9663 27.9446,36.0532 C31.1689,39.2774 36.4109,39.2774 39.6327,36.0557 L47.9114,27.7765 Z"></path>
    </g>
  </g>
</svg>