<?xml version="1.0" encoding="utf-8"?>
<svg width="64px" height="64px" viewBox="0 0 64 64" version="1.1" xmlns="http://www.w3.org/2000/svg" xmlns:xlink="http://www.w3.org/1999/xlink">
  <g fill-rule="evenodd">
    <path d="M46.5,3 C42.6272,3 38.9867,4.5092 36.2501,7.2498 L25.374,18.125 L25.374,18.125 C22.6442,20.8346 21.1122,24.5239 21.1198,28.3701 C21.1198,33.3288 23.6201,37.8895 27.8122,40.5762 C28.4211,40.9684 29.162,41.0999 29.8688,40.9411 L29.8688,40.9411 C31.3262,40.6275 32.2534,39.1918 31.9397,37.7345 C31.9378,37.7254 31.9357,37.7162 31.9337,37.7071 L31.9337,37.7071 C31.7801,37.0021 31.3518,36.3873 30.7437,35.9989 L30.7437,35.9989 C28.1341,34.3401 26.5542,31.4621 26.5558,28.3701 C26.5558,25.9487 27.5012,23.6725 29.2136,21.9643 L40.0897,11.0891 L40.0897,11.0891 C43.6421,7.5558 49.3863,7.5712 52.9198,11.1233 C54.6044,12.8168 55.553,15.1063 55.5599,17.4948 C55.5599,19.9161 54.6186,22.1924 52.9062,23.9047 L47.7481,29.0625 C46.6866,30.1238 46.6866,31.8446 47.7481,32.9059 C48.8095,33.9672 50.5304,33.9672 51.5918,32.9059 L56.7499,27.7481 L56.7499,27.7481 C59.4799,25.0356 61.0104,21.3432 60.9999,17.4948 L60.9999,17.4948 C60.9908,9.4901 54.5011,3.00455204 46.4958,3 L46.5,3 Z M36.1879,23.4196 C34.9364,22.6012 33.2584,22.9522 32.4399,24.2036 C32.0373,24.8191 31.9025,25.5718 32.0664,26.2887 C32.2181,26.9935 32.645,27.6084 33.2522,27.9969 L33.2522,27.9969 C35.8618,29.6557 37.4417,32.5338 37.4401,35.6258 C37.4401,38.0471 36.4947,40.3192 34.7864,42.0357 L23.9104,52.9068 C20.3525,56.4378 14.6056,56.4161 11.0744,52.8585 C9.3958,51.1673 8.4496,48.8838 8.4401,46.5011 C8.4401,44.0797 9.3814,41.8035 11.0938,40.0912 L16.252,34.9334 C17.3134,33.8769 17.3173,32.16 16.2607,31.0987 C16.2578,31.0958 16.2549,31.0929 16.252,31.09 C15.1986,30.0286 13.4843,30.0221 12.4229,31.0753 C12.418,31.0802 12.4131,31.0851 12.4082,31.09 L7.246,36.2477 L7.246,36.2477 C4.5175,38.961 2.9885,42.6533 3.00006513,46.501 L3.00006518,46.5011 C3.00923044,54.5049 9.4958,60.9909 17.5,61 C21.3728,61 25.0133,59.4908 27.7541,56.7502 L38.6301,45.875 L38.6301,45.875 C41.3579,43.163 42.8869,39.4722 42.876,35.6258 L42.876,35.6256 C42.883,30.6803 40.3596,26.0752 36.1876,23.4195 L36.1879,23.4196 Z" fill-rule="nonzero"></path>
  </g>
</svg>