<?xml version="1.0" encoding="utf-8"?>
<svg width="64px" height="64px" viewBox="0 0 64 64" version="1.1" xmlns="http://www.w3.org/2000/svg" xmlns:xlink="http://www.w3.org/1999/xlink">
  <g fill-rule="evenodd">
    <path d="M32,64 C14.328,64 0,49.674 0,32 C0,14.328 14.328,0 32,0 C49.672,0 64,14.328 64,32 C64,49.674 49.672,64 32,64 Z M14.9333,27.7333 L14.9333,42.1349 C14.9333,43.6067 16.3646,44.8 18.1299,44.8 L45.8677,44.8 C47.633,44.8 49.0667,43.6067 49.0667,42.1349 L49.0667,27.7333 L31.9988,36.9108 L14.9333,27.7333 Z M14.9553,21.771 C14.9405,21.8739 14.9332,21.9777 14.9333,22.0816 L32.0012,32 L49.0666,22.0816 C49.0675,21.9738 49.061,21.866 49.0471,21.759 C48.8691,20.323 47.5134,19.2 45.87,19.2 L18.1323,19.2 C16.4816,19.2 15.1235,20.3278 14.9553,21.771 Z" fill-rule="nonzero"></path>
  </g>
</svg>