<?xml version="1.0" encoding="utf-8"?>
<svg width="64px" height="64px" viewBox="0 0 64 64" version="1.1" xmlns="http://www.w3.org/2000/svg" xmlns:xlink="http://www.w3.org/1999/xlink">
  <g fill-rule="evenodd">
    <g transform="translate(3, 8)" fill-rule="nonzero">
      <path d="M52.821,46.3113 L52.821,46.3113 L5.1787,46.3113 C3.8751,46.3113 2.7447,45.8808 1.78442779,45.0308 L18.2199,28.5934 C18.631,28.8886 19.0112,29.1644 19.3541,29.4157 C20.5844,30.3219 21.582,31.0288 22.3483,31.5354 C23.1138,32.0431 24.1333,32.5607 25.4068,33.0891 C26.6802,33.6182 27.8666,33.8818 28.9674,33.8818 L28.9996,33.8818 L29.0318,33.8818 C30.1324,33.8818 31.3189,33.6181 32.5924,33.0891 C33.8651,32.5607 34.8846,32.0431 35.6509,31.5354 C36.4173,31.0288 37.4153,30.3218 38.6451,29.4157 C39.006,29.1547 39.3882,28.8802 39.7824,28.5979 L56.2148,45.0308 C55.2544,45.8808 54.1247,46.3113 52.821,46.3113 Z M3.2693,18.25 L3.2693339,18.25 C7.8526,21.3646 11.5859,23.9289 14.4834,25.9518 L-1.780136e-5,40.4352 L-1.780136e-5,15.4338 C0.949278547,16.4914 2.0397,17.4302 3.2693,18.25 Z M54.7634,18.25 L54.7633,18.2501 C55.993,17.4084 57.0717,16.4701 57.9999,15.4338 L57.9999,40.4359 L43.5224,25.9576 C46.608,23.8026 50.3549,21.2339 54.7634,18.25 Z M52.821,0.739746809 L52.821,0.739735481 C54.2235,0.739735481 55.4376,1.24686704 56.4628,2.2606 C57.4868,3.2756 58,4.4943 58,5.9185 C58,7.6231 57.4707,9.2523 56.4151,10.8054 C55.3575,12.3585 54.0417,13.686 52.4667,14.7861 C47.2298,18.4208 43.278,21.1649 40.5947,23.0293 C39.12,24.0533 38.0232,24.8157 37.3194,25.3055 C37.215,25.3789 37.052,25.4948 36.8354,25.6503 C36.6021,25.8172 36.307,26.0299 35.9436,26.2928 C35.2423,26.8001 34.6597,27.2099 34.1958,27.5231 C33.731,27.8356 33.1703,28.1863 32.5124,28.5748 C31.8538,28.9635 31.2337,29.2547 30.6513,29.4487 C30.0686,29.6427 29.5291,29.74 29.033,29.74 L29.0008,29.74 L28.9686,29.74 C28.4724,29.74 27.933,29.6427 27.3504,29.4487 C26.7679,29.2547 26.1472,28.9629 25.4892,28.5748 C24.8306,28.1863 24.2692,27.8363 23.8059,27.5231 C23.342,27.2099 22.7594,26.8 22.0582,26.2928 C21.6941,26.0299 21.3989,25.8173 21.1657,25.6497 C20.9492,25.4949 20.7861,25.3783 20.6823,25.3055 C19.7788,24.6701 18.6845,23.9045 17.4156,23.0203 C15.927,21.9821 14.1947,20.7789 12.2026,19.3985 C8.5125,16.8419 6.3007,15.3043 5.5673,14.7861 C4.2294486,13.88 2.967,12.6343 1.78054156,11.0483 C0.5941,9.4617 0.000616573288,7.9891 0.000616573288,6.6299 C0.000616573288,4.9473 0.447833708,3.5443 1.3437463,2.42237459 C2.2389,1.301 3.51676267,0.739746809 5.1789,0.739746809 L52.821,0.739746809 Z"></path>
    </g>
  </g>
</svg>