<?xml version="1.0" encoding="utf-8"?>
<svg width="64px" height="64px" viewBox="0 0 64 64" version="1.1" xmlns="http://www.w3.org/2000/svg" xmlns:xlink="http://www.w3.org/1999/xlink">
  <g fill-rule="evenodd">
    <path d="M56.9397,12 L15.8583,12 C11.9651,12 8.7979,15.1715 8.7979,19.0698 L8.7979,29.2864 L2.02163303,29.2864 C0.905132046,29.2864 0,30.1928 0,31.3108 C0,32.4288 0.905125796,33.3351 2.02163303,33.3351 L8.7979,33.3351 L8.7979,38.7705 L5.417,38.7705 C4.3005,38.7705 3.3954,39.6768 3.3954,40.7948 C3.3954,41.9128 4.3005,42.8192 5.417,42.8192 L8.7978,42.8192 L8.7978,45.4636 C8.7978,49.3619 11.965,52.5333 15.8581,52.5333 L56.9396,52.5333 C60.8328,52.5333 64,49.3619 64,45.4636 L64,19.0699 C64.0001,15.1716 60.8329,12 56.9397,12 L56.9397,12 Z M15.8583,16.0488 L56.9397,16.0488 C57.6295,16.0483 58.2984,16.2856 58.834,16.7208 L39.2123,31.1383 C37.5559,32.3555 35.242,32.3555 33.5857,31.1383 L13.9639,16.7208 L13.9639,16.7208 C14.4995,16.2855 15.1684,16.0482 15.8582,16.0488 L15.8583,16.0488 Z M59.9569,45.4636 C59.9569,47.1294 58.6035,48.4847 56.9397,48.4847 L15.8583,48.4847 C14.1946,48.4847 12.8411,47.1296 12.8411,45.4636 L12.8411,42.8192 L20.4539,42.8192 C21.5704,42.8192 22.4755,41.9129 22.4755,40.7949 C22.4755,39.6769 21.5704,38.7705 20.4539,38.7705 L12.8411,38.7705 L12.8411,20.9175 L31.1937,34.4024 C32.7262,35.5287 34.5623,36.0914 36.399,36.0914 C38.2351,36.0914 40.072,35.5284 41.6042,34.4024 L59.9569,20.9175 L59.9568,45.4636 L59.9569,45.4636 Z" fill-rule="nonzero"></path>
  </g>
</svg>