<?xml version="1.0" encoding="utf-8"?>
<svg width="64px" height="64px" viewBox="0 0 64 64" version="1.1" xmlns="http://www.w3.org/2000/svg" xmlns:xlink="http://www.w3.org/1999/xlink">
  <g fill-rule="evenodd">
    <path d="M57.1025,3.47426324 C56.0468,3.73814315 4.8474,21.682 4.8474,21.682 C3.79174314,21.9458 3,22.7375 3,24.0569 C3,25.1124 3.5278,26.1679 4.5835,26.6957 L27.2801,36.7231 L37.3088,59.4167 C37.8367,60.4722 38.6284,61 39.6841,61 C40.7397,61 41.7954,60.2084 42.0593,59.1528 L60.5333,6.3769 C61.8529,3.7381 60.2694,2.15484203 57.1024,3.47424468 L57.1025,3.47426324 Z M48.3933,11.9184 L28.8636,31.4455 L12.7648,24.3207 L48.3933,11.9184 Z M39.6841,51.2364 L32.5584,35.1398 L52.0881,15.6127 L39.6841,51.2364 Z" fill-rule="nonzero"></path>
  </g>
</svg>