<?xml version="1.0" encoding="utf-8"?>
<svg width="64px" height="64px" viewBox="0 0 64 64" version="1.1" xmlns="http://www.w3.org/2000/svg" xmlns:xlink="http://www.w3.org/1999/xlink">
  <g fill-rule="evenodd">
    <path d="M23.2211,7.8749 L23.2211,4.576 C23.2211,3.20875373 24.3295,2.10037744 25.6968,2.10037744 L37.243,2.10037744 C38.6086,2.10037657 39.7157,3.20746623 39.7157,4.5731 C39.7157,4.5741 39.7157,4.5750481 39.7157,4.576 L39.7157,7.8749 L39.7157,7.8749 C39.7157,9.2405 38.6087,10.3476 37.243,10.3476 L25.6967,10.3476 C24.3311,10.3492 23.2227,9.2434 23.2211,7.8778 C23.2211,7.8768 23.2211,7.8759 23.2211,7.875 L23.2211,7.8749 Z M53.947,4.1658 L53.947,4.1659 C57.3627,4.1659 60.1317,6.9349 60.1317,10.3506 L60.1317,55.7091 C60.1318,59.1254 57.3632,61.8952 53.947,61.8968 L10.2349,61.8968 C6.8197,61.8968 4.0502,59.1244 4.0502,55.7091 L4.0502,10.3506 C4.0502,6.9348 6.8192,4.1658 10.2349,4.1658 L14.7702,4.1658 L14.7702,8.288 L10.648,8.288 C9.2807,8.288 8.1724,9.3964 8.1724,10.7636 L8.1724,55.2961 C8.1724,56.6633 9.2807,57.7717 10.648,57.7717 L53.531,57.7717 C54.8982,57.7717 56.0066,56.6633 56.0066,55.2961 L56.0066,10.7636 C56.0066,9.3964 54.8982,8.288 53.531,8.288 L49.4088,8.288 L49.4088,4.1658 L53.947,4.1658 Z M49.659,20.3181 L49.659,24.4403 L14.136,24.4403 L14.136,20.3181 L49.659,20.3181 Z M49.659,32.6875 L49.659,32.6876 L49.659,36.8097 L14.136,36.8097 L14.136,32.6875 L49.659,32.6875 Z M14.136,49.188 L14.136,45.0658 L49.659,45.0658 L49.659,49.188 L14.136,49.188 Z" fill-rule="nonzero"></path>
  </g>
</svg>