<?xml version="1.0" encoding="utf-8"?>
<svg width="64px" height="64px" viewBox="0 0 64 64" version="1.1" xmlns="http://www.w3.org/2000/svg" xmlns:xlink="http://www.w3.org/1999/xlink">
  <g fill-rule="evenodd">
    <path d="M56.0001,33.4999 L36.5001,33.4999 C34.8434,33.4999 33.5002,34.8434 33.5002,36.5001 L33.5002,56.0001 C33.5002,57.6565 34.8434,59 36.5001,59 L56.0001,59 C57.6565,59 59,57.6565 59,56.0001 L59,36.5001 C59,34.8431 57.6565,33.4999 56.0001,33.4999 Z M56.0001,56.0004 L36.5001,56.0004 L36.5001,36.5001 L56.0001,36.5001 L56.0001,56.0004 Z M27.4999,33.4999 L7.9999,33.4999 C6.3432,33.4999 5,34.8434 5,36.5001 L5,56.0001 C5,57.6565 6.3432,59 7.9999,59 L27.4999,59 C29.1566,59 30.4998,57.6565 30.4998,56.0001 L30.4998,36.5001 C30.5001,34.8431 29.1566,33.4999 27.4999,33.4999 Z M27.4999,56.0004 L7.9999,56.0004 L7.9999,36.5001 L27.4999,36.5001 L27.4999,56.0004 Z M56.0001,5 L36.5001,5 C34.8434,5 33.5002,6.3435 33.5002,7.9999 L33.5002,27.4999 C33.5002,29.1566 34.8434,30.4998 36.5001,30.4998 L56.0001,30.4998 C57.6565,30.4998 59,29.1566 59,27.4999 L59,7.9999 C59,6.3432 57.6565,5 56.0001,5 Z M56.0001,27.5002 L36.5001,27.5002 L36.5001,7.9999 L56.0001,7.9999 L56.0001,27.5002 Z M27.4999,5 L7.9999,5 C6.3432,5 5,6.3435 5,7.9999 L5,27.4999 C5,29.1566 6.3432,30.4998 7.9999,30.4998 L27.4999,30.4998 C29.1566,30.4998 30.4998,29.1566 30.4998,27.4999 L30.4998,7.9999 C30.5001,6.3432 29.1566,5 27.4999,5 Z M27.4999,27.5002 L7.9999,27.5002 L7.9999,7.9999 L27.4999,7.9999 L27.4999,27.5002 Z" fill-rule="nonzero"></path>
  </g>
</svg>