<?xml version="1.0" encoding="utf-8"?>
<svg width="64px" height="64px" viewBox="0 0 64 64" version="1.1" xmlns="http://www.w3.org/2000/svg" xmlns:xlink="http://www.w3.org/1999/xlink">
  <g fill-rule="evenodd">
    <path d="M53.0741,6 L10.9259,6 C6.555,6 3,9.4765 3,13.7519 L3,50.04 C3,54.3154 6.555,57.7857 10.9259,57.7857 L53.0741,57.7857 C57.445,57.7857 61,54.3092 61,50.04 L61,13.7457 C61,9.4703 57.445,6 53.0741,6 Z M23.4493,43.1432 L23.4493,33.2566 L39.2621,33.2566 L39.2621,43.1369 L23.4493,43.1369 L23.4493,43.1432 Z M39.2621,45.8957 L39.2621,55.0207 L23.4493,55.0207 L23.4493,45.8957 L39.2621,45.8957 Z M19.1949,16.0051 C17.7056,16.0051 16.4947,14.8255 16.4947,13.365 C16.4947,11.9045 17.7056,10.7248 19.1949,10.7248 C20.6843,10.7248 21.8952,11.9045 21.8952,13.365 C21.8952,14.8255 20.6843,16.0051 19.1949,16.0051 Z M25.6444,13.365 C25.6444,11.9045 26.8553,10.7248 28.3446,10.7248 C29.834,10.7248 31.0449,11.9045 31.0449,13.365 C31.0449,14.8255 29.834,16.0051 28.3446,16.0051 C26.8488,16.0051 25.6444,14.8255 25.6444,13.365 Z M12.8944,13.365 C12.8944,14.8255 11.6835,16.0051 10.1941,16.0051 C8.7048,16.0051 7.4939,14.8255 7.4939,13.365 C7.4939,11.9045 8.7048,10.7248 10.1941,10.7248 C11.69,10.7311 12.8944,11.9107 12.8944,13.365 Z M39.2621,20.2244 L39.2621,30.5041 L23.4493,30.5041 L23.4493,20.2244 L39.2621,20.2244 Z M42.0854,20.2244 L58.1832,20.2244 L58.1832,30.5041 L42.0854,30.5041 L42.0854,20.2244 Z M20.6325,20.2244 L20.6325,30.5041 L5.8168,30.5041 L5.8168,20.2244 L20.6325,20.2244 Z M5.8168,33.2566 L20.6325,33.2566 L20.6325,43.1369 L5.8168,43.1369 L5.8168,33.2566 Z M42.0854,33.2566 L58.1832,33.2566 L58.1832,43.1369 L42.0854,43.1369 L42.0854,33.2566 Z M5.8168,50.0338 L5.8168,45.8957 L20.6325,45.8957 L20.6325,55.0207 L10.9259,55.0207 C8.1091,55.027 5.8168,52.7863 5.8168,50.0338 Z M53.0741,55.027 L42.0854,55.027 L42.0854,45.8957 L58.1832,45.8957 L58.1832,50.0338 C58.1832,52.7863 55.8909,55.027 53.0741,55.027 Z" fill-rule="nonzero"></path>
  </g>
</svg>