<?xml version="1.0" encoding="utf-8"?>
<svg width="64px" height="64px" viewBox="0 0 64 64" version="1.1" xmlns="http://www.w3.org/2000/svg" xmlns:xlink="http://www.w3.org/1999/xlink">
  <g fill-rule="evenodd">
    <g transform="translate(3, 3)" fill-rule="nonzero">
      <path d="M55.3719,0.000221217464 L33.8463,0.000221217464 C32.4124,-0.0177791418 31.2355,1.13 31.2175,2.56387305 C31.2172,2.58716422 31.2172,2.61045828 31.2175,2.63374871 L31.2175,24.32 L31.2175,24.32 C31.2011,25.7528 32.3494,26.9276 33.7822,26.9441 C33.8036,26.9443 33.825,26.9443 33.8463,26.944 L55.3709,26.944 C56.8037,26.963 57.9806,25.8169 57.9996,24.3841 C57.9999,24.3627 57.9999,24.3413 57.9997,24.32 L57.9997,2.63374872 L57.9997,2.63374083 C58.0203,1.1999 56.8746,0.0208667467 55.4408,0.000279601106 C55.4175,-5.4817e-5 55.3942,-7.5774e-5 55.3709,0.000216738101 L55.3719,0.000221217464 Z M49.9527,15.2785 L39.1058,15.2785 C38.1081,15.4473 37.1626,14.7754 36.9938,13.7777 C36.825,12.7801 37.4969,11.8345 38.4946,11.6657 C38.6969,11.6315 38.9035,11.6315 39.1058,11.6657 L49.9499,11.6657 L49.9499,11.6657 C50.9475,11.4969 51.8931,12.1688 52.0619,13.1665 C52.2306,14.1641 51.5587,15.1097 50.5611,15.2785 C50.3588,15.3127 50.1522,15.3127 49.9499,15.2785 L49.9527,15.2785 Z M24.1489,0.000221217464 L2.63,0.000221217464 C1.19613728,-0.018304381 0.0187451064,1.12905378 0.00021950709,2.5629 C-8.5563e-5,2.5865 -6.8501e-5,2.61013749 0.000270689396,2.63374928 L0.000270689396,24.32 L0.000270646547,24.32 C-0.0161305405,25.7528 1.13211623,26.9276 2.56495325,26.9441 C2.5863,26.9443 2.6077,26.9443 2.62905035,26.944 L24.1489,26.944 C25.5817,26.963 26.7586,25.8169 26.7776,24.3841 C26.7779,24.3627 26.7779,24.3413 26.7777,24.32 L26.7777,2.63374929 L26.7777,2.63374145 C26.7982,1.1999 25.6526,0.0208673622 24.2187,0.00028021657 C24.1955,-5.4184e-5 24.1722,-7.5156e-5 24.1489,0.000217305991 L24.1489,0.000221217464 Z M18.7297,15.2785 L15.1169,15.2785 L15.1169,18.8913 L15.1169,18.8913 C15.2888,19.8889 14.6194,20.837 13.6218,21.0089 C12.6241,21.1808 11.676,20.5114 11.5041,19.5138 C11.4686,19.3078 11.4686,19.0973 11.5041,18.8913 L11.5041,15.2785 L7.8913,15.2785 C6.8937,15.4473 5.9481,14.7754 5.7793,13.7777 C5.6105,12.7801 6.2825,11.8345 7.2801,11.6657 C7.4824,11.6315 7.689,11.6315 7.8913,11.6657 L11.5041,11.6657 L11.5041,8.0529 L11.5041,8.0529 C11.3322,7.0553 12.0016,6.1072 12.9993,5.9353 C13.9969,5.7634 14.945,6.4328 15.1169,7.4304 C15.1524,7.6364 15.1524,7.8469 15.1169,8.0529 L15.1169,11.6657 L18.7297,11.6657 L18.7297,11.6657 C19.7273,11.4969 20.6729,12.1688 20.8417,13.1665 C21.0105,14.1641 20.3386,15.1097 19.3409,15.2785 C19.1386,15.3127 18.932,15.3127 18.7297,15.2785 L18.7297,15.2785 Z M24.1489,31.0511 L2.63,31.0511 L2.63,31.0511 C1.1972,31.0316 0.0198662927,32.1773 0.000343901784,33.6101 C4.8436e-5,33.6318 2.4888e-5,33.6535 0.000273263238,33.6752 L0.000273263238,55.3614 L0.000273152888,55.3614 C-0.020313483,56.7952 1.12535075,57.9743 2.5592,57.9948 C2.58246944,57.9952 2.60576345,57.9952 2.62905456,57.9949 L24.1489,57.9949 L24.1489,57.9949 C25.5827,58.0129 26.7597,56.8651 26.7777,55.4313 C26.778,55.408 26.778,55.3847 26.7777,55.3614 L26.7777,33.6752 L26.7777,33.6752 C26.7941,32.2423 25.6458,31.0675 24.213,31.0511 C24.1916,31.0508 24.1702,31.0509 24.1489,31.0511 L24.1489,31.0511 Z M13.3105,36.9647 C14.4893,36.9658 15.4441,37.9222 15.443,39.101 C15.4419,40.2798 14.4855,41.2346 13.3067,41.2335 C12.1305,41.2324 11.1768,40.2801 11.1742,39.1039 L11.1742,39.1039 C11.2514,37.957 12.1638,37.0434 13.3105,36.9647 L13.3105,36.9647 Z M13.3105,52.0813 C12.1291,52.0834 11.1697,51.1274 11.1676,49.946 C11.1655,48.7646 12.1215,47.8051 13.3029,47.803 C14.4843,47.8009 15.4438,48.757 15.4459,49.9384 C15.4459,49.9397 15.4459,49.9409 15.4459,49.9422 L15.4459,49.9422 C15.4815,51.0879 14.5817,52.0456 13.436,52.0812 C13.3942,52.0825 13.3523,52.0826 13.3105,52.0813 L13.3105,52.0813 Z M18.7297,46.3294 L7.8913,46.3294 C6.8937,46.4982 5.9481,45.8263 5.7793,44.8286 C5.6105,43.831 6.2825,42.8854 7.2801,42.7166 C7.4824,42.6824 7.689,42.6824 7.8913,42.7166 L18.7297,42.7166 L18.7297,42.7166 C19.7273,42.5478 20.6729,43.2197 20.8417,44.2174 C21.0105,45.215 20.3386,46.1606 19.3409,46.3294 C19.1386,46.3636 18.932,46.3636 18.7297,46.3294 L18.7297,46.3294 Z M55.37,31.0511 L33.8464,31.0511 C32.4136,31.0321 31.2367,32.1783 31.2176,33.6111 C31.2174,33.6324 31.2173,33.6538 31.2176,33.6752 L31.2176,55.3614 L31.2176,55.3614 C31.197,56.7952 32.3427,57.9743 33.7765,57.9948 C33.7998,57.9952 33.8231,57.9952 33.8464,57.9949 L55.371,57.9949 L55.371,57.9949 C56.8048,58.0129 57.9818,56.8651 57.9998,55.4313 C58.0001,55.408 58.0001,55.3847 57.9997,55.3614 L57.9997,33.6752 L57.9997,33.6752 C58.0161,32.2423 56.8679,31.0675 55.435,31.0511 C55.4137,31.0508 55.3923,31.0509 55.371,31.0511 L55.37,31.0511 Z M49.9508,49.7806 L39.1058,49.7806 C38.1081,49.9493 37.1626,49.2774 36.9938,48.2798 C36.825,47.2821 37.4969,46.3366 38.4946,46.1678 C38.6969,46.1335 38.9035,46.1335 39.1058,46.1678 L49.9499,46.1678 L49.9499,46.1678 C50.9475,45.999 51.8931,46.6709 52.0619,47.6686 C52.2306,48.6662 51.5587,49.6118 50.5611,49.7806 C50.3588,49.8148 50.1522,49.8148 49.9499,49.7806 L49.9508,49.7806 Z M49.9508,42.8782 L39.1058,42.8782 C38.1081,43.047 37.1626,42.3751 36.9938,41.3775 C36.825,40.3798 37.4969,39.4342 38.4946,39.2654 C38.6969,39.2312 38.9035,39.2312 39.1058,39.2654 L49.9499,39.2654 L49.9499,39.2654 C50.9475,39.0967 51.8931,39.7686 52.0619,40.7662 C52.2306,41.7639 51.5587,42.7094 50.5611,42.8782 C50.3588,42.9125 50.1522,42.9125 49.9499,42.8782 L49.9508,42.8782 Z"></path>
    </g>
  </g>
</svg>