<?xml version="1.0" encoding="utf-8"?>
<svg width="64px" height="64px" viewBox="0 0 64 64" version="1.1" xmlns="http://www.w3.org/2000/svg" xmlns:xlink="http://www.w3.org/1999/xlink">
  <g fill-rule="evenodd">
    <path d="M51.5393,0 L12.0035,0 C9.7946,0 8,1.7982 8,4.0107 L8,59.9903 C8,62.1992 9.7956,64 12.0035,64 L51.5393,64 C53.7464,64 55.5428,62.1991 55.5428,59.9903 L55.5428,4.0108 C55.5429,1.798257 53.7465,3.0499e-15 51.5393,3.0499e-15 Z M19.4018,55.8287 C17.4107,55.8287 15.7947,54.2081 15.7947,52.2126 C15.7947,50.2188 17.4099,48.6 19.4018,48.6 C21.3929,48.6 23.009,50.2188 23.009,52.2126 C23.009,54.2081 21.3928,55.8287 19.4018,55.8287 Z M19.4018,43.3974 C17.4107,43.3974 15.7947,41.7768 15.7947,39.7821 C15.7947,37.7875 17.4099,36.167 19.4018,36.167 C21.3929,36.167 23.009,37.7875 23.009,39.7821 C23.009,41.7768 21.3928,43.3974 19.4018,43.3974 Z M19.4018,30.9679 C17.4107,30.9679 15.7947,29.3465 15.7947,27.3517 C15.7947,25.3571 17.4107,23.7385 19.4018,23.7385 C21.3929,23.7385 23.009,25.3571 23.009,27.3517 C23.009,29.3465 21.3928,30.9679 19.4018,30.9679 Z M31.8054,55.8287 C29.8143,55.8287 28.1982,54.2081 28.1982,52.2126 C28.1982,50.2188 29.8143,48.6 31.8054,48.6 C33.7965,48.6 35.4125,50.2188 35.4125,52.2126 C35.4125,54.2081 33.7965,55.8287 31.8054,55.8287 Z M31.8054,43.3974 C29.8143,43.3974 28.1982,41.7768 28.1982,39.7821 C28.1982,37.7875 29.8143,36.167 31.8054,36.167 C33.7965,36.167 35.4125,37.7875 35.4125,39.7821 C35.4125,41.7768 33.7965,43.3974 31.8054,43.3974 Z M31.8054,30.9679 C29.8143,30.9679 28.1982,29.3465 28.1982,27.3517 C28.1982,25.3571 29.8143,23.7385 31.8054,23.7385 C33.7965,23.7385 35.4125,25.3571 35.4125,27.3517 C35.4125,29.3465 33.7965,30.9679 31.8054,30.9679 Z M44.2108,55.8287 C42.2198,55.8287 40.6018,54.2081 40.6018,52.2126 C40.6018,50.2188 42.2198,48.6 44.2108,48.6 C46.2001,48.6 47.8162,50.2188 47.8162,52.2126 C47.8162,54.2081 46.2001,55.8287 44.2108,55.8287 Z M44.2108,43.3974 C42.2198,43.3974 40.6018,41.7768 40.6018,39.7821 C40.6018,37.7875 42.2198,36.167 44.2108,36.167 C46.2001,36.167 47.8162,37.7875 47.8162,39.7821 C47.8162,41.7768 46.2001,43.3974 44.2108,43.3974 Z M44.2108,30.9679 C42.2198,30.9679 40.6018,29.3465 40.6018,27.3517 C40.6018,25.3571 42.2198,23.7385 44.2108,23.7385 C46.2001,23.7385 47.8162,25.3571 47.8162,27.3517 C47.8162,29.3465 46.2001,30.9679 44.2108,30.9679 Z M48.8715,14.7045 C48.8715,15.7322 48.0394,16.5652 47.0161,16.5652 L16.7277,16.5652 C15.7018,16.5652 14.8732,15.7322 14.8732,14.7045 L14.8732,8.8965 C14.8732,7.8714 15.7018,7.0375 16.7277,7.0375 L47.0161,7.0375 C48.0394,7.0375 48.8715,7.8714 48.8715,8.8965 L48.8715,14.7045 Z" fill-rule="nonzero"></path>
  </g>
</svg>