<?xml version="1.0" encoding="utf-8"?>
<svg width="64px" height="64px" viewBox="0 0 64 64" version="1.1" xmlns="http://www.w3.org/2000/svg" xmlns:xlink="http://www.w3.org/1999/xlink">
  <g fill-rule="evenodd">
    <path d="M32.522,39.5846 C34.7527,39.5846 36.0912,37.8 36.0912,35.5692 C36.0912,33.3385 34.3066,32 32.522,32 C30.2912,32 28.9527,33.7846 28.9527,36.0154 C28.9527,37.8 30.2912,39.5846 32.522,39.5846 Z M45.9066,39.5846 C48.1373,39.5846 49.4758,37.8 49.4758,35.5692 C49.4758,33.3385 47.6912,32 45.9066,32 C44.122,32 42.3373,33.7846 42.3373,35.5692 C42.3373,37.8 43.6758,39.5846 45.9066,39.5846 Z M43.2297,19.5077 C44.5681,19.5077 45.9066,18.1692 45.9066,16.8307 L45.9066,5.6769 C45.9066,4.33845631 44.5681,3 43.2297,3 C41.8912,3 40.9989,4.3385 40.9989,5.6769 L40.9989,16.8307 C40.9989,18.1692 41.8912,19.5077 43.2297,19.5077 Z M21.3681,19.5077 C22.7066,19.5077 24.0451,18.1692 24.0451,16.8307 L24.0451,5.6769 C24.0451,4.33845631 22.7066,3 21.3681,3 C20.922,3 20.0297,3.44615324 19.5835,3.8923 C19.1374,4.3385 19.1374,4.7846 19.1374,5.6769 L19.1374,16.8307 C19.1374,18.1692 20.0297,19.5077 21.3681,19.5077 L21.3681,19.5077 Z M19.1374,39.5846 C21.3681,39.5846 22.7066,37.8 22.7066,35.5692 C22.7066,33.3385 20.922,32 19.1374,32 C17.3528,32 15.5682,33.7846 15.5682,35.5692 C15.5682,37.8 16.9066,39.5846 19.1374,39.5846 Z M19.1374,53.4154 C21.3681,53.4154 22.7066,51.6308 22.7066,49.4 C22.7066,47.6154 20.922,45.8308 19.1374,45.8308 C16.9066,45.8308 15.5682,47.6154 15.5682,49.8461 C15.122,51.6308 16.9066,53.4154 19.1374,53.4154 Z M32.522,53.4154 C34.7528,53.4154 36.0912,51.6308 36.0912,49.4 C36.0912,47.6154 34.3066,45.8308 32.522,45.8308 C30.2912,45.8308 28.9528,47.6154 28.9528,49.8461 C28.9528,51.6308 30.2912,53.4154 32.522,53.4154 Z M53.045,9.2462 L49.922,9.2462 L49.4758,9.2462 C48.5835,9.2462 47.6912,10.1385 47.6912,11.0308 C47.6912,11.9231 48.5835,12.8154 49.4758,12.8154 L53.045,12.8154 C54.3835,12.8154 55.7219,14.1539 55.7219,15.4924 L55.7219,24.4154 L9.322,24.4154 L9.322,15.4924 C9.322,14.1539 10.6605,12.8154 11.9989,12.8154 L15.122,12.8154 C16.0143,12.8154 16.9066,11.9231 16.9066,11.0308 C16.9066,10.1385 16.0143,9.2462 15.122,9.2462 L11.9989,9.2462 C8.4297,9.2462 5.7528,12.3693 5.7528,15.9385 L5.7528,54.3077 C5.7528,57.8769 8.4297,61 11.9989,61 L53.045,61 C56.6143,61 59.2912,57.8769 59.2912,54.3077 L59.2912,15.9385 C59.2912,12.3693 56.6143,9.2462 53.045,9.2462 L53.045,9.2462 Z M55.722,54.7538 C55.722,56.0923 54.3835,57.4308 53.045,57.4308 L11.9989,57.4308 C10.6605,57.4308 9.322,56.0923 9.322,54.7538 L9.322,28.4308 L55.722,28.4308 L55.722,54.7538 Z M28.5066,13.2616 L36.9836,13.2616 C37.8759,13.2616 38.322,12.3693 38.322,11.477 C38.322,10.5847 37.8759,9.6923 36.9836,9.6923 L36.5374,9.6923 L28.5066,9.6923 L28.0605,9.6923 C27.1682,9.6923 26.2758,10.5846 26.2758,11.477 C26.2758,12.3693 27.1682,13.2616 28.5066,13.2616 L28.5066,13.2616 Z" fill-rule="nonzero"></path>
  </g>
</svg>