<?xml version="1.0" encoding="utf-8"?>
<svg width="64px" height="64px" viewBox="0 0 64 64" version="1.1" xmlns="http://www.w3.org/2000/svg" xmlns:xlink="http://www.w3.org/1999/xlink">
  <g fill-rule="evenodd">
    <path d="M5.5959,7.9604 C6.2378,12.065 7.4793,13.6879 9.89,13.5713 C12.2938,13.4557 13.411,11.8434 13.7263,7.9152 L36.6813,7.9152 C37.346,12.0752 38.5769,13.6835 40.9788,13.5713 C43.3637,13.46 44.4847,11.8643 44.836,8.076 C48.0625,7.4963 50.3493,8.8953 50.4542,11.9158 C50.6282,16.9154 50.5018,21.9248 50.5018,27.0707 L46.7,27.0707 L46.7,19.6123 L3.8933,19.6123 L3.8933,46.5415 L27.0781,46.5415 L27.0781,50.5353 L24.8424,50.5353 C18.607,50.5353 12.3702,50.4435 6.1378,50.5786 C3.4764,50.6364 1.39085205,49.977 0.00646001205,47.6203 L0.00646001205,10.6951 C2.07055776,7.9954 2.6668,7.7038 5.5959,7.9604 Z M10.6951,0.00636343753 C12.5961,3.3369 11.4784,6.9089 11.4192,10.3773 C11.4119,10.8016 10.2534,11.4906 9.597,11.529 C9.0697,11.5601 8.0221,10.7977 8.0172,10.3783 C7.9774,6.9084 6.851,3.33683691 8.7515,0.00636343753 L10.6951,0.00636343753 Z M41.7902,0.00636343753 C43.6911,3.3369 42.5725,6.9089 42.5137,10.3773 C42.506,10.8016 41.348,11.4906 40.692,11.529 C40.1648,11.5601 39.1171,10.7977 39.1123,10.3783 C39.0724,6.9084 37.9461,3.33683691 39.847,0.00636343753 L41.7902,0.00636343753 Z M15.4387,23.4636 L15.4387,30.922 L7.938,30.922 L7.938,23.4636 L15.4387,23.4636 Z M19.4898,30.9454 L19.4898,23.5263 L27.0372,23.5263 L27.0372,30.9454 L19.4898,30.9454 Z M38.7687,23.4559 L38.7687,30.9318 L31.25,30.9318 L31.25,23.4559 L38.7687,23.4559 Z M7.923,35.1092 L15.3687,35.1092 L15.3687,42.5982 L7.923,42.5982 L7.923,35.1092 Z M27.0935,35.1311 L27.0935,42.5764 L19.6045,42.5764 L19.6045,35.1311 L27.0935,35.1311 Z M46.6178,31.1204 C55.1404,31.0965 62.2436,38.227 62.1775,46.7393 C62.1114,55.1958 55.1263,62.1551 46.6795,62.1775 C38.1569,62.2008 31.0532,55.0709 31.1199,46.5581 C31.1859,38.1016 38.1711,31.1436 46.6178,31.1204 Z M58.2906,46.5473 C58.2308,40.2095 52.9387,34.9819 46.6081,35.0067 C40.2702,35.0315 35.0184,40.2921 35.0067,46.6289 C34.9951,53.0572 40.3888,58.3863 46.8107,58.2906 C53.1486,58.1958 58.3504,52.8745 58.2906,46.5473 Z M46.645,46.6543 C48.6762,46.6543 50.4046,46.4414 52.0407,46.7407 C52.9023,46.8982 53.6015,47.9473 54.3741,48.5931 C53.601,49.2389 52.8789,50.3492 52.0451,50.4415 C49.7268,50.6961 47.3613,50.5455 45.0148,50.5193 C43.539,50.5027 42.7844,49.6966 42.7737,48.2335 C42.7572,45.887 42.6002,43.5215 42.8602,41.2032 C42.9516,40.383 44.0915,39.6798 44.7534,38.9233 C45.3841,39.7119 46.4045,40.4311 46.5615,41.3043 C46.854,42.9384 46.645,44.661 46.645,46.6543 Z"></path>
  </g>
</svg>