<?xml version="1.0" encoding="utf-8"?>
<svg width="64px" height="64px" viewBox="0 0 64 64" version="1.1" xmlns="http://www.w3.org/2000/svg" xmlns:xlink="http://www.w3.org/1999/xlink">
  <g fill-rule="evenodd">
    <path d="M32.8448,60.8117 C16.808,60.8117 3.7613,47.821 3.7613,31.847 C3.7613,15.8713 16.8079,2.8806 32.8448,2.8806 C34.4209,2.8806 35.6968,4.15324655 35.6968,5.7195 C35.6968,7.2909 34.419,8.5618 32.8448,8.5618 C19.9565,8.5618 9.4654,19.0092 9.4654,31.8454 C9.4654,44.6817 19.9532,55.1255 32.8448,55.1255 C40.2682,55.1255 47.0848,51.7343 51.5517,45.8164 C52.494,44.5607 54.2773,44.3022 55.5431,45.249 C56.804,46.1909 57.0602,47.9705 56.1128,49.2228 C50.5622,56.5911 42.0818,60.8117 32.8447,60.8117 L32.8448,60.8117 Z M57.9418,41.475 C57.699,41.475 57.4496,41.4448 57.2036,41.3759 C55.6781,40.973 54.778,39.4117 55.1876,37.8975 C55.7151,35.9299 55.9865,33.8969 55.9865,31.8454 C55.9865,22.3164 50.2571,13.84 41.3909,10.2574 C39.9311,9.6631 39.2299,8.0112 39.8199,6.5557 C40.4099,5.1002 42.0719,4.3951 43.5366,4.991 C54.5656,9.4499 61.6923,19.993 61.6923,31.8454 C61.6923,34.3888 61.3585,36.9205 60.6979,39.3665 C60.3539,40.6392 59.1993,41.4752 57.9419,41.4752 L57.9418,41.475 Z M43.7945,37.8907 L32.6375,37.8907 C31.0614,37.8907 29.7837,36.6147 29.7837,35.0484 L29.7837,19.5193 C29.7837,17.948 31.063,16.677 32.6375,16.677 C34.212,16.677 35.4879,17.9497 35.4879,19.5193 L35.4879,32.2095 L43.7946,32.2095 C45.3674,32.2095 46.6466,33.4837 46.6466,35.0518 C46.6483,36.6232 45.3673,37.8907 43.7946,37.8907 L43.7945,37.8907 Z" fill-rule="nonzero"></path>
  </g>
</svg>