<?xml version="1.0" encoding="utf-8"?>
<svg width="64px" height="64px" viewBox="0 0 64 64" version="1.1" xmlns="http://www.w3.org/2000/svg" xmlns:xlink="http://www.w3.org/1999/xlink">
  <g fill-rule="evenodd">
    <path d="M6.1026e-15,32 C3.0513e-15,14.3288 14.3288,0 32,0 C49.6712,0 64,14.3216 64,32 C64,49.6712 49.6784,64 32,64 C14.3288,64 6.1026e-15,49.6784 6.1026e-15,32 Z M46.1045,46.6193 C47.7459,46.6193 49.0743,45.291 49.0666,43.6572 L49.0666,23.7162 C49.0666,22.0825 47.7383,20.7617 46.0969,20.7617 L39.7909,20.7617 L37.9357,17.8072 C37.9357,17.3949 36.8669,17.0667 36.4546,17.0667 L27.5453,17.0667 C27.1407,17.0667 26.0643,17.4026 26.0643,17.8072 L24.2091,20.7617 L17.9031,20.7617 C16.2617,20.7617 14.9333,22.0825 14.9333,23.7162 L14.9333,43.6648 C14.9333,45.2986 16.2617,46.6193 17.9031,46.6193 L46.1045,46.6193 Z M32.0038,23.7162 C37.3326,23.7162 41.6537,28.0144 41.6537,33.3203 C41.6537,38.6261 37.3326,42.9243 32.0038,42.9243 C26.675,42.9243 22.3539,38.6261 22.3539,33.3203 C22.3539,28.0144 26.675,23.7162 32.0038,23.7162 Z M32.0038,39.9698 C35.6912,39.9698 38.6839,36.9924 38.6839,33.3203 C38.6839,29.6481 35.6912,26.6707 32.0038,26.6707 C28.3164,26.6707 25.3237,29.6481 25.3237,33.3203 C25.3237,36.9924 28.3164,39.9698 32.0038,39.9698 Z"></path>
  </g>
</svg>