<?xml version="1.0" encoding="utf-8"?>
<svg width="64px" height="64px" viewBox="0 0 64 64" version="1.1" xmlns="http://www.w3.org/2000/svg" xmlns:xlink="http://www.w3.org/1999/xlink">
  <g fill-rule="evenodd">
    <path d="M61,27.4 C61,20.6333 58.803,20.106 55.7273,20.9849 C54.6727,21.3364 53.5303,21.7758 52.3,22.4788 L45.1818,26.0818 L45.1818,20.9849 C45.1818,18.7879 43.5121,17.0303 41.1394,17.0303 L7.3939,17.0303 C5.0212,17.0303 3,18.7879 3,21.0728 L3,48.2273 C3,50.4243 5.1091,52.1818 7.3939,52.1818 L41.1394,52.1818 C43.5121,52.1818 45.0939,50.4243 45.0939,48.1394 L45.0939,42.8667 L52.2121,47.2606 C54.8485,48.3152 54.7606,48.2273 55.8152,48.6667 C58.803,49.3697 60.9121,49.194 60.9121,42.3394 L61,27.4 L61,27.4 Z M40.7879,42.7788 L40.7879,47.5242 C40.7879,48.2273 40.1727,48.6667 39.3818,48.6667 L7.9212,48.6667 C7.1303,48.6667 6.5152,48.0515 6.5152,47.3485 L6.5152,42.5152 C6.5152,38.4727 6.603,41.6364 6.5152,37.8576 L6.5152,21.8636 C6.5152,21.1606 7.1303,20.5454 7.9212,20.5454 L39.6454,20.5454 C40.2606,20.7212 40.7879,20.8969 40.7879,21.6 L40.7879,42.7787 L40.7879,42.7788 Z M56.1666,45.1515 C55.7272,45.1515 55.2,44.9757 54.6727,44.6242 L45.1818,38.1212 L45.1818,31.0909 L54.6727,25.4666 C55.2,25.1151 55.7272,24.9394 56.1666,24.9394 C57.3969,24.9394 57.4848,25.9939 57.4848,26.6969 L57.4848,43.3939 C57.4848,44.0969 57.3969,45.1515 56.1666,45.1515 L56.1666,45.1515 Z M8.2726,10 L19.6968,10 C20.6635,10 21.4544,10.7909 21.4544,11.7576 C21.4544,12.7242 20.6635,13.5152 19.6968,13.5152 L8.2726,13.5152 C7.3059,13.5152 6.515,12.7242 6.515,11.7576 C6.515,10.7909 7.3059,10 8.2726,10 Z M16.1817,36.3636 C12.7544,36.3636 10.0302,33.6394 10.0302,30.2121 C10.0302,26.7849 12.7544,24.0606 16.1817,24.0606 C19.6089,24.0606 22.3332,26.7849 22.3332,30.2121 C22.3332,33.6394 19.6089,36.3636 16.1817,36.3636 Z M16.1817,27.5758 C14.6877,27.5758 13.5453,28.7182 13.5453,30.2121 C13.5453,31.7061 14.6877,32.8485 16.1817,32.8485 C17.6756,32.8485 18.818,31.7061 18.818,30.2121 C18.818,28.7182 17.6756,27.5758 16.1817,27.5758 Z" fill-rule="nonzero"></path>
  </g>
</svg>