<?xml version="1.0" encoding="utf-8"?>
<svg width="64px" height="64px" viewBox="0 0 64 64" version="1.1" xmlns="http://www.w3.org/2000/svg" xmlns:xlink="http://www.w3.org/1999/xlink">
  <g fill-rule="evenodd">
    <path d="M31.8638,60.7275 C15.9229,60.7275 3.0002,47.8049 3.0002,31.864 C3.0002,15.9231 15.9229,3.00045136 31.8638,3.00045136 C36.9074,2.9777 41.8648,4.3083 46.2192,6.8536 L44.551,9.7318 C40.7182,7.4975 36.359,6.3256 31.9225,6.3367 C17.8187,6.1678 6.2484,17.4643 6.0795,31.5681 C5.9105,45.6718 17.207,57.2422 31.3108,57.4111 C42.1606,57.541 51.908,50.8011 55.6172,40.6041 L58.7537,41.7789 C54.6875,53.1487 43.927,60.7467 31.852,60.7746 L31.8638,60.7275 Z M58.2839,14.1018 L60.9858,16.9212 L33.8726,45.1856 L16.5803,27.165 L19.294,24.3456 L33.8726,39.6173 L58.2839,14.1018 Z" fill-rule="nonzero"></path>
  </g>
</svg>