<?xml version="1.0" encoding="utf-8"?>
<svg width="64px" height="64px" viewBox="0 0 64 64" version="1.1" xmlns="http://www.w3.org/2000/svg" xmlns:xlink="http://www.w3.org/1999/xlink">
  <g fill-rule="evenodd">
    <path d="M53.7909,4.13155411 C57.0603,4.13155411 59.8685,6.9398 59.8685,10.2092 L59.8685,43.4143 C59.8685,46.6838 57.0603,49.1955 53.7909,49.1955 L51.5673,49.1955 L51.5673,46.8236 L53.7909,46.8236 C55.7523,46.8236 57.4967,45.3757 57.4967,43.4143 L57.4967,10.2093 C57.4967,8.2478 55.7524,6.5034 53.7909,6.5034 L20.5859,6.5034 C18.6244,6.5034 17.1765,8.2478 17.1765,10.2093 L17.1765,12.4328 L14.8047,12.4328 L14.8047,10.2093 C14.8047,6.9398 17.3164,4.13155411 20.5859,4.13155411 L53.7909,4.13155411 Z M43.2661,59.8685 L10.061,59.8685 C6.7915,59.8685 4.13155411,57.2085 4.13155411,53.9391 L4.13155411,20.734 C4.13155411,17.4645 6.7915,14.8045 10.061,14.8045 L43.2661,14.8045 C46.5356,14.8045 49.1955,17.4645 49.1955,20.734 L49.1955,53.9391 C49.1955,57.2085 46.5356,59.8685 43.2661,59.8685 Z M10.061,17.1764 C8.0996,17.1764 6.5033,18.7725 6.5033,20.734 L6.5033,53.9391 C6.5033,55.9006 8.0995,57.4967 10.061,57.4967 L43.2661,57.4967 C45.2275,57.4967 46.8237,55.9006 46.8237,53.9391 L46.8237,20.734 C46.8237,18.7725 45.2275,17.1764 43.2661,17.1764 L10.061,17.1764 Z M12.4328,25.4775 L40.8943,25.4775 L40.8943,27.8494 L12.4328,27.8494 L12.4328,25.4775 Z M12.4328,32.5929 L40.8943,32.5929 L40.8943,34.9647 L12.4328,34.9647 L12.4328,32.5929 Z M12.4328,39.7083 L40.8943,39.7083 L40.8943,42.0801 L12.4328,42.0801 L12.4328,39.7083 Z M12.4329,46.8237 L33.7789,46.8237 L33.7789,49.1955 L12.4329,49.1955 L12.4329,46.8237 Z" fill-rule="nonzero"></path>
  </g>
</svg>