<?xml version="1.0" encoding="utf-8"?>
<svg width="64px" height="64px" viewBox="0 0 64 64" version="1.1" xmlns="http://www.w3.org/2000/svg" xmlns:xlink="http://www.w3.org/1999/xlink">
  <g fill-rule="evenodd">
    <path d="M55.6585,15.7247 C58.7261,15.7247 60.9197,18.1875 60.9197,20.6502 L60.9197,47.3326 L46.8898,60.8792 L24.9651,60.8792 C21.8975,60.8792 19.7039,58.4164 19.7039,55.9536 L19.7039,20.6502 C19.7039,17.7765 22.3345,15.7247 24.9651,15.7247 L55.6585,15.7247 L55.6585,15.7247 Z M57.4122,42.818 L57.4122,20.6502 C57.4122,19.8312 56.5354,19.0093 55.6585,19.0093 L24.9652,19.0093 C24.0883,19.0093 23.2114,19.8312 23.2114,20.6502 L23.2114,55.5427 C23.2114,56.3646 24.0883,57.1835 24.9652,57.1835 L42.0656,57.1835 L42.0656,42.8208 L57.4123,42.8208 L57.4122,42.818 Z M35.4876,12.4401 L15.3167,12.4401 L15.3167,9.1583 L8.3046,9.1583 C7.4277,9.1583 6.5509,9.9773 6.5509,10.7992 L6.5509,46.5107 C6.5509,47.3326 7.4277,48.1544 8.3046,48.1544 L15.3225,48.1544 L15.3225,51.4391 L8.3017,51.4391 C5.2341,51.4391 3.0405,48.9763 3.0405,46.5107 L3.0405,11.2101 C3.0405,8.3364 5.674,6.2846 8.3017,6.2846 L14.8797,6.2846 L14.8797,2.99995478 L35.4876,2.99995478 L35.4876,5.8737 L42.5054,5.8737 C45.573,5.8737 47.7667,8.3364 47.7667,10.7992 L47.7667,14.4948 L44.2592,14.4948 L44.2592,11.2101 C44.2592,10.3882 43.3823,9.5692 42.5054,9.5692 L35.4876,9.5692 L35.4876,12.4401 L35.4876,12.4401 Z M28.4726,23.9349 L52.151,23.9349 L52.151,27.2195 L28.4726,27.2195 L28.4726,23.9349 Z M28.4726,30.0932 L52.151,30.0932 L52.151,33.375 L28.4726,33.375 L28.4726,30.0932 Z M28.4726,36.6625 L45.5759,36.6625 L45.5759,39.9443 L28.4726,39.9443 L28.4726,36.6596 L28.4726,36.6625 Z" fill-rule="nonzero"></path>
  </g>
</svg>