<?xml version="1.0" encoding="utf-8"?>
<svg width="64px" height="64px" viewBox="0 0 64 64" version="1.1" xmlns="http://www.w3.org/2000/svg" xmlns:xlink="http://www.w3.org/1999/xlink">
  <g fill-rule="evenodd">
    <g transform="translate(1, 3)" fill-rule="nonzero">
      <path d="M0.967221663,56.8446 C0.496836003,56.3454 0.213755136,55.6796 0.213755136,54.9381 L0.213755136,54.7645 L0.220630144,54.7271 L0.220630144,5.8532 C0.220630144,2.7018 2.96375834,0.135649891 6.3325,0.135649891 L20.5775,0.135649891 C23.9463,0.135649891 26.6894,2.7018 26.6894,5.8532 L26.6894,8.2393 L49.1157,8.2393 C52.4844,8.2393 55.2276,10.8054 55.2276,13.9569 L55.2276,16.6388 L58.7613,16.6388 C60.432,16.6388 61.7863,17.9058 61.7863,19.4686 L61.7863,19.6423 L61.752,19.8159 L55.2413,55.1761 C55.2142,55.4572 55.14,55.7281 55.0261,55.982 C54.5929,57.0519 53.4851,57.813 52.1957,57.813 L3.24563366,57.813 C2.3369,57.813 1.52173281,57.4381 0.967221663,56.8446 Z M50.8276,16.6388 L50.8276,13.9569 C50.8276,13.0757 50.0576,12.3554 49.1157,12.3554 L24.4825,12.3554 C23.2657,12.3554 22.2825,11.4357 22.2825,10.2974 L22.2825,5.8532 C22.2825,4.9721 21.5125,4.2518 20.5707,4.2518 L6.3256,4.2518 C5.3838,4.2518 4.6138,4.9721 4.6138,5.8532 L4.6138,30.8554 L6.7519,19.2371 C6.8756,17.7836 8.1819,16.6388 9.77,16.6388 L50.8276,16.6388 Z M4.8819,53.6518 L51.0613,53.6518 L57.1182,20.7549 L10.9388,20.7549 L4.8819,53.6518 Z"></path>
    </g>
  </g>
</svg>