<?xml version="1.0" encoding="utf-8"?>
<svg width="64px" height="64px" viewBox="0 0 64 64" version="1.1" xmlns="http://www.w3.org/2000/svg" xmlns:xlink="http://www.w3.org/1999/xlink">
  <g fill-rule="evenodd">
    <path d="M54.303,56.4242 L54.303,58.3636 L6.7879,58.3636 C3.03903685,58.3636 3.5958e-14,55.3246 3.5527e-14,51.5758 L3.5527e-14,12.7879 C3.50965048e-14,9.039 3.03903685,6 6.7879,6 L19.2932,6 C22.3207,6 24.8423,8.3218 25.0916,11.339 L25.1353,11.8674 L47.5152,11.8674 C50.9177,11.8674 53.7355,14.3709 54.2271,17.6364 L54.303,17.6364 L54.303,18.6553 C54.303,18.309 54.2771,17.9687 54.2271,17.6364 L52.3636,17.6364 L52.3636,56.4242 L54.303,56.4242 Z M52.3636,56.4242 L52.3636,18.6553 C52.3636,15.9776 50.1929,13.8068 47.5152,13.8068 L23.3496,13.8068 L23.1588,11.4988 C22.9926,9.4873 21.3116,7.9394 19.2932,7.9394 L6.7879,7.9394 C4.1101,7.9394 1.9394,10.1101 1.9394,12.7879 L1.9394,51.5758 C1.9394,54.2535 4.1101,56.4242 6.7879,56.4242 L52.3636,56.4242 Z M13.0909,17.6364 L13.0909,51.1164 C13.0909,53.1386 12.2973,55.0262 10.9567,56.4242 L51.3939,56.4242 C57.285,56.4242 62.0606,51.6486 62.0606,45.7576 L62.0606,17.6364 L13.0909,17.6364 Z M64,15.697 L64,45.7576 C64,52.7197 58.3561,58.3636 51.3939,58.3636 L5.2753,58.3636 L7.5251,56.4242 C9.7686,55.5902 11.1515,53.5099 11.1515,51.1164 L11.1515,15.697 L64,15.697 Z" fill-rule="nonzero"></path>
  </g>
</svg>