<?xml version="1.0" encoding="UTF-8"?>
<svg width="32px" height="32px" viewBox="0 0 32 32" version="1.1" xmlns="http://www.w3.org/2000/svg" xmlns:xlink="http://www.w3.org/1999/xlink">
    <title>流程中心</title>
    <g id="流程中心" stroke="none" stroke-width="1" fill="none" fill-rule="evenodd">
        <rect id="矩形备份-16" fill="black" x="11.9285714" y="2.92857143" width="10" height="6" rx="3"></rect>
        <rect id="矩形备份-17" fill="black" x="11.9285714" y="12.9285714" width="10" height="6" rx="3"></rect>
        <rect id="矩形备份-18" fill="black" x="11.9285714" y="22.9285714" width="10" height="6" rx="3"></rect>
        <path d="M26,5 C29.3137085,5 32,7.6862915 32,11 C32,13.9727145 29.8381232,16.4404956 27.0008069,16.9169061 L27,19 L24,16.5 L26.9991595,14 L27.000188,15.8999437 C29.2823346,15.4366008 31,13.4188915 31,11 C31,8.23857625 28.7614237,6 26,6 L24.9988187,5.99937853 L24.9988187,4.99937853 L26,5 Z" id="形状结合备份-5" fill="black"></path>
        <path d="M4,15 C7.3137085,15 10,17.6862915 10,21 C10,23.9727145 7.83812321,26.4404956 5.00080686,26.9169061 L5,29 L2,26.5 L4.99915951,24 L5.00018797,25.8999437 C7.28233464,25.4366008 9,23.4188915 9,21 C9,18.2385763 6.76142375,16 4,16 L2.99881866,15.9993785 L2.99881866,14.9993785 L4,15 Z" id="形状结合备份-6" transform="translate(6.000000, 21.999689) scale(-1, 1) translate(-6.000000, -21.999689)" fill="black" ></path>
    </g>
</svg>