<?xml version="1.0" encoding="UTF-8"?>
<svg width="16px" height="16px" viewBox="0 0 16 16" version="1.1" xmlns="http://www.w3.org/2000/svg" xmlns:xlink="http://www.w3.org/1999/xlink">
    <title>历史版本</title>
    <g id="历史版本" stroke="none" stroke-width="1" fill="none" fill-rule="evenodd">
        <path d="M14.4546731,1 C14.7652332,1 15.0172001,1.25193931 15.0172001,1.56250148 L15.0172001,5.5 C15.0172001,5.81055625 14.7652403,6.06250621 14.4547086,6.06250621 L11.0172255,6.06250621 C10.7062646,6.06250621 10.4547411,5.81055034 10.4547411,5.49998936 C10.4547411,5.18945321 10.70628,4.93750325 11.0172255,4.93750325 L12.9957199,4.93750325 L13.1087786,4.85191791 C12.0519347,3.1404923 10.1591555,2 8,2 C4.6862915,2 2,4.6862915 2,8 C2,11.3137085 4.6862915,14 8,14 C11.3137085,14 14,11.3137085 14,8 L14.0080557,7.91012437 C14.0503916,7.67687516 14.2545401,7.5 14.5,7.5 C14.7454599,7.5 14.9496084,7.67687516 14.9919443,7.91012437 L15,8 C15,11.8659932 11.8659932,15 8,15 C4.13400675,15 1,11.8659932 1,8 C1,4.13400675 4.13400675,1 8,1 C10.4741282,1 12.6484609,2.28357769 13.8934047,4.22113988 L13.8922005,1.56250148 C13.8922005,1.2519405 14.1437264,1 14.4546731,1 Z M7.50770314,4 C7.78780754,4 8.01480382,4.22640791 8.01480382,4.50565781 L8.01480382,7.97328336 L10.4926109,7.97328336 C10.7724141,7.97328336 11,8.19996519 11,8.47894117 C11.0003009,8.75849108 10.772401,8.98399895 10.4926109,8.98399895 L7.50770314,8.98399895 C7.22731061,8.98399895 7,8.756991 7,8.47832809 L7,4.50565781 C7,4.22610789 7.22759874,4 7.50770314,4 Z" id="形状结合" fill="#6B6B6B"></path>
    </g>
</svg>