<?xml version="1.0" encoding="UTF-8"?>
<svg width="20px" height="20px" viewBox="0 0 20 20" version="1.1" xmlns="http://www.w3.org/2000/svg" xmlns:xlink="http://www.w3.org/1999/xlink">
    <title>查看</title>
    <g id="查看" stroke="none" stroke-width="1" fill="none" fill-rule="evenodd">
        <path d="M10,4 L10.3116037,4.004202 C15.4728337,4.14357261 19.0012453,7.71499433 19,9.49705253 C19,11.2533702 15.2887256,15 10.000014,15 C4.84591994,15 1,11.3150381 1,9.49705253 C1,7.67935317 4.86246481,4 10.000014,4 L10,4 Z M10.0079476,5.00376953 C7.61266828,5.00376953 5.67093299,7.01688875 5.67093299,9.50002862 C5.67093299,11.9831685 7.61266828,13.9963163 10.0079476,13.9963163 C12.4039892,13.9963163 14.3457527,11.9831399 14.3457527,9.50002862 C14.3457527,7.01688875 12.4039892,5.00376953 10.0079476,5.00376953 Z M10.1018055,6.69895079 C11.6313047,6.69895079 12.8706948,7.96696109 12.8706948,9.53125188 C12.8706948,11.0953445 11.6313047,12.3635813 10.1018338,12.3635813 C8.57239123,12.3635813 7.33249163,11.0953445 7.33249163,9.53125188 C7.33249163,7.96696109 8.57239123,6.69895079 10.1018338,6.69895079 Z" id="形状结合" fill="#828282" fill-rule="nonzero"></path>
    </g>
</svg>