<?xml version="1.0" encoding="utf-8"?>
<svg width="64px" height="64px" viewBox="0 0 64 64" version="1.1" xmlns="http://www.w3.org/2000/svg" xmlns:xlink="http://www.w3.org/1999/xlink">
  <g fill-rule="evenodd">
    <path d="M12.5979,50.9193 C13.163,50.1397 13.3571,49.4128 13.3571,48.1639 L13.3571,19.4286 L61,19.4286 L61,43.2746 C61,49.6268 55.8852,54.7763 49.5758,54.7763 L23.4536,54.6429 L9.2143,54.6429 C8.883,54.6429 8.5572,54.6163 8.2389,54.5652 L7.4569,54.5612 L7.6841,54.4494 C5.0111,53.7614 3,51.3186 3,48.4286 L3,13.2143 C3,9.7939 5.7541,7 9.1515,7 L20.4845,7 C23.2282,7 24.7864,8.8231 26.0644,10.4642 L27.1446,13.2143 L46.0858,13.2143 C49.4832,13.2143 52.7143,15.1262 52.7143,18.5466 L52.7143,18.6 L47.8833,18.6 C47.5117,17.8523 46.9399,17.3571 46.0606,17.3571 L23.7143,17.3571 L23.7143,13.5455 C22.0402,11.7298 22.3136,10.8409 20.4845,10.8409 L11.2229,10.8409 C8.7962,10.8409 7.1429,12.1083 7.1429,14.5514 L7.1429,47.8698 C7.1429,50.313 8.7962,50.9354 11.2229,50.9354 L12.5979,50.9193 Z M16.9921,50.8681 L47.4667,50.5129 L47.4667,50.9353 L47.9079,50.9354 C53.0238,50.9354 57.171,48.8876 57.171,43.8062 L57.171,23.5714 L17.5,23.5714 L17.5,47.8698 C17.5,49.5845 18.0783,49.7185 16.9921,50.8681 Z" fill-rule="nonzero"></path>
  </g>
</svg>