<?xml version="1.0" encoding="utf-8"?>
<svg width="64px" height="64px" viewBox="0 0 64 64" version="1.1" xmlns="http://www.w3.org/2000/svg" xmlns:xlink="http://www.w3.org/1999/xlink">
  <g fill-rule="evenodd">
    <path d="M29.2089,46.4352 L31.9999,44.9679 L34.7909,46.4352 L49.8161,54.3345 C49.8648,54.3601 49.8791,54.3661 49.8529,54.3579 C49.7366,54.3219 49.577,54.2914 49.3718,54.2791 C48.6214,54.2343 47.7445,54.4625 46.9559,55.0362 C46.1681,55.6093 45.6818,56.3718 45.4933,57.0978 C45.4419,57.2961 45.4216,57.4567 45.42,57.578 C45.4197,57.6054 45.4184,57.5901 45.4091,57.5363 L42.5396,40.8055 L42.0066,37.6977 L44.2645,35.4967 L56.4202,23.6478 C56.4595,23.6095 56.4697,23.5977 56.4538,23.6202 C56.3836,23.7196 56.3053,23.8619 56.2302,24.0533 C55.9557,24.7531 55.9018,25.6577 56.2037,26.585 C56.5053,27.5112 57.0802,28.2094 57.7124,28.6129 C57.8852,28.7232 58.0317,28.7921 58.1465,28.8311 C58.1725,28.8399 58.1575,28.8364 58.1035,28.8285 L41.3048,26.3875 L38.1843,25.9341 L36.7888,23.1065 L29.2762,7.8843 C29.2519,7.835 29.2439,7.8217 29.2603,7.8437 C29.3332,7.9412 29.4443,8.0596 29.6032,8.1902 C30.1839,8.6675 31.0275,8.9983 32.0027,8.9977 C32.9768,8.9971 33.8185,8.6661 34.3976,8.1896 C34.5559,8.0594 34.6667,7.9413 34.7393,7.8441 C34.7557,7.8222 34.7477,7.8353 34.7235,7.8843 L27.2109,23.1065 L25.8154,25.9341 L22.695,26.3875 L5.8963,28.8285 C5.8419,28.8364 5.8268,28.84 5.8528,28.8311 C5.968,28.792 6.115,28.7228 6.2883,28.6121 C6.9217,28.2073 7.497,27.5072 7.7978,26.5796 C8.0982,25.6529 8.0435,24.7502 7.7693,24.0521 C7.6943,23.8614 7.6163,23.7196 7.5463,23.6205 C7.5305,23.5981 7.5405,23.6097 7.5796,23.6478 L19.7353,35.4967 L21.9932,37.6977 L21.4602,40.8055 L18.5906,57.5363 C18.5813,57.5905 18.58,57.606 18.5797,57.5785 C18.578,57.4568 18.5577,57.2956 18.5059,57.0966 C18.3167,56.3691 17.8286,55.6056 17.0393,55.0329 C16.2509,54.4608 15.3754,54.2339 14.6268,54.279 C14.4222,54.2914 14.2632,54.3218 14.1473,54.3577 C14.1212,54.3658 14.1353,54.3599 14.1837,54.3345 L29.2089,46.4352 L29.2089,46.4352 Z M31.9999,51.744 L16.9747,59.6433 C14.0424,61.1849 12.1183,59.7929 12.6792,56.5224 L15.5488,39.7916 L3.39314787,27.9428 C1.02081365,25.6303 1.75013818,23.3703 5.0339,22.8931 L21.8326,20.4521 L29.3452,5.2299 C30.8113,2.2591 33.1861,2.2543 34.6547,5.2299 L42.1673,20.4521 L58.966,22.8931 C62.2444,23.3695 62.9828,25.6266 60.6067,27.9428 L48.4511,39.7916 L51.3206,56.5224 C51.8807,59.7877 49.9622,61.1874 47.0251,59.6433 L31.9999,51.744 L31.9999,51.744 Z" fill-rule="nonzero"></path>
  </g>
</svg>