<?xml version="1.0" encoding="utf-8"?>
<svg width="64px" height="64px" viewBox="0 0 64 64" version="1.1" xmlns="http://www.w3.org/2000/svg" xmlns:xlink="http://www.w3.org/1999/xlink">
  <g fill-rule="evenodd">
    <path d="M56.8793,57.9741 L48.6035,57.9741 C46.3183,57.9741 44.4655,56.1214 44.4655,53.8362 L44.4655,24.8707 C44.4655,22.5855 46.3183,20.7328 48.6035,20.7328 L56.8793,20.7328 C59.1645,20.7328 61.0172,22.5855 61.0172,24.8707 L61.0172,53.8362 C61.0172,56.1214 59.1645,57.9741 56.8793,57.9741 Z M56.8793,24.8707 L48.6035,24.8707 L48.6035,53.8362 L56.8793,53.8362 L56.8793,24.8707 Z M36.1897,57.9741 L27.9138,57.9741 C25.6286,57.9741 23.7759,56.1214 23.7759,53.8362 L23.7759,8.319 C23.7759,6.0338 25.6286,4.181 27.9138,4.181 L36.1897,4.181 C38.4748,4.181 40.3276,6.0338 40.3276,8.319 L40.3276,53.8362 C40.3276,56.1214 38.4748,57.9741 36.1897,57.9741 Z M36.1897,8.319 L27.9138,8.319 L27.9138,53.8362 L36.1897,53.8362 L36.1897,8.319 Z M15.5,57.9741 L7.2241,57.9741 C4.939,57.9741 3.0862,56.1214 3.0862,53.8362 L3.0862,33.1466 C3.0862,30.8614 4.939,29.0086 7.2241,29.0086 L15.5,29.0086 C17.7852,29.0086 19.6379,30.8614 19.6379,33.1466 L19.6379,53.8362 C19.6379,56.1214 17.7852,57.9741 15.5,57.9741 Z M15.5,33.1466 L7.2241,33.1466 L7.2241,53.8362 L15.5,53.8362 L15.5,33.1466 Z" fill-rule="nonzero"></path>
  </g>
</svg>