<?xml version="1.0" encoding="utf-8"?>
<svg width="64px" height="64px" viewBox="0 0 64 64" version="1.1" xmlns="http://www.w3.org/2000/svg" xmlns:xlink="http://www.w3.org/1999/xlink">
  <g fill-rule="evenodd">
    <path d="M20.6544,29.1907 L28.7686,29.1907 L28.7686,35.0076 L20.6544,35.0076 L20.6544,29.1907 Z M8.4832,37.189 L16.5973,37.189 L16.5973,43.0058 L8.4832,43.0058 L8.4832,37.189 Z M20.6544,45.1872 L28.7686,45.1872 L28.7686,51.004 L20.6544,51.004 L20.6544,45.1872 Z M20.6544,37.189 L28.7686,37.189 L28.7686,43.0058 L20.6544,43.0058 L20.6544,37.189 Z M8.4832,45.1872 L16.5973,45.1872 L16.5973,51.004 L8.4832,51.004 L8.4832,45.1872 Z M15.4909,15.0121 C13.6468,15.0121 12.5403,13.5579 12.5403,11.7401 L12.5403,5.9232 C12.5403,4.8325 13.278,3.74185693 14.3844,3.3783 C15.4909,2.6512 16.5974,3.01475045 17.7039,4.1054 C18.0727,4.8325 18.4415,5.5596 18.4415,6.2867 L18.4415,9.1952 L18.4415,12.1036 C18.4415,13.5579 17.335,15.0121 15.4909,15.0121 Z M46.1034,15.0121 C44.2592,15.0121 43.1528,13.5578 43.1528,12.1036 L43.1528,6.2867 C43.1528,4.8325 43.8904,3.74185693 44.9969,3.3783 C46.1034,3.01475045 47.5787,3.01475045 48.3163,4.1054 C48.6851,4.8325 49.054,5.5596 49.054,6.2867 L49.054,9.1952 L49.054,12.1036 C49.054,13.5579 47.9475,15.0121 46.1034,15.0121 Z M44.9968,29.1907 L53.111,29.1907 L53.111,35.0076 L44.9968,35.0076 L44.9968,29.1907 Z M44.9968,37.189 L53.111,37.189 L53.111,43.0058 L44.9968,43.0058 L44.9968,37.189 Z M32.8256,29.1907 L40.9397,29.1907 L40.9397,35.0076 L32.8256,35.0076 L32.8256,29.1907 Z M44.9968,45.1872 L53.111,45.1872 L53.111,51.0041 L44.9968,51.0041 L44.9968,45.1872 Z M32.8256,45.1872 L40.9397,45.1872 L40.9397,51.0041 L32.8256,51.0041 L32.8256,45.1872 Z M32.8256,37.189 L40.9397,37.189 L40.9397,43.0059 L32.8256,43.0059 L32.8256,37.189 Z M60.1186,8.8316 L60.1185,8.8316 C60.8561,8.8316 61.225,9.5587 61.225,10.2859 L61.225,59.3658 C61.225,60.0929 60.8561,60.4565 60.1185,60.4565 L1.1066324,60.4565 C0.368985835,60.4565 0.000161401544,60.0929 0.000161401544,59.3658 L0.000161401544,9.5587 C0.000161401544,8.8316 0.368981223,8.4681 1.1066324,8.4681 L8.4831,8.4681 L8.4831,9.5587 C8.4831,13.5578 11.4337,16.4663 15.122,16.4663 C18.8102,16.4663 21.7608,13.5578 21.7608,9.9223 L21.7608,8.8316 L39.8333,8.8316 L39.8333,9.9223 C39.8333,13.1943 42.415,16.1027 45.7344,16.4663 L46.8409,16.4663 C50.1603,16.4663 52.7421,13.5578 52.7421,9.9223 L52.7421,8.8316 L60.1186,8.8316 Z M57.5368,57.1845 L57.5368,24.8281 L3.68844609,24.8281 L3.68844609,57.1845 L57.5368,57.1845 Z" fill-rule="nonzero"></path>
  </g>
</svg>