<?xml version="1.0" encoding="utf-8"?>
<svg width="64px" height="64px" viewBox="0 0 64 64" version="1.1" xmlns="http://www.w3.org/2000/svg" xmlns:xlink="http://www.w3.org/1999/xlink">
  <g fill-rule="evenodd">
    <path d="M31.3563,4.32184869 C16.4423,4.32184869 4.32184869,16.4423 4.32184869,31.3563 C4.32184869,46.2704 16.4423,58.3908 31.3563,58.3908 C46.2704,58.3908 58.3908,46.2704 58.3908,31.3563 L31.3563,31.3563 L31.3563,4.32184869 Z M53.4345,35.8621 C51.3618,46.1352 42.2602,53.8851 31.3563,53.8851 C18.9205,53.8851 8.8276,43.7922 8.8276,31.3563 C8.8276,20.4975 16.5775,11.3959 26.8506,9.2782 L26.8506,31.3563 L26.8506,35.8621 L31.3563,35.8621 L53.4345,35.8621 Z M37.6644,4.32184869 L37.6644,25.0483 L58.3908,25.0483 C58.3908,13.6037 49.109,4.32184869 37.6644,4.32184869 Z M42.1701,9.4584 C47.4869,10.9904 51.7223,15.2258 53.2543,20.5425 L42.1701,20.5425 L42.1701,9.4584 Z" fill-rule="nonzero"></path>
  </g>
</svg>