<?xml version="1.0" encoding="utf-8"?>
<svg width="64px" height="64px" viewBox="0 0 64 64" version="1.1" xmlns="http://www.w3.org/2000/svg" xmlns:xlink="http://www.w3.org/1999/xlink">
  <g fill-rule="evenodd">
    <path d="M42.9738,52.5424 C41.9754,57.2927 37.4763,60.7518 32.2755,60.7518 L32.2756,60.7518 C27.0748,60.7518 22.8097,57.2927 21.6794,52.5424 L1.527,52.5424 L11.4562,36.4393 L11.4562,19.3889 C11.7765,13.074 16.2607,1.7071 31.6349,1.7071 C46.6888,1.7071 51.8136,12.7583 52.4542,18.4417 L52.4542,36.4392 L63.3443,52.5424 L42.9738,52.5424 Z M36.0048,52.5424 L28.5463,52.5424 C29.3361,53.7041 30.682,54.4369 32.2755,54.4369 C33.8691,54.4369 35.215,53.7041 36.0048,52.5424 Z M12.7375,46.2275 L51.4933,46.2275 L46.0483,38.3338 L46.0483,19.0732 C45.728,17.4945 43.8062,8.0221 31.3146,8.0221 C18.8231,8.0221 17.8622,18.4417 17.5419,19.7047 L17.5419,38.3338 L12.7375,46.2275 Z" fill-rule="nonzero"></path>
  </g>
</svg>