<?xml version="1.0" encoding="utf-8"?>
<svg width="64px" height="64px" viewBox="0 0 64 64" version="1.1" xmlns="http://www.w3.org/2000/svg" xmlns:xlink="http://www.w3.org/1999/xlink">
  <g fill-rule="evenodd">
    <path d="M56.7548,50.2234 C56.5485,45.4317 54.1576,41.1801 50.5568,38.4412 L50.5568,25.4379 C50.5568,17.9273 45.1838,11.6091 38.0834,10.1162 L38.0834,9.8188 C38.0834,6.3928 35.2733,3.58946028 31.8392,3.58946028 C28.4049,3.58946028 25.5951,6.3927 25.5951,9.8188 L25.5951,10.1162 C18.4949,11.6091 13.1218,17.927 13.1218,25.4379 L13.1218,38.4412 C9.5208,41.1802 7.1299,45.4317 6.9237,50.2234 L13.1218,50.2234 L13.1218,50.2651 L50.5569,50.2651 L50.5569,50.2234 L56.7549,50.2234 L56.7548,50.2234 Z M30.5217,61.5205 L32.0717,61.5205 C36.1345,61.5205 39.5124,58.4559 40.0035,54.53 L23.692,54.53 C24.1832,58.456 27.5611,61.5205 31.6239,61.5205 L30.5217,61.5205 Z" fill-rule="nonzero"></path>
  </g>
</svg>