<?xml version="1.0" encoding="utf-8"?>
<svg width="64px" height="64px" viewBox="0 0 64 64" version="1.1" xmlns="http://www.w3.org/2000/svg" xmlns:xlink="http://www.w3.org/1999/xlink">
  <g fill-rule="evenodd">
    <path d="M5.3103,47.1861 L12.9238,38.3697 L21.467,42.8314 L35.5455,28.1492 L48.3448,40.4163 L48.3448,22.3588 C48.3448,20.7134 48.8031,19.6552 47.1411,19.6552 L6.5141,19.6552 C4.8521,19.6552 5.3103,20.7134 5.3103,22.3588 L5.3103,47.1861 Z M5.3103,49.4785 L5.3103,49.7492 C5.3103,51.3946 4.8521,52.7586 6.5141,52.7586 L47.1411,52.7586 C48.8031,52.7586 48.3448,51.3946 48.3448,49.7492 L48.3448,42.4897 L35.5906,30.2658 L21.7733,44.6756 L13.2858,40.243 L5.3103,49.4785 Z M15.6552,16.3448 L47.1411,16.3448 C49.6341,16.3448 51.6552,18.9776 51.6552,21.4458 L51.6552,42.4138 L57.4859,42.4138 C59.1479,42.4138 58.6897,41.0498 58.6897,39.4044 L58.6897,12.014 C58.6897,10.3686 59.1479,9.3103 57.4859,9.3103 L16.8589,9.3103 C15.1969,9.3103 15.6552,10.3686 15.6552,12.014 L15.6552,16.3448 Z M12.3448,16.3448 L12.3448,11.1009 C12.3448,8.6328 14.3659,6 16.8589,6 L57.4859,6 C59.979,6 62,8.6328 62,11.1009 L62,39.4044 C62,41.8725 59.979,45.7241 57.4859,45.7241 L51.6552,45.7241 L51.6552,49.7492 C51.6552,52.2174 49.6341,56.069 47.1411,56.069 L6.5141,56.069 C4.021,56.069 2,52.2174 2,49.7492 L2,21.4458 C2,18.9776 4.021,16.3448 6.5141,16.3448 L12.3448,16.3448 Z M19.3041,32.6182 C16.811,32.6182 14.79,30.6174 14.79,28.1492 C14.79,25.6811 16.811,23.6803 19.3041,23.6803 C21.7971,23.6803 23.8182,25.6811 23.8182,28.1492 C23.8182,30.6174 21.7971,32.6182 19.3041,32.6182 Z M19.3041,31.1285 C20.9661,31.1285 22.3135,29.7946 22.3135,28.1492 C22.3135,26.5038 20.9661,25.1699 19.3041,25.1699 C17.642,25.1699 16.2947,26.5038 16.2947,28.1492 C16.2947,29.7946 17.642,31.1285 19.3041,31.1285 Z" fill-rule="nonzero"></path>
  </g>
</svg>