<?xml version="1.0" encoding="utf-8"?>
<svg width="64px" height="64px" viewBox="0 0 64 64" version="1.1" xmlns="http://www.w3.org/2000/svg" xmlns:xlink="http://www.w3.org/1999/xlink">
  <g fill-rule="evenodd">
    <path d="M57.8751,39.125 C58.2501,38 58.2501,36.875 58.2501,35.75 C58.2501,31.25 57.1251,26.75 54.8751,23 C52.6251,19.25 49.6251,15.875 46.2501,13.625 L45.5001,13.25 L43.25,16.625 L44,17 C50.3751,21.125 54.1251,28.25 54.1251,35.75 L54.1251,38 C49.2501,38 45.5001,41.75 45.5001,46.2501 C45.5001,50.7501 49.2501,54.5001 53.7501,54.5001 C58.2501,54.5001 62.0001,50.7501 62.0001,46.2501 C62.0001,43.25 60.5001,40.625 57.8751,39.125 Z M57.8751,46.2501 C57.8751,48.5001 56.0001,50.3751 53.7501,50.3751 C51.5001,50.3751 49.6251,48.5001 49.6251,46.2501 C49.6251,44 51.5001,42.125 53.7501,42.125 C56.0001,42.125 57.8751,44 57.8751,46.2501 Z M42.125,55.2501 C39.125,56.7501 35.375,57.8751 32,57.8751 C26.375,57.8751 20.75,55.6251 17,51.8751 C18.5,50.3751 19.25,48.5001 19.25,46.2501 C19.25,41.75 15.5,38 11,38 C5.75,38 2,41.75 2,46.2501 C2,50.7501 5.75,54.5001 10.25,54.5001 C11,54.5001 12.125,54.5001 12.875,54.1251 C15.125,56.3751 17.75,58.2501 20.375,59.3751 C24.125,61.2501 27.875,62.0001 32,62.0001 C36.125,62.0001 40.25,60.8751 44,59.0001 L44.75,58.6251 L42.875,54.8751 L42.125,55.2501 Z M14.75,46.2501 C14.75,48.5001 12.875,50.3751 10.625,50.3751 C8.375,50.3751 6.5,48.5001 6.5,46.2501 C6.5,44 8.375,42.125 10.625,42.125 C12.875,42.125 14.75,44 14.75,46.2501 Z M9.5,35 L9.5,34.25 C9.875,25.25 16.25,17.375 24.875,14.375 C26.375,17 29,18.875 32.375,18.875 C36.875,18.875 40.625,15.125 40.625,10.625 C40.625,6.125 36.875,2 32.375,2 C27.875,2 23.75,5.75 23.75,10.25 C21.875,11 19.625,12.125 17.75,13.25 C15.5,14.75 13.625,16.25 11.75,18.5 C9.875,20.75 8.375,23 7.25,25.625 C6.125,28.25 5.75,31.25 5.375,33.875 L5.375,35.75 L9.5,35.75 L9.5,35 Z M27.875,10.25 C27.875,8 29.75,6.125 32,6.125 C34.25,6.125 36.125,8 36.125,10.25 C36.125,12.5 34.625,14.75 32.375,14.75 C30.125,14.75 27.875,12.875 27.875,10.25 Z" fill-rule="nonzero"></path>
  </g>
</svg>