<?xml version="1.0" encoding="utf-8"?>
<svg width="64px" height="64px" viewBox="0 0 64 64" version="1.1" xmlns="http://www.w3.org/2000/svg" xmlns:xlink="http://www.w3.org/1999/xlink">
  <g fill-rule="evenodd">
    <path d="M55.8196,57.7857 L8.0788,57.7857 C5.3363,57.7857 3,55.5071 3,52.6071 L3,17.7036 C3,14.9071 5.2347,12.525 8.0788,12.525 L18.7443,12.525 L21.8932,7.3464 C21.8932,6.6214 23.7215,6 24.4326,6 L39.5674,6 C40.2785,6 42.1068,6.6214 42.1068,7.3464 L45.2557,12.525 L55.9212,12.525 C58.6637,12.525 61,14.9071 61,17.7036 L61,52.6071 C60.8984,55.4036 58.6637,57.7857 55.8196,57.7857 L55.8196,57.7857 Z M31.9492,17.7036 C22.8073,17.6 15.3922,25.0571 15.2907,34.3786 C15.1891,43.7 22.5026,51.2607 31.6445,51.3642 C40.7863,51.4678 48.2014,44.0107 48.3029,34.6893 L48.3029,34.5857 C48.3029,25.2643 40.9894,17.7035 31.9492,17.7035 L31.9492,17.7036 Z M31.9492,46.1857 C25.6515,46.2892 20.4711,41.1107 20.4711,34.5856 C20.3695,28.1642 25.4483,22.8821 31.8476,22.8821 C38.1454,22.7785 43.3257,27.9571 43.3257,34.4821 L43.3257,34.5857 C43.3257,40.9036 38.2469,46.0821 31.9492,46.1857 C31.9492,46.0821 31.9492,46.0821 31.9492,46.1857 L31.9492,46.1857 Z" fill-rule="nonzero"></path>
  </g>
</svg>