<?xml version="1.0" encoding="utf-8"?>
<svg width="64px" height="64px" viewBox="0 0 64 64" version="1.1" xmlns="http://www.w3.org/2000/svg" xmlns:xlink="http://www.w3.org/1999/xlink">
  <g fill-rule="evenodd">
    <path d="M55.9251,15.0755 C58.1182,15.0755 59.9126,16.8699 59.9126,19.063 L59.9126,51.3618 C59.9126,53.5549 58.1182,55.3493 55.9251,55.3493 L8.075,55.3493 C5.8819,55.3493 4.0875,53.5549 4.0875,51.3618 L4.0875,19.063 C4.0875,16.8699 5.8819,15.0755 8.075,15.0755 L17.564,15.0755 L17.726,14.6767 L19.0406,11.25 C19.6388,9.6924 21.1154,8.6955 22.7914,8.6955 L41.2087,8.6955 C42.8847,8.6955 44.3613,9.6924 44.9594,11.25 L46.2741,14.6767 L46.436,15.0755 L55.9251,15.0755 Z M56.7226,52.1593 L56.7226,18.2655 L44.3239,18.2655 L42.7663,15.0755 L42.5669,14.6767 L41.1713,11.8855 L22.8288,11.8855 L21.4331,14.6767 L21.2338,15.0755 L19.6388,18.2655 L7.2775,18.2655 L7.2775,52.1593 L56.7226,52.1593 Z M31.9876,19.8543 C39.6822,19.8543 45.9438,26.1159 45.9438,33.8105 C45.9438,41.5488 39.6822,47.7668 31.9876,47.7668 C24.2929,47.7668 18.0313,41.5488 18.0313,33.8105 C18.0313,26.1159 24.2929,19.8543 31.9876,19.8543 Z M31.9876,44.5768 C37.9252,44.5768 42.7538,39.7544 42.7538,33.8105 C42.7538,27.8667 37.9315,23.0443 31.9876,23.0443 C26.0437,23.0443 21.2213,27.8667 21.2213,33.8105 C21.2213,39.7544 26.0437,44.5768 31.9876,44.5768 Z M51.1151,27.0442 C49.5762,27.0442 48.3239,25.7919 48.3239,24.253 C48.3239,22.714 49.5762,21.4617 51.1151,21.4617 C52.6541,21.4617 53.9064,22.714 53.9064,24.253 C53.9064,25.7919 52.6541,27.0442 51.1151,27.0442 Z" fill-rule="nonzero"></path>
  </g>
</svg>