<?xml version="1.0" encoding="utf-8"?>
<svg width="64px" height="64px" viewBox="0 0 64 64" version="1.1" xmlns="http://www.w3.org/2000/svg" xmlns:xlink="http://www.w3.org/1999/xlink">
  <g fill-rule="evenodd">
    <path d="M3.9569,33.2719 L11.6019,33.2719 C12.3031,33.2719 12.8738,32.7013 12.8738,32 C12.8738,31.2988 12.3031,30.7282 11.6019,30.7282 L3.9569,30.7282 C3.2556,30.7282 2.685,31.2988 2.685,32 C2.67813184,32.7013 3.2487575,33.2719 3.9569,33.2719 Z M3.9569,19.2538 L11.6019,19.2538 C12.3031,19.2538 12.8738,18.6832 12.8738,17.9819 C12.8738,17.2806 12.3031,16.71 11.6019,16.71 L3.9569,16.71 C3.2556,16.71 2.685,17.2806 2.685,17.9819 C2.67813184,18.6832 3.2487575,19.2538 3.9569,19.2538 Z M56.2207,1.40625536 L11.6019,1.40625536 C8.7831,1.40625536 6.5006,3.68875802 6.5006,6.5075 L6.5006,11.6088 L9.0513,11.6088 L9.0513,6.5075 C9.0513,5.0981 10.1925,3.9569 11.6019,3.9569 L56.2207,3.9569 C57.6301,3.9569 58.7713,5.0981 58.7713,6.5075 L58.7713,57.4994 C58.7713,58.9088 57.6301,60.0501 56.2207,60.0501 L11.6019,60.0501 C10.1925,60.0501 9.0513,58.9088 9.0513,57.4994 L9.0513,52.3982 L6.5006,52.3982 L6.5006,57.4994 C6.5006,60.3182 8.7831,62.6007 11.6019,62.6007 L56.2207,62.6007 C59.0394,62.6007 61.322,60.3182 61.322,57.4994 L61.322,6.5075 C61.322,3.68875802 59.0394,1.40625536 56.2207,1.40625536 Z M49.9732,49.9983 L49.9732,49.9343 L49.9732,49.9983 Z M19.3088,48.5688 L21.8663,48.5688 C22.5057,42.1269 27.9369,37.0944 34.5507,37.0944 C41.1576,37.0944 46.5957,42.1269 47.2351,48.5688 L49.7926,48.5688 C49.2976,42.5876 45.3651,37.5825 39.9682,35.5338 C42.8351,33.7325 44.7463,30.5357 44.7463,26.8988 C44.7463,21.2682 40.1813,16.7031 34.5507,16.7031 C28.92,16.7031 24.355,21.2682 24.355,26.8988 C24.355,30.5357 26.2594,33.7325 29.1332,35.5338 C23.7363,37.5825 19.7969,42.5876 19.3088,48.5688 Z M26.8988,26.8988 C26.8988,22.6775 30.3225,19.2538 34.5438,19.2538 C38.765,19.2538 42.1888,22.6775 42.1888,26.8988 C42.1888,31.12 38.765,34.5438 34.5438,34.5438 L34.5369,34.5438 L34.53,34.5438 C30.3225,34.5438 26.8988,31.1269 26.8988,26.8988 Z M12.8806,46.0251 C12.8806,45.3238 12.31,44.7532 11.6088,44.7532 L3.9569,44.7532 C3.2556,44.7532 2.685,45.3238 2.685,46.0251 C2.685,46.7263 3.2556,47.2969 3.9569,47.2969 L11.6019,47.2969 C12.31,47.2969 12.8806,46.7263 12.8806,46.0251 Z" fill-rule="nonzero"></path>
  </g>
</svg>