<?xml version="1.0" encoding="utf-8"?>
<svg width="64px" height="64px" viewBox="0 0 64 64" version="1.1" xmlns="http://www.w3.org/2000/svg" xmlns:xlink="http://www.w3.org/1999/xlink">
  <g fill-rule="evenodd">
    <path d="M42.2998,16.9423 L43.0667,16.9423 C44.1621,16.9423 44.1621,16.1616 43.5049,15.4923 L38.1371,10.0269 C37.4798,9.4692 37.4798,8.3539 38.1371,7.6846 L40.4375,5.3423 C40.9853,4.6731 42.0807,4.6731 42.738,5.3423 L56.8696,19.7308 C57.4173,20.2885 57.4173,21.1808 56.8696,21.7385 L42.6285,36.2385 C41.9712,36.7962 41.2044,36.7962 40.5471,36.127 L38.1371,33.6731 C37.4798,33.0039 37.3702,32.0001 38.0275,31.3308 L43.3953,25.8654 C44.1621,25.0847 44.3812,24.4154 43.5049,23.9693 C43.1762,23.8577 42.2999,23.8577 42.2999,23.8577 L27.0728,23.8577 C19.295,23.8577 13.0508,30.2154 13.0508,38.1347 C13.0508,46.0539 19.295,52.4117 27.0728,52.4117 L35.9462,52.4117 C36.8225,52.4117 37.4798,53.1925 37.4798,54.0848 L37.4798,57.654 C37.4798,58.5463 36.9321,59.2155 36.0557,59.2155 L27.0729,59.2155 C15.68,59.2155 6.3685,49.8463 6.3685,38.1347 C6.3685,26.4232 15.68,17.0539 27.0729,17.0539 L42.2999,16.9424 L42.2998,16.9423 Z"></path>
  </g>
</svg>