<?xml version="1.0" encoding="utf-8"?>
<svg width="64px" height="64px" viewBox="0 0 64 64" version="1.1" xmlns="http://www.w3.org/2000/svg" xmlns:xlink="http://www.w3.org/1999/xlink">
  <g fill-rule="evenodd">
    <path d="M13.8519,21.8072 L21.8072,21.8072 L21.8072,13.8518 L13.8519,13.8518 L13.8519,21.8072 Z M54.1259,33.7403 L58.1036,33.7403 L58.1036,46.1705 L54.1259,46.1705 L54.1259,42.1928 L50.1481,42.1928 L50.1481,37.718 L46.1704,37.718 L46.1704,33.7403 L50.1481,33.7403 L50.1481,37.718 L54.1259,37.718 L54.1259,33.7403 Z M42.1929,42.1929 L50.1483,42.1929 L50.1483,50.1483 L54.126,50.1483 L54.126,54.126 L58.1037,54.126 L58.1037,58.1038 L50.1483,58.1037 L50.1483,54.126 L46.1706,54.126 L46.1706,46.1706 L42.1929,46.1706 L42.1929,50.1483 L37.718,50.1483 L37.718,54.126 L42.1929,54.126 L42.1929,58.1038 L33.7403,58.1038 L33.7403,33.7404 L42.1929,33.7404 L42.1929,37.7182 L37.718,37.7182 L37.718,46.1707 L42.1929,46.1707 L42.1929,42.193 L42.1929,42.1929 Z M5.8965,58.1036 L29.7626,58.1036 L29.7626,33.7403 L5.8965,33.7403 L5.8965,58.1036 Z M9.8742,37.7179 L25.7849,37.7179 L25.7849,54.1259 L9.8742,54.1259 L9.8742,37.7179 Z M13.8519,50.1482 L21.8072,50.1482 L21.8072,42.1928 L13.8519,42.1928 L13.8519,50.1482 Z M33.7403,5.8965 L33.7403,29.7626 L58.1036,29.7626 L58.1036,5.8965 L33.7403,5.8965 Z M54.1259,25.7849 L37.7179,25.7849 L37.7179,9.8742 L54.1259,9.8742 L54.1259,25.7849 Z M5.8965,29.7626 L29.7626,29.7626 L29.7626,5.8965 L5.8965,5.8965 L5.8965,29.7626 Z M9.8742,9.8742 L25.7849,9.8742 L25.7849,25.7849 L9.8742,25.7849 L9.8742,9.8742 Z M50.1482,13.8519 L42.1928,13.8519 L42.1928,21.8072 L50.1482,21.8072 L50.1482,13.8519 Z" fill-rule="nonzero"></path>
  </g>
</svg>