<?xml version="1.0" encoding="utf-8"?>
<svg width="64px" height="64px" viewBox="0 0 64 64" version="1.1" xmlns="http://www.w3.org/2000/svg" xmlns:xlink="http://www.w3.org/1999/xlink">
  <g fill-rule="evenodd">
    <path d="M55,13.456 C55,11.9195 53.6378,11 51.9333,11 L12.0667,11 C10.3622,11 9,12.228 9,13.456 C9,14.684 10.3622,15.912 12.0667,15.912 L51.9333,15.912 C53.6378,16.2205 55,14.9925 55,13.456 Z M55,31.8821 C55,30.3456 53.6378,29.4261 51.9333,29.4261 L12.0667,29.4261 C10.3622,29.4261 9,30.6541 9,31.8821 C9,33.1101 10.3622,34.3381 12.0667,34.3381 L51.9333,34.3381 C53.6378,34.6466 55,33.4186 55,31.8821 Z M55,50.3144 C55,48.7779 53.6378,47.8584 51.9333,47.8584 L12.0667,47.8584 C10.3622,47.8584 9,49.0864 9,50.3144 C9,51.5424 10.3622,52.7704 12.0667,52.7704 L51.9333,52.7704 C53.6378,53.0789 55,51.8509 55,50.3144 Z" fill-rule="nonzero"></path>
  </g>
</svg>