<?xml version="1.0" encoding="utf-8"?>
<svg width="64px" height="64px" viewBox="0 0 64 64" version="1.1" xmlns="http://www.w3.org/2000/svg" xmlns:xlink="http://www.w3.org/1999/xlink">
  <g fill-rule="evenodd">
    <path d="M46.8907,44.1875 C44.4435,44.1875 42.1846,45.1251 40.4904,46.8126 L23.9249,35.5625 C24.6779,34.25 25.0543,32.9375 25.0543,31.4375 C25.0543,30.3125 24.8661,29.1875 24.4896,28.0625 L40.4904,17.1875 C41.9963,18.875 44.2553,20 46.8907,20 C51.9733,20 56.1146,16.0625 56.1146,11 C56.1146,6.125 52.1615,2.375 47.0789,2.375 C41.9963,2.375 38.0432,6.3125 38.0432,11.1875 C38.0432,11.75 38.0432,12.125 38.2314,12.6875 L20.913,23.9375 C19.407,23 17.9011,22.625 16.0186,22.625 C11.1243,22.625 7.1711,26.5625 7.1711,31.25 C7.1711,36.125 11.1243,40.0625 16.2069,40.0625 C17.5246,40.0625 18.8423,39.6875 19.9717,39.125 L38.2314,51.1251 C38.0432,51.6876 38.0432,52.2501 38.0432,53.0001 C38.0432,57.8751 41.9963,61.8126 47.0789,61.8126 C52.1615,61.8126 56.1146,57.8751 56.1146,53.0001 C55.9264,48.1251 51.9733,44.1875 46.8907,44.1875 Z"></path>
  </g>
</svg>