<?xml version="1.0" encoding="utf-8"?>
<svg width="64px" height="64px" viewBox="0 0 64 64" version="1.1" xmlns="http://www.w3.org/2000/svg" xmlns:xlink="http://www.w3.org/1999/xlink">
  <g fill-rule="evenodd">
    <path d="M54.9721,57.875 C54.3655,57.875 53.7546,57.6904 53.226,57.3145 C53.1515,57.2615 53.0775,57.204 52.9995,57.1386 C52.9355,57.0849 52.8626,57.0207 52.7704,56.9366 C52.6376,56.8155 52.4562,56.6458 52.2158,56.4176 C51.7947,56.0179 51.1828,55.4291 50.3971,54.668 C49.0824,53.3943 47.2565,51.6137 44.97,49.3758 C42.7328,47.1861 40.4822,44.9769 38.9662,43.4876 C36.1832,45.4136 32.0324,47.4852 27.0547,47.4852 C24.226,47.4852 21.48,46.9367 18.8931,45.8547 C16.3939,44.8095 14.1496,43.3133 12.2225,41.4077 C10.2933,39.5001 8.778,37.2773 7.7188,34.8009 C6.6206,32.2336 6.0637,29.5078 6.0637,26.6992 C6.0637,23.8906 6.6206,21.1649 7.7188,18.5975 C8.778,16.1211 10.2933,13.8982 12.2226,11.9907 C14.1497,10.0851 16.394,8.5889 18.8931,7.5437 C21.48,6.4617 24.226,5.9132 27.0548,5.9132 C29.8835,5.9132 32.6295,6.4618 35.2164,7.5437 C37.7155,8.5889 39.9598,10.085 41.8869,11.9907 C43.8161,13.8982 45.3314,16.1211 46.3906,18.5975 C47.4889,21.1649 48.0457,23.8907 48.0457,26.6992 C48.0457,31.2948 46.411,35.7164 43.3899,39.4164 C44.9031,40.883 47.0451,42.9604 49.1724,45.0276 C51.4622,47.253 53.2874,49.0317 54.5971,50.3146 C55.3786,51.0799 55.9846,51.6766 56.3984,52.0883 C56.6317,52.3203 56.8056,52.495 56.93,52.6225 C57.2592,52.9598 57.9441,53.6617 57.9538,54.8705 L57.9639,56.1178 L57.0811,57.0007 C56.5024,57.5788 55.7406,57.8749 54.9722,57.8749 L54.9721,57.875 Z M27.0547,11.8718 C18.7697,11.8718 12.0293,18.5233 12.0293,26.6992 C12.0293,34.875 18.7697,41.5266 27.0547,41.5266 C31.5148,41.5266 35.1923,39.0268 37.0843,37.4316 L37.178,37.3441 C40.3391,34.395 42.0801,30.6146 42.0801,26.6992 C42.0801,18.5234 35.3397,11.8718 27.0547,11.8718 L27.0547,11.8718 Z" fill-rule="nonzero"></path>
  </g>
</svg>