<?xml version="1.0" encoding="utf-8"?>
<svg width="64px" height="64px" viewBox="0 0 64 64" version="1.1" xmlns="http://www.w3.org/2000/svg" xmlns:xlink="http://www.w3.org/1999/xlink">
  <g fill-rule="evenodd">
    <path d="M16.0865,31.8582 C16.0801,34.7909 13.7147,37.1563 10.7756,37.1498 C7.8494,37.1434 5.4711,34.7651 5.4775,31.8325 C5.4775,28.9127 7.8688,26.5344 10.8014,26.5409 C13.7276,26.5473 16.0865,28.9192 16.0865,31.8582 Z M53.276,26.5473 C56.2087,26.5473 58.5934,28.9192 58.5934,31.8454 C58.5999,34.7715 56.2216,37.1563 53.2889,37.1563 C50.3499,37.1563 47.978,34.7973 47.978,31.8582 C47.978,28.9192 50.337,26.5473 53.276,26.5473 Z M32.0258,37.1563 C29.0996,37.1563 26.702,34.7522 26.7149,31.8454 C26.7342,28.9127 29.1061,26.5473 32.0387,26.5473 C34.9649,26.5473 37.3561,28.9385 37.3432,31.8582 C37.3368,34.7844 34.9584,37.1563 32.0258,37.1563 Z" fill-rule="nonzero"></path>
  </g>
</svg>