<?xml version="1.0" encoding="utf-8"?>
<svg width="64px" height="64px" viewBox="0 0 64 64" version="1.1" xmlns="http://www.w3.org/2000/svg" xmlns:xlink="http://www.w3.org/1999/xlink">
  <g fill-rule="evenodd">
    <g fill-rule="nonzero">
      <path d="M32,7.1432e-15 C49.6732,3.5716e-15 64,14.3268 64,31.9999 C64,49.6731 49.6732,64 32,64 C14.3268,64 0,49.6731 0,31.9999 C0,14.3268 14.3268,7.1432e-15 32,7.1432e-15 Z M33.971,51.631 C34.6138,51.0595 34.9352,50.2738 34.9352,49.2737 C34.9352,48.3737 34.6281,47.6165 34.0138,47.0023 C33.3995,46.388 32.6424,46.081 31.7424,46.081 C30.8281,46.081 30.0567,46.388 29.4281,47.0023 C28.8004,47.6165 28.4861,48.3737 28.4861,49.2737 C28.4861,50.2881 28.8103,51.0773 29.4602,51.6416 C30.1103,52.2059 30.8709,52.488 31.7424,52.488 C32.5844,52.488 33.3272,52.2022 33.971,51.631 Z M44.0341,28.5615 L44.0341,28.5615 C44.5761,27.5661 44.8472,26.4076 44.8471,25.0856 C44.8471,23.4061 44.372,21.851 43.4214,20.4204 C42.4711,18.9896 41.1242,17.8583 39.3805,17.0264 C37.6361,16.1943 35.6263,15.7785 33.3488,15.7785 C30.8973,15.7785 28.7541,16.2759 26.9163,17.2712 C25.0784,18.2664 23.6804,19.5224 22.7232,21.0385 C21.764,22.5547 21.2859,24.0514 21.2859,25.5289 C21.2849,26.2441 21.5864,26.909 22.1911,27.5233 C22.7958,28.1377 23.537,28.4447 24.4166,28.4447 C25.9089,28.4447 26.922,27.5661 27.4571,25.8107 C28.0236,24.1293 28.7138,22.86 29.5316,21.9968 C30.3475,21.1338 31.6197,20.7021 33.3476,20.7021 C34.8242,20.7021 36.0298,21.1298 36.9644,21.9833 C37.8991,22.8386 38.3664,23.8884 38.3664,25.1323 C38.3664,25.7719 38.2142,26.3608 37.9079,26.9052 C37.6006,27.4495 37.2236,27.9433 36.7769,28.3864 C36.3293,28.8298 35.6018,29.4867 34.5965,30.3575 C33.4499,31.3529 32.5387,32.2121 31.8633,32.9352 C31.1879,33.6583 30.646,34.4981 30.2376,35.4544 C29.8302,36.4109 29.6259,37.5423 29.6259,38.8486 C29.6259,39.8905 29.9038,40.6757 30.4624,41.2044 C31.02,41.7332 31.7063,41.9976 32.5241,41.9976 C34.0959,41.9976 35.0295,41.1889 35.3279,39.5716 C35.5008,38.8075 35.6304,38.275 35.7167,37.9737 C35.8032,37.6705 35.925,37.3673 36.082,37.0641 C36.2391,36.7607 36.4787,36.4264 36.8006,36.061 C37.1227,35.6955 37.5508,35.2718 38.0848,34.7896 C40.0169,33.0791 41.3561,31.8623 42.1021,31.1392 C42.8473,30.4179 43.4923,29.5567 44.0341,28.5615 Z"></path>
    </g>
  </g>
</svg>