<?xml version="1.0" encoding="utf-8"?>
<svg width="64px" height="64px" viewBox="0 0 64 64" version="1.1" xmlns="http://www.w3.org/2000/svg" xmlns:xlink="http://www.w3.org/1999/xlink">
  <g fill-rule="evenodd">
    <path d="M32.5067,13.92 L32.5067,13.92 C35.3121,13.7624 38.071,14.6884 40.2133,16.5067 C42.2155,18.3064 43.3024,20.9109 43.1733,23.6 C43.2476,25.77 42.5902,27.902 41.3067,29.6533 C40.0023,31.0185 38.6223,32.3094 37.1733,33.52 C36.2995,34.2455 35.5981,35.1564 35.12,36.1867 C34.5889,37.197 34.3228,38.3255 34.3467,39.4667 L34.3467,40.24 L29.0133,40.24 L29.0133,39.3867 C28.9512,37.7563 29.29,36.1356 30,34.6667 C31.5131,32.3414 33.3957,30.2787 35.5733,28.56 L36.4,27.6267 C37.2568,26.608 37.7453,25.3304 37.7867,24 C37.8765,22.4901 37.3689,21.0054 36.3733,19.8667 C35.2436,18.8126 33.7285,18.2722 32.1867,18.3733 C30.314,18.1829 28.4797,18.9936 27.36,20.5067 C26.385,22.0094 25.9177,23.7853 26.0267,25.5733 C25.7716,26.4478 25.0878,27.1316 24.2133,27.3867 C22.7995,27.799 21.319,26.9872 20.9067,25.5733 L20.9067,25.28 C20.8149,22.2495 21.9271,19.306 24,17.0933 C26.273,14.9019 29.3538,13.7527 32.5067,13.92 Z M31.6267,42.9867 L31.6267,42.9867 C32.5854,42.9164 33.5308,43.2444 34.24,43.8933 C34.9801,44.5738 35.364,45.5582 35.28,46.56 C35.3094,47.5636 34.9122,48.5326 34.1867,49.2267 C33.4675,49.9022 32.5057,50.258 31.52,50.2133 C31.4932,50.2137 31.4664,50.2138 31.4395,50.2136 C29.4808,50.1987 27.9051,48.5987 27.92,46.64 L27.92,46.64 C27.836,45.6382 28.2199,44.6538 28.96,43.9733 C29.665,43.2753 30.6371,42.9156 31.6267,42.9867 Z M32,1.39876682e-6 C49.6731,1.39876682e-6 64,14.3269 64,32 C64,49.6731 49.6731,64 32,64 C14.3269,64 7.7252e-7,49.6731 -1.1724e-13,32 C-1.1724e-13,14.3269 14.3269,7.7252e-7 32,1.13686838e-13 Z M32,58.6667 C46.7276,58.6667 58.6667,46.7276 58.6667,32 C58.6667,17.2724 46.7276,5.3333 32,5.3333 C17.2724,5.3333 5.3333,17.2724 5.3333,32 C5.3333,46.7276 17.2724,58.6667 32,58.6667 Z" fill-rule="nonzero"></path>
  </g>
</svg>