<?xml version="1.0" encoding="utf-8"?>
<svg width="64px" height="64px" viewBox="0 0 64 64" version="1.1" xmlns="http://www.w3.org/2000/svg" xmlns:xlink="http://www.w3.org/1999/xlink">
  <g fill-rule="evenodd">
    <path d="M31.7273,21.125 C35.0623,21.125 37.7303,23.822 37.7303,27.157 C37.7303,30.492 35.0333,33.16 31.6983,33.16 C28.3633,33.16 25.6953,30.463 25.6953,27.128 C25.6953,25.533 26.3333,24.025 27.4353,22.894 C28.5953,21.763 30.1323,21.125 31.7273,21.125 Z M31.7273,17.5 C26.3913,17.5 22.0703,21.85 22.0703,27.186 C22.0703,32.522 26.4203,36.843 31.7563,36.843 C37.0923,36.843 41.4133,32.493 41.4133,27.157 C41.4133,24.605 40.3983,22.14 38.5713,20.313 C36.7733,18.515 34.3083,17.5 31.7273,17.5 Z M48.3443,10.047 C39.4703,0.883 24.8543,0.622 15.6903,9.496 L15.1393,10.047 C5.9753,19.53 5.9753,34.552 15.1393,44.006 L31.7273,61.0001 L48.3153,44.006 C57.4793,34.523 57.4793,19.501 48.3443,10.047 Z M45.8213,41.599 L31.7273,56.0991 L17.6333,41.599 C9.8613,33.566 9.8613,20.806 17.6333,12.773 C25.2023,4.972 37.6143,4.798 45.4153,12.367 L45.8213,12.773 C53.6223,20.835 53.6223,33.595 45.8213,41.599 Z" fill-rule="nonzero"></path>
  </g>
</svg>