<?xml version="1.0" encoding="utf-8"?>
<svg width="64px" height="64px" viewBox="0 0 64 64" version="1.1" xmlns="http://www.w3.org/2000/svg" xmlns:xlink="http://www.w3.org/1999/xlink">
  <g fill-rule="evenodd">
    <g transform="translate(2, 2)" fill-rule="nonzero">
      <path d="M59.3298,15.4688 C59.3588,15.4862 59.3704,15.5152 59.3762,15.5499 L59.3762,52.181 C59.3762,52.2274 59.3414,52.268 59.3008,52.2796 L38.585,58.0195 C38.5676,58.0253 38.5502,58.0253 38.5328,58.0195 L17.8807,52.297 C17.8691,52.2912 17.8575,52.2912 17.8459,52.297 L3.0787,57.0454 L0.127553559,57.9963 C0.0985641139,58.0079 0.0695746687,58.0021 0.0405852234,57.9847 C0.0115957781,57.9615 1.77635684e-14,57.9383 1.77635684e-14,57.9035 L1.77635684e-14,21.2667 C1.77635684e-14,21.2203 0.0289894453,21.1797 0.0753725577,21.1681 L8.9461,19.0403 C8.9809,19.0287 9.0099,19.0403 9.0331,19.0577 C9.0621,19.0751 9.0737,19.0982 9.0737,19.133 L9.0737,19.2432 C9.0737,20.1245 9.1259,21.0058 9.2766,21.8754 C9.2824,21.9276 9.2534,21.9798 9.2012,21.9914 L3.20043476,23.4409 C3.17144531,23.4467 3.14825376,23.4757 3.14825376,23.5046 L3.14825376,53.903 C3.14825376,53.9204 3.15984954,53.9436 3.1772432,53.9552 C3.19463687,53.9725 3.2178,53.9725 3.2352,53.9668 L17.7589,49.2937 C17.7705,49.2879 17.7763,49.2879 17.7821,49.2821 C17.8053,49.2647 17.8285,49.2589 17.8517,49.2589 L17.8633,49.2589 C17.8865,49.2589 17.9097,49.2647 17.9271,49.2763 C17.9329,49.2821 17.9387,49.2879 17.9445,49.2879 L38.5386,55.0046 C38.5502,55.0104 38.5618,55.0104 38.5734,55.0046 L56.1642,50.1112 C56.1931,50.1054 56.2105,50.0764 56.2105,50.0474 L56.2105,19.5215 C56.2105,19.4983 56.1989,19.4809 56.1815,19.4693 C56.1642,19.4519 56.141,19.4519 56.1236,19.4577 L50.0996,21.3594 C50.0648,21.371 50.0358,21.3652 50.0068,21.342 C49.9778,21.3188 49.9662,21.2898 49.972,21.2551 C50.1112,20.1709 50.1865,19.0809 50.2503,17.9908 C50.2561,17.9503 50.2851,17.9155 50.3257,17.9039 L59.2428,15.4514 C59.2718,15.4456 59.3066,15.4514 59.3298,15.4688 Z M29.6794,26.1891 C25.7716,26.1891 22.3161,23.18 22.3161,19.1794 C22.3161,15.1731 25.7716,12.1698 29.6794,12.1698 C33.5872,12.1698 37.0427,15.1731 37.0427,19.1794 C37.0427,23.1858 33.5872,26.1891 29.6794,26.1891 Z M29.6794,14.9122 C27.3023,14.9122 25.2092,16.7385 25.2092,19.1736 C25.2092,21.6087 27.3023,23.4351 29.6794,23.4351 C32.0565,23.4351 34.1496,21.6087 34.1496,19.1736 C34.1496,16.7327 32.0565,14.9122 29.6794,14.9122 Z M15.0397,29.7316 C13.6946,27.1399 12.4713,24.2352 11.9668,21.342 C11.8567,20.5883 11.7639,19.7708 11.7581,19.0055 C11.7233,14.1816 13.6598,9.6999 17.1386,6.3661 C20.5303,3.11346642 24.9889,1.3451 29.6794,1.3451 C34.3815,1.3451 38.8575,3.10766853 42.255,6.3661 C45.7106,9.6825 47.6413,14.1411 47.6065,18.9301 C47.5949,19.7244 47.5021,20.5709 47.3861,21.3594 C46.2903,27.7197 41.4955,34.9671 37.5935,40.0286 C37.4892,40.1736 37.379,40.3127 37.2572,40.4403 C36.0977,41.8434 34.8337,43.1711 33.506,44.4176 C32.932,44.9568 32.3058,45.5366 31.6913,46.0178 L29.7954,47.5369 C29.7316,47.5833 29.6446,47.5833 29.5866,47.5369 L27.6849,46.0294 C27.0645,45.5308 26.45,44.98 25.8702,44.4408 C24.5367,43.2001 23.2669,41.8724 22.1074,40.4693 C21.9856,40.3417 21.8754,40.2026 21.7769,40.0634 C19.2838,36.8398 16.9182,33.3553 15.0397,29.7316 Z M29.6794,4.4934 C21.6783,4.4934 14.9933,10.9174 15.0513,18.9823 C15.0571,19.6085 15.1325,20.2868 15.2253,20.9014 C16.2167,26.6355 20.9304,33.6973 24.4729,38.2661 C24.4729,38.2719 24.4787,38.2835 24.4845,38.2893 C24.5077,38.324 24.5483,38.3646 24.5773,38.3936 L24.5888,38.4052 C25.6846,39.7329 26.879,40.9911 28.1372,42.1622 C28.63,42.6203 29.146,43.0899 29.6736,43.5132 C30.2012,43.0841 30.7172,42.6145 31.21,42.1507 C32.4682,40.9737 33.6625,39.7097 34.7583,38.382 L34.7699,38.3704 C34.7931,38.3414 34.8395,38.3009 34.8569,38.2661 C34.8627,38.2603 34.8685,38.2487 34.8743,38.2429 C38.4284,33.6394 43.1421,26.6065 44.1335,20.8492 C44.1973,20.397 44.2495,19.9447 44.2843,19.4925 C44.2959,19.336 44.3133,19.1156 44.3075,18.9533 L44.3075,18.9243 C44.3712,10.8536 37.6747,4.4934 29.6794,4.4934 Z"></path>
    </g>
  </g>
</svg>