<?xml version="1.0" encoding="utf-8"?>
<svg width="64px" height="64px" viewBox="0 0 64 64" version="1.1" xmlns="http://www.w3.org/2000/svg" xmlns:xlink="http://www.w3.org/1999/xlink">
  <g fill-rule="evenodd">
    <path d="M36.8875,32 L53.8501,15.0375 C55.2876,13.6 55.2876,11.5875 53.8501,10.15 C52.4126,8.7125 50.4,8.7125 48.9625,10.15 L32,27.1125 L15.0375,10.15 C13.6,8.7125 11.5875,8.7125 10.15,10.15 C8.7125,11.5875 8.7125,13.6 10.15,15.0375 L27.1125,32 L10.15,48.9625 C8.7125,50.4 8.7125,52.4126 10.15,53.8501 C11.5875,55.2876 13.6,55.2876 15.0375,53.8501 L32,36.8875 L48.9625,53.8501 C50.4,55.2876 52.4126,55.2876 53.8501,53.8501 C55.2876,52.4126 55.2876,50.4 53.8501,48.9625 L36.8875,32 Z"></path>
  </g>
</svg>