<?xml version="1.0" encoding="utf-8"?>
<svg width="64px" height="64px" viewBox="0 0 64 64" version="1.1" xmlns="http://www.w3.org/2000/svg" xmlns:xlink="http://www.w3.org/1999/xlink">
  <g fill-rule="evenodd">
    <path d="M19.3963,49.1428 L28.0945,49.1428 L15.0386,62 L2,49.1428 L10.6982,49.1428 L10.6982,2 L19.3964,2 L19.3964,49.1428 L19.3963,49.1428 Z M47.1087,3.2343 L52.7103,3.2343 L62,27.7142 L56.3288,27.7142 L54.45,22.2628 L45.1603,22.2628 L43.2119,27.7142 L37.7147,27.7142 L47.1087,3.2343 Z M39.3673,55.6057 L52.693,39.9028 L40.4112,39.9028 L40.4112,35.3771 L59.9646,35.3771 L59.9646,39.6285 L46.639,55.3314 L60.3126,55.3314 L60.3126,59.8571 L39.3673,59.8571 L39.3673,55.6057 Z M46.5868,18.2514 L53.0235,18.2514 L49.8921,9.2685 L49.8226,9.2685 L46.5868,18.2514 Z" fill-rule="nonzero"></path>
  </g>
</svg>