<?xml version="1.0" encoding="utf-8"?>
<svg width="64px" height="64px" viewBox="0 0 64 64" version="1.1" xmlns="http://www.w3.org/2000/svg" xmlns:xlink="http://www.w3.org/1999/xlink">
  <g fill-rule="evenodd">
    <path d="M19.3963,49.1428 L28.0945,49.1428 L15.0386,62 L2,49.1428 L10.6982,49.1428 L10.6982,2 L19.3964,2 L19.3964,49.1428 L19.3963,49.1428 Z M39.3673,25.6057 L52.693,9.9028 L40.4112,9.9028 L40.4112,5.3771 L59.9646,5.3771 L59.9646,9.6285 L46.639,25.3314 L60.3126,25.3314 L60.3126,29.8571 L39.3673,29.8571 L39.3673,25.6057 Z M47.1087,35.3771 L52.7103,35.3771 L62,59.8571 L56.3288,59.8571 L54.45,54.4057 L45.1603,54.4057 L43.2119,59.8571 L37.7147,59.8571 L47.1087,35.3771 Z M46.5868,50.3942 L53.0235,50.3942 L49.8921,41.4114 L49.8226,41.4114 L46.5868,50.3942 Z" fill-rule="nonzero"></path>
  </g>
</svg>