<?xml version="1.0" encoding="utf-8"?>
<svg width="64px" height="64px" viewBox="0 0 64 64" version="1.1" xmlns="http://www.w3.org/2000/svg" xmlns:xlink="http://www.w3.org/1999/xlink">
  <g fill-rule="evenodd">
    <path d="M52.1168,20.8033 L52.1168,20.8033 C49.7219,9.9785 38.8436,3.10974141 27.8195,5.4614 C20.0008,7.1293 13.8937,13.126 12.1951,20.8033 L12.1951,20.8033 C3.6595,22.8099 -1.6032,31.231 0.440446047,39.6122 C2.1069,46.4465 8.2204,51.3439 15.3735,51.5748 L15.3735,51.5748 C16.1058,51.5683 16.8366,51.5085 17.5598,51.3959 L17.9445,51.3959 L17.9445,51.3959 C18.9184,51.221 19.6207,50.3801 19.6045,49.408 C19.6045,48.3102 18.6982,47.4202 17.5801,47.4202 C17.4656,47.4106 17.3504,47.4106 17.2359,47.4202 L17.2359,47.4202 C16.6207,47.524 15.9977,47.5772 15.3735,47.5793 L15.3735,47.5793 C8.8563,47.7003 3.4733,42.6107 3.35,36.2114 C3.2321,30.0898 7.9841,24.9344 14.1993,24.441 C15.0982,24.3679 15.8146,23.6728 15.8998,22.7911 C15.8998,22.3538 16.0415,21.9165 16.1427,21.4791 L16.1427,21.1213 C18.2828,12.5033 27.1327,7.2204 35.9095,9.3219 C41.8449,10.743 46.479,15.2934 47.9263,21.1213 L47.9263,21.4593 C47.9263,21.8966 48.1085,22.3339 48.1692,22.7712 L48.1692,22.7712 C48.2583,23.6142 48.9314,24.2834 49.7887,24.3814 L50.8009,24.5404 L50.8009,24.5404 C51.2111,24.6257 51.6166,24.7319 52.0156,24.8584 L52.0156,24.8584 C58.232,26.7837 61.682,33.2927 59.7213,39.3967 C58.1706,44.2244 53.608,47.5052 48.4526,47.4997 L48.4526,47.4997 C47.725,47.4959 46.9996,47.4227 46.2864,47.2811 C46.1719,47.2715 46.0568,47.2715 45.9423,47.2811 C44.8242,47.2811 43.9179,48.1711 43.9179,49.2689 L43.9179,49.2689 C43.9017,50.241 44.604,51.0819 45.5779,51.2567 L46.2662,51.2567 L46.2662,51.2567 C47.0812,51.404 47.9074,51.4838 48.736,51.4953 L48.736,51.4953 C57.5059,51.1547 64.3342,43.8978 63.9873,35.2864 C63.7107,28.4185 58.8902,22.5371 52.1168,20.8033 L52.1168,20.8033 Z M34.0387,51.6921 L34.0387,32.9867 C34.0387,31.8888 33.1323,30.9988 32.0143,30.9988 C30.8962,30.9988 29.9899,31.8888 29.9899,32.9867 L29.9899,51.6921 L25.4349,47.2195 C24.5122,46.5995 23.2523,46.8314 22.6209,47.7374 C22.1493,48.4142 22.1493,49.3058 22.6209,49.9825 L30.5567,57.7748 C31.3413,58.5195 32.586,58.5195 33.3706,57.7748 L41.3064,49.9825 C41.9378,49.0765 41.7016,47.8394 40.7789,47.2195 C40.0897,46.7564 39.1816,46.7564 38.4924,47.2195 L34.0387,51.6921 Z" fill-rule="nonzero"></path>
  </g>
</svg>