<?xml version="1.0" encoding="UTF-8"?>
<svg width="64px" height="64px" viewBox="0 0 64 64" version="1.1" xmlns="http://www.w3.org/2000/svg" xmlns:xlink="http://www.w3.org/1999/xlink">
    <g fill-rule="evenodd">
        <path d="M19,5 L45,5 C47.209139,5 49,6.790861 49,9 L49,55 C49,57.209139 47.209139,59 45,59 L19,59 C16.790861,59 15,57.209139 15,55 L15,9 C15,6.790861 16.790861,5 19,5 Z M19,11 L19,50 L45,50 L45,11 L19,11 Z M32,56 C33.1045695,56 34,55.1045695 34,54 C34,52.8954305 33.1045695,52 32,52 C30.8954305,52 30,52.8954305 30,54 C30,55.1045695 30.8954305,56 32,56 Z" fill-rule="nonzero"></path>
    </g>
</svg>