<?xml version="1.0" encoding="UTF-8"?>
<svg width="64px" height="64px" viewBox="0 0 64 64" version="1.1" xmlns="http://www.w3.org/2000/svg" xmlns:xlink="http://www.w3.org/1999/xlink">
    <g fill-rule="evenodd">
        <path d="M9,4 L34,4 C36.209139,4 38,5.790861 38,8 L38,54 C38,56.209139 36.209139,58 34,58 L9,58 C6.790861,58 5,56.209139 5,54 L5,8 C5,5.790861 6.790861,4 9,4 Z M11,7 C9.34314575,7 8,8.34314575 8,10 L8,52 C8,53.6568542 9.34314575,55 11,55 L32,55 C33.6568542,55 35,53.6568542 35,52 L35,10 C35,8.34314575 33.6568542,7 32,7 L11,7 Z M21.5,51 C20.1192881,51 19,49.8807119 19,48.5 C19,47.1192881 20.1192881,46 21.5,46 C22.8807119,46 24,47.1192881 24,48.5 C24,49.8807119 22.8807119,51 21.5,51 Z M15.5,10 L22.5,10 C23.3284271,10 24,10.6715729 24,11.5 C24,12.3284271 23.3284271,13 22.5,13 L15.5,13 C14.6715729,13 14,12.3284271 14,11.5 C14,10.6715729 14.6715729,10 15.5,10 Z M26.5,13 C25.6715729,13 25,12.3284271 25,11.5 C25,10.6715729 25.6715729,10 26.5,10 C27.3284271,10 28,10.6715729 28,11.5 C28,12.3284271 27.3284271,13 26.5,13 Z M40,58 L40,55 L53,55 C54.6568542,55 56,53.6568542 56,52 L56,31 C56,29.3431458 54.6568542,28 53,28 L40,28 L40,25 L55,25 C57.209139,25 59,26.790861 59,29 L59,54 C59,56.209139 57.209139,58 55,58 L40,58 Z M53,35.5 L53,42.5 C53,43.3284271 52.3284271,44 51.5,44 C50.6715729,44 50,43.3284271 50,42.5 L50,35.5 C50,34.6715729 50.6715729,34 51.5,34 C52.3284271,34 53,34.6715729 53,35.5 Z M50,46.5 C50,45.6715729 50.6715729,45 51.5,45 C52.3284271,45 53,45.6715729 53,46.5 C53,47.3284271 52.3284271,48 51.5,48 C50.6715729,48 50,47.3284271 50,46.5 Z"></path>
    </g>
</svg>