<?xml version="1.0" encoding="utf-8"?>
<svg width="64px" height="64px" viewBox="0 0 64 64" version="1.1" xmlns="http://www.w3.org/2000/svg" xmlns:xlink="http://www.w3.org/1999/xlink">
  <g fill-rule="evenodd">
    <path d="M11.1685,18.1703 C13.3895,18.1703 15.3371,16.0343 15.3371,13.5852 C15.3371,11.1361 13.3951,9 11.1685,9 C8.942,9 7,11.1422 7,13.5852 C7,16.0281 8.6685,18.1703 11.1685,18.1703 Z M57,12.9775 C57,11.4491 55.8895,10.5345 54.5,10.5345 L22,10.5345 C20.6105,10.5345 19.5,11.756 19.5,12.9775 C19.5,14.199 20.6105,15.4205 22,15.4205 L54.5,15.4205 C55.8895,15.7274 57,14.5059 57,12.9775 Z M7,31.9197 C7,34.3627 8.942,36.5049 11.1685,36.5049 C13.3951,36.5049 15.3371,34.3688 15.3371,31.9197 C15.3371,29.4706 13.3951,27.3346 11.1685,27.3346 C8.942,27.3346 7,29.4768 7,31.9197 Z M57,31.3059 C57,29.7775 55.8895,28.863 54.5,28.863 L22,28.863 C20.6105,28.863 19.5,30.0844 19.5,31.3059 C19.5,32.5274 20.6105,33.7489 22,33.7489 L54.5,33.7489 C55.8895,34.0558 57,32.8343 57,31.3059 Z M11.1685,54.8333 C13.3895,54.8333 15.3371,52.6973 15.3371,50.2482 C15.3371,47.8052 13.3951,45.663 11.1685,45.663 C8.942,45.663 7,47.8052 7,50.2543 C7,52.6973 8.6685,54.8333 11.1685,54.8333 Z M57,49.6405 C57,48.1121 55.8895,47.1975 54.5,47.1975 L22,47.1975 C20.6105,47.1975 19.5,48.419 19.5,49.6405 C19.5,50.862 20.6105,52.0835 22,52.0835 L54.5,52.0835 C55.8895,52.3904 57,51.1689 57,49.6405 Z" fill-rule="nonzero"></path>
  </g>
</svg>