<?xml version="1.0" encoding="utf-8"?>
<svg width="64px" height="64px" viewBox="0 0 64 64" version="1.1" xmlns="http://www.w3.org/2000/svg" xmlns:xlink="http://www.w3.org/1999/xlink">
  <g fill-rule="evenodd">
    <path d="M10.7404,16.6853 C10.7321,15.5044 11.1086,14.6891 11.989,13.9204 C15.3124,11.0191 18.6006,8.0766 21.8569,5.0999 C22.6276,4.3954 23.3965,4.0431 24.4568,4.047 C33.3366,4.0788 42.2162,4.0629 51.096,4.0668553 C52.9353,4.0677 52.9588,4.0935 52.9609,5.9446 C52.9644,8.7651 52.9718,26.1314 52.9831,58.0437 L48.1574,56.617 C48.1372,26.9978 48.1397,11.3516 48.165,9.6783 C48.1802,8.6769 47.8198,8.2541 46.7878,8.2587 C41.0232,8.2839 35.2581,8.2843 29.4934,8.2583 C28.4552,8.2537 28.1115,8.6851 28.1249,9.6824 C28.162,12.4713 28.0886,15.2622 28.157,18.05 C28.1877,19.3107 27.772,19.7907 26.4804,19.7625 C23.4135,19.6956 20.3441,19.7391 17.2757,19.7426 C15.3163,19.7451 15.3094,19.749 15.3089,21.6427 C15.3066,32.1032 15.3308,42.5638 15.2802,53.0239 C15.2734,54.4088 15.6418,54.8756 17.0782,54.8621 C24.1908,54.7954 43.7486,54.8232 50.8616,54.8468 C51.5066,54.8488 52.4632,54.4927 52.7076,55.3499 C53.0209,56.4486 53.0737,57.6571 52.6307,58.7639 C52.4629,59.1836 51.8992,59.0924 51.488,59.0926 C42.5154,59.0972 21.098,59.0799 12.1256,59.114 C10.8112,59.1188 10.754,58.3871 10.756,57.4109 C10.7709,50.5768 10.764,43.7427 10.7638,36.9086 C10.7636,30.1674 10.7882,23.4262 10.7404,16.6853 Z M20.3704,26.8148 L43.1852,26.8148 L43.1852,28.8889 L20.3704,28.8889 L20.3704,26.8148 Z M20.3704,35.1111 L43.1852,35.1111 L43.1852,37.1852 L20.3704,37.1852 L20.3704,35.1111 Z M20.3704,43.4074 L43.1852,43.4074 L43.1852,45.4815 L20.3704,45.4815 L20.3704,43.4074 Z" fill-rule="nonzero"></path>
  </g>
</svg>