<?xml version="1.0" encoding="utf-8"?>
<svg width="64px" height="64px" viewBox="0 0 64 64" version="1.1" xmlns="http://www.w3.org/2000/svg" xmlns:xlink="http://www.w3.org/1999/xlink">
  <g fill-rule="evenodd">
    <path d="M8.1429,7 L8.1429,57 L55.7857,57 L55.7857,7 L8.1429,7 Z M8.1429,3 L55.7857,3 C58.0738,3 59.9286,4.7909 59.9286,7 L59.9286,57 C59.9286,59.2091 58.0738,61 55.7857,61 L8.1429,61 C5.8548,61 4,59.2091 4,57 L4,7 C4,4.7909 5.8548,3 8.1429,3 Z M41.0512,21.6429 C41.0512,22.7869 40.2211,23.7143 39.1972,23.7143 L14.1396,23.7143 C13.1157,23.7143 12.2857,22.7869 12.2857,21.6429 C12.2857,20.4988 13.1157,19.5714 14.1396,19.5714 L39.1972,19.5714 C40.2211,19.5714 41.0512,20.4988 41.0512,21.6429 Z M49.3369,34.0714 C49.3369,35.2155 48.2678,36.1429 46.949,36.1429 L14.6736,36.1429 C13.3548,36.1429 12.2857,35.2155 12.2857,34.0714 C12.2857,32.9274 13.3548,32 14.6736,32 L46.949,32 C48.2677,32 49.3369,32.9274 49.3369,34.0714 Z M49.3369,46.5 C49.3369,47.644 48.2678,48.5714 46.949,48.5714 L14.6736,48.5714 C13.3548,48.5714 12.2857,47.644 12.2857,46.5 C12.2857,45.356 13.3548,44.4286 14.6736,44.4286 L46.949,44.4286 C48.2677,44.4286 49.3369,45.356 49.3369,46.5 Z" fill-rule="nonzero"></path>
  </g>
</svg>