<?xml version="1.0" encoding="utf-8"?>
<svg width="64px" height="64px" viewBox="0 0 64 64" version="1.1" xmlns="http://www.w3.org/2000/svg" xmlns:xlink="http://www.w3.org/1999/xlink">
  <g fill-rule="evenodd">
    <path d="M24.6551,32.8797 C23.0644,32.1297 21.5988,31.1008 20.32,29.8179 C17.4128,26.907 15.8058,23.0295 15.8058,18.9118 C15.8058,14.7941 17.4072,10.9222 20.32,8.0113 C23.2272,5.0948 27.0941,3.4913 31.2122,3.4913 C35.3246,3.4913 39.1972,5.0948 42.1043,8.0113 C45.0115,10.9222 46.6186,14.7941 46.6186,18.9174 C46.6186,23.0407 45.0171,26.9126 42.1043,29.8235 C40.8237,31.1033 39.3585,32.1305 37.7691,32.8797 C39.1478,33.2211 40.5002,33.6721 41.8199,34.2318 C45.0674,35.6063 47.9802,37.5729 50.4856,40.0816 C52.9911,42.5902 54.9552,45.5011 56.3279,48.7472 C57.7452,52.1107 58.4651,56.2932 58.4651,59.9806 L58.465,59.3627 L54.2103,59.9806 C54.2103,46.1804 45.0033,36.4012 31.2094,36.4012 C17.41,36.4012 8.0718,46.1804 8.0718,59.9806 L3.9538,59.9806 C3.9538,56.2931 4.6736,52.1106 6.0965,48.7472 C7.4692,45.4955 9.4334,42.5846 11.9388,40.076 C14.4442,37.5673 17.357,35.6063 20.6046,34.2318 C21.9242,33.6722 23.2765,33.2211 24.6551,32.8797 Z M31.2122,7.7238 C25.0472,7.7238 20.0328,12.7445 20.0328,18.9174 C20.0328,25.0903 25.0472,30.111 31.2122,30.111 C37.3724,30.1063 42.3915,25.0855 42.3915,18.9174 C42.3915,12.7493 37.3724,7.7238 31.2122,7.7238 Z" fill-rule="nonzero"></path>
  </g>
</svg>