<?xml version="1.0" encoding="utf-8"?>
<svg width="64px" height="64px" viewBox="0 0 64 64" version="1.1" xmlns="http://www.w3.org/2000/svg" xmlns:xlink="http://www.w3.org/1999/xlink">
  <g fill-rule="evenodd">
    <path d="M61.9895,60.8571 C41.9985,60.8571 22.0017,60.8571 2.01067605,60.8571 C2.01067605,59.1259 2.01067605,57.394 2.01067605,55.6626 C2.01067605,54.7997 1.92473096,53.7877 2.24054473,53.2471 C3.22856596,51.5563 5.2824,50.7128 6.9663,49.7149 C10.7608,47.4662 15.5868,46.348 19.5598,44.2866 C21.6826,43.1852 23.7205,41.8969 24.6942,39.6375 C25.2369,38.3784 25.7906,35.7152 25.103,34.1574 C24.8626,33.6129 24.4003,33.2454 24.0556,32.8068 C23.5979,32.2243 23.1166,31.6064 22.8039,30.8848 C22.5123,30.2119 22.2801,29.4653 22.0887,28.7031 C21.943,28.1231 21.9314,27.4807 21.6289,27.0669 C21.217,26.5037 20.3189,26.4043 19.8919,25.8461 C19.1252,24.8441 18.6145,22.2641 19.2533,20.7555 C19.4592,20.2691 19.7926,20.0381 20.1218,19.6907 C19.9038,18.1126 19.6881,16.5171 19.4065,14.8598 C19.3272,14.3926 19.1891,13.7546 19.2788,13.1975 C19.5273,11.6554 19.7391,10.5075 20.2495,9.3276 C21.5958,6.2158 24.43,4.36565489 27.964,3.45785453 C32.4559,2.3039428 37.8207,3.4702 40.5064,5.4058 C42.3042,6.7015 43.5913,8.5142 44.3125,10.912 C44.5342,11.6489 44.8857,12.7757 44.7213,13.7949 C44.551,15.128 44.3807,16.4616 44.2104,17.7947 C44.1082,18.4439 44.006,19.0934 43.9039,19.7427 C45.4524,20.3801 45.109,23.7448 44.4914,25.1969 C44.2753,25.7051 43.8959,26.1203 43.4441,26.3916 C43.0575,26.6238 42.6317,26.7135 42.3712,27.0669 C42.0663,27.4804 42.057,28.1204 41.9113,28.7032 C41.7208,29.4654 41.487,30.2112 41.1961,30.8849 C40.8847,31.6059 40.4012,32.2247 39.9444,32.8068 C39.5881,33.2609 39.115,33.6396 38.8715,34.2094 C38.2038,35.7718 38.7757,38.4042 39.3057,39.6376 C40.2762,41.8959 42.3183,43.1889 44.4402,44.2867 C48.4148,46.3429 53.2419,47.4633 57.0337,49.7149 C58.7172,50.7146 60.7708,51.5556 61.7594,53.2472 C62.0753,53.7877 61.9893,54.7997 61.9893,55.6627 C61.9893,57.3939 61.9893,59.1258 61.9893,60.8571 L61.9895,60.8571 Z"></path>
  </g>
</svg>