<?xml version="1.0" encoding="utf-8"?>
<svg width="64px" height="64px" viewBox="0 0 64 64" version="1.1" xmlns="http://www.w3.org/2000/svg" xmlns:xlink="http://www.w3.org/1999/xlink">
  <g fill-rule="evenodd">
    <path d="M38.0989,29.5111 C44.9463,25.9469 47.649,17.4262 44.1357,10.4796 C40.6223,3.533 32.2234,0.791082213 25.376,4.3553 C18.5286,7.9196 15.8259,16.4403 19.3392,23.3869 C20.6704,26.0187 22.7817,28.1607 25.376,29.5111 L25.376,29.5111 C14.845,32.4234 7.5329,42.1186 7.5158,53.1921 L7.5158,53.1919 C7.5236,55.0115 7.7282,56.8248 8.1258,58.5991 L8.1258,58.5991 C8.2495,59.1553 8.7358,59.5507 9.2978,59.5519 L54.153,59.5519 C54.7149,59.5507 55.2013,59.1553 55.3249,58.5991 L55.3249,58.5991 C58.2403,45.7792 50.6248,32.9196 38.0988,29.5111 L38.0989,29.5111 Z M20.1906,16.954 L20.1906,16.954 C20.1862,10.4957 25.3433,5.2565 31.7094,5.252 C38.0755,5.2476 43.2398,10.4795 43.2442,16.9378 C43.2486,23.3962 38.0915,28.6353 31.7254,28.6398 C31.7093,28.6398 31.6933,28.6398 31.6773,28.6397 L31.6773,28.6397 C25.3318,28.6129 20.1993,23.3915 20.1906,16.954 L20.1906,16.954 Z M53.1416,57.109 L10.2852,57.109 L10.2852,57.109 C10.0479,55.8172 9.927,54.5061 9.924,53.1921 L9.924,53.1921 C9.693,40.9837 19.2612,30.8969 31.2952,30.6625 C43.3291,30.4282 53.2719,40.1351 53.5028,52.3435 C53.5082,52.6263 53.5082,52.9092 53.5028,53.1921 L53.5028,53.1921 C53.5002,54.5062 53.3793,55.8173 53.1416,57.1091 L53.1416,57.109 Z" fill-rule="nonzero"></path>
  </g>
</svg>