<?xml version="1.0" encoding="utf-8"?>
<svg width="64px" height="64px" viewBox="0 0 64 64" version="1.1" xmlns="http://www.w3.org/2000/svg" xmlns:xlink="http://www.w3.org/1999/xlink">
  <g fill-rule="evenodd">
    <path d="M37.2969,29.498 L37.2968,29.498 C47.6887,32.2854 54.0068,42.8017 51.5881,53.2855 C51.4855,53.7403 51.082,54.0637 50.6158,54.0647 L13.4026,54.0647 C12.9364,54.0637 12.5329,53.7403 12.4303,53.2855 C12.1004,51.8345 11.9307,50.3517 11.9242,48.8636 L11.9242,48.8637 C11.9384,39.8081 18.0048,31.8796 26.7416,29.498 C24.5893,28.3936 22.8376,26.642 21.7333,24.4897 C18.8185,18.8089 21.0608,11.8409 26.7416,8.9261 C32.4223,6.0114 39.3904,8.2536 42.3051,13.9344 C45.2199,19.6152 42.9776,26.5832 37.2969,29.498 Z M22.4396,19.2291 L22.4396,19.229 C22.4469,24.4935 26.7049,28.7634 31.9693,28.7854 C31.9826,28.7854 31.9959,28.7855 32.0092,28.7855 C37.2907,28.7818 41.5692,24.4973 41.5656,19.2158 C41.5619,13.9343 37.2775,9.6558 31.996,9.6594 C26.7145,9.6631 22.4359,13.9476 22.4396,19.2291 Z M49.7767,52.0669 L49.7768,52.067 C49.9739,51.0106 50.0742,49.9384 50.0764,48.8638 L50.0764,48.8637 C50.0809,48.6324 50.0809,48.4011 50.0764,48.1698 C49.8848,38.186 41.636,30.2479 31.6523,30.4396 C21.6686,30.6312 13.7305,38.88 13.9221,48.8637 L13.9221,48.8637 C13.9246,49.9383 14.0249,51.0105 14.2218,52.0669 L49.7767,52.0669 Z M6.3636,46.0734 L6.3635,46.0734 C6.9152,46.0734 7.3625,46.5207 7.3625,47.0724 C7.3625,47.624 6.9152,48.0713 6.3635,48.0713 L1.33563419,48.0713 C0.879439291,48.0581 0.4902,47.7374 0.389988859,47.2921 C-1.39901964,39.4894 3.1223,31.625 10.7655,29.2449 C8.434,27.8545 6.8609,25.4797 6.4899,22.7905 C5.8154,17.901 9.2324,13.3906 14.1218,12.7161 C14.6692,12.6451 15.1715,13.0285 15.2473,13.5751 C15.2475,13.5767 15.2477,13.5782 15.2479,13.5797 C15.32,14.123 14.9381,14.6218 14.3949,14.6939 C10.9316,15.1516 8.3458,18.108 8.3532,21.6014 C8.3614,25.4411 11.4808,28.5472 15.3206,28.539 L15.3868,28.539 C15.5624,28.5427 15.7343,28.5908 15.8863,28.6789 C16.0502,28.7768 16.1826,28.9197 16.2678,29.0906 C16.514,29.5843 16.3134,30.1841 15.8197,30.4303 C15.6807,30.4984 15.5283,30.5348 15.3735,30.5369 C7.9938,30.5444 2.0124,36.5232 2.0016,43.9028 L2.0016,43.9024 C2.00167254,44.6301 2.06405532,45.3564 2.18806572,46.0734 L6.3636,46.0734 Z M53.2064,29.2449 L53.2064,29.2437 C60.8469,31.6265 65.3648,39.49 63.5752,47.2908 C63.4726,47.7456 63.0691,48.069 62.6029,48.07 L57.6285,48.07 C57.0768,48.07 56.6296,47.6228 56.6296,47.0711 C56.6296,46.5194 57.0768,46.0722 57.6285,46.0722 L61.784,46.0722 C61.908,45.3551 61.9703,44.6288 61.9703,43.9012 L61.9703,43.9024 C61.9593,36.5305 55.9899,30.5552 48.618,30.5368 C48.0663,30.5368 47.6191,30.0896 47.6191,29.5379 C47.6191,28.9862 48.0663,28.539 48.618,28.539 C51.998,28.4888 54.852,26.0148 55.3814,22.6762 C55.9828,18.8838 53.396,15.322 49.6036,14.7206 C49.0519,14.6452 48.6658,14.1368 48.7412,13.5851 C48.8166,13.0334 49.325,12.6473 49.8767,12.7227 C52.5522,13.1012 54.9127,14.67 56.298,16.99 C58.8284,21.2278 57.4442,26.7145 53.2064,29.2449 Z" fill-rule="nonzero"></path>
  </g>
</svg>