<?xml version="1.0" encoding="utf-8"?>
<svg width="64px" height="64px" viewBox="0 0 64 64" version="1.1" xmlns="http://www.w3.org/2000/svg" xmlns:xlink="http://www.w3.org/1999/xlink">
  <g fill-rule="evenodd">
    <path d="M56.8276,34.18 L56.8276,10.1724 L7.1724,10.1724 L7.1724,29.8722 L14.0889,37.0849 L37.4479,15.6063 L56.8276,34.18 Z M57.4529,54.6552 L57.4529,54.9289 L6.2592,54.9289 L6.2592,54.6552 L6.1379,54.6552 L6.1379,9.1379 L57.8621,9.1379 L57.8621,54.6552 L57.4529,54.6552 Z M56.4184,53.6207 L56.4184,35.2207 L37.4333,17.0251 L14.8051,37.8317 L29.9457,53.6207 L56.4184,53.6207 Z M14,38.4755 L7.2936,31.4635 L7.6337,53.6207 L28.4851,53.6207 L14.0491,38.5268 L14,38.5719 L14,38.4755 Z M17.5172,24.1379 C14.9463,24.1379 12.8621,22.0537 12.8621,19.4828 C12.8621,16.9118 14.9463,14.8276 17.5172,14.8276 C20.0882,14.8276 22.1724,16.9118 22.1724,19.4828 C22.1724,22.0537 20.0882,24.1379 17.5172,24.1379 Z M17.5172,23.1034 C19.5169,23.1034 21.1379,21.4824 21.1379,19.4828 C21.1379,17.4831 19.5169,15.8621 17.5172,15.8621 C15.5176,15.8621 13.8966,17.4831 13.8966,19.4828 C13.8966,21.4824 15.5176,23.1034 17.5172,23.1034 Z M7.1724,6.0345 C4.8871,6.0345 3.0345,7.8871 3.0345,10.1724 L3.0345,53.6207 C3.0345,55.906 4.8871,57.7586 7.1724,57.7586 L56.8276,57.7586 C59.1129,57.7586 60.9655,55.906 60.9655,53.6207 L60.9655,10.1724 C60.9655,7.8871 59.1129,6.0345 56.8276,6.0345 L7.1724,6.0345 Z M7.1724,5 L56.8276,5 C59.6842,5 62,7.3158 62,10.1724 L62,53.6207 C62,56.4773 59.6842,58.7931 56.8276,58.7931 L7.1724,58.7931 C4.3158,58.7931 2,56.4773 2,53.6207 L2,10.1724 C2,7.3158 4.3158,5 7.1724,5 Z" fill-rule="nonzero"></path>
  </g>
</svg>