<?xml version="1.0" encoding="utf-8"?>
<svg width="64px" height="64px" viewBox="0 0 64 64" version="1.1" xmlns="http://www.w3.org/2000/svg" xmlns:xlink="http://www.w3.org/1999/xlink">
  <g fill-rule="evenodd">
    <path d="M6.0994,52.7848 L6.0994,52.7848 L21.2406,37.6436 L41.4289,57.8319 L12.4083,57.8319 C9.1277,57.8319 6.6041,55.8131 6.0994,52.7848 Z M41.4289,52.7848 L32.5965,43.9524 L46.4759,30.073 L55.92,40.6107 L55.92,56 C55.92,57.1046 55.0246,58 53.92,58 C51.4386,58 48.9573,58 46.4759,58 L41.4289,52.7848 Z M12.4082,7.3613 L50.2613,7.3613 C53.7943,7.3613 56.5701,10.1371 56.5701,13.6701 L56.5701,35.1201 L46.476,25.0259 L30.073,41.4289 L21.2406,32.5965 L6.0994,47.7378 L6.0994,13.6701 C6.0994,10.1371 8.8753,7.3613 12.4082,7.3613 Z M21.2406,25.026 C24.0165,25.026 26.2877,22.7548 26.2877,19.979 C26.2877,17.2031 24.0165,14.9319 21.2406,14.9319 C18.4647,14.9319 16.1936,17.2031 16.1936,19.979 C16.1936,22.7548 18.4647,25.026 21.2406,25.026 Z" fill-rule="nonzero"></path>
  </g>
</svg>