<?xml version="1.0" encoding="utf-8"?>
<svg width="64px" height="64px" viewBox="0 0 64 64" version="1.1" xmlns="http://www.w3.org/2000/svg" xmlns:xlink="http://www.w3.org/1999/xlink">
  <g fill-rule="evenodd">
    <path d="M4.2667,45.7509 L14.0795,34.3876 L25.0908,40.1382 L43.2364,21.2145 L59.7333,37.0255 L59.7333,13.7514 C59.7333,11.6306 60.324,10.2667 58.1818,10.2667 L5.8182,10.2667 C3.676,10.2667 4.2667,11.6306 4.2667,13.7514 L4.2667,45.7509 Z M4.2667,48.7056 L4.2667,49.0545 C4.2667,51.1753 3.676,52.9333 5.8182,52.9333 L58.1818,52.9333 C60.324,52.9333 59.7333,51.1753 59.7333,49.0545 L59.7333,39.6978 L43.2946,23.9426 L25.4856,42.5152 L14.5461,36.802 L4.2667,48.7056 Z M5.8182,6 L58.1818,6 C61.3951,6 64,9.3934 64,12.5745 L64,49.0545 C64,52.2357 61.3951,57.2 58.1818,57.2 L5.8182,57.2 C2.6049,57.2 0,52.2357 0,49.0545 L0,12.5745 C0,9.3934 2.6049,6 5.8182,6 Z M22.303,26.9745 C19.0897,26.9745 16.4848,24.3957 16.4848,21.2145 C16.4848,18.0334 19.0897,15.4545 22.303,15.4545 C25.5163,15.4545 28.1212,18.0334 28.1212,21.2145 C28.1212,24.3957 25.5163,26.9745 22.303,26.9745 Z M22.303,25.0545 C24.4452,25.0545 26.1818,23.3353 26.1818,21.2145 C26.1818,19.0938 24.4452,17.3745 22.303,17.3745 C20.1608,17.3745 18.4242,19.0938 18.4242,21.2145 C18.4242,23.3353 20.1608,25.0545 22.303,25.0545 Z" fill-rule="nonzero"></path>
  </g>
</svg>