<?xml version="1.0" encoding="utf-8"?>
<svg width="64px" height="64px" viewBox="0 0 64 64" version="1.1" xmlns="http://www.w3.org/2000/svg" xmlns:xlink="http://www.w3.org/1999/xlink">
  <g fill-rule="evenodd">
    <path d="M54.4001,54.8 L9.6,54.8 C4.3735,54.8 1.0161e-15,50.6806 1.0161e-15,45.634 L0,19.166 C0,14.1195 4.2666,10 9.6,10 L54.4001,10 C59.6268,10 64,14.1194 64,19.166 L64,45.7368 C64,50.7833 59.7334,54.8 54.4001,54.8 Z M61.2269,19.166 C61.2269,15.5613 58.1333,12.6778 54.4001,12.6778 L9.6,12.6778 C5.8668,12.6778 2.77345274,15.5612 2.77345274,19.166 L2.77345274,45.7368 C2.77345274,49.3415 5.8667,52.2251 9.6,52.2251 L54.4001,52.2251 C58.1332,52.2251 61.2269,49.3416 61.2269,45.7368 L61.2269,19.166 Z M56.2135,42.4412 C56.7465,41.9265 56.7465,41.1027 56.2135,40.5876 L44.48,29.2587 L56.0001,18.6511 C56.5332,18.1362 56.5332,17.3121 56.0001,16.7973 C55.4666,16.2823 54.6133,16.2823 54.08,16.7973 L32.0003,37.1891 L9.7068,16.7973 C9.1733,16.2823 8.3201,16.2823 7.7866,16.7973 C7.2535,17.3121 7.2535,18.1362 7.7866,18.6511 L19.4135,29.3619 L7.6802,40.5876 C7.1467,41.1027 7.1467,41.9265 7.6802,42.4412 C7.9999,42.6475 8.3201,42.8535 8.6402,42.8535 C8.9601,42.8535 9.3867,42.7503 9.6,42.4412 L21.3333,31.1128 L30.9333,39.9698 C31.1467,40.1757 31.5732,40.3815 31.8933,40.3815 C32.2134,40.3815 32.5333,40.2785 32.8534,39.9698 L42.4534,31.1128 L54.1867,42.4412 C54.5065,42.7503 54.8266,42.8535 55.1467,42.8535 C55.68,42.8535 56.0001,42.7503 56.2135,42.4412 L56.2135,42.4412 Z" fill-rule="nonzero"></path>
  </g>
</svg>