<?xml version="1.0" encoding="utf-8"?>
<svg width="64px" height="64px" viewBox="0 0 64 64" version="1.1" xmlns="http://www.w3.org/2000/svg" xmlns:xlink="http://www.w3.org/1999/xlink">
  <g fill-rule="evenodd">
    <path d="M53.8224,43.7775 L20.2053,43.7775 C19.4218,43.7775 18.7493,43.2177 18.608,42.447 L11.9827,6.4197 L4.56435259,6.4197 C3.6672578,6.4197 2.94,5.6924 2.94,4.7955 C2.94,3.8984 3.6672578,3.1711 4.56435259,3.1711 L13.3358,3.1711 C14.1194,3.1711 14.7918,3.7311 14.9331,4.50185057 L21.5585,40.5291 L53.8227,40.5291 C54.7196,40.5291 55.4469,41.2562 55.4469,42.1533 C55.4465,43.0502 54.7193,43.7775 53.8224,43.7775 L53.8224,43.7775 Z M51.7335,35.8151 L19.0918,35.8151 C18.1949,35.8151 17.4676,35.0879 17.4676,34.1908 C17.4676,33.2937 18.1949,32.5664 19.0918,32.5664 L50.5986,32.5664 L57.1114,14.792 L21.8994,14.792 C21.0024,14.792 20.2752,14.0648 20.2752,13.1677 C20.2752,12.2708 21.0024,11.5435 21.8994,11.5435 L59.4358,11.5435 C59.9665,11.5435 60.4636,11.8027 60.7674,12.2373 C61.0711,12.6718 61.1432,13.2278 60.9609,13.7268 L53.2585,34.7497 C53.0239,35.3895 52.4148,35.8151 51.7336,35.8151 L51.7335,35.8151 Z M22.5926,60.829 C19.034,60.829 16.1384,57.9326 16.1384,54.3733 C16.1384,50.8155 19.0341,47.921 22.5926,47.921 C26.1511,47.921 29.0467,50.8155 29.0467,54.3733 C29.0466,57.9326 26.1511,60.829 22.5926,60.829 Z M22.5926,51.1693 C20.8248,51.1693 19.3869,52.6062 19.3869,54.3733 C19.3869,56.142 20.8249,57.5804 22.5926,57.5804 C24.3602,57.5804 25.7982,56.142 25.7982,54.3733 C25.7982,52.6062 24.3602,51.1693 22.5926,51.1693 Z M50.6899,60.829 C47.1313,60.829 44.2357,57.9326 44.2357,54.3733 C44.2357,50.8155 47.1314,47.921 50.6899,47.921 C54.2492,47.921 57.1455,50.8155 57.1455,54.3733 C57.1455,57.9326 54.2492,60.829 50.6899,60.829 Z M50.6899,51.1693 C48.9221,51.1693 47.4841,52.6062 47.4841,54.3733 C47.4841,56.142 48.9221,57.5804 50.6899,57.5804 C52.4586,57.5804 53.897,56.142 53.897,54.3733 C53.897,52.6062 52.4584,51.1693 50.6899,51.1693 Z" fill-rule="nonzero"></path>
  </g>
</svg>