<?xml version="1.0" encoding="utf-8"?>
<svg width="64px" height="64px" viewBox="0 0 64 64" version="1.1" xmlns="http://www.w3.org/2000/svg" xmlns:xlink="http://www.w3.org/1999/xlink">
  <g fill-rule="evenodd">
    <path d="M58.4196,6 L5.7766,6 C3.7657,6 2,7.4527 2,9.1303 L2,54.4718 C2,56.1494 3.7657,57.4286 5.7766,57.4286 L58.4196,57.4286 C60.4305,57.4286 62,56.1494 62,54.4718 L62,9.1303 C62,7.4527 60.4387,6 58.4196,6 Z M23.1717,42.9597 L23.1717,33.318 L40.8283,33.318 L40.8283,42.9597 L23.1717,42.9597 Z M40.8283,45.0808 L40.8283,53.1581 L23.1717,53.1581 L23.1717,45.0808 L40.8283,45.0808 Z M57.0778,31.1968 L43.6076,31.1968 L43.6076,20.9767 L57.0778,20.9767 L57.0778,31.1968 Z M40.8283,31.1968 L23.1717,31.1968 L23.1717,20.9767 L40.8283,20.9767 L40.8283,31.1968 Z M20.3924,31.1968 L6.9221,31.1968 L6.9221,20.9767 L20.3924,20.9767 L20.3924,31.1968 Z M6.9221,33.318 L20.3924,33.318 L20.3924,42.9597 L6.9221,42.9597 L6.9221,33.318 Z M43.6076,33.318 L57.0778,33.318 L57.0778,42.9597 L43.6076,42.9597 L43.6076,33.318 Z M7.8409,10.264 L56.3398,10.264 C56.7992,10.264 57.0778,10.6807 57.0778,11.0717 L57.0778,18.8555 L6.9222,18.8555 L6.9222,11.0717 C6.9222,10.6807 7.3816,10.264 7.8409,10.264 Z M6.9222,52.4977 L6.9222,45.0808 L20.3924,45.0808 L20.3924,53.1581 L7.7826,53.1581 C7.3524,53.1581 6.9222,52.8838 6.9222,52.5028 L6.9222,52.4977 Z M56.3867,53.1581 L43.6077,53.1581 L43.6077,45.0808 L57.0779,45.0808 L57.0779,52.4977 C57.0779,52.8838 56.824,53.1581 56.3868,53.1581 L56.3867,53.1581 Z" fill-rule="nonzero"></path>
  </g>
</svg>