<?xml version="1.0" encoding="utf-8"?>
<svg width="64px" height="64px" viewBox="0 0 64 64" version="1.1" xmlns="http://www.w3.org/2000/svg" xmlns:xlink="http://www.w3.org/1999/xlink">
  <g fill-rule="evenodd">
    <path d="M32.3879,54.1121 C30.5361,54.1121 28.7306,53.9441 26.9752,53.6544 L14.2845,61.3534 L14.2845,48.5352 C7.6688,43.8892 3.4224,36.7675 3.4224,28.7672 C3.4224,14.7692 16.3912,3.4224 32.3879,3.4224 C48.3846,3.4224 61.3534,14.7692 61.3534,28.7672 C61.3534,42.7653 48.3846,54.1121 32.3879,54.1121 Z M32.3879,7.0431 C18.3899,7.0431 7.0431,16.7697 7.0431,28.7672 C7.0431,36.1283 11.3261,42.6243 17.8608,46.5521 L17.7468,54.9501 L26.2685,49.8271 C28.2323,50.2442 30.2734,50.4914 32.3879,50.4914 C46.386,50.4914 57.7328,40.7648 57.7328,28.7672 C57.7328,16.7697 46.386,7.0431 32.3879,7.0431 Z M46.8707,32.3879 C44.8701,32.3879 43.25,30.7678 43.25,28.7672 C43.25,26.7686 44.8701,25.1466 46.8707,25.1466 C48.8712,25.1466 50.4914,26.7667 50.4914,28.7672 C50.4914,30.7678 48.8712,32.3879 46.8707,32.3879 Z M32.3879,32.3879 C30.3893,32.3879 28.7672,30.7678 28.7672,28.7672 C28.7672,26.7686 30.3893,25.1466 32.3879,25.1466 C34.3885,25.1466 36.0086,26.7667 36.0086,28.7672 C36.0086,30.7678 34.3866,32.3879 32.3879,32.3879 Z M17.9052,32.3879 C15.9046,32.3879 14.2845,30.7678 14.2845,28.7672 C14.2845,26.7686 15.9046,25.1466 17.9052,25.1466 C19.9038,25.1466 21.5259,26.7667 21.5259,28.7672 C21.5259,30.7678 19.9057,32.3879 17.9052,32.3879 Z" fill-rule="nonzero"></path>
  </g>
</svg>