<?xml version="1.0" encoding="utf-8"?>
<svg width="64px" height="64px" viewBox="0 0 64 64" version="1.1" xmlns="http://www.w3.org/2000/svg" xmlns:xlink="http://www.w3.org/1999/xlink">
  <g fill-rule="evenodd">
    <path d="M61,39.5588 L61,58.2764 C61,59.7831 59.7826,61 58.2753,61 L5.7246,61 C4.2174,61 3,59.7831 3,58.2764 L3,39.5588 C3,38.0521 4.2174,36.8351 5.7246,36.8351 C7.2319,36.8351 8.4493,38.0521 8.4493,39.5588 L8.4493,55.5528 L55.5507,55.5528 L55.5507,39.5588 C55.5507,38.0521 56.7681,36.8351 58.2754,36.8351 C59.7826,36.8351 61,38.0521 61,39.5588 L61,39.5588 Z M16.9999,26.962 L29.3477,39.3052 L29.3477,5.7236 C29.3477,4.2169 30.5651,3 32.0724,3 C33.5796,3 34.797,4.2169 34.797,5.7236 L34.797,39.3052 L47.1159,26.962 C48.1883,25.89 49.8985,25.89 50.9709,26.962 C52.0434,28.0341 52.0434,29.7436 50.9709,30.8157 L33.9854,47.7948 C32.913,48.8669 31.2028,48.8669 30.1593,47.7948 L13.1738,30.8447 C12.1303,29.7726 12.1593,28.0341 13.2318,26.991 C14.2753,25.948 15.9564,25.948 16.9999,26.9621 L16.9999,26.962 Z" fill-rule="nonzero"></path>
  </g>
</svg>