<?xml version="1.0" encoding="utf-8"?>
<svg width="64px" height="64px" viewBox="0 0 64 64" version="1.1" xmlns="http://www.w3.org/2000/svg" xmlns:xlink="http://www.w3.org/1999/xlink">
  <g fill-rule="evenodd">
    <path d="M33.015,3 C15.1801,3 3.00003736,16.195 3.00003736,32 C3.00003736,47.8051 16.6301,61.0001 32,61.0001 C35.335,61.0001 37.51,58.6801 37.51,55.9251 C37.51,51.865 34.175,52.7351 34.175,49.11 C34.175,46.5001 36.3501,44.7601 43.89,44.7601 C51.285,44.905 61.0001,40.7 61.0001,28.81 C61.0001,16.92 51.285,3 33.015,3 M14.31,32 C11.7,32 9.525,29.825 9.525,27.215 C9.525,24.6051 11.7,22.43 14.31,22.43 C16.92,22.43 19.095,24.6051 19.095,27.215 C19.095,29.825 16.92,32 14.31,32 M23.88,19.095 C21.27,19.095 19.095,16.92 19.095,14.31 C19.095,11.7001 21.27,9.525 23.88,9.525 C26.4901,9.525 28.6651,11.7 28.6651,14.31 C28.6651,16.92 26.635,19.095 23.88,19.095 M40.12,19.095 C37.5101,19.095 35.335,16.92 35.335,14.31 C35.335,11.7001 37.5101,9.525 40.12,9.525 C42.73,9.525 44.905,11.7 44.905,14.31 C44.905,16.92 42.73,19.095 40.12,19.095 M49.69,32 C47.0801,32 44.905,29.825 44.905,27.215 C44.905,24.6051 47.0801,22.43 49.69,22.43 C52.3,22.43 54.475,24.6051 54.475,27.215 C54.6201,29.825 52.445,32 49.69,32" fill-rule="nonzero"></path>
  </g>
</svg>