<?xml version="1.0" encoding="utf-8"?>
<svg width="64px" height="64px" viewBox="0 0 64 64" version="1.1" xmlns="http://www.w3.org/2000/svg" xmlns:xlink="http://www.w3.org/1999/xlink">
  <g fill-rule="evenodd">
    <path d="M60.8418,5.3462 C64.3073,8.8432 64.3073,14.5116 60.8418,18.0126 L38.6717,40.3951 L26.1312,27.7287 L48.3013,5.3462 C51.7629,1.84916678 57.3762,1.84916678 60.8418,5.3462 Z M33.6563,28.004 L52.408,9.0714 C52.8171,8.6544 52.8171,7.9778 52.408,7.5648 C51.9871,7.1517 51.3184,7.1517 50.9093,7.5648 L32.1615,26.4975 L33.6563,28.004 Z M36.7796,31.151 L57.0773,10.6488 C57.4943,10.2318 57.4943,9.5591 57.0852,9.1422 C56.6682,8.7291 55.9995,8.7291 55.5904,9.1461 L35.2809,29.6444 L36.7796,31.151 Z M39.899,34.3018 L58.635,15.3731 C59.0441,14.9561 59.048,14.2795 58.635,13.8665 C58.222,13.4535 57.5533,13.4495 57.1442,13.8665 L38.4003,32.7952 L39.899,34.3018 Z M22.0913,50.5596 L20.6949,53.1165 L7.4975,61.3378 L5.0508,58.8636 L13.2682,45.4262 L15.7267,44.132 L16.8439,45.261 L27.2956,34.707 L31.4023,38.857 L20.9545,49.411 L22.0913,50.5596 Z M14.5073,2.333 C22.2369,2.333 28.5111,8.6623 28.5111,16.4706 C28.5111,24.2789 22.2408,30.6121 14.5073,30.6121 C6.7698,30.6121 0.499511855,24.2828 0.499511855,16.4745 C0.499511855,14.7673 0.8142,13.1427 1.36098249,11.6243 C1.5734,11.9233 1.7937,12.2183 2.05723957,12.4858 L7.1081,17.5799 C9.6807,20.1761 13.8543,20.1761 16.4269,17.5799 C18.9995,14.9836 18.9995,10.7668 16.4269,8.1706 L11.3761,3.07253375 C11.2738,2.9624 11.144,2.88765192 11.0338,2.7893 C12.1471,2.50215365 13.3036,2.333 14.5073,2.333 Z M57.3054,58.2657 C54.2647,61.3339 49.3358,61.3339 46.2951,58.2657 L35.0999,46.9721 L46.1181,35.8556 L57.3054,47.1413 C60.3422,50.2135 60.3422,55.1935 57.3054,58.2657 Z M49.8394,50.7248 C48.5806,51.9954 48.5806,54.0527 49.8394,55.3312 C51.0981,56.5978 53.1358,56.5978 54.3945,55.3312 C55.6533,54.0566 55.6533,51.9954 54.3945,50.7248 C53.1358,49.4543 51.0981,49.4543 49.8394,50.7248 Z" fill-rule="nonzero"></path>
  </g>
</svg>