<?xml version="1.0" encoding="utf-8"?>
<svg width="64px" height="64px" viewBox="0 0 64 64" version="1.1" xmlns="http://www.w3.org/2000/svg" xmlns:xlink="http://www.w3.org/1999/xlink">
  <g fill-rule="evenodd">
    <path d="M13.7143,38.4157 C13.7143,37.1539 13.2678,36.0766 12.3749,35.1836 C11.4819,34.2907 10.4046,33.8442 9.1429,33.8442 C7.8812,33.8442 6.8038,34.2907 5.9109,35.1836 C5.0179,36.0765 4.5714,37.1539 4.5714,38.4157 C4.5714,39.6774 5.0179,40.7548 5.9108,41.6477 C6.8037,42.5405 7.8811,42.987 9.1429,42.987 C10.4047,42.9871 11.482,42.5406 12.3749,41.6477 C13.2678,40.7547 13.7142,39.6774 13.7143,38.4157 L13.7143,38.4157 Z M20.5715,22.4156 C20.5715,21.1539 20.125,20.0766 19.232,19.1836 C18.3391,18.2907 17.2617,17.8442 16,17.8442 C14.7383,17.8442 13.661,18.2906 12.768,19.1836 C11.8751,20.0765 11.4286,21.1538 11.4286,22.4156 C11.4287,23.6774 11.8751,24.7548 12.768,25.6476 C13.6609,26.5405 14.7382,26.987 16,26.987 C17.2618,26.9871 18.3391,26.5406 19.232,25.6476 C20.1249,24.7547 20.5714,23.6773 20.5714,22.4156 L20.5715,22.4156 Z M35.856,39.595 L39.4629,25.9516 C39.6061,25.333 39.517,24.7554 39.1954,24.2191 C38.8739,23.6827 38.4152,23.3314 37.8195,23.1653 C37.2237,22.9992 36.6523,23.0769 36.1052,23.3984 C35.558,23.72 35.2007,24.1901 35.0332,24.8088 L31.4263,38.4522 C29.997,38.571 28.7231,39.0891 27.6046,40.0065 C26.4861,40.9238 25.7364,42.0964 25.3555,43.5242 C24.8785,45.3573 25.117,47.0953 26.0709,48.738 C27.0248,50.3807 28.4176,51.4405 30.2492,51.9174 C32.0807,52.3942 33.8187,52.1557 35.4629,51.2019 C37.1072,50.2481 38.167,48.8553 38.6423,47.0237 C39.0233,45.5943 38.9516,44.2016 38.4275,42.8453 C37.9033,41.4891 37.0462,40.4057 35.856,39.5951 L35.856,39.595 Z M59.4286,38.4157 C59.4286,37.1539 58.9822,36.0766 58.0893,35.1836 C57.1963,34.2907 56.119,33.8442 54.8572,33.8442 C53.5954,33.8442 52.5181,34.2907 51.6252,35.1836 C50.7323,36.0765 50.2859,37.1539 50.2858,38.4157 C50.2858,39.6774 50.7322,40.7548 51.6252,41.6477 C52.5181,42.5405 53.5955,42.987 54.8572,42.987 C56.1189,42.9871 57.1962,42.5406 58.0892,41.6477 C58.9821,40.7547 59.4286,39.6774 59.4286,38.4157 Z M36.5715,15.5584 C36.5715,14.2967 36.125,13.2194 35.232,12.3264 C34.3391,11.4334 33.2617,10.9869 32,10.9871 C30.7383,10.9873 29.661,11.4337 28.768,12.3265 C27.8751,13.2192 27.4286,14.2966 27.4287,15.5585 C27.4287,16.8204 27.8752,17.8978 28.768,18.7905 C29.6609,19.6833 30.7382,20.1297 32,20.1299 C33.2618,20.13 34.3392,19.6836 35.232,18.7905 C36.1249,17.8974 36.5714,16.8201 36.5714,15.5584 L36.5715,15.5584 Z M52.5715,22.4156 C52.5715,21.1539 52.125,20.0765 51.2321,19.1836 C50.3391,18.2906 49.2618,17.8441 48.0001,17.8442 C46.7383,17.8442 45.661,18.2907 44.7681,19.1836 C43.8751,20.0764 43.4286,21.1538 43.4287,22.4156 C43.4287,23.6775 43.8752,24.7548 44.7681,25.6476 C45.6609,26.5405 46.7383,26.9869 48.0001,26.987 C49.2619,26.9871 50.3392,26.5406 51.2321,25.6476 C52.1249,24.7546 52.5714,23.6773 52.5714,22.4156 L52.5715,22.4156 Z M64.0001,38.4156 C64.0001,44.6297 62.3216,50.3798 58.9646,55.6659 C58.512,56.3562 57.869,56.7013 57.0355,56.7013 L6.9646,56.7013 C6.1311,56.7013 5.488,56.3562 5.0354,55.6659 C1.6784832,50.4042 0,44.6542 0,38.4157 C0,34.0819 0.844957233,29.9394 2.5349,25.9881 C4.2248,22.0369 6.4983,18.6319 9.3554,15.7734 C12.2126,12.9148 15.6175,10.6412 19.5703,8.9527 C23.5231,7.2642 27.6656,6.4193 31.9977,6.4179 C36.3299,6.4164 40.4724,7.2614 44.4252,8.9527 C48.3781,10.6441 51.7831,12.9176 54.6401,15.7734 C57.4971,18.6291 59.7706,22.0341 61.4607,25.9882 C63.1508,29.9423 63.9957,34.0848 63.9955,38.4157 L64.0001,38.4156 Z" fill-rule="nonzero"></path>
  </g>
</svg>