<?xml version="1.0" encoding="utf-8"?>
<svg width="64px" height="64px" viewBox="0 0 64 64" version="1.1" xmlns="http://www.w3.org/2000/svg" xmlns:xlink="http://www.w3.org/1999/xlink">
  <g fill-rule="evenodd">
    <path d="M31.5883,8.8945 C25.5684,8.8945 20.6716,13.7104 20.6716,19.6307 C20.6716,25.5511 25.5684,30.3693 31.5883,30.3693 C37.6081,30.3693 42.5061,25.5569 42.5061,19.6411 C42.5061,13.715 37.6081,8.8945 31.5883,8.8945 M56.7189,60 C55.353,60 54.2427,58.9036 54.2427,57.5551 C54.2427,45.2714 44.0859,35.2777 31.5998,35.2777 C19.1138,35.2777 8.9558,45.2714 8.9558,57.5551 C8.9558,58.9036 7.8444,60 6.4785,60 C5.1114,60 4,58.9036 4,57.5551 C4,50.2827 6.8752,43.4556 12.0947,38.3333 C14.9375,35.5402 18.2648,33.4399 22.0005,32.0786 C18.0382,29.1225 15.7066,24.5495 15.7066,19.6307 C15.7066,11.0121 22.8309,4 31.5883,4 C40.3456,4 47.47,11.0156 47.47,19.6411 C47.47,24.5461 45.1465,29.1098 41.198,32.0659 C44.9464,33.4249 48.283,35.5309 51.1281,38.3367 C56.343,43.4822 59.217,50.3081 59.217,57.5551 C59.1673,58.9128 58.0466,60 56.7189,60"></path>
  </g>
</svg>