<?xml version="1.0" encoding="utf-8"?>
<svg width="64px" height="64px" viewBox="0 0 64 64" version="1.1" xmlns="http://www.w3.org/2000/svg" xmlns:xlink="http://www.w3.org/1999/xlink">
  <g fill-rule="evenodd">
    <path d="M58.4267,53.4771 L21.7569,53.4771 C21.0037,53.4771 20.3928,52.8714 20.3928,52.1239 L20.3928,49.4172 C20.3928,48.6699 21.0037,48.064 21.7569,48.064 L58.4267,48.064 C59.1801,48.064 59.7909,48.6698 59.7909,49.4172 L59.7909,52.1239 C59.7909,52.8714 59.1801,53.4771 58.4267,53.4771 Z M58.4267,34.5312 L21.7569,34.5312 C21.0037,34.5312 20.3928,33.9252 20.3928,33.1778 L20.3928,30.4712 C20.3928,29.7238 21.0037,29.1179 21.7569,29.1179 L58.4267,29.1179 C59.1801,29.1179 59.7909,29.7238 59.7909,30.4712 L59.7909,33.1778 C59.7909,33.9251 59.1801,34.5312 58.4267,34.5312 Z M58.4267,15.5847 L21.7569,15.5847 C21.0037,15.5847 20.3928,14.9789 20.3928,14.2316 L20.3928,11.5251 C20.3928,10.7776 21.0037,10.1717 21.7569,10.1717 L58.4267,10.1717 C59.1801,10.1717 59.7909,10.7776 59.7909,11.5251 L59.7909,14.2316 C59.7909,14.9789 59.1801,15.5847 58.4267,15.5847 Z M9.4799,56.1839 C6.4666,56.1839 4.0234,53.7603 4.0234,50.7706 C4.0234,47.7809 6.4666,45.3574 9.4799,45.3574 C12.4936,45.3574 14.9364,47.7808 14.9364,50.7706 C14.9364,53.7604 12.4936,56.1839 9.4799,56.1839 Z M9.4799,37.2377 C6.4666,37.2377 4.0234,34.814 4.0234,31.8244 C4.0234,28.8348 6.4666,26.4112 9.4799,26.4112 C12.4936,26.4112 14.9364,28.8348 14.9364,31.8244 C14.9364,34.814 12.4936,37.2377 9.4799,37.2377 Z M9.4799,18.2914 C6.4666,18.2914 4.0234,15.868 4.0234,12.8782 C4.0234,9.8887 6.4666,7.4652 9.4799,7.4652 C12.4936,7.4652 14.9364,9.8887 14.9364,12.8782 C14.9364,15.868 12.4936,18.2914 9.4799,18.2914 Z" fill-rule="nonzero"></path>
  </g>
</svg>