<?xml version="1.0" encoding="utf-8"?>
<svg width="64px" height="64px" viewBox="0 0 64 64" version="1.1" xmlns="http://www.w3.org/2000/svg" xmlns:xlink="http://www.w3.org/1999/xlink">
  <g fill-rule="evenodd">
    <g fill-rule="nonzero">
      <path d="M32,0 C49.6731,-3.2465e-15 64,14.3269 64,32 C64,49.6731 49.6731,64 32,64 C14.3269,64 2.164332e-15,49.6731 0,32 C-2.164332e-15,14.3269 14.3269,3.2465e-15 32,0 Z M40.5011,14.07 L44.9044,14.07 L44.9044,18.4732 C44.9044,19.0812 45.3972,19.5741 46.0052,19.5741 C46.6131,19.5741 47.106,19.0812 47.106,18.4732 L47.106,14.07 C47.106,12.8541 46.1203,11.8684 44.9044,11.8684 L40.5011,11.8684 C39.8932,11.8684 39.4003,12.3613 39.4003,12.9692 C39.4003,13.5772 39.8932,14.07 40.5011,14.07 Z M44.9044,31.683 L44.9044,47.0943 C44.9044,47.7023 44.4115,48.1951 43.8036,48.1951 L17.3841,48.1951 C16.7761,48.1951 16.2833,47.7023 16.2833,47.0943 L16.2833,31.683 C16.2833,31.075 15.7904,30.5822 15.1825,30.5822 C14.5745,30.5822 14.0817,31.075 14.0817,31.683 L14.0817,47.0943 C14.0817,48.9182 15.5602,50.3968 17.3841,50.3968 L43.8035,50.3968 C45.6274,50.3968 47.106,48.9182 47.106,47.0943 L47.106,31.683 C47.106,31.075 46.6131,30.5822 46.0052,30.5822 C45.3972,30.5822 44.9044,31.075 44.9044,31.683 Z M25.8758,44.8927 L25.8747,44.8927 L25.8747,36.0862 C25.8747,35.4786 26.2974,34.9854 26.8181,34.9854 L34.3685,34.9854 C34.8892,34.9854 35.3119,35.4786 35.3119,36.0862 L35.3119,44.8927 C35.3119,45.5003 35.7335,45.9935 36.2553,45.9935 C36.776,45.9935 37.1987,45.5003 37.1987,44.8927 L37.1987,36.0862 C37.1987,34.2622 35.9317,32.7838 34.3685,32.7838 L26.8192,32.7838 C25.256,32.7838 23.989,34.2622 23.989,36.0862 L23.989,44.8927 C23.989,45.5003 24.4117,45.9935 24.9324,45.9935 C25.4542,45.9935 25.8758,45.5003 25.8758,44.8927 Z M11.1337,30.2596 L11.1348,30.2596 L29.8156,11.5789 C29.8159,11.5786 29.8161,11.5783 29.8164,11.578 C30.2466,11.1484 30.9436,11.1488 31.3732,11.5789 L50.054,30.2596 C50.4777,30.6569 51.1371,30.6567 51.5605,30.2591 C52.0037,29.8429 52.0256,29.1463 51.6094,28.7031 L32.9287,10.0223 C32.9285,10.0222 32.9284,10.0221 32.9283,10.022 C31.6385,8.7324 29.5475,8.7326 28.2579,10.0223 L9.5772,28.7031 C9.568,28.712 9.559,28.721 9.5501,28.7302 C9.1278,29.1675 9.1399,29.8643 9.5772,30.2867 C10.0145,30.7091 10.7114,30.6969 11.1337,30.2596 Z"></path>
    </g>
  </g>
</svg>