<?xml version="1.0" encoding="utf-8"?>
<svg width="64px" height="64px" viewBox="0 0 64 64" version="1.1" xmlns="http://www.w3.org/2000/svg" xmlns:xlink="http://www.w3.org/1999/xlink">
  <g fill-rule="evenodd">
    <path d="M32,0 C49.6731,-3.2465e-15 64,14.3269 64,32 C64,49.6731 49.6731,64 32,64 C14.3269,64 2.164332e-15,49.6731 0,32 C-2.164332e-15,14.3269 14.3269,3.2465e-15 32,0 Z M20.1212,32 C20.1212,32.8 20.6546,33.3334 21.4546,33.3334 L42.7879,33.3334 C43.5879,33.3334 44.1213,32.8 44.1213,32 C44.1213,31.2 43.5879,30.6667 42.7879,30.6667 L21.4546,30.6667 C20.6546,30.6667 20.1212,31.2 20.1212,32 Z M49.7213,23.7333 L49.7213,23.4667 C49.7213,23.4667 49.7213,23.2 49.4546,23.2 L49.4546,22.9333 L39.3212,12.2667 L39.0546,12 L38.7879,12 L38.5212,12 L19.0546,12 C16.9212,12 15.0546,13.8667 15.0546,16 L15.0546,48 C15.0546,50.1334 16.9212,52 19.0546,52 L45.7213,52 C47.8546,52 49.7213,50.1334 49.7213,48 L49.7213,23.7333 C49.7213,24 49.7213,24 49.7213,23.7333 Z M39.8546,16.8 L45.4546,22.6667 L41.1879,22.6667 C40.3879,22.6667 39.8546,22.1333 39.8546,21.3333 L39.8546,16.8 Z M47.0546,48 C47.0546,48.8 46.5213,49.3334 45.7213,49.3334 L19.0546,49.3334 C18.2546,49.3334 17.7212,48.8 17.7212,48 L17.7212,16 C17.7212,15.2 18.2546,14.6667 19.0546,14.6667 L37.1879,14.6667 L37.1879,21.3333 C37.1879,23.4667 39.0546,25.3334 41.1879,25.3334 L47.3213,25.3334 L47.3213,48 L47.0546,48 Z M21.4546,25.8667 L33.7212,25.8667 C34.5212,25.8667 35.0546,25.3334 35.0546,24.5333 C35.0546,23.7333 34.5212,23.2 33.7212,23.2 L21.4546,23.2 C20.6546,23.2 20.1212,23.7333 20.1212,24.5333 C20.1212,25.3334 20.6546,25.8667 21.4546,25.8667 Z M42.7879,38.1334 L21.4546,38.1334 C20.6546,38.1334 20.1212,38.6667 20.1212,39.4667 C20.1212,40.2667 20.6546,40.8 21.4546,40.8 L42.7879,40.8 C43.5879,40.8 44.1213,40.2667 44.1213,39.4667 C44.1213,38.6667 43.5879,38.1334 42.7879,38.1334 Z" fill-rule="nonzero"></path>
  </g>
</svg>