<?xml version="1.0" encoding="utf-8"?>
<svg width="64px" height="64px" viewBox="0 0 64 64" version="1.1" xmlns="http://www.w3.org/2000/svg" xmlns:xlink="http://www.w3.org/1999/xlink">
  <g fill-rule="evenodd">
    <path d="M32,0 C49.6731,-3.2465e-15 64,14.3269 64,32 C64,49.6731 49.6731,64 32,64 C14.3269,64 2.164332e-15,49.6731 0,32 C-2.164332e-15,14.3269 14.3269,3.2465e-15 32,0 Z M15.5429,15.4483 L47.0857,15.4483 L47.0857,48.5517 L15.5429,48.5517 L15.5429,15.4483 Z M15.5429,12.8 C14.028,12.8 12.8,13.9857 12.8,15.4483 L12.8,48.5517 C12.8,50.0143 14.028,51.2 15.5429,51.2 L47.0857,51.2 C48.6006,51.2 49.8286,50.0143 49.8286,48.5517 L49.8286,15.4483 C49.8286,13.9857 48.6006,12.8 47.0857,12.8 L15.5429,12.8 Z M37.3304,25.1429 C37.3304,24.3854 36.7809,23.7714 36.103,23.7714 L19.5131,23.7714 C18.8352,23.7714 18.2857,24.3854 18.2857,25.1429 C18.2857,25.9003 18.8352,26.5143 19.5131,26.5143 L36.103,26.5143 C36.7809,26.5143 37.3304,25.9003 37.3304,25.1429 Z M42.8161,33.3714 C42.8161,32.614 42.1083,32 41.2352,32 L19.8667,32 C18.9935,32 18.2857,32.614 18.2857,33.3714 C18.2857,34.1289 18.9935,34.7429 19.8667,34.7429 L41.2352,34.7429 C42.1083,34.7429 42.8161,34.1289 42.8161,33.3714 Z M42.8161,41.6 C42.8161,40.8426 42.1083,40.2286 41.2352,40.2286 L19.8667,40.2286 C18.9935,40.2286 18.2857,40.8426 18.2857,41.6 C18.2857,42.3574 18.9935,42.9714 19.8667,42.9714 L41.2352,42.9714 C42.1083,42.9714 42.8161,42.3574 42.8161,41.6 Z" fill-rule="nonzero"></path>
  </g>
</svg>