<?xml version="1.0" encoding="utf-8"?>
<svg width="64px" height="64px" viewBox="0 0 64 64" version="1.1" xmlns="http://www.w3.org/2000/svg" xmlns:xlink="http://www.w3.org/1999/xlink">
  <g fill-rule="evenodd">
    <path d="M32,1.42108547e-14 C49.6731,1.09643567e-14 64,14.3269 64,32 C64,49.6731 49.6731,64 32,64 C14.3269,64 -1.38838168e-15,49.6731 -3.5527e-15,32 C-5.717e-15,14.3269 14.3269,1.74573527e-14 32,1.42108547e-14 Z M17.7272,47.2418 L16.7157,47.2536 C14.9306,47.2536 13.7143,46.7958 13.7143,44.9985 L13.7143,20.4884 C13.7143,18.6911 14.9306,17.7588 16.7157,17.7588 L23.5288,17.7588 C24.8744,17.7588 24.6733,18.4127 25.9048,19.7484 L25.9048,22.5524 L42.3434,22.5524 C42.9903,22.5524 43.4109,22.9166 43.6843,23.4667 L47.2381,23.4667 L47.2381,23.4274 C47.2381,20.9112 44.8612,19.5048 42.362,19.5048 L28.4282,19.5048 L27.6336,17.4817 C26.6935,16.2745 25.5472,14.9333 23.5288,14.9333 L15.1919,14.9333 C12.6927,14.9333 10.6667,16.9886 10.6667,19.5048 L10.6667,45.4095 C10.6667,47.5355 12.1461,49.3325 14.1125,49.8387 L13.9453,49.9209 L14.5206,49.9238 C14.7547,49.9614 14.9944,49.981 15.2381,49.981 L25.713,49.981 L44.9293,50.0791 C49.5707,50.0791 53.3333,46.291 53.3333,41.6181 L53.3333,24.0762 L18.2857,24.0762 L18.2857,45.2148 C18.2857,46.1336 18.1429,46.6683 17.7272,47.2418 Z M20.9597,47.2041 C21.7588,46.3585 21.3333,46.2598 21.3333,44.9985 L21.3333,27.1238 L50.5166,27.1238 L50.5166,42.0092 C50.5166,45.7472 47.4657,47.2536 43.7023,47.2536 L43.3778,47.2535 L43.3778,46.9428 L20.9597,47.2041 Z" fill-rule="nonzero"></path>
  </g>
</svg>