<?xml version="1.0" encoding="utf-8"?>
<svg width="64px" height="64px" viewBox="0 0 64 64" version="1.1" xmlns="http://www.w3.org/2000/svg" xmlns:xlink="http://www.w3.org/1999/xlink">
  <g fill-rule="evenodd">
    <path d="M32,64 C14.3269,64 0,49.6731 0,32 C0,14.3269 14.3269,0 32,0 C49.6731,0 64,14.3269 64,32 C64,49.6731 49.6731,64 32,64 Z M27.5039,29.532 C26.5901,29.7582 25.6937,30.0572 24.819,30.4282 C22.6663,31.3392 20.7356,32.6392 19.0749,34.302 C17.4141,35.9649 16.1122,37.8944 15.2023,40.0498 C14.2591,42.2793 13.7819,45.0517 13.7819,47.496 L16.5116,47.496 C16.5116,38.3484 22.7015,31.8662 31.8485,31.8662 C40.9919,31.8662 47.0948,38.3484 47.0948,47.496 L49.9151,47.0864 L49.9151,47.496 C49.9151,45.0517 49.438,42.2793 48.4985,40.0498 C47.5886,37.8981 46.2866,35.9686 44.6259,34.3057 C42.9651,32.6429 41.0344,31.3392 38.8817,30.4282 C38.007,30.0572 37.1105,29.7582 36.1967,29.5319 C37.2502,29.0353 38.2214,28.3544 39.0703,27.5061 C41.0011,25.5766 42.0626,23.0101 42.0626,20.2769 C42.0626,17.5437 40.9974,14.9772 39.0703,13.0477 C37.1433,11.1145 34.5763,10.0516 31.8503,10.0516 C29.1207,10.0516 26.5574,11.1145 24.6304,13.0477 C22.6996,14.9772 21.6381,17.5438 21.6381,20.2732 C21.6381,23.0027 22.7033,25.5729 24.6304,27.5024 C25.478,28.3528 26.4495,29.0348 27.5039,29.532 Z M31.8503,12.8571 C35.9337,12.8571 39.2607,16.1883 39.2607,20.2769 C39.2607,24.3655 35.9337,27.6936 31.8503,27.6967 C27.7638,27.6967 24.44,24.3686 24.44,20.2769 C24.44,16.1852 27.7638,12.8571 31.8503,12.8571 Z" fill-rule="nonzero"></path>
  </g>
</svg>