<?xml version="1.0" encoding="utf-8"?>
<svg width="64px" height="64px" viewBox="0 0 64 64" version="1.1" xmlns="http://www.w3.org/2000/svg" xmlns:xlink="http://www.w3.org/1999/xlink">
  <g fill-rule="evenodd">
    <path d="M32,64 C14.3269,64 0,49.6731 0,32 C0,14.3269 14.3269,0 32,0 C49.6731,0 64,14.3269 64,32 C64,49.6731 49.6731,64 32,64 Z M51.1933,47.6952 L51.1932,47.6952 C51.1932,46.5872 51.1932,45.4788 51.1931,44.3708 C51.1932,43.8185 51.2482,43.1708 51.046,42.8249 C50.4133,41.7422 49.099,41.204 48.0216,40.5642 C45.5948,39.1232 42.5055,38.4061 39.9617,37.0901 C38.6037,36.3876 37.2968,35.56 36.6757,34.1147 C36.3364,33.3253 35.9704,31.6406 36.3978,30.6407 C36.5536,30.276 36.8564,30.0337 37.0844,29.743 C37.3768,29.3705 37.6862,28.9744 37.8855,28.513 C38.0717,28.0818 38.2213,27.6045 38.3433,27.1167 C38.4365,26.7437 38.4424,26.3341 38.6375,26.0695 C38.8043,25.8433 39.0768,25.7859 39.3242,25.6373 C39.6134,25.4637 39.8562,25.1979 39.9945,24.8727 C40.3898,23.9433 40.6095,21.79 39.6185,21.382 C39.6839,20.9664 39.7493,20.5508 39.8146,20.1353 C39.9236,19.2821 40.0326,18.4286 40.1416,17.5754 C40.2468,16.9231 40.0219,16.202 39.88,15.7303 C39.4184,14.1958 38.5947,13.0356 37.4441,12.2064 C35.7252,10.9676 32.2917,10.2212 29.417,10.9597 C27.1552,11.5407 25.3413,12.7248 24.4797,14.7163 C24.153,15.4715 24.0175,16.2061 23.8584,17.1931 C23.801,17.5496 23.8894,17.958 23.9402,18.2569 C24.1204,19.3176 24.2584,20.3387 24.3979,21.3487 C24.1873,21.5711 23.9739,21.7189 23.8421,22.0302 C23.4333,22.9957 23.7601,24.6469 24.2508,25.2882 C24.5241,25.6454 25.0989,25.709 25.3625,26.0695 C25.5561,26.3343 25.5635,26.7455 25.6568,27.1167 C25.7793,27.6045 25.9279,28.0823 26.1145,28.5129 C26.3146,28.9747 26.6226,29.3702 26.9156,29.743 C27.1362,30.0237 27.4321,30.2589 27.5859,30.6074 C28.026,31.6044 27.6716,33.3088 27.3243,34.1147 C26.7011,35.5607 25.3968,36.3852 24.0383,37.0901 C21.4956,38.4094 18.4069,39.125 15.9784,40.5642 C14.9008,41.2028 13.5863,41.7427 12.9539,42.8248 C12.7518,43.1708 12.8068,43.8184 12.8068,44.3707 C12.8068,45.4788 12.8068,46.5872 12.8068,47.6952 C25.6011,47.6952 38.399,47.6952 51.1933,47.6952 Z" fill-rule="nonzero"></path>
  </g>
</svg>