<?xml version="1.0" encoding="utf-8"?>
<svg width="64px" height="64px" viewBox="0 0 64 64" version="1.1" xmlns="http://www.w3.org/2000/svg" xmlns:xlink="http://www.w3.org/1999/xlink">
  <g fill-rule="evenodd">
    <path d="M32,64 C14.3269,64 0,49.6731 0,32 C0,14.3269 14.3269,0 32,0 C49.6731,0 64,14.3269 64,32 C64,49.6731 49.6731,64 32,64 Z M36.4104,28.5784 C40.9919,26.1936 42.8003,20.4925 40.4496,15.8445 C38.0988,11.1966 32.4791,9.3621 27.8976,11.7469 C23.3161,14.1317 21.5078,19.8328 23.8585,24.4807 C24.7491,26.2417 26.1618,27.6748 27.8976,28.5784 C20.8515,30.527 15.959,37.014 15.9475,44.4231 L15.9475,44.423 C15.9528,45.6405 16.0896,46.8537 16.3557,48.0409 C16.4384,48.413 16.7638,48.6776 17.1398,48.6784 L47.152,48.6784 C47.528,48.6776 47.8535,48.413 47.9362,48.0409 C49.8869,39.4632 44.7914,30.859 36.4104,28.5784 L36.4104,28.5784 Z M24.4281,20.1765 C24.4252,15.8553 27.8758,12.3498 32.1353,12.3468 C36.3948,12.3438 39.8502,15.8445 39.8531,20.1657 C39.8561,24.4869 36.4054,27.9924 32.1459,27.9954 C32.1352,27.9954 32.1245,27.9954 32.1138,27.9954 C27.8681,27.9774 24.434,24.4838 24.4281,20.1765 L24.4281,20.1765 Z" fill-rule="nonzero"></path>
  </g>
</svg>