<?xml version="1.0" encoding="utf-8"?>
<svg width="64px" height="64px" viewBox="0 0 64 64" version="1.1" xmlns="http://www.w3.org/2000/svg" xmlns:xlink="http://www.w3.org/1999/xlink">
  <g fill-rule="evenodd">
    <path d="M32,64 C14.3269,64 -3.8303e-15,49.6731 -3.8303e-15,32 C-3.8303e-15,14.3269 14.3269,0 32,0 C49.6731,0 64,14.3269 64,32 C64,49.6731 49.6731,64 32,64 Z M35.8844,29.4601 C40.0503,27.3226 41.6946,22.2127 39.5571,18.0468 C37.4196,13.8809 32.3097,12.2366 28.1438,14.3741 C23.9779,16.5116 22.3336,21.6214 24.4711,25.7873 C25.2809,27.3657 26.5655,28.6502 28.1438,29.4601 C21.7368,31.2066 17.2882,37.0209 17.2778,43.6616 L17.2778,43.6616 C17.2825,44.7528 17.407,45.8402 17.6489,46.9043 C17.7241,47.2378 18.02,47.4749 18.3619,47.4757 L45.6516,47.4757 C45.9935,47.4749 46.2894,47.2378 46.3646,46.9043 C48.1383,39.2161 43.5051,31.5042 35.8843,29.4601 L35.8844,29.4601 Z M24.989,21.9295 C24.9863,18.0564 28.1239,14.9145 31.997,14.9118 C35.8701,14.9091 39.0121,18.0467 39.0148,21.9198 C39.0174,25.7929 35.8798,28.9349 32.0067,28.9376 C31.997,28.9376 31.9872,28.9376 31.9775,28.9375 C28.117,28.9214 24.9944,25.7901 24.989,21.9295 L24.989,21.9295 Z M13.1999,41.6154 L10.1379,41.6154 C10.047,41.0896 10.0012,40.557 10.0012,40.0234 L10.0012,40.0236 C10.0091,34.6119 14.3955,30.2275 19.8072,30.2219 C19.9207,30.2204 20.0325,30.1937 20.1344,30.1438 C20.4965,29.9633 20.6436,29.5234 20.4631,29.1613 C20.4006,29.036 20.3035,28.9312 20.1833,28.8594 C20.0718,28.7948 19.9458,28.7595 19.817,28.7569 L19.7684,28.7569 C16.9526,28.7629 14.665,26.4851 14.659,23.6692 C14.6536,21.1075 16.5499,18.9394 19.0896,18.6038 C19.488,18.5509 19.768,18.1851 19.7151,17.7867 C19.715,17.7856 19.7148,17.7845 19.7147,17.7833 C19.6591,17.3824 19.2907,17.1013 18.8893,17.1534 C15.3037,17.648 12.798,20.9557 13.2926,24.5413 C13.5646,26.5133 14.7183,28.2549 16.428,29.2745 C10.823,31.0199 7.5074,36.7871 8.8193,42.5091 C8.8928,42.8356 9.1783,43.0708 9.5128,43.0805 L13.1999,43.0805 C13.6045,43.0805 13.9325,42.7525 13.9325,42.348 C13.9325,41.9434 13.6045,41.6154 13.1999,41.6154 L13.1999,41.6154 Z M47.5514,29.2745 C50.6591,27.4189 51.6741,23.3953 49.8185,20.2876 C48.8027,18.5862 47.0716,17.4358 45.1096,17.1582 C44.705,17.1029 44.3322,17.3861 44.2769,17.7907 C44.2216,18.1952 44.5048,18.568 44.9093,18.6233 C47.6904,19.0644 49.5874,21.6764 49.1464,24.4575 C48.7581,26.9057 46.6652,28.72 44.1866,28.7568 C43.782,28.7568 43.454,29.0848 43.454,29.4894 C43.454,29.894 43.782,30.2219 44.1866,30.2219 C49.5926,30.2354 53.9702,34.6173 53.9782,40.0233 L53.9782,40.0224 C53.9782,40.556 53.9325,41.0887 53.8416,41.6145 L50.7942,41.6145 C50.3897,41.6145 50.0617,41.9425 50.0617,42.347 C50.0617,42.7516 50.3897,43.0796 50.7942,43.0796 L54.4421,43.0796 C54.784,43.0788 55.0799,42.8417 55.1552,42.5082 C56.4676,36.7876 53.1544,31.021 47.5514,29.2736 L47.5514,29.2745 Z" fill-rule="nonzero"></path>
  </g>
</svg>