<?xml version="1.0" encoding="utf-8"?>
<svg width="64px" height="64px" viewBox="0 0 64 64" version="1.1" xmlns="http://www.w3.org/2000/svg" xmlns:xlink="http://www.w3.org/1999/xlink">
  <g fill-rule="evenodd">
    <path d="M32,64 C14.3269,64 0,49.6731 0,32 C0,14.3269 14.3269,0 32,0 C49.6731,0 64,14.3269 64,32 C64,49.6731 49.6731,64 32,64 Z M13.7071,48.2462 L13.7071,48.4416 L50.2515,48.4416 L50.2515,48.2462 L50.5436,48.2462 L50.5436,15.7538 L13.6205,15.7538 L13.6205,48.2462 L13.7071,48.2462 Z M49.8051,33.63 L35.971,20.3712 L19.2963,35.7036 L14.359,30.5549 L14.359,16.4923 L49.8051,16.4923 L49.8051,33.63 Z M18.7292,36.2251 L14.4455,31.6909 L18.7573,36.1992 L18.7292,36.2251 Z M21.7436,26.4615 C23.5789,26.4615 25.0667,24.9737 25.0667,23.1385 C25.0667,21.3032 23.5789,19.8154 21.7436,19.8154 C19.9083,19.8154 18.4205,21.3032 18.4205,23.1385 C18.4205,24.9737 19.9083,26.4615 21.7436,26.4615 Z M21.7436,25.7231 C20.3161,25.7231 19.159,24.5659 19.159,23.1385 C19.159,21.711 20.3161,20.5538 21.7436,20.5538 C23.171,20.5538 24.3282,21.711 24.3282,23.1385 C24.3282,24.5659 23.171,25.7231 21.7436,25.7231 Z M14.359,13.5385 L49.8051,13.5385 C51.4365,13.5385 52.759,14.8609 52.759,16.4923 L52.759,47.5077 C52.759,49.1391 51.4365,50.4615 49.8051,50.4615 L14.359,50.4615 C12.7276,50.4615 11.4051,49.1391 11.4051,47.5077 L11.4051,16.4923 C11.4051,14.8609 12.7276,13.5385 14.359,13.5385 Z M14.359,12.8 C12.3198,12.8 10.6667,14.4531 10.6667,16.4923 L10.6667,47.5077 C10.6667,49.5469 12.3198,51.2 14.359,51.2 L49.8051,51.2 C51.8443,51.2 53.4974,49.5469 53.4974,47.5077 L53.4974,16.4923 C53.4974,14.4531 51.8443,12.8 49.8051,12.8 L14.359,12.8 Z" fill-rule="nonzero"></path>
  </g>
</svg>