<?xml version="1.0" encoding="utf-8"?>
<svg width="64px" height="64px" viewBox="0 0 64 64" version="1.1" xmlns="http://www.w3.org/2000/svg" xmlns:xlink="http://www.w3.org/1999/xlink">
  <g fill-rule="evenodd">
    <path d="M32,64 C14.3269,64 0,49.6731 0,32 C0,14.3269 14.3269,0 32,0 C49.6731,0 64,14.3269 64,32 C64,49.6731 49.6731,64 32,64 Z M15.0027,45.4294 C15.3547,47.5414 17.1147,48.9494 19.4027,48.9494 L39.6427,48.9494 L25.5627,34.8694 L15.0027,45.4294 L15.0027,45.4294 Z M39.6427,45.4294 L43.1627,49.0667 C44.6916,49.0667 46.2205,49.0667 47.7493,49.0667 C48.8539,49.0667 49.7493,48.1712 49.7493,47.0667 L49.7493,36.9387 L43.1627,29.5894 L33.4827,39.2694 L39.6427,45.4294 Z M19.4027,13.7494 C16.9387,13.7494 15.0027,15.6854 15.0027,18.1494 L15.0027,41.9094 L25.5627,31.3494 L31.7227,37.5094 L43.1627,26.0694 L50.2028,33.1094 L50.2028,18.1494 C50.2028,15.6854 48.2668,13.7494 45.8028,13.7494 L19.4027,13.7494 Z M25.5627,26.0694 C23.6267,26.0694 22.0427,24.4854 22.0427,22.5494 C22.0427,20.6134 23.6267,19.0294 25.5627,19.0294 C27.4987,19.0294 29.0827,20.6134 29.0827,22.5494 C29.0827,24.4854 27.4987,26.0694 25.5627,26.0694 Z" fill-rule="nonzero"></path>
  </g>
</svg>