<?xml version="1.0" encoding="utf-8"?>
<svg width="64px" height="64px" viewBox="0 0 64 64" version="1.1" xmlns="http://www.w3.org/2000/svg" xmlns:xlink="http://www.w3.org/1999/xlink">
  <g fill-rule="evenodd">
    <path d="M32,64 C14.3269,64 -2.13162821e-14,49.6731 -2.13162821e-14,32 C-2.13162821e-14,14.3269 14.3269,-1.77635684e-14 32,-1.77635684e-14 C49.6731,-1.77635684e-14 64,14.3269 64,32 C64,49.6731 49.6731,64 32,64 Z M13.5111,41.434 L13.5111,20.1009 C13.5111,18.6871 13.1173,17.7778 14.5455,17.7778 L49.4545,17.7778 C50.8827,17.7778 50.4889,18.6871 50.4889,20.1009 L50.4889,35.617 L39.4909,25.0764 L27.3938,37.6921 L20.053,33.8584 L13.5111,41.434 Z M13.5111,43.4037 L20.3641,35.468 L27.6571,39.2768 L39.5297,26.8951 L50.4889,37.3985 L50.4889,43.6364 C50.4889,45.0502 50.8827,46.2222 49.4545,46.2222 L14.5455,46.2222 C13.1173,46.2222 13.5111,45.0502 13.5111,43.6364 L13.5111,43.4037 Z M14.5455,14.9333 C12.4033,14.9333 10.6667,17.1956 10.6667,19.3164 L10.6667,43.6364 C10.6667,45.7571 12.4033,49.0667 14.5455,49.0667 L49.4545,49.0667 C51.5967,49.0667 53.3333,45.7571 53.3333,43.6364 L53.3333,19.3164 C53.3333,17.1956 51.5967,14.9333 49.4545,14.9333 L14.5455,14.9333 Z M25.5354,28.9164 C27.6775,28.9164 29.4141,27.1971 29.4141,25.0764 C29.4141,22.9556 27.6775,21.2364 25.5354,21.2364 C23.3932,21.2364 21.6566,22.9556 21.6566,25.0764 C21.6566,27.1971 23.3932,28.9164 25.5354,28.9164 Z M25.5354,27.6364 C24.1072,27.6364 22.9495,26.4902 22.9495,25.0764 C22.9495,23.6625 24.1072,22.5164 25.5354,22.5164 C26.9635,22.5164 28.1212,23.6625 28.1212,25.0764 C28.1212,26.4902 26.9635,27.6364 25.5354,27.6364 Z" fill-rule="nonzero"></path>
  </g>
</svg>