<?xml version="1.0" encoding="utf-8"?>
<svg width="64px" height="64px" viewBox="0 0 64 64" version="1.1" xmlns="http://www.w3.org/2000/svg" xmlns:xlink="http://www.w3.org/1999/xlink">
  <g fill-rule="evenodd">
    <path d="M32,64 C14.3269,64 0,49.6731 0,32 C0,14.3269 14.3269,0 32,0 C49.6731,0 64,14.3269 64,32 C64,49.6731 49.6731,64 32,64 Z M44.4667,37.3667 L44.2,37.8667 L44.5,38.3334 L47.6,42.9334 L47.7334,41.7 L42.2,47.0667 L43.3667,46.9334 L38.3334,43.9334 L37.9,43.6667 L37.4334,43.8667 C37.1,44 36.8,44.1334 36.4667,44.2334 L35.9334,44.4 L35.8334,44.9334 L34.7334,50.1667 L35.6667,49.4 L27.8667,49.4 L28.8,50.1334 L27.4667,44.6667 L27.3334,44.1667 L26.8667,44 C26.5667,43.9 26.3,43.7667 26,43.6334 L25.5,43.4 L25.0667,43.7 L20.3333,46.7334 L21.5333,46.8667 L16,41.4667 L16.1333,42.6667 L19.2333,37.7334 L19.5,37.3 L19.3,36.8334 L18.9,35.8334 L18.7333,35.3334 L18.2,35.2334 L12.8333,34.1334 L13.6,35.0667 L13.6,27.4667 L12.8667,28.4 L18.4667,27.0667 L18.9667,26.9667 L19.1667,26.5 C19.3,26.1667 19.4667,25.8334 19.6,25.5 L19.8667,25 L19.5667,24.5333 L16.6667,20.1333 L16.5333,21.3667 L22.0333,15.9333 L20.8667,16.0667 L25.6667,19.0667 L26.1,19.3333 L26.5667,19.1333 L27.3667,18.8333 L27.8667,18.6667 L28,18.1667 L29.3,12.8667 L28.3334,13.5667 L36.1334,13.5667 L35.2,12.8 L36.3334,18.2 L36.4334,18.7333 L36.9334,18.9333 L38.1334,19.4333 L38.6,19.6667 L39.0667,19.3667 L43.5667,16.5333 L42.3667,16.4 L47.9334,21.7333 L47.8,20.5 L44.7667,25.2667 L44.5,25.7 L44.7,26.1667 L45.1,27.1667 L45.2667,27.6667 L45.8,27.8 L51.1334,29.0667 L50.4,28.1334 L50.4,35.7334 L51.1667,34.8 L45.5334,35.9334 L45.0334,36.0334 L44.8334,36.5 C44.7334,36.8 44.6,37.0667 44.4667,37.3667 Z M45.7334,36.9 L45.9334,37.8334 L51.5667,36.7 L52.3334,36.5334 L52.3334,27.3667 L51.6,27.2 L46.2667,25.9334 L46.0334,26.8667 L46.9334,26.5667 C46.8,26.1667 46.6667,25.8 46.5,25.4334 L45.6,25.8334 L46.4334,26.3667 L49.4667,21.6 L49.9,20.9333 L49.3334,20.4 L43.7334,15 L43.2,14.4667 L42.5667,14.8667 L38.0667,17.7 L38.5667,18.5333 L39,17.6667 C38.5667,17.4667 38.1,17.2667 37.6334,17.1 L37.3,18 L38.2334,17.8 L37.1,12.4 L36.9334,11.6333 L27.5667,11.6333 L27.4,12.3667 L26.1,17.6667 L27.0334,17.9 L26.7,17 C26.4,17.1 26.1,17.2333 25.8,17.3333 L26.1667,18.2333 L26.6667,17.4 L21.8,14.4333 L21.1667,14.0333 L20.6333,14.5667 L15.1333,20 L14.5667,20.5667 L15,21.2333 L17.9,25.6334 L18.7,25.1 L17.8667,24.6667 C17.6667,25.0334 17.5,25.4 17.3667,25.8 L18.2667,26.1667 L18.0333,25.2334 L12.4333,26.5667 L11.6667,26.7 L11.6667,35.8667 L12.4333,36.0334 L17.8,37.1 L18,36.1667 L17.1,36.5 C17.2333,36.9 17.4,37.2667 17.5667,37.6334 L18.4667,37.2334 L17.6333,36.7334 L14.5,41.6667 L14.1,42.3334 L14.6667,42.8667 L20.2,48.2334 L20.7667,48.7667 L21.4,48.3667 L26.1667,45.3334 L25.6334,44.5334 L25.2334,45.4 C25.5667,45.5667 25.9,45.7 26.2334,45.8334 L26.6,44.9334 L25.6667,45.1667 L27.0334,50.6334 L27.2,51.3667 L36.5667,51.3667 L36.7334,50.6 L37.8334,45.3667 L36.9,45.1667 L37.2,46.1 C37.5667,45.9667 37.9334,45.8334 38.3,45.6667 L37.9334,44.7667 L37.4334,45.6 L42.5,48.6334 L43.1334,49 L43.6667,48.4667 L49.2,43.1 L49.7667,42.5334 L49.3,41.8667 L46.2,37.2667 L45.4,37.8 L46.2667,38.2334 C46.4334,37.9 46.5667,37.6 46.7,37.2667 L45.7334,36.9 Z M32,38.9667 C36.1334,38.9667 39.4667,35.6 39.4667,31.5 C39.4667,27.3667 36.1334,24.0333 32,24.0333 C27.8667,24.0333 24.5333,27.3667 24.5333,31.5 C24.5333,35.6334 27.8667,38.9667 32,38.9667 Z M32,25.9334 C35.0667,25.9334 37.5667,28.4334 37.5667,31.5 C37.5667,34.5667 35.0667,37.0667 32,37.0667 C28.9334,37.0667 26.4334,34.5667 26.4334,31.5 C26.4334,28.4334 28.9334,25.9334 32,25.9334 Z" fill-rule="nonzero"></path>
  </g>
</svg>