<?xml version="1.0" encoding="utf-8"?>
<svg width="64px" height="64px" viewBox="0 0 64 64" version="1.1" xmlns="http://www.w3.org/2000/svg" xmlns:xlink="http://www.w3.org/1999/xlink">
  <g fill-rule="evenodd">
    <path d="M32,64 C14.3269,64 0,49.6731 0,32 C0,14.3269 14.3269,0 32,0 C49.6731,0 64,14.3269 64,32 C64,49.6731 49.6731,64 32,64 Z M46.9334,46.9333 C50.4889,46.9333 53.3333,44.2556 53.3333,40.8912 L53.3333,23.1774 C53.3333,19.813 50.4179,17.0667 46.9334,17.0667 L17.0666,17.0667 C13.5111,17.0667 10.6667,19.813 10.6667,23.1774 L10.6667,40.8227 C10.6667,44.187 13.5823,46.9333 17.0666,46.9333 L46.9334,46.9333 Z M51.4846,23.1774 L51.4846,40.8912 C51.4846,43.2944 49.4221,45.2167 46.9334,45.2167 L17.0666,45.2167 C14.5778,45.2167 12.5156,43.2944 12.5156,40.8912 L12.5156,23.1774 C12.5156,20.7742 14.5779,18.8519 17.0666,18.8519 L46.9334,18.8519 C49.4222,18.8519 51.4846,20.7742 51.4846,23.1774 Z M48.1423,38.6942 C48.4977,38.351 48.4977,37.8018 48.1423,37.4584 L40.32,29.9058 L48,22.834 C48.3555,22.4908 48.3555,21.9414 48,21.5982 C47.6444,21.2549 47.0755,21.2549 46.72,21.5982 L32.0002,35.1927 L17.1379,21.5982 C16.7822,21.2549 16.2134,21.2549 15.8578,21.5982 C15.5023,21.9414 15.5023,22.4908 15.8578,22.834 L23.609,29.9746 L15.7868,37.4584 C15.4311,37.8018 15.4311,38.351 15.7868,38.6942 C15.9999,38.8316 16.2134,38.969 16.4268,38.969 C16.6401,38.969 16.9245,38.9002 17.0667,38.6942 L24.8889,31.1419 L31.2889,37.0465 C31.4311,37.1838 31.7155,37.321 31.9289,37.321 C32.1423,37.321 32.3555,37.2524 32.5689,37.0465 L38.9689,31.1419 L46.7911,38.6942 C47.0043,38.9002 47.2178,38.969 47.4312,38.969 C47.7867,38.969 48.0001,38.9002 48.1423,38.6942 L48.1423,38.6942 Z" fill-rule="nonzero"></path>
  </g>
</svg>