<?xml version="1.0" encoding="utf-8"?>
<svg width="64px" height="64px" viewBox="0 0 64 64" version="1.1" xmlns="http://www.w3.org/2000/svg" xmlns:xlink="http://www.w3.org/1999/xlink">
  <g fill-rule="evenodd">
    <path d="M32,64 C14.3269,64 0,49.6731 0,32 C0,14.3269 14.3269,0 32,0 C49.6731,0 64,14.3269 64,32 C64,49.6731 49.6731,64 32,64 Z M51.5447,17.6124 L51.5715,17.6124 L13.6907,17.6124 L13.7175,17.6124 L51.5447,17.6124 Z M32.6365,38.4269 L31.3888,37.2595 L27.228,33.5057 L15.2062,44.8795 L50.0561,44.8795 L38.045,33.5057 L33.8842,37.3291 L32.6365,38.4269 L32.6365,38.4269 Z M13.4177,20.7182 L13.4177,42.7108 L25.1824,31.7172 L13.4177,20.7182 Z M51.8177,42.7054 L51.8177,20.7182 L40.0636,31.7118 L51.8177,42.7054 Z M32.6363,35.2086 L51.5446,17.5213 L13.7174,17.5213 L32.6363,35.2086 L32.6363,35.2086 Z" fill-rule="nonzero"></path>
  </g>
</svg>