<?xml version="1.0" encoding="utf-8"?>
<svg width="64px" height="64px" viewBox="0 0 64 64" version="1.1" xmlns="http://www.w3.org/2000/svg" xmlns:xlink="http://www.w3.org/1999/xlink">
  <g fill-rule="evenodd">
    <path d="M32,64 C14.3269,64 0,49.6731 0,32 C0,14.3269 14.3269,0 32,0 C49.6731,0 64,14.3269 64,32 C64,49.6731 49.6731,64 32,64 Z M31.9999,40.8156 L30.0152,41.8697 C23.8722,45.7133 20.9875,47.7721 21.3613,48.0461 C21.7355,48.3204 22.7834,44.9135 24.505,37.8254 L24.8841,35.5928 L23.2784,34.0116 C17.7616,29.2973 14.932,27.162 14.7895,27.6058 C14.647,28.05 18.1781,28.004 25.3831,27.4678 L27.6021,27.1421 L28.5944,25.1108 C31.3265,18.6688 32.4616,15.448 31.9998,15.4483 C31.5374,15.4486 32.6727,18.6694 35.4054,25.1108 L36.3978,27.1421 L38.6167,27.4678 C45.8229,28.006 49.3545,28.0532 49.2115,27.6096 C49.0684,27.1655 46.2384,29.2995 40.7214,34.0116 L39.1158,35.5928 L39.4948,37.8254 C41.215,44.9152 42.2618,48.3229 42.6353,48.0485 C43.0091,47.7737 40.1256,45.7141 33.9846,41.8697 L31.9999,40.8156 Z M21.3154,51.3581 L32,45.6834 L42.6845,51.3581 C44.7731,52.4673 46.1374,51.4618 45.7391,49.1161 L43.6985,37.097 L52.3425,28.5851 C54.0322,26.9212 53.5072,25.2997 51.1758,24.9575 L39.2301,23.2039 L33.8878,12.2686 C32.8435,10.131 31.1547,10.1344 30.1121,12.2686 L24.7698,23.2039 L12.8241,24.9575 C10.489,25.3003 9.9704,26.9238 11.6573,28.5851 L20.3014,37.097 L18.2608,49.1161 C17.8619,51.4655 19.2301,52.4655 21.3154,51.3581 Z" fill-rule="nonzero"></path>
  </g>
</svg>