<?xml version="1.0" encoding="utf-8"?>
<svg width="64px" height="64px" viewBox="0 0 64 64" version="1.1" xmlns="http://www.w3.org/2000/svg" xmlns:xlink="http://www.w3.org/1999/xlink">
  <g fill-rule="evenodd">
    <path d="M32,64 C14.3269,64 0,49.6731 0,32 C0,14.3269 14.3269,0 32,0 C49.6731,0 64,14.3269 64,32 C64,49.6731 49.6731,64 32,64 Z M45.2206,40.7947 L45.2206,40.7947 C45.8132,40.7947 46.2937,40.3141 46.2939,39.7215 C46.2939,39.1288 45.8134,38.6484 45.2208,38.6484 L23.9038,38.6484 L19.5263,14.8451 C19.433,14.3359 18.9888,13.9659 18.471,13.9659 L12.6757,13.9659 C12.083,13.9659 11.6025,14.4464 11.6025,15.0391 C11.6025,15.6317 12.083,16.1122 12.6757,16.1122 L17.577,16.1122 L21.9544,39.9156 C22.0477,40.4248 22.4921,40.7947 23.0097,40.7947 L45.2206,40.7947 Z M43.8405,35.5339 L43.8405,35.5339 C44.2906,35.5339 44.6931,35.2527 44.848,34.8299 L49.937,20.94 C50.0575,20.6104 50.0098,20.2431 49.8092,19.956 C49.6085,19.6689 49.28,19.4975 48.9294,19.4975 L24.129,19.4975 C23.5364,19.4975 23.0559,19.9781 23.0559,20.5707 C23.0559,21.1634 23.5364,21.6439 24.129,21.6439 L47.3936,21.6439 L43.0906,33.3874 L22.274,33.3874 C21.6814,33.3874 21.2009,33.868 21.2009,34.4607 C21.2009,35.0534 21.6814,35.5339 22.274,35.5339 L43.8405,35.5339 Z M24.587,52.0606 C26.9381,52.0606 28.8512,50.147 28.8513,47.7953 C28.8513,45.4447 26.9381,43.5322 24.587,43.5322 C22.2359,43.5322 20.3227,45.4447 20.3227,47.7953 C20.3227,50.1469 22.2358,52.0606 24.587,52.0606 Z M24.587,45.6784 C25.7549,45.6784 26.705,46.6278 26.705,47.7953 C26.705,48.9639 25.7549,49.9143 24.587,49.9143 C23.4191,49.9143 22.469,48.9639 22.469,47.7953 C22.469,46.6278 23.419,45.6784 24.587,45.6784 Z M43.151,52.0606 C45.5026,52.0606 47.4162,50.147 47.4162,47.7953 C47.4162,45.4447 45.5026,43.5322 43.151,43.5322 C40.7998,43.5322 38.8867,45.4447 38.8867,47.7953 C38.8867,50.1469 40.7998,52.0606 43.151,52.0606 Z M43.151,45.6784 C44.3194,45.6784 45.2699,46.6278 45.2699,47.7953 C45.2699,48.9639 44.3196,49.9143 43.151,49.9143 C41.983,49.9143 41.0329,48.9639 41.0329,47.7953 C41.0329,46.6278 41.9829,45.6784 43.151,45.6784 Z" fill-rule="nonzero"></path>
  </g>
</svg>