<?xml version="1.0" encoding="utf-8"?>
<svg width="64px" height="64px" viewBox="0 0 64 64" version="1.1" xmlns="http://www.w3.org/2000/svg" xmlns:xlink="http://www.w3.org/1999/xlink">
  <g fill-rule="evenodd">
    <path d="M32,64 C14.3269,64 0,49.6731 0,32 C0,14.3269 14.3269,0 32,0 C49.6731,0 64,14.3269 64,32 C64,49.6731 49.6731,64 32,64 Z M47.4438,48.6438 C48.9586,48.6438 50.1867,47.4157 50.1867,45.901 L50.1867,26.701 C50.1867,25.1862 48.9586,23.9581 47.4438,23.9581 L41.9581,23.9581 C40.4434,23.9581 39.2152,25.1862 39.2152,26.701 L39.2152,45.901 C39.2152,47.4157 40.4434,48.6438 41.9581,48.6438 L47.4438,48.6438 Z M47.4438,26.701 L47.4438,45.901 L41.9581,45.901 L41.9581,26.701 L47.4438,26.701 Z M33.7295,48.6438 C35.2443,48.6438 36.4724,47.4157 36.4724,45.901 L36.4724,15.7295 C36.4724,14.2148 35.2443,12.9867 33.7295,12.9867 L28.2438,12.9867 C26.7291,12.9867 25.501,14.2148 25.501,15.7295 L25.501,45.901 C25.501,47.4157 26.7291,48.6438 28.2438,48.6438 L33.7295,48.6438 Z M33.7295,15.7295 L33.7295,45.901 L28.2438,45.901 L28.2438,15.7295 L33.7295,15.7295 Z M20.0152,48.6438 C21.53,48.6438 22.7581,47.4157 22.7581,45.901 L22.7581,32.1867 C22.7581,30.6719 21.53,29.4438 20.0152,29.4438 L14.5295,29.4438 C13.0148,29.4438 11.7867,30.6719 11.7867,32.1867 L11.7867,45.901 C11.7867,47.4157 13.0148,48.6438 14.5295,48.6438 L20.0152,48.6438 Z M20.0152,32.1867 L20.0152,45.901 L14.5295,45.901 L14.5295,32.1867 L20.0152,32.1867 Z" fill-rule="nonzero"></path>
  </g>
</svg>