<?xml version="1.0" encoding="utf-8"?>
<svg width="64px" height="64px" viewBox="0 0 64 64" version="1.1" xmlns="http://www.w3.org/2000/svg" xmlns:xlink="http://www.w3.org/1999/xlink">
  <g fill-rule="evenodd">
    <path d="M32,64 C14.3269,64 0,49.6731 0,32 C0,14.3269 14.3269,0 32,0 C49.6731,0 64,14.3269 64,32 C64,49.6731 49.6731,64 32,64 Z M48.9086,14.9333 L15.217,14.9333 C13.93,14.9333 12.8,15.863 12.8,16.9367 L12.8,45.9553 C12.8,47.029 13.93,47.8476 15.217,47.8476 L48.9086,47.8476 C50.1955,47.8476 51.2,47.029 51.2,45.9553 L51.2,16.9367 C51.2,15.863 50.2008,14.9333 48.9086,14.9333 Z M26.3499,38.5875 L26.3499,32.4169 L37.6501,32.4169 L37.6501,38.5875 L26.3499,38.5875 Z M37.6501,39.9451 L37.6501,45.1145 L26.3499,45.1145 L26.3499,39.9451 L37.6501,39.9451 Z M48.0498,31.0593 L39.4288,31.0593 L39.4288,24.5184 L48.0498,24.5184 L48.0498,31.0593 Z M37.6501,31.0593 L26.3499,31.0593 L26.3499,24.5184 L37.6501,24.5184 L37.6501,31.0593 Z M24.5711,31.0593 L15.9502,31.0593 L15.9502,24.5184 L24.5711,24.5184 L24.5711,31.0593 Z M15.9502,32.4169 L24.5711,32.4169 L24.5711,38.5875 L15.9502,38.5875 L15.9502,32.4169 Z M39.4288,32.4169 L48.0498,32.4169 L48.0498,38.5875 L39.4288,38.5875 L39.4288,32.4169 Z M16.5382,17.6623 L47.5775,17.6623 C47.8715,17.6623 48.0498,17.929 48.0498,18.1792 L48.0498,23.1609 L15.9502,23.1609 L15.9502,18.1792 C15.9502,17.929 16.2442,17.6623 16.5382,17.6623 Z M15.9502,44.6919 L15.9502,39.9451 L24.5711,39.9451 L24.5711,45.1145 L16.5008,45.1145 C16.2255,45.1145 15.9502,44.939 15.9502,44.6951 L15.9502,44.6919 Z M47.6075,45.1145 L39.4289,45.1145 L39.4289,39.9451 L48.0498,39.9451 L48.0498,44.6919 C48.0498,44.939 47.8874,45.1145 47.6075,45.1145 L47.6075,45.1145 Z" fill-rule="nonzero"></path>
  </g>
</svg>