<?xml version="1.0" encoding="utf-8"?>
<svg width="64px" height="64px" viewBox="0 0 64 64" version="1.1" xmlns="http://www.w3.org/2000/svg" xmlns:xlink="http://www.w3.org/1999/xlink">
  <g fill-rule="evenodd">
    <path d="M32,64 C14.3269,64 0,49.6731 0,32 C0,14.3269 14.3269,0 32,0 C49.6731,0 64,14.3269 64,32 C64,49.6731 49.6731,64 32,64 Z M25.1927,28.7422 L25.1927,32.2829 L30.0611,32.2829 L30.0611,28.7422 L25.1927,28.7422 Z M17.8899,33.6107 L17.8899,37.1514 L22.7584,37.1514 L22.7584,33.6107 L17.8899,33.6107 Z M25.1927,38.4791 L25.1927,42.0198 L30.0611,42.0198 L30.0611,38.4791 L25.1927,38.4791 Z M25.1927,33.6107 L25.1927,37.1514 L30.0611,37.1514 L30.0611,33.6107 L25.1927,33.6107 Z M17.8899,38.4791 L17.8899,42.0198 L22.7584,42.0198 L22.7584,38.4791 L17.8899,38.4791 Z M22.0946,20.1117 C23.201,20.1117 23.8649,19.2265 23.8649,18.3413 L23.8649,16.571 L23.8649,14.8006 C23.8649,14.358 23.6436,13.9155 23.4223,13.4729 C22.7584,12.809 22.0945,12.5877 21.4307,13.0303 C20.7668,13.2516 20.3242,13.9154 20.3242,14.5793 L20.3242,18.12 C20.3242,19.2265 20.9881,20.1117 22.0945,20.1117 Z M40.462,20.1117 C41.5685,20.1117 42.2324,19.2265 42.2324,18.3413 L42.2324,16.571 L42.2324,14.8006 C42.2324,14.358 42.0111,13.9155 41.7898,13.4729 C41.3472,12.809 40.462,12.809 39.7981,13.0303 C39.1343,13.2516 38.6917,13.9154 38.6917,14.8006 L38.6917,18.3413 C38.6917,19.2265 39.3555,20.1117 40.462,20.1117 Z M39.7981,28.7422 L39.7981,32.2829 L44.6666,32.2829 L44.6666,28.7422 L39.7981,28.7422 Z M39.7981,33.6107 L39.7981,37.1514 L44.6666,37.1514 L44.6666,33.6107 L39.7981,33.6107 Z M32.4954,28.7422 L32.4954,32.2829 L37.3638,32.2829 L37.3638,28.7422 L32.4954,28.7422 Z M39.7981,38.4792 L39.7981,42.0199 L44.6666,42.0199 L44.6666,38.4792 L39.7981,38.4792 Z M32.4954,38.4792 L32.4954,42.0199 L37.3638,42.0199 L37.3638,38.4792 L32.4954,38.4792 Z M32.4954,33.6107 L32.4954,37.1514 L37.3638,37.1514 L37.3638,33.6107 L32.4954,33.6107 Z M48.8712,16.3497 L44.4453,16.3497 L44.4453,17.0136 C44.4453,19.2265 42.8962,20.9969 40.9046,20.9969 L40.2407,20.9969 C38.249,20.7756 36.7,19.0052 36.7,17.0136 L36.7,16.3497 L25.8565,16.3497 L25.8565,17.0136 C25.8565,19.2265 24.0861,20.9969 21.8732,20.9969 C19.6602,20.9969 17.8899,19.2265 17.8899,16.7923 L17.8899,16.1284 L13.464,16.1284 C13.0214,16.1284 12.8001,16.3497 12.8001,16.7923 L12.8001,47.1096 C12.8001,47.5522 13.0214,47.7735 13.464,47.7735 L48.8711,47.7735 C49.3137,47.7735 49.535,47.5522 49.535,47.1096 L49.535,17.2349 C49.535,16.7923 49.3137,16.3497 48.8711,16.3497 L48.8712,16.3497 Z M47.3221,45.7819 L15.0131,45.7819 L15.0131,26.0866 L47.3221,26.0866 L47.3221,45.7819 Z" fill-rule="nonzero"></path>
  </g>
</svg>