<?xml version="1.0" encoding="utf-8"?>
<svg width="64px" height="64px" viewBox="0 0 64 64" version="1.1" xmlns="http://www.w3.org/2000/svg" xmlns:xlink="http://www.w3.org/1999/xlink">
  <g fill-rule="evenodd">
    <path d="M32,64 C14.3269,64 0,49.6731 0,32 C0,14.3269 14.3269,0 32,0 C49.6731,0 64,14.3269 64,32 C64,49.6731 49.6731,64 32,64 Z M31.2644,10.9977 C20.0839,10.9977 10.9977,20.0839 10.9977,31.2644 C10.9977,42.4448 20.0839,51.531 31.2644,51.531 C42.4448,51.531 51.531,42.4448 51.531,31.2644 L31.2644,31.2644 L31.2644,10.9977 Z M47.8155,34.6422 C46.2617,42.3435 39.4386,48.1533 31.2644,48.1533 C21.9417,48.1533 14.3755,40.587 14.3755,31.2644 C14.3755,23.1239 20.1853,16.3008 27.8866,14.7133 L27.8866,31.2644 L27.8866,34.6422 L31.2644,34.6422 L47.8155,34.6422 Z M35.9933,10.9977 L35.9933,26.5355 L51.531,26.5355 C51.531,17.9559 44.5728,10.9977 35.9933,10.9977 Z M39.371,14.8484 C43.3568,15.9968 46.5319,19.1719 47.6804,23.1577 L39.371,23.1577 L39.371,14.8484 Z" fill-rule="nonzero"></path>
  </g>
</svg>