<?xml version="1.0" encoding="utf-8"?>
<svg width="64px" height="64px" viewBox="0 0 64 64" version="1.1" xmlns="http://www.w3.org/2000/svg" xmlns:xlink="http://www.w3.org/1999/xlink">
  <g fill-rule="evenodd">
    <path d="M32,64 C14.3269,64 0,49.6731 0,32 C0,14.3269 14.3269,0 32,0 C49.6731,0 64,14.3269 64,32 C64,49.6731 49.6731,64 32,64 Z M47.0816,41.4999 C46.9525,38.5001 45.4557,35.8385 43.2015,34.1239 L43.2015,25.9834 C43.2015,21.2815 39.8378,17.3261 35.3927,16.3915 L35.3927,16.2054 C35.3927,14.0606 33.6335,12.3056 31.4837,12.3056 C29.3337,12.3056 27.5747,14.0605 27.5747,16.2054 L27.5747,16.3915 C23.1297,17.3261 19.766,21.2813 19.766,25.9834 L19.766,34.1239 C17.5116,35.8386 16.0148,38.5001 15.8858,41.4999 L19.766,41.4999 L19.766,41.526 L43.2015,41.526 L43.2015,41.4999 L47.0817,41.4999 L47.0816,41.4999 Z M30.6588,48.5722 L31.6292,48.5722 C34.1726,48.5722 36.2873,46.6537 36.5948,44.1959 L26.3832,44.1959 C26.6908,46.6538 28.8054,48.5722 31.3489,48.5722 L30.6588,48.5722 Z" fill-rule="nonzero"></path>
  </g>
</svg>