<?xml version="1.0" encoding="utf-8"?>
<svg width="64px" height="64px" viewBox="0 0 64 64" version="1.1" xmlns="http://www.w3.org/2000/svg" xmlns:xlink="http://www.w3.org/1999/xlink">
  <g fill-rule="evenodd">
    <path d="M32,64 C14.3269,64 0,49.6731 0,32 C0,14.3269 14.3269,0 32,0 C49.6731,0 64,14.3269 64,32 C64,49.6731 49.6731,64 32,64 Z M31.3333,47.3333 C43.115,47.3333 52.6667,38.9764 52.6667,28.6667 C52.6667,18.357 43.115,10 31.3333,10 C19.5516,10 10,18.357 10,28.6667 C10,34.5589 13.1275,39.8041 18,43.226 L18,52.6667 L27.3468,46.9963 C28.6396,47.2096 29.9694,47.3333 31.3333,47.3333 Z M31.3333,12.6667 C41.643,12.6667 50,19.8304 50,28.6667 C50,37.5029 41.643,44.6667 31.3333,44.6667 C29.776,44.6667 28.2727,44.4846 26.8263,44.1774 L20.55,47.9506 L20.634,41.7653 C15.8212,38.8725 12.6667,34.0882 12.6667,28.6667 C12.6667,19.8304 21.0236,12.6667 31.3333,12.6667 Z M42,31.3333 C43.4734,31.3333 44.6667,30.1401 44.6667,28.6667 C44.6667,27.1932 43.4734,26 42,26 C40.5266,26 39.3333,27.1947 39.3333,28.6667 C39.3333,30.1401 40.5266,31.3333 42,31.3333 Z M31.3333,31.3333 C32.8053,31.3333 34,30.1401 34,28.6667 C34,27.1932 32.8068,26 31.3333,26 C29.8613,26 28.6667,27.1947 28.6667,28.6667 C28.6667,30.1401 29.8613,31.3333 31.3333,31.3333 Z M20.6667,31.3333 C22.1401,31.3333 23.3333,30.1401 23.3333,28.6667 C23.3333,27.1932 22.1387,26 20.6667,26 C19.1932,26 18,27.1947 18,28.6667 C18,30.1401 19.1932,31.3333 20.6667,31.3333 Z" fill-rule="nonzero"></path>
  </g>
</svg>