<?xml version="1.0" encoding="utf-8"?>
<svg width="64px" height="64px" viewBox="0 0 64 64" version="1.1" xmlns="http://www.w3.org/2000/svg" xmlns:xlink="http://www.w3.org/1999/xlink">
  <g fill-rule="evenodd">
    <path d="M32,64 C14.3269,64 0,49.6731 0,32 C0,14.3269 14.3269,-4.26325641e-14 32,-4.26325641e-14 C49.6731,-4.26325641e-14 64,14.3269 64,32 C64,49.6731 49.6731,64 32,64 Z M12.903,42.7568 L12.903,25.9846 C12.903,24.8731 12.5934,24.1582 13.7162,24.1582 L41.162,24.1582 C42.2848,24.1582 41.9752,24.8731 41.9752,25.9846 L41.9752,38.1835 L33.3285,29.8964 L23.8177,39.815 L18.0463,36.8009 L12.903,42.7568 Z M12.903,44.3055 L18.2908,38.0664 L24.0246,41.0608 L33.359,31.3263 L41.9752,39.5841 L41.9752,44.4884 C41.9752,45.5999 42.2848,46.5214 41.162,46.5214 L13.7162,46.5214 C12.5934,46.5214 12.903,45.5999 12.903,44.4884 L12.903,44.3055 Z M19.8915,21.9218 L19.8915,18.9961 C19.8915,17.8846 19.5819,17.1697 20.7047,17.1697 L48.1505,17.1697 C49.2733,17.1697 48.9637,17.8846 48.9637,18.9961 L48.9637,37.4999 C48.9637,38.6114 49.2733,39.5329 48.1505,39.5329 L44.2115,39.5329 L44.2115,25.3678 C44.2115,23.7004 42.8462,21.9218 41.162,21.9218 L19.8915,21.9218 Z M17.6552,21.9218 L13.7162,21.9218 C12.032,21.9218 10.6667,23.7004 10.6667,25.3678 L10.6667,44.4884 C10.6667,46.1557 12.032,48.7577 13.7162,48.7577 L41.162,48.7577 C42.8462,48.7577 44.2115,46.1557 44.2115,44.4884 L44.2115,41.7692 L48.1505,41.7692 C49.8347,41.7692 51.2,39.1672 51.2,37.4999 L51.2,18.3793 C51.2,16.7119 49.8347,14.9333 48.1505,14.9333 L20.7047,14.9333 C19.0205,14.9333 17.6552,16.7119 17.6552,18.3793 L17.6552,21.9218 Z M22.3565,32.9154 C24.0407,32.9154 25.4061,31.5637 25.4061,29.8964 C25.4061,28.229 24.0407,26.8773 22.3565,26.8773 C20.6723,26.8773 19.307,28.229 19.307,29.8964 C19.307,31.5637 20.6723,32.9154 22.3565,32.9154 Z M22.3565,31.909 C21.2337,31.909 20.3235,31.0079 20.3235,29.8964 C20.3235,28.7848 21.2337,27.8837 22.3565,27.8837 C23.4793,27.8837 24.3896,28.7848 24.3896,29.8964 C24.3896,31.0079 23.4793,31.909 22.3565,31.909 Z" fill-rule="nonzero"></path>
  </g>
</svg>