<?xml version="1.0" encoding="utf-8"?>
<svg width="64px" height="64px" viewBox="0 0 64 64" version="1.1" xmlns="http://www.w3.org/2000/svg" xmlns:xlink="http://www.w3.org/1999/xlink">
  <g fill-rule="evenodd">
    <path d="M32,64 C14.3269,64 0,49.6731 0,32 C0,14.3269 14.3269,0 32,0 C49.6731,0 64,14.3269 64,32 C64,49.6731 49.6731,64 32,64 Z M48.56,34.4267 C48.8,33.7067 48.8,32.9867 48.8,32.2667 C48.8,29.3867 48.08,26.5067 46.64,24.1067 C45.2,21.7067 43.28,19.5467 41.12,18.1067 L40.64,17.8667 L39.2,20.0267 L39.68,20.2667 C43.76,22.9067 46.16,27.4667 46.16,32.2667 L46.16,33.7067 C43.04,33.7067 40.64,36.1067 40.64,38.9867 C40.64,41.8667 43.04,44.2667 45.92,44.2667 C48.8,44.2667 51.2,41.8667 51.2,38.9867 C51.2,37.0667 50.24,35.3867 48.56,34.4267 Z M48.56,38.9867 C48.56,40.4267 47.36,41.6267 45.92,41.6267 C44.48,41.6267 43.28,40.4267 43.28,38.9867 C43.28,37.5467 44.48,36.3467 45.92,36.3467 C47.36,36.3467 48.56,37.5467 48.56,38.9867 Z M38.48,44.7467 C36.56,45.7067 34.16,46.4267 32,46.4267 C28.4,46.4267 24.8,44.9867 22.4,42.5867 C23.36,41.6267 23.84,40.4267 23.84,38.9867 C23.84,36.1067 21.44,33.7067 18.56,33.7067 C15.2,33.7067 12.8,36.1067 12.8,38.9867 C12.8,41.8667 15.2,44.2667 18.08,44.2667 C18.56,44.2667 19.28,44.2667 19.76,44.0267 C21.2,45.4667 22.88,46.6667 24.56,47.3867 C26.96,48.5867 29.36,49.0667 32,49.0667 C34.64,49.0667 37.28,48.3467 39.68,47.1467 L40.16,46.9067 L38.96,44.5067 L38.48,44.7467 Z M20.96,38.9867 C20.96,40.4267 19.76,41.6267 18.32,41.6267 C16.88,41.6267 15.68,40.4267 15.68,38.9867 C15.68,37.5467 16.88,36.3467 18.32,36.3467 C19.76,36.3467 20.96,37.5467 20.96,38.9867 Z M17.6,31.7867 L17.6,31.3067 C17.84,25.5467 21.92,20.5067 27.44,18.5867 C28.4,20.2667 30.08,21.4667 32.24,21.4667 C35.12,21.4667 37.52,19.0667 37.52,16.1867 C37.52,13.3067 35.12,10.6667 32.24,10.6667 C29.36,10.6667 26.72,13.0667 26.72,15.9467 C25.52,16.4267 24.08,17.1467 22.88,17.8667 C21.44,18.8267 20.24,19.7867 19.04,21.2267 C17.84,22.6667 16.88,24.1067 16.16,25.7867 C15.44,27.4667 15.2,29.3867 14.96,31.0667 L14.96,32.2667 L17.6,32.2667 L17.6,31.7867 Z M29.36,15.9467 C29.36,14.5067 30.56,13.3067 32,13.3067 C33.44,13.3067 34.64,14.5067 34.64,15.9467 C34.64,17.3867 33.68,18.8267 32.24,18.8267 C30.8,18.8267 29.36,17.6267 29.36,15.9467 Z" fill-rule="nonzero"></path>
  </g>
</svg>