<?xml version="1.0" encoding="utf-8"?>
<svg width="64px" height="64px" viewBox="0 0 64 64" version="1.1" xmlns="http://www.w3.org/2000/svg" xmlns:xlink="http://www.w3.org/1999/xlink">
  <g fill-rule="evenodd">
    <path d="M32,64 C14.3269,64 0,49.6731 0,32 C0,14.3269 14.3269,0 32,0 C49.6731,0 64,14.3269 64,32 C64,49.6731 49.6731,64 32,64 Z M39.3391,38.6858 C37.846,38.6858 36.4676,39.2579 35.4339,40.2875 L25.3262,33.4232 C25.7857,32.6223 26.0154,31.8215 26.0154,30.9062 C26.0154,30.2198 25.9005,29.5334 25.6708,28.8469 L35.4339,22.2114 C36.3528,23.2411 37.7311,23.9275 39.3391,23.9275 C42.4404,23.9275 44.9673,21.525 44.9673,18.436 C44.9673,15.4615 42.5552,13.1733 39.454,13.1733 C36.3528,13.1733 33.9407,15.5759 33.9407,18.5504 C33.9407,18.8936 33.9407,19.1224 34.0556,19.4657 L23.4885,26.33 C22.5696,25.758 21.6507,25.5292 20.5021,25.5292 C17.5158,25.5292 15.1037,27.9317 15.1037,30.7918 C15.1037,33.7664 17.5158,36.1689 20.617,36.1689 C21.421,36.1689 22.225,35.9401 22.9142,35.5969 L34.0556,42.9189 C33.9407,43.2621 33.9407,43.6053 33.9407,44.0629 C33.9407,47.0375 36.3528,49.44 39.454,49.44 C42.5552,49.44 44.9673,47.0375 44.9673,44.0629 C44.8524,41.0884 42.4404,38.6858 39.3391,38.6858 Z" fill-rule="nonzero"></path>
  </g>
</svg>