<?xml version="1.0" encoding="utf-8"?>
<svg width="64px" height="64px" viewBox="0 0 64 64" version="1.1" xmlns="http://www.w3.org/2000/svg" xmlns:xlink="http://www.w3.org/1999/xlink">
  <g fill-rule="evenodd">
    <path d="M32,64 C14.3269,64 0,49.6731 0,32 C0,14.3269 14.3269,0 32,0 C49.6731,0 64,14.3269 64,32 C64,49.6731 49.6731,64 32,64 Z M28.2921,29.4624 L23.5282,29.4624 C23.0539,29.4624 22.9302,29.7511 23.2395,30.1224 L30.9319,39.0109 C31.0763,39.1759 31.2825,39.279 31.5093,39.279 C31.7362,39.279 31.9424,39.1759 32.0868,39.0109 L39.9854,30.1224 C40.2947,29.7511 40.171,29.4624 39.6967,29.4624 L34.6853,29.4624 L34.6853,9.6128 L28.2921,9.6128 L28.2921,29.4624 Z M50.6268,38.4644 L50.235,37.7013 L44.6256,26.503 C44.3781,26.0493 43.8831,25.74 43.3676,25.74 L38.7274,25.74 C38.2531,25.74 37.8612,26.1318 37.8612,26.6061 L37.8612,28.091 C37.8612,28.5653 38.2531,28.9572 38.7274,28.9572 L40.2122,28.9572 C40.7484,28.9778 41.2228,29.2665 41.4702,29.7408 L45.4299,37.7632 C45.5536,37.9282 45.5536,38.155 45.4505,38.32 C45.3474,38.485 45.1411,38.5881 44.9555,38.5469 L38.6449,38.5469 C38.1706,38.5469 37.7787,38.9387 37.7787,39.413 L37.7787,43.9707 C37.7787,44.445 37.3869,44.8369 36.9126,44.8369 L25.9824,44.8369 C25.508,44.8369 25.1162,44.445 25.1162,43.9707 L25.1162,39.3099 C25.1162,38.8356 24.7244,38.4437 24.25,38.4437 L17.795,38.4437 C17.6301,38.4437 17.4651,38.3612 17.362,38.2169 C17.2589,38.0725 17.2589,37.8869 17.3207,37.7426 L21.4659,29.6996 C21.7134,29.2253 22.1877,28.8953 22.7239,28.854 L24.1263,28.854 C24.6006,28.854 24.9925,28.4622 24.9925,27.9879 L24.9925,26.503 C24.9718,26.0287 24.58,25.6575 24.1263,25.6575 L19.5892,25.6575 C19.0531,25.6781 18.5787,25.9668 18.3312,26.4205 L12.7012,37.6188 L12.3093,38.4025 L12.3093,47.1466 C12.3093,47.621 12.7012,48.0128 13.1755,48.0128 L49.7607,48.0128 C50.235,48.0128 50.6268,47.621 50.6268,47.1466 L50.6268,38.3406 L50.6268,38.4644 Z" fill-rule="nonzero"></path>
  </g>
</svg>