<?xml version="1.0" encoding="utf-8"?>
<svg width="64px" height="64px" viewBox="0 0 64 64" version="1.1" xmlns="http://www.w3.org/2000/svg" xmlns:xlink="http://www.w3.org/1999/xlink">
  <g fill-rule="evenodd">
    <path d="M32,64 C14.3269,64 0,49.6731 0,32 C0,14.3269 14.3269,0 32,0 C49.6731,0 64,14.3269 64,32 C64,49.6731 49.6731,64 32,64 Z M51.2,34.8711 L51.2,34.8711 C51.2,33.8736 50.394,33.0679 49.3961,33.0679 C48.3982,33.0679 47.5922,33.8736 47.5922,34.8711 L47.5922,45.4602 L16.4078,45.4602 L16.4078,34.8711 C16.4078,33.8736 15.6018,33.0679 14.6039,33.0679 C13.606,33.0679 12.8,33.8736 12.8,34.8711 L12.8,47.2634 C12.8,48.261 13.606,49.0667 14.6039,49.0667 L49.3961,49.0667 C50.394,49.0667 51.2,48.261 51.2,47.2634 L51.2,34.8711 Z M22.0689,26.5312 L22.0689,26.5312 C21.378,25.8598 20.265,25.8598 19.5741,26.5504 C18.8641,27.241 18.8449,28.392 19.5358,29.1018 L30.7814,40.3239 C31.4722,41.0337 32.6044,41.0337 33.3145,40.3239 L44.5601,29.0826 C45.2701,28.3728 45.2701,27.241 44.5601,26.5312 C43.85,25.8214 42.7178,25.8214 42.0077,26.5312 L33.8518,34.7032 L33.8518,12.4699 C33.8518,11.4724 33.0458,10.6667 32.0479,10.6667 C31.05,10.6667 30.244,11.4724 30.244,12.4699 L30.244,34.7032 L22.0689,26.5312 Z" fill-rule="nonzero"></path>
  </g>
</svg>