<?xml version="1.0" encoding="utf-8"?>
<svg width="64px" height="64px" viewBox="0 0 64 64" version="1.1" xmlns="http://www.w3.org/2000/svg" xmlns:xlink="http://www.w3.org/1999/xlink">
  <g fill-rule="evenodd">
    <path d="M32,64 C14.3269,64 0,49.6731 0,32 C0,14.3269 14.3269,0 32,0 C49.6731,0 64,14.3269 64,32 C64,49.6731 49.6731,64 32,64 Z M49.1814,45.9916 C49.7001,45.9916 50.1207,45.5745 50.1207,45.0597 L50.1207,43.196 C50.1207,42.6814 49.7001,42.2642 49.1814,42.2642 L23.9315,42.2642 C23.4128,42.2642 22.9922,42.6814 22.9922,43.196 L22.9922,45.0597 C22.9922,45.5745 23.4128,45.9916 23.9315,45.9916 L49.1814,45.9916 Z M49.1814,32.9459 C49.7001,32.9459 50.1207,32.5286 50.1207,32.014 L50.1207,30.1503 C50.1207,29.6356 49.7001,29.2185 49.1814,29.2185 L23.9315,29.2185 C23.4128,29.2185 22.9922,29.6357 22.9922,30.1503 L22.9922,32.014 C22.9922,32.5286 23.4128,32.9459 23.9315,32.9459 L49.1814,32.9459 Z M49.1814,19.8998 C49.7001,19.8998 50.1207,19.4827 50.1207,18.9681 L50.1207,17.1045 C50.1207,16.5898 49.7001,16.1726 49.1814,16.1726 L23.9315,16.1726 C23.4128,16.1726 22.9922,16.5898 22.9922,17.1045 L22.9922,18.9681 C22.9922,19.4827 23.4128,19.8998 23.9315,19.8998 L49.1814,19.8998 Z M15.4778,47.8554 C17.553,47.8554 19.2351,46.1866 19.2351,44.128 C19.2351,42.0693 17.553,40.4005 15.4778,40.4005 C13.403,40.4005 11.7207,42.0693 11.7207,44.128 C11.7207,46.1866 13.403,47.8554 15.4778,47.8554 Z M15.4778,34.8095 C17.553,34.8095 19.2351,33.1407 19.2351,31.0821 C19.2351,29.0235 17.553,27.3547 15.4778,27.3547 C13.403,27.3547 11.7207,29.0235 11.7207,31.0821 C11.7207,33.1407 13.403,34.8095 15.4778,34.8095 Z M15.4778,21.7636 C17.553,21.7636 19.2351,20.0949 19.2351,18.0362 C19.2351,15.9778 17.553,14.3089 15.4778,14.3089 C13.403,14.3089 11.7207,15.9777 11.7207,18.0362 C11.7207,20.0949 13.403,21.7636 15.4778,21.7636 Z" fill-rule="nonzero"></path>
  </g>
</svg>