<?xml version="1.0" encoding="utf-8"?>
<svg width="64px" height="64px" viewBox="0 0 64 64" version="1.1" xmlns="http://www.w3.org/2000/svg" xmlns:xlink="http://www.w3.org/1999/xlink">
  <g fill-rule="evenodd">
    <path d="M32,64 C14.3269,64 0,49.6731 0,32 C0,14.3269 14.3269,0 32,0 C49.6731,0 64,14.3269 64,32 C64,49.6731 49.6731,64 32,64 Z M32.672,12.8 C20.864,12.8 12.8,21.536 12.8,32 C12.8,42.464 21.8241,51.2 32,51.2 C34.208,51.2 35.648,49.664 35.648,47.84 C35.648,45.152 33.44,45.728 33.44,43.328 C33.44,41.6 34.8801,40.448 39.872,40.448 C44.768,40.544 51.2,37.76 51.2,29.888 C51.2,22.016 44.768,12.8 32.672,12.8 Z M20.288,32 C18.56,32 17.12,30.56 17.12,28.832 C17.12,27.104 18.56,25.664 20.288,25.664 C22.016,25.664 23.456,27.104 23.456,28.832 C23.456,30.56 22.016,32 20.288,32 Z M26.624,23.456 C24.896,23.456 23.456,22.016 23.456,20.288 C23.456,18.56 24.896,17.12 26.624,17.12 C28.352,17.12 29.792,18.56 29.792,20.288 C29.792,22.016 28.448,23.456 26.624,23.456 Z M37.376,23.456 C35.648,23.456 34.208,22.016 34.208,20.288 C34.208,18.56 35.648,17.12 37.376,17.12 C39.104,17.12 40.544,18.56 40.544,20.288 C40.544,22.016 39.104,23.456 37.376,23.456 Z M43.712,32 C41.984,32 40.544,30.56 40.544,28.832 C40.544,27.104 41.984,25.664 43.712,25.664 C45.44,25.664 46.88,27.104 46.88,28.832 C46.976,30.56 45.536,32 43.712,32 Z" fill-rule="nonzero"></path>
  </g>
</svg>