<?xml version="1.0" encoding="utf-8"?>
<svg width="64px" height="64px" viewBox="0 0 64 64" version="1.1" xmlns="http://www.w3.org/2000/svg" xmlns:xlink="http://www.w3.org/1999/xlink">
  <g fill-rule="evenodd">
    <path d="M32,64 C14.3269,64 0,49.6731 0,32 C0,14.3269 14.3269,0 32,0 C49.6731,0 64,14.3269 64,32 C64,49.6731 49.6731,64 32,64 Z M49.3051,14.8077 C47.2257,12.7095 43.8577,12.7095 41.7808,14.8077 L28.4787,28.2372 L36.003,35.837 L49.3051,22.4075 C51.3844,20.307 51.3844,16.9059 49.3051,14.8077 Z M32.9938,28.4024 L32.0969,27.4985 L43.3456,16.1389 C43.591,15.891 43.9923,15.891 44.2448,16.1389 C44.4903,16.3867 44.4903,16.7926 44.2448,17.0428 L32.9938,28.4024 Z M34.8678,30.2906 L33.9685,29.3866 L46.1542,17.0877 C46.3997,16.8375 46.8009,16.8375 47.0511,17.0853 C47.2966,17.3355 47.2966,17.7391 47.0464,17.9893 L34.8678,30.2906 Z M36.7394,32.1811 L35.8402,31.2771 L47.0865,19.9199 C47.332,19.6697 47.7332,19.6721 47.981,19.9199 C48.2288,20.1677 48.2265,20.5737 47.981,20.8238 L36.7394,32.1811 Z M26.0548,41.9358 L25.3727,41.2466 L31.6414,34.9142 L29.1773,32.4242 L22.9063,38.7566 L22.236,38.0792 L20.7609,38.8557 L15.8305,46.9181 L17.2985,48.4027 L25.2169,43.4699 L26.0548,41.9358 Z M21.5044,12.9998 C20.7821,12.9998 20.0882,13.1013 19.4203,13.2736 C19.4864,13.3326 19.5643,13.3774 19.6256,13.4435 L22.6561,16.5023 C24.1997,18.0601 24.1997,20.5902 22.6561,22.1479 C21.1126,23.7056 18.6084,23.7056 17.0648,22.1479 L14.0343,19.0915 C13.8762,18.931 13.744,18.754 13.6166,18.5746 C13.2885,19.4856 13.0997,20.4604 13.0997,21.4847 C13.0997,26.1697 16.8619,29.9672 21.5044,29.9672 C26.1445,29.9672 29.9066,26.1673 29.9066,21.4823 C29.9066,16.7974 26.1421,12.9998 21.5044,12.9998 Z M47.1833,46.5594 C49.0053,44.7161 49.0053,41.7281 47.1833,39.8848 L40.4709,33.1134 L33.86,39.7833 L40.5771,46.5594 C42.4015,48.4003 45.3588,48.4003 47.1833,46.5594 Z M42.7036,42.0349 C43.4589,41.2726 44.6815,41.2726 45.4367,42.0349 C46.192,42.7972 46.192,44.034 45.4367,44.7987 C44.6815,45.5587 43.4589,45.5587 42.7036,44.7987 C41.9484,44.0316 41.9484,42.7972 42.7036,42.0349 Z" fill-rule="nonzero"></path>
  </g>
</svg>