<?xml version="1.0" encoding="utf-8"?>
<svg width="64px" height="64px" viewBox="0 0 64 64" version="1.1" xmlns="http://www.w3.org/2000/svg" xmlns:xlink="http://www.w3.org/1999/xlink">
  <g fill-rule="evenodd">
    <path d="M32,64 C14.3269,64 0,49.6731 0,32 C0,14.3269 14.3269,0 32,0 C49.6731,0 64,14.3269 64,32 C64,49.6731 49.6731,64 32,64 Z M21.0286,34.5498 L21.0286,34.5498 C21.0285,35.3069 20.7606,35.9533 20.2249,36.489 C19.6892,37.0248 19.0428,37.2927 18.2857,37.2927 C17.5286,37.2926 16.8822,37.0248 16.3465,36.489 C15.8107,35.9533 15.5429,35.3069 15.5429,34.5498 C15.5429,33.7928 15.8108,33.1464 16.3465,32.6106 C16.8823,32.0749 17.5287,31.807 18.2857,31.807 C19.0427,31.807 19.6892,32.0749 20.2249,32.6106 C20.7607,33.1464 21.0286,33.7928 21.0286,34.5498 Z M25.1429,24.9498 L25.1428,24.9498 C25.1428,25.7069 24.8749,26.3533 24.3392,26.889 C23.8035,27.4248 23.1571,27.6927 22.4,27.6927 C21.6429,27.6926 20.9965,27.4248 20.4608,26.889 C19.9251,26.3533 19.6572,25.7069 19.6572,24.9498 C19.6571,24.1928 19.925,23.5464 20.4608,23.0106 C20.9966,22.4749 21.643,22.207 22.4,22.207 C23.157,22.207 23.8034,22.4749 24.3392,23.0106 C24.875,23.5464 25.1429,24.1928 25.1429,24.9498 Z M34.3136,35.2575 L34.3136,35.2575 C35.0277,35.7439 35.542,36.3939 35.8565,37.2077 C36.171,38.0214 36.2139,38.857 35.9853,39.7146 C35.7002,40.8136 35.0643,41.6493 34.0777,42.2216 C33.0912,42.7939 32.0484,42.937 30.9495,42.6509 C29.8505,42.3647 29.0149,41.7289 28.4425,40.7432 C27.8702,39.7576 27.7271,38.7149 28.0133,37.615 C28.2418,36.7583 28.6916,36.0547 29.3627,35.5043 C30.0338,34.9539 30.7982,34.6431 31.6558,34.5718 L33.8199,26.3857 C33.9204,26.0145 34.1348,25.7325 34.4631,25.5395 C34.7914,25.3466 35.1342,25.3 35.4917,25.3997 C35.8491,25.4993 36.1243,25.7101 36.3172,26.0319 C36.5102,26.3537 36.5636,26.7002 36.4777,27.0714 L34.3136,35.2575 Z M48.4571,34.5498 C48.4571,35.3069 48.1892,35.9533 47.6535,36.489 C47.1177,37.0248 46.4713,37.2927 45.7143,37.2927 C44.9573,37.2926 44.3108,37.0248 43.7751,36.489 C43.2393,35.9533 42.9714,35.3069 42.9714,34.5498 C42.9715,33.7928 43.2394,33.1464 43.7751,32.6106 C44.3108,32.0749 44.9572,31.807 45.7143,31.807 C46.4714,31.807 47.1178,32.0749 47.6535,32.6106 C48.1893,33.1464 48.4571,33.7928 48.4571,34.5498 Z M34.7429,20.8355 L34.7428,20.8355 C34.7428,21.5925 34.4749,22.2389 33.9392,22.7748 C33.4035,23.3106 32.7571,23.5785 32,23.5784 C31.2429,23.5783 30.5965,23.3104 30.0608,22.7748 C29.5251,22.2391 29.2572,21.5927 29.2572,20.8356 C29.2571,20.0784 29.525,19.432 30.0608,18.8964 C30.5966,18.3607 31.243,18.0928 32,18.0927 C32.757,18.0926 33.4034,18.3605 33.9392,18.8963 C34.475,19.4321 34.7429,20.0785 34.7429,20.8355 Z M44.3429,24.9498 L44.3428,24.9498 C44.3428,25.7068 44.0749,26.3532 43.5392,26.889 C43.0035,27.4248 42.3571,27.6927 41.6,27.6927 C40.8429,27.6926 40.1965,27.4247 39.6608,26.889 C39.1251,26.3533 38.8572,25.7069 38.8572,24.9498 C38.8571,24.1927 39.125,23.5463 39.6608,23.0106 C40.1966,22.4749 40.843,22.207 41.6,22.207 C42.357,22.207 43.0034,22.4748 43.5392,23.0106 C44.075,23.5464 44.3429,24.1928 44.3429,24.9498 Z M51.2,34.5498 L51.1973,34.5498 C51.1974,31.9514 50.6904,29.4659 49.6764,27.0934 C48.6623,24.7209 47.2982,22.6779 45.584,20.9645 C43.8698,19.251 41.8268,17.8869 39.4551,16.8721 C37.0834,15.8573 34.5979,15.3503 31.9986,15.3512 C29.3993,15.352 26.9139,15.859 24.5422,16.8721 C22.1705,17.8852 20.1275,19.2493 18.4133,20.9645 C16.699,22.6796 15.3349,24.7226 14.3209,27.0933 C13.307,29.4641 12.8,31.9496 12.8,34.5498 C12.8,38.2929 13.8071,41.743 15.8213,44.9 C16.0928,45.3141 16.4786,45.5212 16.9787,45.5212 L47.0213,45.5212 C47.5214,45.5212 47.9072,45.3141 48.1787,44.9 C50.1929,41.7283 51.2,38.2783 51.2,34.5498 Z" fill-rule="nonzero"></path>
  </g>
</svg>