<?xml version="1.0" encoding="utf-8"?>
<svg width="64px" height="64px" viewBox="0 0 64 64" version="1.1" xmlns="http://www.w3.org/2000/svg" xmlns:xlink="http://www.w3.org/1999/xlink">
  <g fill-rule="evenodd">
    <path d="M63.2044,48.7083 L63.2044,48.7083 C63.1689,50.7732 63.3953,52.8807 62.9646,54.9165 C62.6807,56.3924 60.9068,56.4279 59.7218,56.4776 C52.3698,56.4989 45.0121,56.4634 37.6537,56.4776 L37.6537,62.8638 L33.2472,62.8638 C22.4324,60.8983 11.597,59.0818 0.768730643,57.1872 L0.768730643,7.5233 C11.6609,5.6287 22.5529,3.7625 33.438,1.8395 L37.6529,1.8395 L37.6529,7.5162 C44.7552,7.5162 51.8582,7.5304 58.9611,7.4949 C60.161,7.5446 61.4808,7.4594 62.5239,8.1761 C63.2548,9.227 63.1696,10.561 63.2186,11.7673 C63.1831,24.0857 63.1973,36.397 63.2044,48.7083 Z M21.6653,43.4581 L21.6653,43.4581 C23.3754,43.5787 25.0777,43.6845 26.7892,43.7838 C24.8314,39.8101 22.8375,35.8648 20.8861,31.8911 C22.8155,28.0239 24.7172,24.1425 26.6118,20.261 C25.001,20.3391 23.3903,20.4384 21.7866,20.552 C20.5881,23.4683 19.1895,26.3067 18.2536,29.3224 C17.3801,26.477 16.2235,23.738 15.1662,20.9635 C13.6044,21.0486 12.044,21.1409 10.4829,21.2331 C12.1284,24.8662 13.8818,28.4496 15.4784,32.104 C13.598,35.652 11.8382,39.2495 10.0146,42.8187 C11.5679,42.8826 13.1226,42.9465 14.6766,42.9678 C15.7828,40.1443 17.1601,37.4266 18.1244,34.545 C18.9908,37.6395 20.459,40.4991 21.6653,43.4581 Z M61.0685,54.3495 L61.0685,9.6457 L37.6522,9.6457 L37.6522,13.9032 L43.3289,13.9032 L43.3289,18.8703 L37.6522,18.8703 L37.6522,21.7086 L43.3289,21.7086 L43.3289,26.6757 L37.6522,26.6757 L37.6522,29.5141 L43.3289,29.5141 L43.3289,34.4811 L37.6522,34.4811 L37.6522,37.3195 L43.3289,37.3195 L43.3289,42.2866 L37.6522,42.2866 L37.6522,45.1249 L43.3289,45.1249 L43.3289,50.092 L37.6522,50.092 L37.6522,54.3495 L61.0685,54.3495 Z M46.1672,18.8702 L46.1672,13.9031 L56.1014,13.9031 L56.1014,18.8702 L46.1672,18.8702 Z M46.1672,26.6757 L46.1672,21.7086 L56.1014,21.7086 L56.1014,26.6757 L46.1672,26.6757 Z M46.1672,34.4812 L46.1672,29.5141 L56.1014,29.5141 L56.1014,34.4812 L46.1672,34.4812 Z M46.1672,42.2866 L46.1672,37.3195 L56.1014,37.3195 L56.1014,42.2866 L46.1672,42.2866 Z M46.1672,50.0921 L46.1672,45.125 L56.1014,45.125 L56.1014,50.0921 L46.1672,50.0921 Z" fill-rule="nonzero"></path>
  </g>
</svg>