<?xml version="1.0" encoding="utf-8"?>
<svg width="64px" height="64px" viewBox="0 0 64 64" version="1.1" xmlns="http://www.w3.org/2000/svg" xmlns:xlink="http://www.w3.org/1999/xlink">
  <g fill-rule="evenodd">
    <path d="M-2.13162821e-14,7.808 L37.12,1.28 L37.12,62.7201 L-2.13162821e-14,56.0641 L-2.13162821e-14,7.808 Z M26.624,42.752 L30.464,20.992 L25.344,20.992 L23.424,33.152 L20.736,20.992 L15.616,20.992 L12.928,33.152 L11.008,20.992 L5.76,20.992 L9.728,42.752 L15.104,42.752 L18.176,29.056 L21.248,42.752 L26.624,42.752 Z M39.68,7.68 L64.0001,7.68 L64.0001,56.3201 L39.68,56.3201 L39.68,49.1521 L58.8801,49.1521 L58.8801,46.3361 L39.68,46.3361 L39.68,42.752 L58.8801,42.752 L58.8801,39.808 L39.68,39.808 L39.68,36.352 L58.8801,36.352 L58.8801,33.408 L39.68,33.408 L39.68,29.824 L58.8801,29.824 L58.8801,27.008 L39.68,27.008 L39.68,23.424 L58.8801,23.424 L58.8801,20.608 L39.68,20.608 L39.68,17.024 L58.8801,17.024 L58.8801,14.08 L39.68,14.08 L39.68,7.68 Z" fill-rule="nonzero"></path>
  </g>
</svg>