<?xml version="1.0" encoding="utf-8"?>
<svg width="64px" height="64px" viewBox="0 0 64 64" version="1.1" xmlns="http://www.w3.org/2000/svg" xmlns:xlink="http://www.w3.org/1999/xlink">
  <g fill-rule="evenodd">
    <path d="M58.2831,12.5086 L50.4462,4.9685 C48.7245,3.33583364 45.3701,2 42.9656,2 L16.6942,2 C14.2897,2 12.3304,3.89985229 12.3304,6.2153 L12.3304,14.7349 L15.8333,14.7349 L15.8333,6.2153 C15.8333,5.7403 16.2489,5.3841 16.7239,5.3841 L42.9656,5.3841 C43.2327,5.3841 43.5296,5.4138 43.8264,5.4732 L43.8264,18.8909 L57.7488,18.8909 C57.8082,19.1877 57.8378,20.8798 57.8378,21.1173 L57.8378,57.1551 C57.8378,57.63 57.4223,57.9863 56.9473,57.9863 L16.6942,57.9863 C16.2192,57.9863 15.8333,57.6004 15.8333,57.1551 L15.8333,54.335 L12.3008,54.335 L12.3008,57.1551 C12.3008,59.4705 14.26,61.3704 16.6942,61.3704 L57.0067,61.3704 C59.4112,61.3704 61.4001,59.4705 61.4001,57.1551 L61.4001,21.1173 C61.3704,18.8018 59.9752,14.1709 58.2831,12.5086 Z M47.359,15.5068 L47.359,6.8981 C47.5668,7.0465 47.7746,7.1949 47.9824,7.4027 L55.7896,14.9427 C55.9677,15.1209 56.1458,15.3287 56.2942,15.5364 L47.359,15.5068 Z M38.8987,33.6741 L53.2663,33.6741 L53.2663,37.6222 L38.8987,37.6222 L38.8987,33.6741 Z M38.8987,41.5704 L53.2663,41.5704 L53.2663,45.5185 L38.8987,45.5185 L38.8987,41.5704 Z M38.8987,25.7482 L53.2663,25.7482 L53.2663,29.6963 L38.8987,29.6963 L38.8987,25.7482 Z M2,18.6831 L34.8615,18.6831 L34.8615,50.3572 L2,50.3572 L2,18.6831 Z M8.8395,26.0059 L3.6406,26.0059 L8.5954,43.4217 L13.8682,43.4217 L16.7524,32.9056 C16.9003,32.3436 17.0112,31.6411 17.0852,30.8128 L17.2035,30.8128 C17.2109,31.5523 17.307,32.2697 17.4845,32.9722 L20.1616,43.4291 L25.501,43.4291 L30.5371,26.0133 L25.8116,26.0133 L23.3859,37.5868 C23.238,38.3116 23.1493,38.955 23.1197,39.5096 L22.994,39.5096 C22.9126,38.5408 22.8313,37.9048 22.7573,37.5868 L19.9693,26.0133 L15.155,26.0133 L12.0342,37.5055 C11.8937,38.038 11.7902,38.6961 11.7384,39.4726 L11.6275,39.4726 C11.5683,38.6592 11.4796,38.0232 11.376,37.5647 L8.8395,26.0059 Z" fill-rule="nonzero"></path>
  </g>
</svg>