<?xml version="1.0" encoding="utf-8"?>
<svg width="64px" height="64px" viewBox="0 0 64 64" version="1.1" xmlns="http://www.w3.org/2000/svg" xmlns:xlink="http://www.w3.org/1999/xlink">
  <g fill-rule="evenodd">
    <path d="M62.8001,47.8005 L62.8001,14.7608 L62.8001,14.7608 C62.6662,11.9511 60.6639,9.5808 57.9161,8.9792 L57.9161,8.9792 C51.3558,6.8567 44.3834,6.3318 37.5792,7.448 L37.5792,1.2 L33.3948,1.2 L1.2,6.9464 L1.2,57.0801 L33.2188,62.8001 L37.5792,62.8001 L37.5792,55.0869 L37.5792,55.0869 C44.3491,56.1927 51.2846,55.6816 57.8193,53.5953 C60.6049,53.0223 62.6521,50.6405 62.8001,47.8005 L62.8001,47.8005 Z M22.4432,43.4005 L21.0836,38.0368 L14.6464,37.852 L13.3836,42.9297 L9.2828,42.6305 L15.4868,20.032 L20.3752,19.68 L27.2612,43.7965 L22.4432,43.4005 Z M37.5792,9.6216 L37.5792,9.6216 C43.8584,8.576 50.2911,8.9337 56.4157,10.6688 L56.4157,10.6688 C58.3457,10.997 59.9686,12.3003 60.7057,14.114 L60.7057,14.114 C60.1736,15.6155 58.9246,16.7504 57.3793,17.1368 L57.3793,17.1368 C50.9888,19.1955 44.1937,19.6697 37.5792,18.5184 L37.5792,9.6216 L37.5792,9.6216 Z M37.5792,32.2552 L37.5792,32.2552 C42.3514,32.8775 47.185,32.8657 51.9541,32.22 L51.9541,32.22 C55.1029,31.9691 58.1247,30.868 60.6969,29.0344 C60.5561,32.1144 60.9125,35.1944 60.5033,38.2744 L60.5033,38.2744 C59.1431,39.6332 57.3982,40.541 55.5049,40.8749 L55.5049,40.8749 C49.6224,42.2015 43.5459,42.4342 37.5792,41.5613 L37.5792,32.2596 L37.5792,32.2552 Z M60.4857,49.7321 L60.4857,49.7321 C58.2742,51.5977 55.5267,52.7118 52.6405,52.9133 L52.6405,52.9133 C47.6428,53.6912 42.5563,53.7105 37.5529,52.9705 L37.5793,43.7305 L37.5793,43.7305 C42.3426,44.3526 47.1674,44.3408 51.9277,43.6953 L51.9277,43.6953 C55.0851,43.4464 58.1159,42.3454 60.6969,40.5097 C60.5517,43.5677 60.9301,46.6829 60.4901,49.7365 L60.4857,49.7321 Z M60.4857,26.8168 C59.1066,28.1673 57.3524,29.0704 55.4521,29.4084 L55.4521,29.4084 C49.5842,30.7243 43.5243,30.9495 37.5748,30.0728 L37.5748,20.7976 L37.5748,20.7976 C42.334,21.4143 47.1536,21.4039 51.9101,20.7668 L51.9101,20.7668 C55.0784,20.518 58.1198,19.4139 60.7101,17.5724 C60.5429,20.6524 60.9389,23.772 60.4901,26.8212 L60.4857,26.8168 Z M15.522,33.9844 C15.522,33.9844 17.282,27.358 17.7484,23.9568 C18.36,27.3492 19.35,30.68 20.1464,34.0108 L15.522,33.9844 Z" fill-rule="nonzero"></path>
  </g>
</svg>