<?xml version="1.0" encoding="utf-8"?>
<svg width="64px" height="64px" viewBox="0 0 64 64" version="1.1" xmlns="http://www.w3.org/2000/svg" xmlns:xlink="http://www.w3.org/1999/xlink">
  <g fill-rule="evenodd">
    <path d="M59.6238,5.3494 L40.248,5.3494 C40.162,5.3494 40.0781,5.3578 39.993,5.3619 L39.993,0.000317500369 L0.065272576,5.1126 L0.065272576,58.8875 L39.9933,64.0001 L39.9933,58.4743 C40.0784,58.4788 40.1616,58.4865 40.2484,58.4865 L59.6241,58.4865 C61.8906,58.4865 63.9985,56.6423 63.9985,54.3764 L63.9985,9.4595 C63.9982,7.1936 61.8903,5.3495 59.6238,5.3495 L59.6238,5.3494 Z M13.2013,28.1264 L13.201,28.1264 L10.0496,28.177 L10.0496,38.0384 L7.489,37.9731 L7.489,28.2202 L4.5325,28.2701 L4.5325,26.0099 L13.2013,25.7827 L13.2013,28.1264 L13.2013,28.1264 Z M21.3488,38.321 L20.2215,35.9949 C19.7642,35.1037 19.4704,34.4423 19.1242,33.7082 L19.0871,33.7059 C18.8311,34.4368 18.5239,35.088 18.1434,35.9619 L17.1354,38.2141 L14.0563,38.1383 L17.513,31.8723 L14.1767,25.7571 L17.281,25.6768 L18.3408,27.9466 L18.3408,27.9466 C18.6714,28.6321 18.9812,29.3275 19.2698,30.0317 L19.3056,30.032 C19.6004,29.2205 19.8378,28.6541 20.1501,27.9162 L21.2007,25.5741 L24.4685,25.4867 L20.9056,31.7939 L24.6592,38.4042 L21.3488,38.321 L21.3488,38.321 Z M35.7015,27.7523 L35.7008,27.7523 L31.9351,27.8144 L31.9351,38.5862 L28.8848,38.5082 L28.8848,27.8662 L25.3677,27.9251 L25.3677,25.4633 L35.7015,25.1913 L35.7015,27.7523 L35.7015,27.7523 Z M61.4493,54.3773 C61.4493,55.3482 60.5949,56.1389 59.6237,56.1389 L40.248,56.1389 C40.161,56.1389 40.0768,56.1252 39.993,56.113 L39.993,41.7684 L58.0295,41.7684 C58.4615,41.7684 58.812,41.4186 58.8129,40.9866 L58.8129,40.9866 C58.8127,40.5541 58.4621,40.2036 58.0295,40.2036 L39.993,40.2036 L39.993,35.4055 L58.0295,35.4055 C58.4619,35.4055 58.8129,35.0551 58.8129,34.6231 C58.8129,34.1911 58.4615,33.8413 58.0295,33.8413 L39.993,33.8413 L39.993,29.1914 L58.0295,29.1914 C58.4618,29.1916 58.8124,28.8415 58.8129,28.4093 L58.8129,28.4093 C58.8126,27.977 58.4619,27.6269 58.0296,27.6272 C58.0296,27.6272 58.0296,27.6272 58.0296,27.6272 L39.9931,27.6272 L39.9931,22.9334 L49.696,22.9334 C50.128,22.9333 50.4783,22.5834 50.479,22.1514 L50.479,22.1514 C50.4785,21.7193 50.1281,21.3693 49.696,21.3693 L39.9929,21.3693 L39.9929,7.7245 C40.0768,7.7123 40.1603,7.6985 40.248,7.6985 L59.6237,7.6985 C60.5949,7.6985 61.4493,8.4889 61.4493,9.4601 L61.4493,54.3773 L61.4493,54.3773 Z" fill-rule="nonzero"></path>
  </g>
</svg>