<?xml version="1.0" encoding="utf-8"?>
<svg width="64px" height="64px" viewBox="0 0 64 64" version="1.1" xmlns="http://www.w3.org/2000/svg" xmlns:xlink="http://www.w3.org/1999/xlink">
  <g fill-rule="evenodd">
    <path d="M0.0257144674,6.9858 L0.0257144674,57.1026 L35.9721,64 L35.9721,0.0880626025 L0.0257144674,6.9855 L0.0257144674,6.9858 Z M27.6106,26.7185 C26.6624,37.3703 15.1114,36.4975 15.1114,36.4975 L15.1114,46.0913 L9.5945,46.0913 L9.5945,18.075 C9.5945,18.075 18.2331,17.5937 21.0592,18.075 C28.076,19.2699 27.6106,26.7186 27.6106,26.7186 L27.6106,26.7185 Z M14.6775,22.4399 L14.6775,32.0442 C14.6775,32.0442 21.5445,32.0442 21.3148,27.2423 C21.1316,23.4081 19.3325,22.8769 14.6775,22.4399 Z M38.8815,8.2955 L38.8815,20.3009 C40.5622,18.6242 42.8665,17.5871 45.412,17.5871 L45.412,27.0166 L54.7217,27.0166 C54.7217,32.2244 50.5534,36.446 45.412,36.446 C42.8665,36.446 40.5622,35.409 38.8815,33.7323 L38.8815,40.4835 L57.0414,40.4835 L57.0414,43.1613 L38.8815,43.1613 L38.8815,47.5267 L57.0414,47.5267 L57.0414,50.2045 L38.8815,50.2045 L38.8815,55.7923 L63.9374,55.7923 L63.9374,8.2955 L38.8815,8.2955 Z M46.7546,25.5137 L46.7546,16.0842 C51.8965,16.0842 56.0643,20.3059 56.0643,25.5137 L46.7546,25.5137 Z" fill-rule="nonzero"></path>
  </g>
</svg>