<?xml version="1.0" encoding="utf-8"?>
<svg width="64px" height="64px" viewBox="0 0 64 64" version="1.1" xmlns="http://www.w3.org/2000/svg" xmlns:xlink="http://www.w3.org/1999/xlink">
  <g fill-rule="evenodd">
    <path d="M58.2831,12.5086 L50.4462,4.9685 C48.7245,3.33583364 45.3701,2 42.9656,2 L16.6942,2 C14.2897,2 12.3304,3.89985229 12.3304,6.2153 L12.3304,14.7349 L15.8333,14.7349 L15.8333,6.2153 C15.8333,5.7403 16.2489,5.3841 16.7239,5.3841 L42.9656,5.3841 C43.2327,5.3841 43.5296,5.4138 43.8264,5.4732 L43.8264,18.8909 L57.7488,18.8909 C57.8082,19.1877 57.8378,20.8798 57.8378,21.1173 L57.8378,57.1551 C57.8378,57.63 57.4223,57.9863 56.9473,57.9863 L16.6942,57.9863 C16.2192,57.9863 15.8333,57.6004 15.8333,57.1551 L15.8333,54.335 L12.3008,54.335 L12.3008,57.1551 C12.3008,59.4705 14.26,61.3704 16.6942,61.3704 L57.0067,61.3704 C59.4112,61.3704 61.4001,59.4705 61.4001,57.1551 L61.4001,21.1173 C61.3704,18.8018 59.9752,14.1709 58.2831,12.5086 Z M47.359,15.5068 L47.359,6.8981 C47.5668,7.0465 47.7746,7.1949 47.9824,7.4027 L55.7896,14.9427 C55.9677,15.1209 56.1458,15.3287 56.2942,15.5364 L47.359,15.5068 Z M38.8987,33.6741 L53.2663,33.6741 L53.2663,37.6222 L38.8987,37.6222 L38.8987,33.6741 Z M38.8987,41.5704 L53.2663,41.5704 L53.2663,45.5185 L38.8987,45.5185 L38.8987,41.5704 Z M38.8987,25.7482 L53.2663,25.7482 L53.2663,29.6963 L38.8987,29.6963 L38.8987,25.7482 Z M2,18.6831 L34.8615,18.6831 L34.8615,50.3572 L2,50.3572 L2,18.6831 Z M14.5503,45.7959 C14.3766,44.6952 14.3186,43.5945 14.3186,42.0303 L14.3186,37.1931 L19.851,37.1931 C22.6317,37.1931 24.6014,36.5269 26.0207,35.1076 C27.2952,33.7752 27.9614,31.9793 27.9614,29.7779 C27.9614,27.6924 27.3531,25.9545 26.1655,24.7959 C24.7752,23.4055 22.8055,22.7393 19.9959,22.7393 L13.9421,22.7393 C12.4069,22.7393 11.509,22.7103 10.2634,22.6524 C10.4372,23.9559 10.4952,24.9986 10.4952,26.389 L10.4952,42.0593 C10.4952,43.6234 10.4372,44.6372 10.2634,45.7959 L14.5503,45.7959 Z M14.3186,33.8621 L14.3186,26.0703 L19.851,26.0703 C21.3862,26.0703 22.3421,26.389 23.0083,27.1131 C23.6455,27.7793 23.9641,28.7352 23.9641,29.8938 C23.9641,32.4428 22.5159,33.8621 19.851,33.8621 L14.3186,33.8621 Z" fill-rule="nonzero"></path>
  </g>
</svg>