<?xml version="1.0" encoding="utf-8"?>
<svg width="64px" height="64px" viewBox="0 0 64 64" version="1.1" xmlns="http://www.w3.org/2000/svg" xmlns:xlink="http://www.w3.org/1999/xlink">
  <g fill-rule="evenodd">
    <path d="M54.7319,44.5501 L54.7319,14.85 C54.7319,14.3524 54.718,14.3003 54.7234,14.3058 L54.12,13.7 L42.0319,13.7 L42.0319,1.56631613 L41.4748,1.0071 C41.4655,0.997833907 41.4709,1 41.4319,1 L8.2818,1 C7.9149,1 7.6318,1.348 7.6318,2.2 L7.6318,44.5501 L54.7319,44.5501 Z M55.7319,62.6439 L55.7319,62.8501 C55.7319,63.2501 54.9819,64.0001 54.0819,64.0001 L8.2818,64.0001 C7.3818,64.0001 6.6318,63.2501 6.6318,62.8501 L6.6318,2.2 C6.6318,0.75 7.3818,-8.5265e-14 8.2818,-8.5265e-14 L41.4319,-8.5265e-14 C41.661,-8.4714e-14 41.861,0.0583592814 42.0319,0.175077844 L42.0319,0.15 L55.5819,13.7 L55.5188,13.7 C55.6609,13.8922 55.7319,14.1758 55.7319,14.85 L55.7319,44.5501 L55.7819,44.5501 L55.7819,62.3001 C55.7757,62.4181 55.7587,62.5331 55.7319,62.6439 Z M21.4818,38.1 C21.0818,38.1 20.6818,37.95 20.3818,37.75 C19.1818,36.85 19.0318,35.85 19.1318,35.2 C19.3318,33.35 21.6318,31.4 25.9818,29.4 C27.6819,25.65 29.3319,21 30.3319,17.1 C29.1819,14.6 28.0819,11.4 28.8819,9.5 C29.1819,8.85 29.5319,8.35 30.1819,8.1 C30.5819,8 30.9319,7.95 31.3319,7.9 C31.9319,7.9 32.4319,8.65 32.7819,9.1 C33.1319,9.55 33.8819,10.45 32.3319,16.85 C33.8819,20.05 36.0319,23.25 38.1319,25.5 C39.6319,25.25 40.9319,25.1 41.9819,25.1 C43.7819,25.1 44.8319,25.5 45.2819,26.4 C45.6319,27.1 45.4819,27.95 44.8319,28.85 C44.1819,29.75 43.3319,30.2 42.2819,30.2 C40.8819,30.2 39.2819,29.3 37.4819,27.6 C34.2319,28.3 30.4319,29.5 27.3819,30.85 C26.4318,32.9 25.5318,34.5 24.6818,35.7 C23.4818,37.3 22.4818,38.1 21.4818,38.1 Z M24.5318,32.25 C22.0818,33.6 21.0818,34.75 21.0318,35.4 C21.0318,35.5 20.9818,35.8 21.5318,36.2 C21.6818,36.1 22.6818,35.65 24.5318,32.25 Z M40.1319,27.15 C41.0819,27.85 41.2819,28.25 41.8819,28.25 C42.1319,28.25 42.9319,28.25 43.2819,27.75 C43.4319,27.5 43.5319,27.35 43.5319,27.3 C43.3819,27.25 43.1819,27.05 42.1819,27.05 C41.5819,27.05 40.8819,27.05 40.1319,27.15 Z M31.5819,19.65 C30.7319,22.6 29.6819,25.45 28.5319,28.3 C30.9319,27.35 33.4319,26.6 35.9319,26 C34.3819,24.15 32.8819,21.95 31.5819,19.65 Z M30.8819,9.95 C30.7819,10 29.3819,11.95 30.9819,13.65 C32.0819,11.2 30.9319,9.95 30.8819,9.95 Z M19.0318,60.5501 L18.9818,56.4501 L20.3818,56.4501 C20.9818,56.4501 21.5318,56.4001 22.0318,56.2001 C22.5318,56.0001 22.9818,55.7501 23.3318,55.4501 C23.7318,55.1001 23.9818,54.7001 24.1818,54.2501 C24.3818,53.7501 24.4818,53.2501 24.4818,52.6501 C24.4818,52.1001 24.3318,51.6001 24.1318,51.1501 C23.9318,50.7001 23.6318,50.3001 23.2318,50.0001 C22.8318,49.7001 22.4318,49.4501 21.9318,49.3001 C21.4318,49.1501 20.9818,49.0501 20.4818,49.0501 L17.1818,49.0501 L17.1818,60.5501 L19.0318,60.5501 Z M19.0318,50.5001 L20.3818,50.4501 C20.8318,50.4501 21.2318,50.5501 21.5318,50.7001 C21.8318,50.8001 22.0318,51.0001 22.2318,51.2501 C22.3818,51.4501 22.4818,51.7001 22.5318,51.9501 C22.5818,52.2001 22.6318,52.4001 22.6318,52.6001 C22.6318,53.1001 22.5818,53.4501 22.4818,53.8001 C22.3818,54.1501 22.1818,54.3501 22.0318,54.5501 C21.8818,54.7501 21.6318,54.8501 21.4318,54.9501 C21.1818,55.0001 20.9818,55.0501 20.7318,55.0501 L19.0318,55.0501 L19.0318,50.5001 Z M35.9819,54.5001 C35.9819,53.8001 35.8819,53.1501 35.6819,52.5501 C35.4319,51.9001 35.0819,51.3501 34.5819,50.8001 C34.0819,50.2501 33.4819,49.8501 32.7319,49.5501 C31.9819,49.2501 31.1319,49.1001 30.1819,49.1001 L26.6819,49.1001 L26.6819,60.6001 L31.0819,60.6001 C31.1819,60.6001 31.4319,60.6001 31.7319,60.5501 C32.0819,60.5001 32.4319,60.4001 32.7319,60.3001 C33.1319,60.1501 33.4819,59.9501 33.8819,59.7001 C34.2819,59.4501 34.6319,59.1001 34.9319,58.6501 C35.2319,58.2001 35.4819,57.6501 35.6819,56.9501 C35.8819,56.2501 35.9819,55.4501 35.9819,54.5001 Z M30.4319,59.2001 L28.5819,59.2001 L28.5819,50.5001 L29.6819,50.5001 C30.5819,50.5001 31.2819,50.7001 31.8819,50.9001 C32.4819,51.1001 32.9319,51.4501 33.2319,51.8001 C33.5319,52.1501 33.7819,52.6001 33.8819,53.0501 C33.9819,53.5001 34.0319,53.9501 34.0319,54.4501 C34.0319,56.0001 33.7319,57.2001 33.1819,58.0001 C32.6319,58.8001 31.6819,59.2001 30.4319,59.2001 Z M40.6319,50.5001 L40.6319,50.5501 L45.9319,50.5501 L45.9319,49.1501 L38.7319,49.1501 L38.7319,60.6501 L40.6319,60.6501 L40.6319,55.4501 L45.4319,55.4501 L45.4319,54.1501 L40.6319,54.1501 L40.6319,50.5001 Z" fill-rule="nonzero"></path>
  </g>
</svg>