<?xml version="1.0" encoding="utf-8"?>
<svg width="64px" height="64px" viewBox="0 0 64 64" version="1.1" xmlns="http://www.w3.org/2000/svg" xmlns:xlink="http://www.w3.org/1999/xlink">
  <g fill-rule="evenodd">
    <path d="M59.3521,12.5086 C61.0441,14.1709 62.4393,18.8018 62.469,21.1173 L62.469,57.1551 C62.469,59.4705 60.4801,61.3704 58.0756,61.3704 L17.7631,61.3704 C15.3289,61.3704 13.3697,59.4705 13.3697,57.1551 L13.3697,54.335 L16.9023,54.335 L16.9023,57.1551 C16.9023,57.6004 17.2882,57.9863 17.7631,57.9863 L58.0163,57.9863 C58.4912,57.9863 58.9068,57.63 58.9068,57.1551 L58.9068,21.1173 C58.9068,20.8798 58.8771,19.1877 58.8178,18.8909 L44.8954,18.8909 L44.8954,5.4732 C44.5985,5.4138 44.3017,5.3841 44.0345,5.3841 L17.7928,5.3841 C17.3179,5.3841 16.9023,5.7403 16.9023,6.2153 L16.9023,14.7349 L13.3994,14.7349 L13.3994,6.2153 C13.3994,3.89985229 15.3586,2 17.7631,2 L44.0345,2 C46.439,2 49.7935,3.33583364 51.5152,4.9685 L59.3521,12.5086 Z M48.4279,15.5068 L57.3632,15.5364 C57.2148,15.3287 57.0366,15.1209 56.8585,14.9427 L49.0513,7.4027 C48.8435,7.1949 48.6357,7.0465 48.4279,6.8981 L48.4279,15.5068 Z M39.9677,33.6741 L54.3353,33.6741 L54.3353,37.6222 L39.9677,37.6222 L39.9677,33.6741 Z M39.9677,41.5704 L54.3353,41.5704 L54.3353,45.5185 L39.9677,45.5185 L39.9677,41.5704 Z M39.9677,25.7482 L54.3353,25.7482 L54.3353,29.6963 L39.9677,29.6963 L39.9677,25.7482 Z M35.0439,51.6552 L1.94043887,51.6552 L1.94043887,18.5517 L35.0439,18.5517 L35.0439,51.6552 Z M7.5802,49.2953 C8.55,49.2953 9.5198,48.5194 10.6836,46.9677 C11.508,45.8039 12.3808,44.2522 13.3021,42.264 C16.2601,40.9548 19.9455,39.791 23.0974,39.1121 C24.8431,40.7608 26.3948,41.6337 27.7526,41.6337 C28.7709,41.6337 29.5953,41.1972 30.2257,40.3244 C30.856,39.4515 31.0015,38.6272 30.6621,37.9483 C30.2257,37.0755 29.2073,36.6875 27.4616,36.6875 C26.4433,36.6875 25.1825,36.833 23.7278,37.0755 C21.6912,34.8933 19.606,31.7899 18.1028,28.6864 C19.606,22.4795 18.8787,21.6067 18.5392,21.1703 C18.1998,20.7338 17.7149,20.0065 17.133,20.0065 C16.745,20.055 16.4056,20.1035 16.0177,20.2004 C15.3873,20.4429 15.0478,20.9278 14.7569,21.5582 C13.981,23.4009 15.0478,26.5043 16.1631,28.9289 C15.1933,32.7112 13.5931,37.2209 11.9444,40.8578 C7.7256,42.7974 5.495,44.6886 5.3011,46.4828 C5.2041,47.1132 5.3496,48.083 6.5133,48.9559 C6.8043,49.1498 7.1922,49.2953 7.5802,49.2953 Z M10.5381,43.6218 C8.744,46.9192 7.7741,47.3556 7.6286,47.4526 C7.0952,47.0647 7.1437,46.7737 7.1437,46.6768 C7.1922,46.0464 8.1621,44.9311 10.5381,43.6218 Z M25.6675,38.6757 C26.3948,38.5787 27.0737,38.5787 27.6556,38.5787 C28.6254,38.5787 28.8194,38.7727 28.9649,38.8212 C28.9649,38.8696 28.8679,39.0151 28.7224,39.2576 C28.383,39.7425 27.6071,39.7425 27.3647,39.7425 C26.7828,39.7425 26.5888,39.3546 25.6675,38.6757 Z M17.3754,31.402 C18.6362,33.6326 20.0909,35.7662 21.5942,37.5604 C19.1696,38.1423 16.745,38.8696 14.4175,39.791 C15.5328,37.027 16.5511,34.263 17.3754,31.402 Z M16.6965,21.9946 C16.5996,22.0431 15.2418,23.9343 16.7935,25.583 C17.8603,23.2069 16.745,21.9946 16.6965,21.9946 Z" fill-rule="nonzero"></path>
  </g>
</svg>