<?xml version="1.0" encoding="utf-8"?>
<svg width="64px" height="64px" viewBox="0 0 64 64" version="1.1" xmlns="http://www.w3.org/2000/svg" xmlns:xlink="http://www.w3.org/1999/xlink">
  <g fill-rule="evenodd">
    <path d="M52.9721,26.5171 C53.661,26.515 54.2177,25.9549 54.2156,25.2661 C54.2156,25.2661 54.2156,25.2661 54.2156,25.2661 L54.2156,10.2547 C54.2156,6.8074 51.4284,4 47.9992,4 L8.216,4 C4.7872,4 2,6.8074 2,10.2547 L2,52.7874 C2,56.2347 4.7873,59.0422 8.216,59.0422 L47.9992,59.0422 C51.4278,59.0422 54.2152,56.2347 54.2152,52.7874 L54.2152,45.2817 L54.2152,45.2817 C54.2172,44.5931 53.6608,44.0331 52.9722,44.0307 C52.2833,44.0328 51.7266,44.5928 51.7287,45.2816 C51.7287,45.2817 51.7287,45.2817 51.7287,45.2817 L51.7287,52.7874 C51.7287,54.8567 50.0554,56.5403 47.9992,56.5403 L8.216,56.5403 C6.1597,56.5403 4.4865,54.8563 4.4865,52.7874 L4.4865,16.5095 L51.7292,16.5095 L51.7292,25.2662 L51.7292,25.2661 C51.7271,25.9548 52.2835,26.5148 52.9721,26.5171 L52.9721,26.5171 Z M4.4865,14.0076 L4.4865,10.2547 C4.4865,8.1854 6.1597,6.5019 8.216,6.5019 L47.9992,6.5019 C50.0554,6.5019 51.7291,8.1858 51.7291,10.2547 L51.7291,14.0076 L4.4865,14.0076 Z M8.216,11.5057 C8.9048,11.5036 9.4615,10.9435 9.4594,10.2547 L9.4594,10.2547 C9.4615,9.5659 8.9048,9.0059 8.216,9.0038 C8.216,9.0038 8.216,9.0038 8.216,9.0038 C7.5273,9.0061 6.9709,9.5661 6.973,10.2547 L6.973,10.2547 C6.9709,10.9434 7.5273,11.5034 8.216,11.5057 L8.216,11.5057 Z M13.1889,11.5057 C13.8777,11.5036 14.4344,10.9436 14.4324,10.2547 C14.4324,10.2547 14.4324,10.2547 14.4324,10.2547 L14.4324,10.2547 C14.4345,9.5659 13.8778,9.0059 13.189,9.0038 C13.189,9.0038 13.189,9.0038 13.189,9.0038 C12.5003,9.0061 11.9438,9.5661 11.9459,10.2547 L11.9459,10.2547 C11.9438,10.9434 12.5003,11.5034 13.1889,11.5057 L13.1889,11.5057 Z M18.1619,11.5057 C18.8507,11.5036 19.4074,10.9435 19.4053,10.2547 L19.4053,10.2547 C19.4074,9.5659 18.8507,9.0059 18.1619,9.0038 C18.1619,9.0038 18.1619,9.0038 18.1619,9.0038 C17.4732,9.0061 16.9168,9.5661 16.9189,10.2547 L16.9189,10.2547 C16.9168,10.9434 17.4732,11.5034 18.1619,11.5057 L18.1619,11.5057 Z M28.1078,29.019 C28.7966,29.0213 29.3531,29.5816 29.3508,30.2704 C29.3508,30.2704 29.3508,30.2704 29.3508,30.2704 L29.3508,40.278 L29.3508,40.278 C29.3529,40.9666 28.7964,41.5266 28.1078,41.529 C27.419,41.5269 26.8623,40.9668 26.8644,40.278 C26.8644,40.278 26.8644,40.278 26.8644,40.278 L26.8644,36.5251 L21.8914,36.5251 L21.8914,40.278 L21.8914,40.278 C21.8935,40.9666 21.337,41.5266 20.6484,41.529 C19.9596,41.5269 19.4028,40.9669 19.4049,40.2781 C19.4049,40.278 19.4049,40.278 19.4049,40.278 L19.4049,30.2704 L19.4049,30.2703 C19.4026,29.5815 19.9591,29.0213 20.6479,29.019 C20.648,29.019 20.6482,29.019 20.6483,29.019 C21.3371,29.0212 21.8937,29.5815 21.8914,30.2703 C21.8914,30.2703 21.8914,30.2703 21.8914,30.2704 L21.8914,34.0232 L26.8648,34.0232 L26.8648,30.2704 L26.8648,30.2703 C26.8625,29.5815 27.419,29.0213 28.1078,29.019 C28.108,29.019 28.1081,29.019 28.1082,29.019 L28.1078,29.019 Z M38.0533,29.019 C38.7399,29.019 39.2972,29.5795 39.2972,30.27 L39.2972,30.27 C39.2993,30.9588 38.7426,31.5189 38.0538,31.5209 C38.0538,31.5209 38.0537,31.5209 38.0537,31.5209 L36.8103,31.5209 L36.8103,40.278 L36.8103,40.278 C36.8124,40.9666 36.2559,41.5266 35.5673,41.529 C34.8785,41.5269 34.3217,40.9669 34.3238,40.2781 C34.3238,40.278 34.3238,40.278 34.3238,40.278 L34.3238,31.5208 L33.0808,31.5208 C32.3922,31.5187 31.8356,30.959 31.8373,30.2704 L31.8373,30.2703 C31.835,29.5815 32.3914,29.0212 33.0802,29.0188 C33.0804,29.0188 33.0806,29.0188 33.0808,29.0188 L38.0533,29.0188 L38.0533,29.019 Z M50.9607,29.1171 C51.4266,29.312 51.7297,29.7678 51.7291,30.2728 L51.7291,40.2803 L51.7291,40.2803 C51.7299,40.968 51.1738,41.5266 50.4861,41.5289 C49.7973,41.5268 49.2406,40.9668 49.2426,40.278 C49.2426,40.2779 49.2426,40.2779 49.2426,40.2779 L49.2426,33.2899 L47.6362,34.906 C47.154,35.3914 46.3696,35.3941 45.8842,34.9119 C45.8823,34.9099 45.8803,34.908 45.8784,34.906 L44.2696,33.2899 L44.2696,40.2779 L44.2696,40.2779 C44.2717,40.9667 43.715,41.5268 43.0262,41.5289 C43.0262,41.5289 43.0262,41.5289 43.0262,41.5289 C42.3375,41.5266 41.7811,40.9666 41.7831,40.2779 L41.7831,30.2704 C41.7831,29.7649 42.0868,29.3072 42.5516,29.1142 C43.0163,28.9226 43.5507,29.0293 43.9062,29.3847 L46.7556,32.2542 L49.6051,29.387 C49.9585,29.027 50.4961,28.9197 50.9606,29.1166 L50.9607,29.1171 Z M60.4316,39.0266 C61.1204,39.0287 61.6771,39.5887 61.675,40.2776 C61.675,40.2776 61.675,40.2776 61.675,40.2776 L61.675,40.2776 C61.677,40.9664 61.1203,41.5264 60.4315,41.5285 L55.4586,41.5285 C54.7699,41.5262 54.2135,40.9662 54.2156,40.2775 L54.2156,30.2699 L54.2156,30.2699 C54.2135,29.5812 54.7699,29.0212 55.4586,29.0189 C56.1474,29.0209 56.7041,29.581 56.702,30.2698 C56.702,30.2698 56.702,30.2698 56.702,30.2699 L56.702,39.0266 L60.4315,39.0266 L60.4316,39.0266 Z" fill-rule="nonzero"></path>
  </g>
</svg>