<?xml version="1.0" encoding="utf-8"?>
<svg width="64px" height="64px" viewBox="0 0 64 64" version="1.1" xmlns="http://www.w3.org/2000/svg" xmlns:xlink="http://www.w3.org/1999/xlink">
  <g fill-rule="evenodd">
    <path d="M24.6928,52.8801 C24.1908,52.5961 24.0118,51.9791 24.2938,51.5021 L34.2529,35.471 C34.5339,34.993 35.1699,34.836 35.6719,35.12 C36.1739,35.404 36.3519,36.021 36.0709,36.498 L26.1118,52.5291 C25.8308,53.0071 25.1948,53.1631 24.6928,52.8801 Z M37.4679,49.7131 C37.4676,49.7128 37.4674,49.7126 37.4672,49.7124 C37.0796,49.3244 37.0799,48.6957 37.4679,48.3081 L41.7799,43.9961 L37.4709,39.687 C37.0832,39.2993 37.0832,38.6707 37.4709,38.283 C37.8586,37.8953 38.4872,37.8953 38.8749,38.283 L43.8499,43.2581 C43.8639,43.2691 43.8809,43.2741 43.8939,43.2871 C44.081,43.473 44.1858,43.7262 44.1849,43.9901 C44.1915,44.2592 44.0878,44.5193 43.8979,44.7101 C43.8789,44.7301 43.8529,44.7361 43.8319,44.7541 L38.8729,49.7131 C38.8722,49.7138 38.8715,49.7145 38.8708,49.7152 C38.4828,50.102 37.8547,50.101 37.4679,49.7131 Z M16.5288,44.7521 C16.5088,44.7351 16.4838,44.7291 16.4648,44.7111 C16.2747,44.5208 16.1706,44.261 16.1768,43.992 C16.1764,43.728 16.2811,43.4747 16.4678,43.288 C16.4808,43.275 16.4998,43.27 16.5138,43.257 L21.4868,38.284 C21.8746,37.8963 22.5031,37.8963 22.8908,38.284 C23.2786,38.6717 23.2786,39.3003 22.8908,39.688 L18.5818,43.997 L22.8938,48.3091 C22.8952,48.3104 22.8965,48.3117 22.8978,48.313 C23.2833,48.7007 23.2816,49.3275 22.8938,49.7131 C22.8925,49.7144 22.8912,49.7157 22.8899,49.717 C22.5022,50.1025 21.8754,50.1008 21.4898,49.7131 L16.5288,44.7521 Z M56.1819,8 C57.2865,8 58.1819,8.8954 58.1819,10 L58.1819,24 C58.1819,25.1046 57.2865,26 56.1819,26 L54.1819,26 L54.1819,62.0001 C54.1819,63.1046 53.2864,64.0001 52.1819,64.0001 L8.1818,64.0001 C7.0773,64.0001 6.1818,63.1046 6.1818,62.0001 L6.1818,2 C6.1818,0.895432292 7.0773,4.8282e-8 8.1818,-6.3949e-14 L52.1819,-6.3949e-14 C53.2864,-6.3949e-14 54.1819,0.895432292 54.1819,2 L54.1819,8 L56.1819,8 Z M52.1819,8 L52.1819,2 L8.1818,2 L8.1818,62.0001 L52.1819,62.0001 L52.1819,26 L22.1818,26 C21.0773,26 20.1818,25.1046 20.1818,24 L20.1818,10 C20.1818,8.8954 21.0773,8 22.1818,8 L52.1819,8 Z M31.7439,20.5 L31.7439,13.215 L30.0439,13.215 L30.0439,16.26 L27.0838,16.26 L27.0838,13.215 L25.3838,13.215 L25.3838,20.5 L27.0838,20.5 L27.0838,17.42 L30.0439,17.42 L30.0439,20.5 L31.7439,20.5 Z M38.2339,13.215 L32.4449,13.215 L32.4449,14.555 L34.4949,14.555 L34.4949,20.5 L36.1839,20.5 L36.1839,14.555 L38.2339,14.555 L38.2339,13.215 Z M42.8519,17.564 C42.7889,17.428 42.7259,17.296 42.6579,17.168 L40.7829,13.469 C40.7557,13.4154 40.721,13.3659 40.6799,13.322 C40.6459,13.286 40.6059,13.261 40.5629,13.244 C40.5199,13.227 40.4699,13.219 40.4159,13.219 L38.9339,13.219 L38.9339,20.499 L40.4239,20.499 L40.4239,16.309 C40.4212,16.0868 40.4079,15.8649 40.3839,15.644 L42.3229,19.394 C42.4325,19.6187 42.6641,19.7578 42.9139,19.749 L43.1429,19.749 C43.2729,19.749 43.3899,19.719 43.4909,19.659 C43.5919,19.599 43.6729,19.511 43.7329,19.394 L45.6639,15.649 C45.6439,15.886 45.6339,16.106 45.6339,16.309 L45.6339,20.499 L47.1239,20.499 L47.1239,13.219 L45.6419,13.219 C45.5428,13.2134 45.4461,13.251 45.3769,13.322 C45.3349,13.3652 45.3001,13.4148 45.2739,13.469 L43.4039,17.153 C43.2647,17.4234 43.1396,17.7008 43.0289,17.984 C42.9719,17.841 42.9139,17.701 42.8519,17.564 Z M50.0139,19.15 L50.0129,19.15 L50.0129,13.215 L48.3229,13.215 L48.3229,20.5 L52.7139,20.5 L52.7139,19.15 L50.0139,19.15 Z" fill-rule="nonzero"></path>
  </g>
</svg>