<?xml version="1.0" encoding="utf-8"?>
<svg width="64px" height="64px" viewBox="0 0 64 64" version="1.1" xmlns="http://www.w3.org/2000/svg" xmlns:xlink="http://www.w3.org/1999/xlink">
  <g fill-rule="evenodd">
    <path d="M38.6499,32.2503 L19.4494,17.85 L19.4494,46.6507 L38.6499,32.2503 Z M38.1163,16.7829 L44.5163,16.7829 L44.5163,46.6496 L38.1163,46.6496 L38.1163,16.7829 Z M32.2503,0.25034695 C14.5859,0.25034695 0.25034695,14.5859 0.25034695,32.2503 C0.25034695,49.9148 14.5859,64.2503 32.2503,64.2503 C49.9148,64.2503 64.2503,49.9148 64.2503,32.2503 C64.2503,14.5859 49.9148,0.25034695 32.2503,0.25034695 Z M32.2503,57.8518 C18.138,57.8518 6.6489,46.3627 6.6489,32.2503 C6.6489,18.138 18.138,6.6489 32.2503,6.6489 C46.3627,6.6489 57.8518,18.138 57.8518,32.2503 C57.8518,46.3627 46.3627,57.8518 32.2503,57.8518 Z" fill-rule="nonzero"></path>
  </g>
</svg>