<?xml version="1.0" encoding="utf-8"?>
<svg width="64px" height="64px" viewBox="0 0 64 64" version="1.1" xmlns="http://www.w3.org/2000/svg" xmlns:xlink="http://www.w3.org/1999/xlink">
  <g fill-rule="evenodd">
    <path d="M37.7995,46.4004 L18.599,32 L37.7995,17.5996 L37.7995,46.4004 Z M32,8.5267e-15 C14.3356,4.2634e-15 0,14.3356 0,32 C0,49.6644 14.3356,64 32,64 C49.6644,64 64,49.6644 64,32 C64,14.3356 49.6644,0 32,8.5267e-15 Z M32,57.6014 C17.8876,57.6014 6.3986,46.1124 6.3986,32 C6.3986,17.8876 17.8876,6.3986 32,6.3986 C46.1124,6.3986 57.6014,17.8876 57.6014,32 C57.6014,46.1124 46.1124,57.6014 32,57.6014 Z" fill-rule="nonzero"></path>
  </g>
</svg>