<?xml version="1.0" encoding="utf-8"?>
<svg width="64px" height="64px" viewBox="0 0 64 64" version="1.1" xmlns="http://www.w3.org/2000/svg" xmlns:xlink="http://www.w3.org/1999/xlink">
  <g fill-rule="evenodd">
    <path d="M0.030937536,31.711 C0.030937536,14.2146 14.2146,0.0309423196 31.711,0.0309423196 C49.2074,0.0309423196 63.391,14.2146 63.391,31.711 C63.391,49.2074 49.2074,63.391 31.711,63.391 C14.2146,63.391 0.0309401779,49.2074 0.030937536,31.711 Z M53.5643,41.2737 L53.5642,41.2737 C54.3747,40.4533 54.3773,39.1346 53.5701,38.311 L31.7109,16.4577 L9.8575,38.2875 C9.0749,39.1044 9.0749,40.3928 9.8575,41.2097 C10.6644,42.052 12.0014,42.0806 12.8437,41.2737 L31.7109,22.4064 L50.5782,41.2737 C51.4029,42.098 52.7396,42.098 53.5643,41.2737 Z"></path>
  </g>
</svg>