<?xml version="1.0" encoding="utf-8"?>
<svg width="64px" height="64px" viewBox="0 0 64 64" version="1.1" xmlns="http://www.w3.org/2000/svg" xmlns:xlink="http://www.w3.org/1999/xlink">
  <g fill-rule="evenodd">
    <path d="M3.6834e-13,31.9688 C3.6834e-13,14.3129 14.3129,4.0457e-14 31.9688,3.5527e-14 C49.6246,3.5527e-14 63.9376,14.3129 63.9376,31.9688 C63.9376,49.6246 49.6246,63.9376 31.9688,63.9376 C14.3129,63.9376 2.6659646e-6,49.6246 3.5527e-15,31.9688 Z M54.0213,41.6186 L54.0212,41.6186 C54.8391,40.7908 54.8417,39.46 54.0272,38.629 L31.9687,16.5765 L9.9161,38.6053 C9.1264,39.4296 9.1264,40.7298 9.9161,41.5541 C10.7304,42.404 12.0796,42.4329 12.9295,41.6186 L31.9687,22.5794 L51.0079,41.6186 C51.8402,42.4505 53.1891,42.4505 54.0213,41.6186 Z" transform="translate(31.9688, 31.9688) scale(1, -1) translate(-31.9688, -31.9688) "></path>
  </g>
</svg>