<?xml version="1.0" encoding="utf-8"?>
<svg width="64px" height="64px" viewBox="0 0 64 64" version="1.1" xmlns="http://www.w3.org/2000/svg" xmlns:xlink="http://www.w3.org/1999/xlink">
  <g fill-rule="evenodd">
    <path d="M1.4439304,32.0653 C1.4439304,15.1216 15.1803,1.38054283 32.1287,1.38054283 C49.0773,1.38054283 62.8136,15.1216 62.8136,32.0653 C62.8136,49.0138 49.0773,62.7501 32.1287,62.7502 C15.1802,62.7502 1.44386165,49.0138 1.44386165,32.0653 L1.4439304,32.0653 Z M58.9781,32.0653 C58.9781,17.2359 46.9582,5.216 32.1288,5.216 C17.2993,5.216 5.2748,17.2335 5.2748,32.0653 C5.2748,46.8971 17.2993,58.9169 32.1288,58.9169 C46.9583,58.9169 58.9781,46.8947 58.9781,32.0653 Z M15.7604,40.7626 C15.0076,40.0146 15.0076,38.8016 15.7604,38.0538 L30.4412,23.3706 C30.9062,22.9104 31.5343,22.7665 32.1288,22.872 C32.7233,22.7665 33.3562,22.9128 33.8165,23.3706 L48.5021,38.0538 C49.25,38.8041 49.25,40.0171 48.5021,40.7626 C47.7541,41.5153 46.5364,41.5153 45.7884,40.7626 L32.1288,27.1077 L18.474,40.7625 C17.7213,41.5153 16.5083,41.5153 15.7604,40.7626 L15.7604,40.7626 Z" fill-rule="nonzero"></path>
  </g>
</svg>