<?xml version="1.0" encoding="utf-8"?>
<svg width="64px" height="64px" viewBox="0 0 64 64" version="1.1" xmlns="http://www.w3.org/2000/svg" xmlns:xlink="http://www.w3.org/1999/xlink">
  <g fill-rule="evenodd">
    <path d="M1.00006875,31.6847 C1.00006875,14.741 14.7365,1 31.6849,1 C48.6334,1 62.3697,14.741 62.3697,31.6847 C62.3697,48.6333 48.6334,62.3696 31.6849,62.3696 C14.7363,62.3696 1,48.6333 1,31.6847 L1.00006875,31.6847 Z M58.5342,31.6847 C58.5342,16.8553 46.5143,4.8355 31.6849,4.8355 C16.8554,4.8355 4.8309,16.8529 4.8309,31.6847 C4.8309,46.5165 16.8555,58.5364 31.6849,58.5364 C46.5144,58.5363 58.5342,46.5141 58.5342,31.6847 Z M15.3166,40.382 C14.5638,39.634 14.5638,38.421 15.3166,37.6732 L29.9973,22.9901 C30.4623,22.5298 31.0905,22.3859 31.6849,22.4915 C32.2794,22.3859 32.9123,22.5323 33.3726,22.9901 L48.0582,37.6732 C48.8061,38.4236 48.8061,39.6365 48.0582,40.382 C47.3103,41.1347 46.0925,41.1347 45.3445,40.382 L31.6849,26.7272 L18.0302,40.382 C17.2775,41.1348 16.0644,41.1348 15.3165,40.382 L15.3166,40.382 Z" fill-rule="nonzero" transform="translate(31.6848, 31.6848) scale(1, -1) translate(-31.6848, -31.6848) "></path>
  </g>
</svg>