<?xml version="1.0" encoding="utf-8"?>
<svg width="64px" height="64px" viewBox="0 0 64 64" version="1.1" xmlns="http://www.w3.org/2000/svg" xmlns:xlink="http://www.w3.org/1999/xlink">
  <g fill-rule="evenodd">
    <path d="M9.168,38.7192 L29.1055,58.6567 C30.6626,60.2138 33.1867,60.2138 34.7438,58.6567 L54.6813,38.7192 C56.2384,37.1621 56.2384,34.638 54.6813,33.0808 C53.1242,31.5237 50.6001,31.5237 49.043,33.0808 L35.9121,46.2117 L35.9121,7.9875 C35.9121,5.7844 34.1277,4 31.9246,4 C29.7215,4 27.9371,5.7844 27.9371,7.9875 L27.9371,46.2117 L14.8062,33.0808 C14.0286,32.3032 13.0078,31.9124 11.987,31.9124 C10.9662,31.9124 9.9454,32.3013 9.1678,33.0808 C7.6107,34.6379 7.6107,37.162 9.1678,38.7192 L9.168,38.7192 Z" transform="translate(31.9246, 31.9123) scale(1, -1) translate(-31.9246, -31.9123) "></path>
  </g>
</svg>