<?xml version="1.0" encoding="utf-8"?>
<svg width="64px" height="64px" viewBox="0 0 64 64" version="1.1" xmlns="http://www.w3.org/2000/svg" xmlns:xlink="http://www.w3.org/1999/xlink">
  <g fill-rule="evenodd">
    <path d="M8.9911,38.8067 L29.0961,58.7442 C30.6663,60.3013 33.2117,60.3013 34.7819,58.7442 L54.887,38.8067 C56.4571,37.2496 56.4571,34.7255 54.887,33.1683 C53.3168,31.6112 50.7714,31.6112 49.2012,33.1683 L35.96,46.2992 L35.96,8.075 C35.96,5.8719 34.1606,4.0875 31.939,4.0875 C29.7174,4.0875 27.918,5.8719 27.918,8.075 L27.918,46.2992 L14.6767,33.1683 C13.8926,32.3907 12.8632,31.9999 11.8339,31.9999 C10.8045,31.9999 9.7751,32.3888 8.991,33.1683 C7.4208,34.7254 7.4208,37.2495 8.991,38.8067 L8.9911,38.8067 Z"></path>
  </g>
</svg>