<?xml version="1.0" encoding="utf-8"?>
<svg width="64px" height="64px" viewBox="0 0 64 64" version="1.1" xmlns="http://www.w3.org/2000/svg" xmlns:xlink="http://www.w3.org/1999/xlink">
  <g fill-rule="evenodd">
    <path d="M52.3143,52.5233 C41.0409,63.7913 22.7503,63.7913 11.4768,52.5233 C7.9958,49.0368 5.5871,44.8793 4.2562,40.4689 L13.044,40.4689 C14.0394,42.7236 15.4637,44.8408 17.3115,46.6886 C25.3625,54.7395 38.4287,54.7395 46.4796,46.6886 C54.5305,38.6376 54.5306,25.5714 46.4796,17.5205 C38.4286,9.4696 25.3624,9.4695 17.3115,17.5205 C16.7671,18.0704 16.2611,18.6423 15.7882,19.2307 L23.6466,27.0947 C23.1022,27.6391 22.3543,27.9801 21.5239,27.9801 L6.2415,27.9801 C4.5807,27.9801 3.2334,26.6327 3.2334,24.972 L3.2334,9.6896 C3.2334,8.8593 3.5744,8.1058 4.1188,7.5614 L9.926,13.3741 C10.4155,12.7967 10.9324,12.2357 11.4768,11.6858 C22.7503,0.417807542 41.0408,0.417807542 52.3143,11.6858 C63.5824,22.9593 63.5824,41.2499 52.3143,52.5234 L52.3143,52.5233 Z"></path>
  </g>
</svg>