<?xml version="1.0" encoding="utf-8"?>
<svg width="64px" height="64px" viewBox="0 0 64 64" version="1.1" xmlns="http://www.w3.org/2000/svg" xmlns:xlink="http://www.w3.org/1999/xlink">
  <g fill-rule="evenodd">
    <path d="M43.7337,48.9895 L43.7337,48.9895 C40.2576,51.5165 36.0562,52.8489 31.7592,52.787 L31.7592,52.787 C31.1993,52.7803 30.64,52.7518 30.0823,52.7017 C29.8583,52.6782 29.6343,52.6398 29.4061,52.6121 C28.9709,52.5502 28.5356,52.4905 28.1154,52.4051 C27.8508,52.356 27.5948,52.2878 27.3388,52.2259 L27.3388,52.2259 C26.9246,52.1294 26.5134,52.0206 26.1057,51.8995 C25.9116,51.8355 25.7217,51.7651 25.5276,51.699 L25.5276,51.699 C25.059,51.5422 24.5964,51.3679 24.1409,51.1763 C24.0385,51.1336 23.9382,51.0824 23.8401,51.0355 L23.8401,51.0355 C23.3095,50.7997 22.7892,50.5413 22.2806,50.261 L22.2102,50.2248 L22.2102,50.2248 C20.4972,49.2543 18.9312,48.0445 17.5595,46.6321 C17.536,46.6108 17.5147,46.583 17.4912,46.5574 L17.4912,46.5574 C17.0634,46.1157 16.6562,45.6543 16.2709,45.175 L16.0299,44.855 L16.0299,44.855 C13.1166,41.0992 11.5386,36.4793 11.5455,31.726 L16.2901,31.726 C16.4833,31.7235 16.638,31.5649 16.6355,31.3717 C16.6347,31.3049 16.6148,31.2399 16.5781,31.1841 L8.6015,18.8573 C8.5387,18.7587 8.4303,18.6985 8.3135,18.6973 C8.1973,18.6992 8.0899,18.7593 8.0276,18.8573 L0.0573504704,31.1798 C-0.012474283,31.2875 -0.0189937498,31.4244 0.0402835846,31.5382 C0.104284485,31.6556 0.221619262,31.7239 0.343220973,31.7239 L5.0878,31.7239 C5.0878,37.5587 6.8542,42.9669 9.8516,47.4385 C9.89,47.5025 9.9156,47.5665 9.954,47.6305 C10.2676,48.0871 10.6111,48.5095 10.946,48.9426 C11.0676,49.1047 11.185,49.2733 11.3151,49.4333 C11.8058,50.0477 12.3263,50.6237 12.8618,51.189 C12.9151,51.2445 12.9599,51.3 13.0111,51.3491 L13.0111,51.3491 C14.7928,53.1891 16.8305,54.7627 19.0613,56.0212 C19.1168,56.0575 19.1744,56.0938 19.2363,56.1279 C19.8742,56.4799 20.5291,56.7999 21.1947,57.1029 C21.3611,57.1754 21.5211,57.2565 21.6897,57.329 C22.2571,57.5701 22.8417,57.7834 23.4305,57.9882 C23.7078,58.0842 23.983,58.1824 24.2625,58.272 C24.7809,58.4298 25.3057,58.56 25.8326,58.6901 C26.1868,58.7754 26.5324,58.865 26.8929,58.9354 C27.0401,58.9674 27.1809,59.0144 27.326,59.0379 C27.8273,59.1275 28.3287,59.1787 28.8279,59.2427 C29.0071,59.264 29.1863,59.296 29.3634,59.3152 C30.2636,59.4069 31.1575,59.4667 32.0514,59.4667 C37.5235,59.4667 42.8612,57.7429 47.4394,54.4361 C48.9039,53.3544 49.254,51.3098 48.233,49.8023 C47.2651,48.3433 45.2977,47.9452 43.8387,48.9131 C43.8025,48.9371 43.7668,48.9619 43.7316,48.9874 L43.7337,48.9895 Z M58.9147,31.726 L58.9147,31.7257 C58.9242,26.1444 57.2741,20.6864 54.1742,16.0452 C54.1316,15.9705 54.0996,15.8937 54.0526,15.8233 C53.6814,15.2772 53.2782,14.7694 52.875,14.2574 C52.8281,14.1955 52.7833,14.1294 52.7342,14.0697 C50.0593,10.7068 46.6123,8.0392 42.6861,6.2934 C42.5794,6.2465 42.4727,6.191 42.3661,6.1441 L42.3661,6.1441 C41.7433,5.8845 41.1122,5.6455 40.4738,5.4272 C40.2434,5.3504 40.0151,5.2651 39.7804,5.1926 L39.7804,5.1926 C39.2218,5.0238 38.6576,4.8744 38.0887,4.7446 C37.773,4.6678 37.4615,4.58455339 37.1415,4.5227 C36.9836,4.4907 36.8364,4.4416 36.6807,4.4139 C36.254,4.3371 35.8273,4.30294367 35.4007,4.2475 C35.1084,4.2091 34.8183,4.1621 34.5196,4.1301 L34.5196,4.1301 C33.8101,4.06634873 33.0985,4.03005373 32.3862,4.0213 C32.2582,4.0213 32.1302,4 32.0022,4 C31.9809,4 31.9596,4.0064 31.934,4.0085 C26.4704,4.0128 21.1412,5.7131 16.5695,9.0135 L16.5695,9.0135 C15.102,10.0941 14.7506,12.1412 15.7737,13.6494 L15.7737,13.6494 C16.7416,15.1084 18.709,15.5066 20.168,14.5387 C20.2042,14.5146 20.2399,14.4899 20.2751,14.4644 L20.2751,14.4644 C23.7237,11.9559 27.8874,10.6231 32.1516,10.6626 C32.7617,10.669 33.3569,10.6989 33.9479,10.7565 C34.1335,10.7778 34.3105,10.8056 34.4919,10.829 C34.9804,10.8888 35.4604,10.9613 35.9361,11.0573 C36.1452,11.1 36.3543,11.1554 36.557,11.2024 C37.0242,11.3091 37.4892,11.4264 37.9436,11.5693 C38.0887,11.6163 38.2295,11.6696 38.3746,11.7187 C38.8951,11.8936 39.405,12.0813 39.9085,12.2968 L40.0621,12.3672 L40.0621,12.3672 C43.0704,13.7082 45.7135,15.7508 47.7699,18.3237 L47.8083,18.3749 L47.8083,18.3749 C50.8273,22.1682 52.4659,26.8756 52.4548,31.7236 L47.7123,31.7236 C47.518,31.7275 47.3635,31.8882 47.3674,32.0825 C47.3687,32.1483 47.3884,32.2125 47.4243,32.2676 L55.3988,44.5902 C55.461,44.6892 55.5699,44.7489 55.6868,44.7481 C55.8063,44.7481 55.9108,44.6862 55.9748,44.5902 L63.9429,32.2676 C64.049,32.1047 64.0029,31.8866 63.84,31.7806 C63.7849,31.7446 63.7207,31.7249 63.6549,31.7236 L58.9146,31.7236 L58.9147,31.726 Z" fill-rule="nonzero"></path>
  </g>
</svg>