<?xml version="1.0" encoding="utf-8"?>
<svg width="64px" height="64px" viewBox="0 0 64 64" version="1.1" xmlns="http://www.w3.org/2000/svg" xmlns:xlink="http://www.w3.org/1999/xlink">
  <g fill-rule="evenodd">
    <path d="M11.7652,18.8369 C18.4018,4.5658 34.8357,-1.12401452 51.8124,13.8478 L55.6552,8.9516 L57.3073,19.3614 L58.9502,29.7619 L37.9961,31.3955 L42.2844,25.9192 C32.8818,17.0641 23.8643,16.4236 15.0185,19.3336 C13.9186,19.1712 12.8325,18.9994 11.7652,18.837 L11.7652,18.8369 Z M52.2626,44.7243 C45.5889,58.9768 29.1643,64.6852 12.2154,49.6949 L8.3634,54.5958 L6.6881,44.1906 L5.0359,33.7994 L26.0411,32.1704 L21.7156,37.6236 C31.1322,46.5065 40.1543,47.1237 49.0001,44.223 C50.0908,44.3808 51.1767,44.548 52.2627,44.7243 L52.2626,44.7243 Z"></path>
  </g>
</svg>