<?xml version="1.0" encoding="utf-8"?>
<svg width="64px" height="64px" viewBox="0 0 64 64" version="1.1" xmlns="http://www.w3.org/2000/svg" xmlns:xlink="http://www.w3.org/1999/xlink">
  <g fill-rule="evenodd">
    <path d="M52.3714,0.187408968 C58.7745,0.187408968 63.9719,5.3849 63.9657,11.788 L63.9657,52.3995 C63.9657,58.8026 58.7745,64 52.3651,64 L11.7536,64 C5.3505,64 0.153062678,58.8089 0.153062678,52.3995 L0.153062678,11.788 C0.153062678,5.3849 5.3505,0.187408968 11.7536,0.187408968 L52.3714,0.187408968 Z M32.075,50.0756 C22.3735,50.0756 14.4586,42.4481 13.99,32.859 L16.8886,32.859 C17.1135,32.859 17.3259,32.7403 17.4321,32.5404 C17.5445,32.3405 17.5383,32.1032 17.4196,31.9095 L12.3096,23.6198 C12.1971,23.4386 11.9972,23.3262 11.7786,23.3262 C11.56,23.3262 11.36,23.4386 11.2476,23.6198 L6.1313,31.9095 C6.0127,32.1032 6.0064,32.3468 6.1189,32.5404 C6.2313,32.7403 6.4374,32.859 6.6623,32.859 L9.6421,32.859 C10.1107,44.8469 19.9746,54.4173 32.075,54.4173 C37.8034,54.4236 43.3132,52.2371 47.4737,48.3015 L44.4939,45.1406 C41.1393,48.3203 36.6915,50.0819 32.075,50.0757 L32.075,50.0756 Z M57.9874,31.3223 C57.8749,31.1224 57.6688,31.0037 57.4439,31.0037 L54.5016,31.0037 C53.9956,19.0532 44.1441,9.5204 32.075,9.5204 C26.7463,9.5142 21.5926,11.4008 17.5383,14.8553 L20.3557,18.1725 C23.6229,15.3863 27.7771,13.8621 32.075,13.8683 C41.6953,13.8683 49.6414,21.3959 50.1537,31.0099 L47.2176,31.0099 C46.9927,31.0099 46.7803,31.1286 46.6741,31.3285 C46.5617,31.5284 46.5679,31.7658 46.6866,31.9595 L51.8029,40.2554 C51.9153,40.4366 52.1152,40.549 52.3339,40.549 C52.5525,40.549 52.7524,40.4366 52.8649,40.2554 L57.9749,31.9532 C58.0936,31.7596 58.0998,31.5222 57.9874,31.3223 Z"></path>
  </g>
</svg>