<?xml version="1.0" encoding="utf-8"?>
<svg width="64px" height="64px" viewBox="0 0 64 64" version="1.1" xmlns="http://www.w3.org/2000/svg" xmlns:xlink="http://www.w3.org/1999/xlink">
  <g fill-rule="evenodd">
    <path d="M47.6871,32.0322 L47.6871,32.0385 L41.5636,32.0385 L51.2908,41.7067 L61,32.0385 L54.8954,32.0385 C54.897,31.9887 54.8985,31.9278 54.8985,31.8929 C54.8985,17.5929 43.2803,6 28.9493,6 C14.6185,6 3,17.5929 3,31.8929 C3,46.1931 14.6185,57.7857 28.9493,57.7857 C37.2259,57.7857 44.5916,53.9147 49.343,47.8925 L47.2214,45.7837 L44.1832,42.7644 C40.7801,47.4997 35.2214,50.5932 28.9492,50.5932 C18.6148,50.5932 10.2084,42.2042 10.2084,31.8928 C10.2084,21.5816 18.6148,13.1927 28.9492,13.1927 C39.2838,13.1927 47.6903,21.5816 47.6903,31.8928 C47.6903,31.9262 47.6886,31.984 47.6879,32.0322 L47.6871,32.0322 Z"></path>
  </g>
</svg>