<?xml version="1.0" encoding="utf-8"?>
<svg width="64px" height="64px" viewBox="0 0 64 64" version="1.1" xmlns="http://www.w3.org/2000/svg" xmlns:xlink="http://www.w3.org/1999/xlink">
  <g fill-rule="evenodd">
    <path d="M7.9744,12.5498 C13.1104,7.4138 19.9424,4.5818 27.2064,4.5818 C34.4704,4.5818 41.3024,7.4106 46.4384,12.5498 C51.5744,17.689 54.4064,24.5178 54.4064,31.7819 L54.4064,35.9195 L61.2736,29.0523 C61.9092,28.4384 62.9221,28.456 63.536,29.0916 C64.1349,29.7116 64.1349,30.6946 63.536,31.3147 L53.936,40.9147 C53.317,41.5403 52.308,41.5457 51.6824,40.9266 C51.6784,40.9227 51.6744,40.9187 51.6704,40.9147 L42.0704,31.3147 C41.4565,30.6791 41.4741,29.6662 42.1097,29.0523 C42.7298,28.4534 43.7128,28.4534 44.3328,29.0523 L51.2,35.9195 L51.2,31.7819 C51.2,18.5467 40.4352,7.7818 27.2,7.7818 C13.9648,7.7818 3.19995387,18.5467 3.19995387,31.7819 C3.19995387,45.0171 13.9648,55.7819 27.2,55.7819 C28.0836,55.7819 28.8,56.4982 28.8,57.3819 C28.8,58.2655 28.0836,58.9819 27.2,58.9819 C19.936,58.9819 13.104,56.1531 7.968,51.0139 C2.83195338,45.8747 -4.9919e-5,39.0459 -4.9919e-5,31.7819 C-4.9919e-5,24.5178 2.82875337,17.6858 7.968,12.5498 L7.9744,12.5498 Z"></path>
  </g>
</svg>