<?xml version="1.0" encoding="utf-8"?>
<svg width="64px" height="64px" viewBox="0 0 64 64" version="1.1" xmlns="http://www.w3.org/2000/svg" xmlns:xlink="http://www.w3.org/1999/xlink">
  <g fill-rule="evenodd">
    <path d="M53.0037,5.0082 L10.9964,5.0082 C7.0297,5.0082 3.79675322,8.2342 3.79675322,12.2079 L3.79675322,36.3198 C3.79675322,37.5106 4.7659,38.4797 5.9567,38.4797 C7.1474,38.4797 8.1165,37.5106 8.1165,36.3198 L8.1165,12.2079 C8.1165,10.6226 9.4111,9.328 10.9964,9.328 L53.0037,9.328 C54.589,9.328 55.8835,10.6226 55.8835,12.2079 L55.8835,51.7922 C55.8835,53.3775 54.589,54.6721 53.0037,54.6721 L25.0288,54.6721 C23.8381,54.6721 22.8689,55.6412 22.8689,56.8319 C22.8689,58.0227 23.8381,58.9918 25.0288,58.9918 L53.0037,58.9918 C56.9704,58.9918 60.2033,55.7658 60.2033,51.7922 L60.2033,12.2079 C60.2033,8.2412 56.9704,5.0082 53.0037,5.0082 Z M33.4815,43.2703 L33.4815,47.4239 C33.4746,48.7323 34.9907,49.4592 36.0083,48.6354 L51.5291,36.0845 C52.2975,35.4614 52.2975,34.2845 51.5222,33.6684 L36.0775,19.7814 C35.0668,18.9645 33.4815,19.6845 33.4815,20.9859 L33.4815,25.195 C33.4815,25.9842 32.9415,26.5588 32.1731,26.7318 C11.571,31.4255 6.3582,55.5789 6.5382,57.2404 C13.2463,50.8922 20.0168,41.0827 31.9793,41.7127 C32.8238,41.7611 33.4815,42.4257 33.4815,43.2703 Z" fill-rule="nonzero"></path>
  </g>
</svg>