<?xml version="1.0" encoding="utf-8"?>
<svg width="64px" height="64px" viewBox="0 0 64 64" version="1.1" xmlns="http://www.w3.org/2000/svg" xmlns:xlink="http://www.w3.org/1999/xlink">
  <g fill-rule="evenodd">
    <path d="M29.2305,26.4414 L22.2037,30.5075 C21.7005,30.7977 21.3954,31.334 21.4621,31.9 C21.4845,32.0832 21.542,32.263 21.6347,32.4201 C21.8108,32.7301 22.1159,32.9664 22.4957,33.0589 L42.5508,40.7277 C43.3105,40.9198 44.1096,40.4566 44.3262,39.7052 L47.7795,18.4257 C47.9378,17.8752 47.7444,17.2888 47.2942,16.9528 C46.8389,16.6143 46.2257,16.6073 45.7215,16.9003 L38.5624,21.0407 C30.5248,7.0914 19.3378,-2.0423 2.6047,12.0167 L2.6047,13.5646 L2.6049,13.5629 C13.8172,7.9794 21.3435,12.7471 29.2305,26.4414 L29.2305,26.4414 Z M52.3509,4.9378 L43.3067,4.9378 L43.3067,9.1351 L52.3509,9.1351 C54.8509,9.1351 56.8737,11.1398 56.8737,13.6127 L56.8737,49.9888 C56.8737,52.4626 54.8507,54.466 52.3509,54.466 L11.6499,54.466 C9.1546,54.466 7.1276,52.4636 7.1276,49.9888 L7.1276,27.3232 L2.60512803,27.3232 L2.60512803,49.7084 C2.60512803,54.6532 6.6555,58.6624 11.6506,58.6624 L11.6503,58.6615 L52.3509,58.6615 C57.3461,58.6615 61.3954,54.6521 61.3954,49.7078 L61.3954,13.8917 C61.3954,8.9467 57.3461,4.9379 52.3509,4.9379 L52.3509,4.9378 Z" fill-rule="nonzero"></path>
  </g>
</svg>