<?xml version="1.0" encoding="utf-8"?>
<svg width="64px" height="64px" viewBox="0 0 64 64" version="1.1" xmlns="http://www.w3.org/2000/svg" xmlns:xlink="http://www.w3.org/1999/xlink">
  <g fill-rule="evenodd">
    <path d="M59.4453,5.5675 C59.8067,5.9289 59.9749,6.446 59.8876,6.9445 L57.0279,25.0066 C56.9344,25.6048 56.5107,26.097 55.9375,26.2839 C55.788,26.3337 55.626,26.3586 55.4702,26.3586 C55.464,26.3586 55.4515,26.3649 55.4453,26.3649 C55.3269,26.3649 55.2086,26.3462 55.0964,26.3213 C55.0653,26.315 55.0403,26.3088 55.0092,26.2963 C54.9095,26.2652 54.816,26.2278 54.7226,26.1842 C54.6852,26.1717 54.654,26.153 54.6229,26.1343 C54.5107,26.072 54.3986,25.991 54.3051,25.8976 L51.5201,23.1126 L49.3581,20.9506 L35.4829,34.8196 C34.0187,36.2838 31.6449,36.2838 30.1807,34.8196 C28.7166,33.3555 28.7166,30.9817 30.1807,29.5175 L44.056,15.6485 L39.109,10.7015 C38.6791,10.2778 38.5296,9.6423 38.7165,9.0691 C38.7601,8.9507 38.8099,8.8448 38.8785,8.7451 C38.9346,8.6516 38.9969,8.5706 39.0716,8.4896 C39.3146,8.228 39.6261,8.0348 39.9937,7.9787 L58.0559,5.119 C58.5668,5.038 59.0777,5.1999 59.4453,5.5675 Z M55.9624,30.3524 C56.2802,30.3524 56.6976,30.3275 56.9718,30.3337 L57.545,30.234 L57.545,50.9316 C57.545,54.6139 53.8067,57.0811 50.1183,57.0811 L10.3554,57.0811 C6.6732,57.0811 4.0875,54.6139 4.0875,50.9316 L4.0875,16.8011 C4.0875,13.1189 6.6732,9.7295 10.3554,9.7295 L36.8598,9.7295 L36.8598,15.7731 L10.3554,15.7731 C10.0189,15.7731 10.1311,16.4646 10.1311,16.8011 L10.1311,50.9316 C10.1311,51.2681 10.0189,51.0376 10.3554,51.0376 L50.1245,51.0376 C50.4547,51.0376 51.4391,51.2681 51.4391,50.9316 L51.4391,30.3524 L55.9624,30.3524 Z"></path>
  </g>
</svg>