<?xml version="1.0" encoding="utf-8"?>
<svg width="64px" height="64px" viewBox="0 0 64 64" version="1.1" xmlns="http://www.w3.org/2000/svg" xmlns:xlink="http://www.w3.org/1999/xlink">
  <g fill-rule="evenodd">
    <path d="M26.8438,46.1086 C23.126,41.0016 21.6238,36.2108 22.401,31.8405 C23.4189,26.0637 28.2706,20.7712 37.22,15.6585 L38.2292,15.0785 L33.6269,7.1876 C33.5748,7.1169 33.5659,7.0233 33.6037,6.944 C33.6381,6.9031 33.6896,6.8806 33.7429,6.8831 L33.8038,6.8831 L33.8705,6.9005 L54.5388,10.221 C54.6424,10.2703 54.7072,10.376 54.7041,10.4907 L47.254,29.7874 L47.2366,29.8599 C47.2289,29.902 47.2036,29.939 47.167,29.9614 C47.1422,29.976 47.1145,29.9849 47.0858,29.9875 C46.9911,29.9769 46.9076,29.9205 46.8625,29.8367 L42.3327,22.0849 L41.3467,22.6475 C34.1228,26.7655 29.7467,30.6051 27.6036,34.7318 C25.7882,38.2089 25.533,41.9557 26.8438,46.1086 L26.8438,46.1086 Z M12.0741,60.3855 C7.4892,60.3855 3.7598,56.3255 3.7598,51.3462 L3.7598,12.8835 C3.7598,7.9013 7.4892,3.8471 12.0741,3.8471 L20.4,3.8471 L20.4,7.1937 L12.0741,7.1937 C9.3017,7.1937 7.06,9.6094 7.06,12.5703 L7.06,51.6507 C7.06,54.6232 9.3162,57.0389 12.0886,57.0389 L52.1087,57.0389 C54.8811,57.0389 57.1373,54.6203 57.1373,51.6507 L57.1373,27.8881 L60.4201,27.8881 L60.4201,51.3491 C60.4201,56.3313 56.6907,60.3855 52.1058,60.3855 L12.0741,60.3855 Z"></path>
  </g>
</svg>