<?xml version="1.0" encoding="utf-8"?>
<svg width="64px" height="64px" viewBox="0 0 64 64" version="1.1" xmlns="http://www.w3.org/2000/svg" xmlns:xlink="http://www.w3.org/1999/xlink">
  <g fill-rule="evenodd">
    <path d="M21.3667,47.9501 C21.3667,46.8867 22.0756,46.1778 23.1389,46.1778 C24.2023,46.1778 24.9111,46.8867 24.9111,47.9501 L24.9111,55.039 C24.9111,56.1023 25.62,56.8112 26.6834,56.8112 L55.039,56.8112 C56.1023,56.8112 56.8112,56.1023 56.8112,55.039 L56.8112,8.9611 C56.8112,7.8978 56.1023,7.1889 55.039,7.1889 L26.6834,7.1889 C25.62,7.1889 24.9111,7.8978 24.9111,8.9611 L24.9111,12.5056 C24.9111,13.5689 24.2023,14.2778 23.1389,14.2778 C22.0756,14.2778 21.3667,13.5689 21.3667,12.5056 L21.3667,7.1889 C21.3667,5.0622 22.7845,3.64445269 24.9111,3.64445269 L56.8112,3.64445269 C58.9379,3.64445269 60.3556,5.0622 60.3556,7.1889 L60.3556,56.8112 C60.3556,58.9379 58.9379,60.3556 56.8112,60.3556 L24.9111,60.3556 C22.7845,60.3556 21.3667,58.9379 21.3667,56.8112 L21.3667,47.9501 Z M4.3533,28.81 L14.9867,18.1767 C15.6956,17.4678 16.7589,17.4678 17.4678,18.1767 C18.1767,18.8856 18.1767,19.9489 17.4678,20.6578 L9.67,28.4556 L33.7723,28.4556 C34.8356,28.4556 35.5445,29.1645 35.5445,30.2278 C35.5445,31.2912 34.8356,32 33.7723,32 L10.0245,32 L17.4678,39.4434 C18.1767,40.1523 18.1767,41.2156 17.4678,41.9245 C16.7589,42.6334 15.6956,42.6334 14.9867,41.9245 L4.3533,31.6456 C3.9989,31.2912 3.64445269,30.9367 3.64445269,30.2278 C3.64445269,29.8734 3.64445269,29.1645 4.3533,28.81 Z" fill-rule="nonzero"></path>
  </g>
</svg>