<?xml version="1.0" encoding="utf-8"?>
<svg width="64px" height="64px" viewBox="0 0 64 64" version="1.1" xmlns="http://www.w3.org/2000/svg" xmlns:xlink="http://www.w3.org/1999/xlink">
  <g fill-rule="evenodd">
    <path d="M36.3496,6.0289 L64,6.0289 L64,12.2425 L36.3496,12.2425 L36.3496,6.0289 Z M36.3496,23.4269 L36.3496,17.2134 L58.4078,17.2134 L58.4078,23.4269 L36.3496,23.4269 Z M36.3496,34.6113 L36.3496,28.3977 L52.8155,28.3977 L52.8155,34.6113 L36.3496,34.6113 Z M36.3496,45.7959 L36.3496,39.5824 L47.2234,39.5824 L47.2234,45.7959 L36.3496,45.7959 Z M36.3496,56.9804 L36.3496,50.7669 L41.631,50.7669 L41.631,56.9804 L36.3496,56.9804 Z M15.5335,56.9803 L15.5334,56.9804 L-9.0594e-14,36.2737 L10.1276,36.2737 L10.1276,6 L20.9407,6 L20.9407,36.2735 L31.068,36.2735 L15.5335,56.9803 Z" fill-rule="nonzero"></path>
  </g>
</svg>