<?xml version="1.0" encoding="utf-8"?>
<svg width="64px" height="64px" viewBox="0 0 64 64" version="1.1" xmlns="http://www.w3.org/2000/svg" xmlns:xlink="http://www.w3.org/1999/xlink">
  <g fill-rule="evenodd">
    <path d="M20.5182,17.8563 C19.8026,17.8563 19.6159,17.4208 20.0826,16.8607 L31.6875,3.45135719 C31.9053,3.20245909 32.2164,3.0469 32.5586,3.0469 C32.9009,3.0469 33.212,3.20245909 33.4298,3.45135719 L45.3458,16.8607 C45.8124,17.4208 45.6258,17.8563 44.9102,17.8563 L37.3499,17.8563 L37.3499,41.595 L27.7051,41.595 L27.7051,17.8563 L20.5182,17.8563 Z M61.3997,46.573 L61.3997,46.3863 L61.3997,59.6712 C61.3997,60.3868 60.8086,60.9779 60.093,60.9779 L4.8998,60.9779 C4.1842,60.9779 3.5931,60.3868 3.5931,59.6712 L3.5931,46.4796 L4.1842,45.2974 L12.6779,28.4034 C13.0512,27.7189 13.7668,27.2834 14.5757,27.2522 L21.4204,27.2522 C22.1049,27.2522 22.696,27.8123 22.7271,28.5278 L22.7271,30.7679 C22.7271,31.4835 22.136,32.0746 21.4204,32.0746 L19.3048,32.0746 C18.4959,32.1369 17.7803,32.6347 17.407,33.3502 L11.1534,45.484 C11.06,45.7018 11.06,45.9818 11.2156,46.1996 C11.3712,46.4174 11.6201,46.5418 11.869,46.5418 L21.6071,46.5418 C22.3227,46.5418 22.9138,47.133 22.9138,47.8486 L22.9138,54.8799 C22.9138,55.5955 23.505,56.1866 24.2205,56.1866 L40.71,56.1866 C41.4256,56.1866 42.0168,55.5955 42.0168,54.8799 L42.0168,48.0041 C42.0168,47.2885 42.6079,46.6974 43.3235,46.6974 L52.8438,46.6974 C53.1238,46.7596 53.435,46.6041 53.5905,46.3552 C53.7461,46.1063 53.7461,45.764 53.5594,45.5151 L47.5858,33.4125 C47.2125,32.6969 46.4969,32.2613 45.688,32.2302 L43.4479,32.2302 C42.7323,32.2302 42.1412,31.6391 42.1412,30.9235 L42.1412,28.6834 C42.1412,27.9678 42.7323,27.3767 43.4479,27.3767 L50.4482,27.3767 C51.226,27.3767 51.9727,27.8434 52.346,28.5278 L60.8086,45.4218 L61.3997,46.573 Z" fill-rule="nonzero"></path>
  </g>
</svg>