<?xml version="1.0" encoding="utf-8"?>
<svg width="64px" height="64px" viewBox="0 0 64 64" version="1.1" xmlns="http://www.w3.org/2000/svg" xmlns:xlink="http://www.w3.org/1999/xlink">
  <g fill-rule="evenodd">
    <path d="M64,52.7747 C64,57.7226 60.0932,61.7333 55.2732,61.7333 L8.7268,61.7333 C3.9068,61.7333 0,57.7226 0,52.7747 L0,10.9586 C0,6.0107 3.9068,2 8.7268,2 L55.2732,2 C60.0932,2 64,6.0107 64,10.9586 L64,52.7747 Z M24.999,22.9218 C24.999,22.9218 21.8458,19.6416 17.5645,22.3223 C13.7363,24.8812 14.4136,29.5627 14.4136,29.5627 C14.4136,29.5627 5.9088,31.3521 5.9088,40.7357 C6.0984,50.1032 15.1442,50.1997 15.1442,50.1997 L28.7255,50.2158 L28.7255,40.1844 L22.2111,40.1844 L31.9804,30.1554 L41.7474,40.1844 L35.2353,40.1844 L35.2353,50.2158 L48.4214,50.1997 C48.4214,50.1997 56.8383,50.2066 58.022,41.2939 C58.586,31.5451 49.8847,29.6247 49.8847,29.6247 C49.8847,29.6247 50.8742,15.1944 38.6567,13.5498 C28.1846,12.392 24.9968,22.9218 24.9968,22.9218 L24.999,22.9218 Z" fill-rule="nonzero"></path>
  </g>
</svg>