<?xml version="1.0" encoding="utf-8"?>
<svg width="64px" height="64px" viewBox="0 0 64 64" version="1.1" xmlns="http://www.w3.org/2000/svg" xmlns:xlink="http://www.w3.org/1999/xlink">
  <g fill-rule="evenodd">
    <path d="M9.8319,37.0702 L9.8319,22.3854 L17.0112,22.3854 L17.0112,51.7551 L9.8319,51.7551 L9.8319,37.0703 L9.8319,37.0702 Z M23.5377,29.891 L23.5377,8.0269 L30.717,8.0269 L30.717,51.755 L23.5377,51.755 L23.5377,29.891 Z M37.8962,41.6388 L37.8962,31.5226 L45.0754,31.5226 L45.0754,51.755 L37.8962,51.755 L37.8962,41.6388 L37.8962,41.6388 Z M50.2967,37.0702 L50.2967,22.3854 L57.4759,22.3854 L57.4759,51.7551 L50.2967,51.7551 L50.2967,37.0703 L50.2967,37.0702 Z M5.7115,59.6732 L2,59.6732 L2,4 L5.7115,4 L5.7115,56.0433 L61.3848,56.0433 L61.3848,59.6732 L5.7115,59.6732 L5.7115,59.6732 Z" fill-rule="nonzero"></path>
  </g>
</svg>