<?xml version="1.0" encoding="utf-8"?>
<svg width="64px" height="64px" viewBox="0 0 64 64" version="1.1" xmlns="http://www.w3.org/2000/svg" xmlns:xlink="http://www.w3.org/1999/xlink">
  <g fill-rule="evenodd">
    <path d="M55.2013,25.7868 C56.0142,25.7868 56.4336,26.3027 56.4336,26.9967 L56.4336,51.2034 C56.4336,51.8938 56.0142,52.4134 55.2013,52.4134 L49.0105,52.4134 C48.1976,52.4134 47.7782,51.8938 47.7782,51.2034 L47.7782,26.9967 C47.7782,26.3027 48.1976,25.7868 49.0105,25.7868 L55.2013,25.7868 Z M42.827,33.0466 C43.6436,33.0466 44.0667,33.7592 44.0667,34.2565 L44.0667,51.2035 C44.0467,51.8748 43.4987,52.4097 42.827,52.4134 L36.6436,52.4134 C35.972,52.4097 35.4239,51.8748 35.404,51.2035 L35.404,34.2565 C35.404,33.7592 35.8271,33.0466 36.6436,33.0466 L42.827,33.0466 Z M30.4527,28.2067 C31.2693,28.2067 31.6924,28.808 31.6924,29.4167 L31.6924,51.2034 C31.7118,51.8529 31.201,52.3952 30.5515,52.4146 C30.5186,52.4156 30.4856,52.4152 30.4527,52.4134 L24.2693,52.4134 C23.6205,52.4485 23.066,51.951 23.0309,51.3022 C23.0291,51.2693 23.0287,51.2364 23.0297,51.2034 L23.0297,29.4167 C23.0297,28.808 23.4528,28.2067 24.2693,28.2067 L30.4527,28.2067 Z M53.2713,14.3478 L39.8652,27.4235 C39.7685,27.6238 39.6379,27.8059 39.4792,27.9617 C38.6727,28.7333 37.4018,28.7333 36.5953,27.9617 L26.1325,17.8403 L14.4485,29.1457 C13.6441,29.9187 12.3729,29.9187 11.5684,29.1457 C10.7987,28.4083 10.7725,27.1866 11.5098,26.4169 C11.5289,26.3969 11.5485,26.3774 11.5684,26.3583 L24.8186,13.5349 C25.624,12.7572 26.9008,12.7572 27.7062,13.5349 C27.9066,13.7278 28.0624,13.9622 28.1627,14.2216 L37.9501,23.6935 L50.4914,11.6606 L46.5386,7.6299 L58.9129,6.4199 L57.6732,18.5233 L53.2713,14.3478 L53.2713,14.3478 Z M18.0858,36.6764 C18.8987,36.6764 19.3181,37.467 19.3181,37.8864 L19.3181,51.2034 C19.3181,51.6228 18.8987,52.4134 18.0858,52.4134 L11.895,52.4134 C11.0821,52.4134 10.6627,51.6228 10.6627,51.2034 L10.6627,37.8864 C10.6627,37.467 11.0821,36.6764 11.895,36.6764 L18.0858,36.6764 Z M5.7115,59.6732 L2,59.6732 L2,4 L5.7115,4 L5.7115,56.0433 L61.3848,56.0433 L61.3848,59.6732 L5.7115,59.6732 L5.7115,59.6732 Z" fill-rule="nonzero"></path>
  </g>
</svg>