<?xml version="1.0" encoding="utf-8"?>
<svg width="64px" height="64px" viewBox="0 0 64 64" version="1.1" xmlns="http://www.w3.org/2000/svg" xmlns:xlink="http://www.w3.org/1999/xlink">
  <g fill-rule="evenodd">
    <path d="M5.7115,59.6732 L2,59.6732 L2,4 L5.7115,4 L5.7115,56.0433 L61.3848,56.0433 L61.3848,59.6732 L5.7115,59.6732 L5.7115,59.6732 Z M39.4854,5.3161 C40.6861,5.3161 41.6671,6.2462 41.6671,7.5061 L41.6671,11.7933 C41.6586,12.9941 40.6861,13.9665 39.4854,13.9834 L13.5423,13.9834 C12.9589,13.9919 12.4008,13.7636 11.9949,13.3492 C11.5806,12.9349 11.3607,12.3768 11.3691,11.7933 L11.3691,7.5061 C11.3691,6.2969 12.3754,5.3161 13.5423,5.3161 L39.4854,5.3161 Z M56.8118,18.3045 C58.0126,18.3045 58.985,19.2347 58.985,20.4945 L58.985,24.7818 C58.985,25.991 57.9871,26.9719 56.8118,26.9719 L13.5255,26.9719 C12.942,26.9804 12.3924,26.7436 11.978,26.3377 C11.5721,25.9234 11.3438,25.3652 11.3607,24.7903 L11.3607,20.5031 C11.3607,19.2938 12.3586,18.3129 13.5255,18.3129 L56.8118,18.3129 L56.8118,18.3045 Z M30.8518,31.293 C32.0441,31.293 33.0081,32.2231 33.0081,33.4831 L33.0081,37.7703 C33.0166,38.3454 32.7967,38.9034 32.3908,39.3178 C31.985,39.7321 31.4268,39.9604 30.8518,39.9604 L13.517,39.9604 C12.942,39.9689 12.3839,39.7321 11.978,39.3262 C11.5741,38.9134 11.3519,38.3562 11.3607,37.7787 L11.3607,33.4916 C11.3607,32.2823 12.2909,31.3015 13.517,31.3015 L30.8518,31.3015 L30.8518,31.293 Z M43.8318,44.2814 C45.0241,44.2814 45.9966,45.2116 45.9966,46.4715 L45.9966,50.7587 C45.9966,51.968 44.9987,52.9488 43.8318,52.9488 L13.5255,52.9488 C12.942,52.9573 12.3924,52.729 11.978,52.3146 C11.5721,51.9003 11.3438,51.3422 11.3607,50.7672 L11.3607,46.48 C11.3607,45.2707 12.3586,44.2899 13.5255,44.2899 L43.8318,44.2899 L43.8318,44.2814 Z" fill-rule="nonzero"></path>
  </g>
</svg>