<?xml version="1.0" encoding="utf-8"?>
<svg width="64px" height="64px" viewBox="0 0 64 64" version="1.1" xmlns="http://www.w3.org/2000/svg" xmlns:xlink="http://www.w3.org/1999/xlink">
  <g fill-rule="evenodd">
    <path d="M5.7115,59.6732 L2,59.6732 L2,4 L5.7115,4 L5.7115,56.0433 L61.3848,56.0433 L61.3848,59.6732 L5.7115,59.6732 L5.7115,59.6732 Z M58.2194,51.5438 C57.7053,51.5017 57.1916,51.4234 56.6779,51.4231 C41.799,51.4165 26.92,51.4178 12.0411,51.4178 C11.5744,51.4178 11.1082,51.4178 10.4613,51.4178 C10.6681,51.1075 10.7316,50.9636 10.8339,50.8655 C14.2777,47.5644 17.7111,44.2511 21.195,40.9984 C21.5151,40.6998 22.2193,40.5943 22.6441,40.7372 C25.4219,41.6712 28.183,42.6653 30.9236,43.7161 C31.6938,44.0113 32.1324,43.8618 32.6621,43.2191 C35.8484,39.3515 39.0942,35.539 42.2789,31.67 C42.8102,31.0248 43.2032,30.8815 43.9784,31.2411 C48.2953,33.2443 52.6419,35.176 56.9833,37.1196 C57.3775,37.296 57.8068,37.3839 58.2194,37.5128 C58.2194,42.1898 58.2194,46.8666 58.2194,51.5438 Z M10.7041,41.075 C10.7041,35.6312 10.7041,30.4082 10.7041,25.036 C11.1495,25.0129 11.5697,24.9732 11.9899,24.9725 C15.4331,24.9674 18.8769,25.0072 22.3188,24.9333 C22.9057,24.9207 23.6406,24.5873 24.0395,24.1357 C26.2026,21.6868 28.3123,19.1827 30.3712,16.6342 C31.0119,15.8408 31.6771,15.5752 32.6388,15.593 C35.9208,15.6536 39.2048,15.6424 42.4871,15.5939 C43.1357,15.5844 43.8358,15.4066 44.4186,15.1038 C48.4409,13.0147 52.4379,10.8704 56.4448,8.7487 C56.8271,8.5464 57.2241,8.3766 57.7021,8.1501 C57.7021,15.8682 57.7021,23.4608 57.7021,31.2795 C52.5992,28.7379 47.5922,26.2442 42.5419,23.7288 C38.8866,28.1426 35.247,32.4941 31.6674,36.9006 C31.0223,37.6951 30.5002,37.9094 29.5551,37.5065 C27.1828,36.4953 24.7498,35.6445 22.3678,34.6569 C21.6216,34.3476 21.0585,34.3878 20.3737,34.8453 C17.5984,36.7004 14.7847,38.4909 11.9832,40.3014 C11.6157,40.5387 11.2366,40.7538 10.7041,41.075 Z" fill-rule="nonzero"></path>
  </g>
</svg>