<?xml version="1.0" encoding="utf-8"?>
<svg width="64px" height="64px" viewBox="0 0 64 64" version="1.1" xmlns="http://www.w3.org/2000/svg" xmlns:xlink="http://www.w3.org/1999/xlink">
  <g fill-rule="evenodd">
    <path d="M55.028,28.9846 L55.0281,28.9846 C56.0719,28.4047 57.3476,28.9846 57.5796,30.1443 C57.8115,31.5361 57.9275,32.9278 57.9275,34.3195 C57.9275,49.3964 44.9381,61.342 29.5132,59.7184 C17.6836,58.4426 8.2895,48.9325 7.0138,37.2189 C5.6221,24.3456 13.9724,13.0958 25.57,9.8485 C26.6138,9.5006 27.7736,10.4284 27.7736,11.5881 L27.7736,40.0024 C27.7736,41.7421 29.6292,42.9018 31.2529,42.09 L55.028,28.9846 Z M34.3842,34.3196 L34.3842,34.3196 C33.4564,34.7835 32.4126,34.2036 32.4126,33.1598 L32.4126,6.9491 C32.4126,5.3254 33.9203,4.0497 35.544,4.3976 C44.8221,5.9053 52.9404,11.1243 58.1594,18.3148 C59.0872,19.5906 58.6233,21.4462 57.2316,22.142 L34.3842,34.3196 Z" fill-rule="nonzero"></path>
  </g>
</svg>