<?xml version="1.0" encoding="utf-8"?>
<svg width="64px" height="64px" viewBox="0 0 64 64" version="1.1" xmlns="http://www.w3.org/2000/svg" xmlns:xlink="http://www.w3.org/1999/xlink">
  <g fill-rule="evenodd">
    <path d="M29.2129,8.7493 L29.2129,35.1167 L47.7162,53.2048 C42.9809,57.9818 36.4173,60.9434 29.155,60.9434 C14.7303,60.9434 3.02574632,49.2581 3.02574632,34.8463 C3.02574632,20.4345 14.7304,8.7493 29.1743,8.7493 L29.2129,8.7493 Z M53.1564,13.1401 C58.1943,18.0813 60.9691,24.674 60.9659,31.7013 C60.9659,38.8219 58.1363,45.4693 52.9858,50.4202 L51.8463,51.5147 L32.1745,31.7174 L52.0265,12.0327 L53.1564,13.1401 Z M51.8623,46.9661 C55.6738,42.7717 57.7565,37.4119 57.7565,31.7013 C57.7565,26.0744 55.7252,20.7661 52.004,16.5877 L36.7263,31.7335 L51.8623,46.9661 Z M33.636,3 C40.322,3 46.3771,5.704 50.7614,10.082 L33.636,27.1914 L33.636,3 Z" fill-rule="nonzero"></path>
  </g>
</svg>