<?xml version="1.0" encoding="utf-8"?>
<svg width="64px" height="64px" viewBox="0 0 64 64" version="1.1" xmlns="http://www.w3.org/2000/svg" xmlns:xlink="http://www.w3.org/1999/xlink">
  <g fill-rule="evenodd">
    <path d="M32,3 C48.0168,3 61.0001,15.9833 61.0001,32 L46.5001,32 C46.5001,23.9931 40.0069,17.5 32,17.5 L32,3 Z M14.6,32 L14.6,32 C14.6,23.3812 20.8727,16.2443 29.1,14.861 L29.1,17.7929 C22.4822,19.1356 17.5,24.9849 17.5,32 C17.5,40.0069 23.9931,46.5001 32,46.5001 C39.0151,46.5001 44.8644,41.5178 46.2072,34.9 L49.1391,34.9 C47.7558,43.1273 40.6188,49.4001 32,49.4001 C22.3894,49.4001 14.6,41.6107 14.6,32 Z M57.929,34.9 L57.929,34.9 L60.8551,34.9 C59.3993,49.5538 47.0366,61.0001 32,61.0001 C15.9833,61.0001 3,48.0168 3,32 C3,16.9635 14.4463,4.6008 29.1,3.145 L29.1,6.0711 C16.0529,7.5153 5.9,18.5672 5.9,32 C5.9,46.4159 17.5841,58.1001 32,58.1001 C45.4328,58.1001 56.4848,47.9472 57.929,34.9 Z" fill-rule="nonzero"></path>
  </g>
</svg>