<?xml version="1.0" encoding="utf-8"?>
<svg width="64px" height="64px" viewBox="0 0 64 64" version="1.1" xmlns="http://www.w3.org/2000/svg" xmlns:xlink="http://www.w3.org/1999/xlink">
  <g fill-rule="evenodd">
    <path d="M32,3 C47.95,3 61,16.05 61,32 L46.5,32 C46.5,24.025 39.975,17.5 32,17.5 L32,3 Z M46.0167,35.625 L60.7583,35.625 C59.0667,49.8833 46.7417,61 32,61 C16.05,61 3,47.95 3,32 C3,17.2583 14.1167,4.9333 28.375,3.24166667 L28.375,17.9833 C22.0917,19.675 17.5,25.2333 17.5,32 C17.5,39.975 24.025,46.5 32,46.5 C38.7667,46.5 44.325,41.9083 46.0167,35.625 Z"></path>
  </g>
</svg>