<?xml version="1.0" encoding="utf-8"?>
<svg width="64px" height="64px" viewBox="0 0 64 64" version="1.1" xmlns="http://www.w3.org/2000/svg" xmlns:xlink="http://www.w3.org/1999/xlink">
  <g fill-rule="evenodd">
    <path d="M10.9286,47.0893 L21.5357,37.0715 C22.3215,37.6608 23.1072,37.8572 23.6965,38.0536 L23.3036,52.0001 C18.7857,52.1965 14.2679,50.6251 10.9286,47.0893 Z M25.4643,24.6965 C23.8929,24.6965 22.5179,25.2857 21.1429,26.0715 L16.625,18.4107 C19.1786,16.0536 21.5357,15.0714 25.0715,15.0714 L25.4643,24.6965 Z M32.5358,31.5715 C32.5358,28.2322 29.9822,25.2857 26.8393,24.8929 L26.8393,4.0714 C41.7679,4.2679 53.7501,16.4464 53.7501,31.5715 L32.5358,31.5715 Z M32.3393,32.9465 L61.8036,32.9465 C61.8036,43.1608 57.6786,52.1965 51.1965,58.6786 L29.5893,37.0715 C30.9643,36.0893 31.9465,34.5179 32.3393,32.9465 Z M25.6607,38.4465 C26.6429,38.4465 27.4286,38.25 28.4107,38.0536 L43.3393,52.9822 C38.4286,57.1072 31.9465,59.8572 25.2679,60.0536 L25.2679,38.4465 L25.6607,38.4465 Z M12.1072,33.1429 L18.7857,32.75 C18.9822,34.125 19.7679,35.1072 20.5536,36.0893 L15.0536,40.4108 C13.2857,38.4465 12.1072,36.0893 12.1072,33.1429 Z M18.7857,31.375 C18.7857,31.375 18.7857,31.5715 18.7857,31.375 L2.2857,29.2143 C3.07143314,23.125 6.2143,18.0179 10.9286,14.4822 L20.5536,27.0536 C19.5715,28.2322 18.7857,29.6072 18.7857,31.375 Z" fill-rule="nonzero"></path>
  </g>
</svg>