<?xml version="1.0" encoding="utf-8"?>
<svg width="64px" height="64px" viewBox="0 0 64 64" version="1.1" xmlns="http://www.w3.org/2000/svg" xmlns:xlink="http://www.w3.org/1999/xlink">
  <g fill-rule="evenodd">
    <path d="M13.6965,39.1977 C13.6965,37.9753 14.1188,36.9419 14.9634,36.0973 C15.8079,35.2527 16.8414,34.8305 18.0638,34.8305 C19.2862,34.8305 20.3308,35.2527 21.1976,36.0973 C22.0643,36.9419 22.4977,37.9753 22.4977,39.1977 C22.4977,40.4201 22.0643,41.4647 21.1976,42.3315 C20.3308,43.1983 19.2862,43.6317 18.0638,43.6317 C16.8414,43.6317 15.8079,43.1983 14.9634,42.3315 C14.1188,41.4647 13.6965,40.4201 13.6965,39.1977 Z M30.9656,36.564 C30.9656,35.0083 31.5212,33.6747 32.6325,32.5635 C33.7437,31.4522 35.0883,30.8966 36.6663,30.8966 C38.2443,30.8966 39.5889,31.4522 40.7002,32.5635 C41.8115,33.6747 42.3671,35.0083 42.3671,36.564 C42.3671,38.1198 41.8115,39.4533 40.7002,40.5646 C39.5889,41.6758 38.2443,42.2315 36.6663,42.2315 C35.0883,42.2315 33.7437,41.6758 32.6325,40.5646 C31.5212,39.4533 30.9656,38.1198 30.9656,36.564 Z M34.366,22.2287 C34.366,21.1175 34.755,20.1729 35.5328,19.395 C36.3107,18.6171 37.2553,18.2282 38.3666,18.2282 C39.4778,18.2282 40.4224,18.6171 41.2003,19.395 C41.9782,20.1729 42.3671,21.1175 42.3671,22.2287 C42.3671,23.34 41.9782,24.2846 41.2003,25.0625 C40.4224,25.8404 39.4778,26.2293 38.3666,26.2293 C37.2553,26.2293 36.3107,25.8403 35.5328,25.0625 C34.755,24.2846 34.366,23.34 34.366,22.2287 Z M50.5015,12.6608 C50.5015,11.8384 50.7905,11.1272 51.3683,10.5272 C51.9462,9.9271 52.6574,9.627 53.502,9.627 C54.3465,9.627 55.0688,9.9271 55.6689,10.5272 C56.269,11.1272 56.569,11.8384 56.569,12.6608 C56.569,13.4831 56.269,14.1943 55.6689,14.7944 C55.0688,15.3945 54.3465,15.6945 53.502,15.6945 C52.6574,15.6945 51.9462,15.3945 51.3683,14.7944 C50.7905,14.1943 50.5015,13.4831 50.5015,12.6608 Z M52.1684,25.4292 C52.1684,24.8069 52.3796,24.2846 52.8019,23.8623 C53.2241,23.44 53.7464,23.2289 54.3687,23.2289 C54.991,23.2289 55.5133,23.44 55.9356,23.8623 C56.3579,24.2846 56.569,24.8069 56.569,25.4292 C56.569,26.0515 56.3579,26.5738 55.9356,26.9961 C55.5133,27.4183 54.991,27.6295 54.3687,27.6295 C53.7464,27.6295 53.2241,27.4183 52.8019,26.9961 C52.3796,26.5738 52.1684,26.0515 52.1684,25.4292 Z M5.7115,59.6732 L2,59.6732 L2,4 L5.7115,4 L5.7115,56.0433 L61.3848,56.0433 L61.3848,59.6732 L5.7115,59.6732 L5.7115,59.6732 Z" fill-rule="nonzero"></path>
  </g>
</svg>