<?xml version="1.0" encoding="utf-8"?>
<svg width="64px" height="64px" viewBox="0 0 64 64" version="1.1" xmlns="http://www.w3.org/2000/svg" xmlns:xlink="http://www.w3.org/1999/xlink">
  <g fill-rule="evenodd">
    <path d="M15.5776,36.0925 C16.6488,36.0925 17.5173,35.2241 17.5173,34.1529 C17.5173,33.0816 16.6488,32.2132 15.5776,32.2132 C14.5064,32.2132 13.6379,33.0816 13.6379,34.1529 C13.6379,35.2241 14.5064,36.0925 15.5776,36.0925 Z M15.5776,39.9718 C12.3639,39.9718 9.7586,37.3666 9.7586,34.1529 C9.7586,30.9392 12.3639,28.3339 15.5776,28.3339 C18.7913,28.3339 21.3966,30.9392 21.3966,34.1529 C21.3966,37.3666 18.7913,39.9718 15.5776,39.9718 Z M38.8535,47.7305 C43.1385,47.7305 46.6121,44.2569 46.6121,39.9718 C46.6121,35.6868 43.1385,32.2132 38.8535,32.2132 C34.5685,32.2132 31.0949,35.6868 31.0949,39.9718 C31.0949,44.2569 34.5685,47.7305 38.8535,47.7305 Z M38.8535,51.6098 C32.4261,51.6098 27.2155,46.3992 27.2155,39.9718 C27.2155,33.5445 32.4261,28.3339 38.8535,28.3339 C45.2808,28.3339 50.4914,33.5445 50.4914,39.9718 C50.4914,46.3992 45.2809,51.6098 38.8535,51.6098 Z M52.4311,16.6959 C54.5734,16.6959 56.3104,14.959 56.3104,12.8166 C56.3104,10.6743 54.5734,8.9373 52.4311,8.9373 C50.2887,8.9373 48.5518,10.6743 48.5518,12.8166 C48.5518,14.959 50.2887,16.6959 52.4311,16.6959 Z M52.4311,20.5753 C48.1461,20.5753 44.6725,17.1017 44.6725,12.8166 C44.6725,8.5316 48.1461,5.058 52.4311,5.058 C56.7161,5.058 60.1897,8.5316 60.1897,12.8166 C60.1897,17.1017 56.7161,20.5753 52.4311,20.5753 Z M27.2155,20.5753 C26.1443,20.5753 25.2759,19.7068 25.2759,18.6356 C25.2759,17.5644 26.1443,16.6959 27.2155,16.6959 C28.2868,16.6959 29.1552,17.5644 29.1552,18.6356 C29.1552,19.7068 28.2868,20.5753 27.2155,20.5753 Z M5.7115,59.6732 L2,59.6732 L2,4 L5.7115,4 L5.7115,56.0433 L61.3848,56.0433 L61.3848,59.6732 L5.7115,59.6732 L5.7115,59.6732 Z" fill-rule="nonzero"></path>
  </g>
</svg>