<?xml version="1.0" encoding="utf-8"?>
<svg width="64px" height="64px" viewBox="0 0 64 64" version="1.1" xmlns="http://www.w3.org/2000/svg" xmlns:xlink="http://www.w3.org/1999/xlink">
  <g fill-rule="evenodd">
    <path d="M35.2052,18.2102 L44.4155,31.3299 L44.4155,43.4282 L49.4298,28.1674 L35.2052,18.2102 Z M35.1295,48.5021 L19.1716,42.262 L21.2517,48.5021 L35.1295,48.5021 Z M15.6941,31.8294 L19.0812,29.1202 L25.5203,20.6103 L14.5702,28.4579 L15.6941,31.8294 Z M44.4155,51.407 L44.4155,52.1333 L42.5582,51.407 L19.2182,51.407 L15.6714,40.8933 L8.0756,37.923 L13.2682,33.7697 L11.0843,27.2959 L31.2926,12.9817 L31.4182,12.8156 L31.4543,12.8671 L32,12.4805 L52.9158,27.2959 L45.0724,51.407 L44.4155,51.407 Z M32,5.5086 L31.9999,5.5086 L3.5313,24.9719 L14.2797,57.217 L49.7202,57.217 L60.4686,24.9719 L32,5.5086 Z M31.9999,2.02267234 L32,2.02267234 L63.9546,23.8099 L51.7537,60.1219 L12.2462,60.1219 L0.0453446809,23.8099 L31.9999,2.02267234 Z" fill-rule="nonzero"></path>
  </g>
</svg>