<?xml version="1.0" encoding="utf-8"?>
<svg width="64px" height="64px" viewBox="0 0 64 64" version="1.1" xmlns="http://www.w3.org/2000/svg" xmlns:xlink="http://www.w3.org/1999/xlink">
  <g fill-rule="evenodd">
    <path d="M32.0909,3.84 L7.4509,17.92 L7.4509,46.0801 L32.0909,60.1601 L56.731,46.0801 L56.731,17.92 L32.0909,3.84 Z M32.0909,-4.26325641e-14 L59.931,16 L59.931,48.0001 L32.0909,64.0001 L4.2509,48.0001 L4.2509,16 L32.0909,-4.26325641e-14 Z M37.7054,15.906 L32.572,13.7671 L17.2909,22.863 L17.2909,39.2572 L22.4351,44.1564 L14.4909,41.28 L12.8909,19.52 L33.0509,9.6 L37.7054,15.906 Z M32.7309,16 L48.091,22.4 L51.291,44.8001 L32.7309,51.2001 L19.2909,38.4 L19.2909,24 L32.7309,16 Z" fill-rule="nonzero"></path>
  </g>
</svg>